<?xml version="1.0" encoding="UTF-8"?>
<!DOCTYPE svg PUBLIC "-//W3C//DTD SVG 1.1//EN" "http://www.w3.org/Graphics/SVG/1.1/DTD/svg11.dtd">
<!-- Creator: CorelDRAW -->
<svg xmlns="http://www.w3.org/2000/svg" xml:space="preserve" width="30.7231mm" height="32.4073mm" style="shape-rendering:geometricPrecision; text-rendering:geometricPrecision; image-rendering:optimizeQuality; fill-rule:evenodd; clip-rule:evenodd"
viewBox="0 0 3.82476 4.03443"
 xmlns:xlink="http://www.w3.org/1999/xlink">
 <defs>
  <style type="text/css">
   <![CDATA[
    .fil27 {fill:#6D6C6A}
    .fil26 {fill:#7A7065}
    .fil0 {fill:#A6DBF2}
    .fil30 {fill:#E87A76}
    .fil23 {fill:#EAE2EA}
    .fil24 {fill:#EAE2EB}
    .fil25 {fill:#EAE2ED}
    .fil21 {fill:#EDE3E8}
    .fil22 {fill:#EDE3EA}
    .fil19 {fill:#EEE3E7}
    .fil20 {fill:#EEE3E9}
    .fil29 {fill:#F19995}
    .fil17 {fill:#F1E4E4}
    .fil18 {fill:#F1E4E5}
    .fil14 {fill:#F3E4E0}
    .fil15 {fill:#F3E4E2}
    .fil16 {fill:#F3E5E4}
    .fil31 {fill:#F4A983}
    .fil11 {fill:#F5E5DD}
    .fil12 {fill:#F5E5DF}
    .fil13 {fill:#F5E5E0}
    .fil9 {fill:#F7E5DC}
    .fil10 {fill:#F7E6DD}
    .fil7 {fill:#F9E6D8}
    .fil8 {fill:#F9E6DA}
    .fil4 {fill:#FAE6D5}
    .fil5 {fill:#FAE6D6}
    .fil6 {fill:#FAE7D8}
    .fil1 {fill:#FCE7D2}
    .fil2 {fill:#FCE7D3}
    .fil3 {fill:#FCE7D5}
    .fil28 {fill:#FEFEFE}
   ]]>
  </style>
 </defs>
 <g id="Layer_x0020_1">
  <metadata id="CorelCorpID_0Corel-Layer"/>
  <g id="_241375248">
   <path id="_244023120" class="fil0" d="M3.26435 3.26438c0.373623,-0.373623 0.56041,-0.82427 0.56041,-1.352 0,-0.528864 -0.186787,-0.980121 -0.56041,-1.35372 -0.372416,-0.372453 -0.8231,-0.558655 -1.35198,-0.558655 -0.528852,0 -0.979548,0.186214 -1.35193,0.558655 -0.373623,0.373586 -0.560448,0.824855 -0.560448,1.35372 0,0.527719 0.186824,0.978378 0.560448,1.352 0.372379,0.373549 0.823075,0.560423 1.35193,0.560423 0.528877,-1.24491e-005 0.97956,-0.186862 1.35198,-0.560423z"/>
   <path id="_244029864" class="fil1" d="M1.26582 3.62341l1.79899 -0.289679c-0.0428001,0.162262 -0.100888,0.290189 -0.174313,0.38372 -0.105058,0.133106 -0.193758,0.218333 -0.266138,0.255693 -0.0817659,0.0408456 -0.213104,0.0612871 -0.394065,0.0612871 -0.277852,0 -0.528316,-0.0700513 -0.751268,-0.210141 -0.081492,-0.0503568 -0.152564,-0.117308 -0.213204,-0.200879z"/>
   <polygon id="_244029888" class="fil1" points="1.25967,3.61483 3.06741,3.32375 3.0648,3.33373 1.26582,3.62341 "/>
   <polygon id="_244030560" class="fil1" points="1.25365,3.60622 3.06996,3.31376 3.06741,3.32375 1.25967,3.61483 "/>
   <polygon id="_244030440" class="fil1" points="1.24778,3.59759 3.07243,3.3038 3.06996,3.31376 1.25365,3.60622 "/>
   <polygon id="_244030032" class="fil1" points="1.24201,3.58894 3.07485,3.29384 3.07243,3.3038 1.24778,3.59759 "/>
   <polygon id="_244030392" class="fil1" points="1.2364,3.58028 3.07721,3.28387 3.07485,3.29384 1.24201,3.58894 "/>
   <polygon id="_244031088" class="fil1" points="1.23088,3.5716 3.07953,3.27394 3.07721,3.28387 1.2364,3.58028 "/>
   <polygon id="_244031016" class="fil1" points="1.22548,3.56288 3.0818,3.264 3.07953,3.27394 1.23088,3.5716 "/>
   <polygon id="_244031664" class="fil1" points="1.22021,3.55417 3.08399,3.25408 3.0818,3.264 1.22548,3.56288 "/>
   <polygon id="_244031424" class="fil1" points="1.21505,3.54543 3.08613,3.24415 3.08399,3.25408 1.22021,3.55417 "/>
   <polygon id="_244031736" class="fil2" points="1.20998,3.53668 3.08823,3.23426 3.08613,3.24415 1.21505,3.54543 "/>
   <polygon id="_244031616" class="fil2" points="1.20503,3.52789 3.09029,3.22434 3.08823,3.23426 1.20998,3.53668 "/>
   <polygon id="_244031832" class="fil2" points="1.20018,3.51911 3.09227,3.21447 3.09029,3.22434 1.20503,3.52789 "/>
   <polygon id="_244032000" class="fil2" points="1.19543,3.5103 3.09423,3.20456 3.09227,3.21447 1.20018,3.51911 "/>
   <polygon id="_244031544" class="fil2" points="1.19077,3.50148 3.09614,3.1947 3.09423,3.20456 1.19543,3.5103 "/>
   <polygon id="_244031568" class="fil2" points="1.18623,3.49264 3.09801,3.18481 3.09614,3.1947 1.19077,3.50148 "/>
   <polygon id="_244031952" class="fil2" points="1.18176,3.48379 3.09982,3.17495 3.09801,3.18481 1.18623,3.49264 "/>
   <polygon id="_244031976" class="fil2" points="1.17738,3.47493 3.1016,3.16509 3.09982,3.17495 1.18176,3.48379 "/>
   <polygon id="_244032096" class="fil2" points="1.17309,3.46604 3.10333,3.15525 3.1016,3.16509 1.17738,3.47493 "/>
   <polygon id="_244032672" class="fil2" points="1.16889,3.45715 3.10501,3.1454 3.10333,3.15525 1.17309,3.46604 "/>
   <polygon id="_244032552" class="fil2" points="1.16477,3.44824 3.10667,3.13555 3.10501,3.1454 1.16889,3.45715 "/>
   <polygon id="_244032720" class="fil2" points="1.16072,3.43931 3.10829,3.12573 3.10667,3.13555 1.16477,3.44824 "/>
   <polygon id="_244032312" class="fil3" points="1.15675,3.43037 3.10987,3.11591 3.10829,3.12573 1.16072,3.43931 "/>
   <polygon id="_244032768" class="fil3" points="1.15288,3.42143 3.1114,3.10608 3.10987,3.11591 1.15675,3.43037 "/>
   <polygon id="_244032216" class="fil3" points="1.14908,3.41247 3.11291,3.09627 3.1114,3.10608 1.15288,3.42143 "/>
   <polygon id="_244032288" class="fil3" points="1.14536,3.40351 3.11436,3.08646 3.11291,3.09627 1.14908,3.41247 "/>
   <polygon id="_244032840" class="fil4" points="1.1417,3.39451 3.11579,3.07665 3.11436,3.08646 1.14536,3.40351 "/>
   <polygon id="_244032480" class="fil4" points="1.13812,3.38552 3.11719,3.06686 3.11579,3.07665 1.1417,3.39451 "/>
   <polygon id="_244032384" class="fil4" points="1.1346,3.37652 3.11855,3.05707 3.11719,3.06686 1.13812,3.38552 "/>
   <polygon id="_244032528" class="fil4" points="1.13115,3.36749 3.11987,3.04729 3.11855,3.05707 1.1346,3.37652 "/>
   <polygon id="_244033344" class="fil5" points="1.12778,3.35847 3.12117,3.0375 3.11987,3.04729 1.13115,3.36749 "/>
   <polygon id="_244033224" class="fil5" points="1.12447,3.34943 3.12242,3.02773 3.12117,3.0375 1.12778,3.35847 "/>
   <polygon id="_244033560" class="fil5" points="1.12123,3.34038 3.12365,3.01797 3.12242,3.02773 1.12447,3.34943 "/>
   <polygon id="_244033464" class="fil5" points="1.11804,3.33133 3.12486,3.00821 3.12365,3.01797 1.12123,3.34038 "/>
   <polygon id="_244033512" class="fil5" points="1.11492,3.32225 3.12602,2.99844 3.12486,3.00821 1.11804,3.33133 "/>
   <polygon id="_244033008" class="fil5" points="1.11186,3.31318 3.12711,2.9887 3.12694,2.99067 3.12602,2.99844 1.11492,3.32225 "/>
   <polygon id="_244033608" class="fil5" points="1.10887,3.30408 3.12795,2.97898 3.12711,2.9887 1.11186,3.31318 "/>
   <polygon id="_244032936" class="fil5" points="1.10593,3.29499 3.12878,2.96928 3.12795,2.97898 1.10887,3.30408 1.10774,3.30065 "/>
   <polygon id="_244033296" class="fil5" points="1.10304,3.28587 3.12961,2.95957 3.12878,2.96928 1.10593,3.29499 "/>
   <polygon id="_244033440" class="fil5" points="1.1002,3.27676 3.13046,2.94986 3.12961,2.95957 1.10304,3.28587 "/>
   <polygon id="_244033824" class="fil5" points="1.09742,3.26764 3.13129,2.94015 3.13046,2.94986 1.1002,3.27676 "/>
   <polygon id="_244034280" class="fil5" points="1.09469,3.25851 3.13215,2.93045 3.13129,2.94015 1.09742,3.26764 "/>
   <polygon id="_244034304" class="fil6" points="1.092,3.24936 3.13301,2.92073 3.13215,2.93045 1.09469,3.25851 "/>
   <polygon id="_244033944" class="fil6" points="1.08937,3.24022 3.13386,2.91103 3.13301,2.92073 1.092,3.24936 "/>
   <polygon id="_244033704" class="fil6" points="1.0868,3.23106 3.13473,2.90132 3.13386,2.91103 1.08937,3.24022 "/>
   <polygon id="_244033776" class="fil6" points="1.08426,3.2219 3.13559,2.89161 3.13473,2.90132 1.0868,3.23106 "/>
   <polygon id="_244034136" class="fil7" points="1.08178,3.21274 3.13646,2.88189 3.13559,2.89161 1.08426,3.2219 "/>
   <polygon id="_244034376" class="fil7" points="1.07934,3.20355 3.13733,2.87218 3.13646,2.88189 1.08178,3.21274 "/>
   <polygon id="_244034400" class="fil7" points="1.07694,3.19437 3.13822,2.86245 3.13733,2.87218 1.07934,3.20355 "/>
   <polygon id="_244033896" class="fil7" points="1.07458,3.18516 3.1391,2.85274 3.13822,2.86245 1.07694,3.19437 "/>
   <polygon id="_244034064" class="fil7" points="1.07229,3.17596 3.13998,2.84303 3.1391,2.85274 1.07458,3.18516 "/>
   <polygon id="_244034952" class="fil7" points="1.07003,3.16675 3.14088,2.83332 3.13998,2.84303 1.07229,3.17596 "/>
   <polygon id="_244035000" class="fil7" points="1.06781,3.15755 3.14178,2.8236 3.14088,2.83332 1.07003,3.16675 "/>
   <polygon id="_244034448" class="fil7" points="1.06563,3.14832 3.14268,2.81389 3.14178,2.8236 1.06781,3.15755 "/>
   <polygon id="_244034808" class="fil8" points="1.0635,3.13909 3.14359,2.80417 3.14268,2.81389 1.06563,3.14832 "/>
   <polygon id="_244034856" class="fil8" points="1.06141,3.12986 3.1445,2.79445 3.14359,2.80417 1.0635,3.13909 "/>
   <polygon id="_244035096" class="fil8" points="1.05937,3.12061 3.14544,2.78472 3.1445,2.79445 1.06141,3.12986 "/>
   <polygon id="_244034712" class="fil8" points="1.05734,3.11136 3.14636,2.77501 3.14544,2.78472 1.05937,3.12061 "/>
   <polygon id="_244035072" class="fil8" points="1.05538,3.10211 3.1473,2.76529 3.14636,2.77501 1.05734,3.11136 "/>
   <polygon id="_244034976" class="fil8" points="1.05345,3.09285 3.14824,2.75557 3.1473,2.76529 1.05538,3.10211 "/>
   <polygon id="_244034592" class="fil8" points="1.05155,3.08359 3.14918,2.74584 3.14824,2.75557 1.05345,3.09285 "/>
   <polygon id="_244034760" class="fil8" points="1.0497,3.07431 3.15008,2.73612 3.14973,2.74027 3.14918,2.74584 1.05155,3.08359 "/>
   <polygon id="_244035528" class="fil8" points="1.04789,3.06503 3.15093,2.72642 3.15008,2.73612 1.0497,3.07431 "/>
   <polygon id="_244035336" class="fil8" points="1.0461,3.05574 3.15174,2.7167 3.15093,2.72642 1.04789,3.06503 "/>
   <polygon id="_244035816" class="fil8" points="1.04436,3.04645 3.15258,2.70701 3.15174,2.7167 1.0461,3.05574 "/>
   <polygon id="_244035672" class="fil8" points="1.04265,3.03715 3.15339,2.6973 3.15258,2.70701 1.04436,3.04645 "/>
   <path id="_244035696" class="fil8" d="M1.00064 3.03435l2.15359 -0.346746 -0.000834092 0.00969788 -2.11074 0.339849 -0.00143165 -0.007955c-0.0122375,0.00303759 -0.0257324,0.00475557 -0.0405842,0.00515394z"/>
   <path id="_244035576" class="fil9" d="M0.958621 3.03155l2.19643 -0.353668 -0.000821643 0.00972278 -2.15359 0.346746c-0.0022035,6.22457e-005 -0.00443189,8.7144e-005 -0.00671008,8.7144e-005 -0.011254,0 -0.0230185,-0.000958584 -0.0353058,-0.0028882z"/>
   <path id="_244035552" class="fil9" d="M0.932565 3.02617l2.22329 -0.357975 -0.000809194 0.00968543 -2.19643 0.353668c-0.00844051,-0.00133206 -0.01713,-0.00313718 -0.026056,-0.00537803z"/>
   <path id="_244035240" class="fil9" d="M0.91109 3.02005l2.24558 -0.36156 -0.000809194 0.00971033 -2.22329 0.357975c-0.00700886,-0.00176778 -0.0141671,-0.00380944 -0.0214748,-0.00612498z"/>
   <path id="_244035264" class="fil9" d="M0.89218 3.01354l2.26529 -0.364747 -0.000809194 0.00969788 -2.24558 0.36156c-0.00618722,-0.00196696 -0.0124989,-0.00414556 -0.0189102,-0.0065109z"/>
   <path id="_244035480" class="fil9" d="M0.874888 3.00674l2.28341 -0.36766 -0.000821643 0.00971033 -2.26529 0.364747c-0.00568926,-0.0021039 -0.0114408,-0.00436965 -0.0172919,-0.00679723z"/>
   <path id="_244036344" class="fil9" d="M0.858741 2.99977l2.30035 -0.370387 -0.000796745 0.00969788 -2.28341 0.36766c-0.00531578,-0.0022035 -0.0106938,-0.00450659 -0.0161465,-0.00697152z"/>
   <path id="_244036416" class="fil9" d="M0.843529 2.99265l2.31635 -0.372964 -0.000784296 0.00969788 -2.30035 0.370387c-0.005017,-0.00226574 -0.0100838,-0.00463108 -0.0152128,-0.00712091z"/>
   <path id="_244036440" class="fil9" d="M0.829013 2.98542l2.33166 -0.375441 -0.000796745 0.00971033 -2.31635 0.372964c-0.00478047,-0.00231554 -0.00962318,-0.00473067 -0.0145157,-0.00723295z"/>
   <polygon id="_244036152" class="fil9" points="0.814933,2.97811 3.16145,2.60029 3.16067,2.60997 0.829013,2.98542 0.822265,2.9819 "/>
   <path id="_244036464" class="fil9" d="M0.8015 2.97069l2.36073 -0.380097 -0.000784296 0.00969788 -2.34651 0.377819c-0.00458128,-0.00242758 -0.00907542,-0.00490496 -0.0134326,-0.00741969z"/>
   <path id="_244036272" class="fil9" d="M0.788939 2.96316l2.37406 -0.382276 -0.000771846 0.00971033 -2.36073 0.380097c-0.00429495,-0.00246493 -0.00849031,-0.00497965 -0.0125612,-0.00753173z"/>
   <path id="_244036488" class="fil9" d="M0.777187 2.95546l2.3866 -0.38428 -9.95931e-005 0.000958584 -0.000684703 0.00873929 -2.37406 0.382276c-0.00402107,-0.00252717 -0.00794255,-0.00507925 -0.011752,-0.00769357z"/>
   <path id="_244036704" class="fil10" d="M0.766232 2.94767l2.39854 -0.38621 -0.000983482 0.00972278 -2.3866 0.38428c-0.00375964,-0.00255207 -0.00740724,-0.00515394 -0.0109552,-0.00779316z"/>
   <path id="_244036248" class="fil10" d="M0.756024 2.93973l2.40974 -0.388002 -0.000995931 0.00973522 -2.39854 0.38621c-0.00349821,-0.00261432 -0.00690927,-0.00525354 -0.0102083,-0.00794255z"/>
   <path id="_244036128" class="fil10" d="M0.746575 2.93168l2.42015 -0.389683 -0.000958584 0.00972278 -2.40974 0.388002c-0.00324922,-0.00262677 -0.00638641,-0.00532823 -0.00944889,-0.00804214z"/>
   <path id="_244036200" class="fil10" d="M0.737798 2.92353l2.42988 -0.391251 -0.000958584 0.00972278 -2.42015 0.389683c-0.00301269,-0.00268901 -0.00593824,-0.00540293 -0.00877664,-0.00815418z"/>
   <path id="_244037232" class="fil11" d="M0.729681 2.91526l2.43895 -0.39272 -0.000946134 0.00973522 -2.42988 0.391251c-0.00280106,-0.00272636 -0.00550252,-0.00549007 -0.00811684,-0.00826623z"/>
   <path id="_244037304" class="fil11" d="M0.722212 2.90689l2.44735 -0.394053 -0.000933685 0.00971033 -2.43895 0.39272c-0.00257697,-0.00275126 -0.0050668,-0.00555231 -0.00746948,-0.00837827z"/>
   <path id="_244036968" class="fil11" d="M0.715377 2.89842l2.45509 -0.395322 -0.000908787 0.00973522 -2.44735 0.394053c-0.00236534,-0.00277616 -0.00464353,-0.00561456 -0.00683458,-0.00846541z"/>
   <path id="_244036944" class="fil11" d="M0.70909 2.88984l2.46229 -0.396443 -0.000908787 0.00969788 -2.45509 0.395322c-0.00219105,-0.00282595 -0.00427005,-0.00568926 -0.00628681,-0.00857746z"/>
   <path id="_244037256" class="fil12" d="M0.703414 2.8812l2.46886 -0.397526 -0.000896338 0.00972278 -2.46229 0.396443c-0.00197941,-0.00285085 -0.00385923,-0.0057266 -0.00567681,-0.0086397z"/>
   <path id="_244037136" class="fil12" d="M0.698272 2.87245l2.47489 -0.398497 -0.000883889 0.00972278 -2.46886 0.397526c-0.00178023,-0.0028882 -0.00351066,-0.0058013 -0.00514149,-0.00875174z"/>
   <path id="_244036896" class="fil12" d="M0.693678 2.86363l2.48035 -0.399368 -0.00087144 0.00969788 -2.47489 0.398497c-0.00161839,-0.00290065 -0.00313718,-0.00586354 -0.00459373,-0.00882644z"/>
   <path id="_244037376" class="fil12" d="M0.689583 2.85471l2.48531 -0.400165 -0.00085899 0.00971033 -2.48035 0.399368c-0.0014441,-0.002938 -0.00280106,-0.00591334 -0.00409577,-0.00891358z"/>
   <path id="_244037064" class="fil12" d="M0.685997 2.84572l2.48975 -0.400887 -0.00085899 0.00971033 -2.48531 0.400165c-0.00126981,-0.00297534 -0.00246493,-0.00596314 -0.00358535,-0.00898828z"/>
   <path id="_244037472" class="fil12" d="M0.68286 2.83665l2.49372 -0.401522 -0.000834092 0.00971033 -2.48975 0.400887c-0.00110797,-0.00300024 -0.00216615,-0.00601293 -0.00313718,-0.00907542z"/>
   <path id="_244036800" class="fil12" d="M0.680221 2.8275l2.4972 -0.40207 -0.000834092 0.00969788 -2.49372 0.401522c-0.000946134,-0.00302514 -0.00183002,-0.00606273 -0.00263922,-0.00915012z"/>
   <path id="_244037856" class="fil12" d="M0.67803 2.81827l2.50021 -0.402568 -0.000821643 0.00972278 -2.4972 0.40207c-0.000809194,-0.00303759 -0.00151879,-0.00612498 -0.00219105,-0.00922481z"/>
   <path id="_244037640" class="fil12" d="M0.676274 2.809l2.50277 -0.402979 -0.000809194 0.00968543 -2.50021 0.402568c-0.000659804,-0.00306249 -0.00124491,-0.00616232 -0.00175533,-0.00927461z"/>
   <path id="_244037928" class="fil12" d="M0.67493 2.79964l2.50492 -0.403327 -0.000796745 0.00971033 -2.50277 0.402979c-0.000510415,-0.00309984 -0.000971033,-0.00621212 -0.00134451,-0.00936175z"/>
   <path id="_244037664" class="fil12" d="M0.674021 2.79021l2.50661 -0.403589 -0.000784296 0.00968543 -2.50492 0.403327c-0.000373474,-0.00311228 -0.000659804,-0.00626192 -0.000908787,-0.009424z"/>
   <path id="_244037952" class="fil12" d="M0.673498 2.78071l0.520959 -0.0838698 0.00260187 0.00136941 -9.95931e-005 -0.00178023 1.98445 -0.31952 -0.000784296 0.00971033 -2.50661 0.403589c-0.000236534,-0.00313718 -0.000410822,-0.00631171 -0.000522864,-0.00949869z"/>
   <path id="_244037712" class="fil13" d="M0.673361 2.77118l0.508311 -0.0818406c0.00434475,0.00273881 0.00860235,0.00524109 0.0127853,0.00750683l-0.520959 0.0838698c-0.000112042,-0.00314963 -0.00014939,-0.00632416 -0.000136941,-0.00953604zm0.523113 -0.0842309l1.98572 -0.319731 -0.000784296 0.00969788 -1.98445 0.31952 -0.000485516 -0.00948624z"/>
   <path id="_244038192" class="fil13" d="M0.673548 2.76158l0.496596 -0.0799608c0.00389658,0.00273881 0.00773091,0.00532823 0.0115279,0.00771846l-0.508311 0.0818406 7.46948e-005 -0.00465598 0.000112042 -0.00494231zm0.522528 -0.0841313l1.98689 -0.319918 -0.000771846 0.00968543 -1.98572 0.319731 -0.000398372 -0.00949869z"/>
   <path id="_244038072" class="fil13" d="M0.673946 2.75194l0.485554 -0.078193c0.0035978,0.00276371 0.00713336,0.00539048 0.010644,0.00786785l-0.496596 0.0799608c9.95931e-005,-0.00322433 0.000224084,-0.0064362 0.000398372,-0.00963563zm0.52183 -0.0840317l1.98794 -0.32008 -0.000746948 0.00969788 -1.98689 0.319918 -0.000298779 -0.00953604z"/>
   <path id="_244038216" class="fil13" d="M0.674594 2.74227l0.474947 -0.076475c0.00336127,0.00277616 0.00668519,0.00541537 0.00995931,0.007955l-0.485554 0.078193c0.000161839,-0.00323678 0.000385923,-0.0064611 0.000647355,-0.00967298zm0.520971 -0.0838823l1.9889 -0.320254 -0.000746948 0.00969788 -1.98794 0.32008 -0.000211635 -0.00952359z"/>
   <path id="_244037496" class="fil14" d="M0.675515 2.73255l0.464589 -0.0748193c0.00318698,0.00280106 0.00633661,0.00549007 0.00943645,0.00806704l-0.474947 0.076475c0.000261432,-0.00324922 0.00057266,-0.006486 0.000921236,-0.00972278zm0.519888 -0.0837204l1.98981 -0.320379 -0.000746948 0.00968543 -1.9889 0.320254 -0.000161839 -0.00956094z"/>
   <path id="_244039008" class="fil14" d="M0.676685 2.72279l0.454406 -0.073176c0.00302514,0.00280106 0.00603783,0.00550252 0.00901317,0.00811684l-0.464589 0.0748193c0.000348576,-0.00324922 0.000734499,-0.0065109 0.00117022,-0.00976012zm0.518643 -0.0835088l1.9906 -0.320528 -0.00072205 0.00969788 -1.98981 0.320379 -7.46948e-005 -0.00954849z"/>
   <path id="_244038264" class="fil14" d="M0.678154 2.71297l0.444272 -0.0715327c0.0029131,0.0028135 0.0058013,0.00553987 0.0086646,0.00817908l-0.454406 0.073176c0.000448169,-0.00327412 0.000933685,-0.0065607 0.001469,-0.00982237zm0.517249 -0.0832847l1.99125 -0.320615 -0.00072205 0.00968543 -1.9906 0.320528 -1.24491e-005 -0.00585109 8.7144e-005 -0.00374719z"/>
   <path id="_244038984" class="fil14" d="M0.679897 2.70313l0.434164 -0.0699144c0.0028135,0.0028135 0.00558966,0.00555231 0.00836582,0.00821643l-0.444272 0.0715327c0.000535313,-0.00328657 0.00112042,-0.0065607 0.00174288,-0.00983482zm0.515867 -0.0830606l1.99161 -0.320702 -0.00072205 0.00969788 -1.99125 0.320615 0.000361025 -0.00961073z"/>
   <path id="_244038936" class="fil14" d="M0.681939 2.69321l0.424018 -0.0682586c0.00272636,0.00282595 0.00541537,0.00557721 0.00810439,0.00826623l-0.434164 0.0699144c0.000634906,-0.00331147 0.00130716,-0.00661049 0.00204166,-0.00992196zm0.514324 -0.0827992l1.99182 -0.320715 -0.000709601 0.00967298 -1.99161 0.320702 0.000497965 -0.00966053z"/>
   <path id="_244038480" class="fil14" d="M0.684254 2.68327l0.413834 -0.0666278 0.000933685 0.00100838 0.00693417 0.00729519 -0.424018 0.0682586c0.000734499,-0.00331147 0.0014939,-0.00662294 0.00231554,-0.00993441zm0.512655 -0.0825378l1.99189 -0.320727 -0.000709601 0.00968543 -1.99182 0.320715 0.000647355 -0.00967298z"/>
   <path id="_244038312" class="fil15" d="M0.686894 2.67327l0.403601 -0.0649845c0.00247738,0.00278861 0.005017,0.00556476 0.00759397,0.00836582l-0.413834 0.0666278c0.000834092,-0.00333637 0.00170553,-0.00668519 0.00263922,-0.0100091zm0.510801 -0.082239l1.99179 -0.320702 -0.000684703 0.00968543 -1.99189 0.320727 0.000784296 -0.00971033z"/>
   <path id="_244038576" class="fil15" d="M0.689844 2.66323l0.393355 -0.0633412c0.00239023,0.00278861 0.00480537,0.00560211 0.00729519,0.00839072l-0.403601 0.0649845c0.000933685,-0.00334882 0.00191717,-0.00669764 0.00295045,-0.010034zm0.508746 -0.0819153l1.99159 -0.320677 -0.000697152 0.00968543 -1.99179 0.320702 0.000896338 -0.00971033z"/>
   <path id="_244038384" class="fil15" d="M0.693118 2.65312l0.383035 -0.061673c0.00229064,0.0028135 0.00464353,0.00561456 0.00704621,0.00844051l-0.393355 0.0633412c0.00104573,-0.00337372 0.00214125,-0.00674743 0.00327412,-0.0101087zm0.506481 -0.0815418l1.99125 -0.320615 -0.000672253 0.00967298 -1.99159 0.320677 0.00100838 -0.00973522z"/>
   <path id="_244038408" class="fil15" d="M0.696728 2.64298l0.372652 -0.0600048c0.0022035,0.00282595 0.00445679,0.00565191 0.00677233,0.00847786l-0.383035 0.061673c0.00115777,-0.00338617 0.00235289,-0.00677233 0.00361025,-0.010146zm0.503978 -0.0811559l1.99082 -0.320553 -0.000672253 0.00969788 -1.99125 0.320615 0.00110797 -0.00976012z"/>
   <path id="_244038840" class="fil15" d="M0.700687 2.63277l0.362208 -0.0583242c0.00211635,0.0028384 0.00427005,0.00568926 0.006486,0.00852766l-0.372652 0.0600048c0.00125736,-0.00341106 0.00258942,-0.00680968 0.00395883,-0.0102083zm0.50124 -0.0807078l1.99028 -0.320466 -0.000684703 0.00967298 -1.99082 0.320553 0.00122002 -0.00976012z"/>
   <path id="_244039224" class="fil15" d="M0.70497 2.62251l0.351725 -0.0566311c0.00200431,0.00285085 0.00408332,0.00571415 0.00619967,0.00856501l-0.362208 0.0583242c0.00138185,-0.00341106 0.00280106,-0.00684703 0.0042825,-0.0102581zm0.498252 -0.0802347l1.98963 -0.320366 -0.000647355 0.00968543 -1.99028 0.320466 0.00129471 -0.00978502z"/>
   <path id="_244039080" class="fil15" d="M0.709651 2.61218l0.341131 -0.0549256c0.00191717,0.0028633 0.00388413,0.00573905 0.00591334,0.00862725l-0.351725 0.0566311c0.00150635,-0.00346086 0.00306249,-0.00688437 0.00468088,-0.0103328zm0.494953 -0.0796994l1.9889 -0.320229 -0.000647355 0.00966053 -1.98963 0.320366 0.00138185 -0.00979747z"/>
   <path id="_244039320" class="fil15" d="M0.71468 2.60181l0.3305 -0.0532325c0.00180512,0.0028882 0.0036725,0.00578885 0.00560211,0.00867705l-0.341131 0.0549256c0.00161839,-0.00347331 0.00329902,-0.00692172 0.00502945,-0.0103701zm0.491405 -0.0791267l1.98806 -0.320105 -0.000647355 0.00967298 -1.9889 0.320229 0.00148145 -0.00979747z"/>
   <path id="_244039584" class="fil15" d="M0.72012 2.59135l0.319769 -0.0514896c0.00170553,0.00290065 0.00346086,0.0058013 0.00529088,0.0087144l-0.3305 0.0532325c0.00176778,-0.00349821 0.0035729,-0.00698397 0.00544027,-0.0104573zm0.487508 -0.0784918l1.98717 -0.319968 -0.000647355 0.00968543 -1.98806 0.320105 0.00154369 -0.00982237z"/>
   <path id="_244039032" class="fil15" d="M0.725947 2.58084l0.308988 -0.0497468c0.00159349,0.0029131 0.00323678,0.00583865 0.00495476,0.00876419l-0.319769 0.0514896c0.00187982,-0.00351066 0.00382188,-0.00700886 0.0058262,-0.0105071zm0.483288 -0.0778071l1.9862 -0.319806 -0.000634906 0.00966053 -1.98717 0.319968 0.00160594 -0.00982237z"/>
   <path id="_244039200" class="fil16" d="M0.732196 2.57025l0.298095 -0.0479914c0.00148145,0.002938 0.00302514,0.00587599 0.00464353,0.00883889l-0.308988 0.0497468c0.00201676,-0.00353555 0.00410822,-0.00705866 0.00624947,-0.0105942zm0.478732 -0.0770726l1.98513 -0.319632 -0.000622457 0.00968543 -1.9862 0.319806 0.00169308 -0.00985972z"/>
   <path id="_244039728" class="fil16" d="M0.738856 2.55963l0.287152 -0.0462361c0.00135696,0.002938 0.00278861,0.00590089 0.0042825,0.00886379l-0.298095 0.0479914c0.00216615,-0.003548 0.0043821,-0.00709601 0.00666029,-0.0106191zm0.473827 -0.0763008l1.98401 -0.319445 -0.000634906 0.00966053 -1.98513 0.319632 0.00175533 -0.00984727z"/>
   <path id="_244039464" class="fil16" d="M0.745977 2.5489l0.276072 -0.0444559c0.00125736,0.00297534 0.00256452,0.00596314 0.00395883,0.00895093l-0.287152 0.0462361c0.00230309,-0.00358535 0.00469332,-0.0071707 0.00712091,-0.0107312zm0.468523 -0.0754418l1.9828 -0.319258 -0.000610008 0.00968543 -1.98401 0.319445 0.00181757 -0.00987217z"/>
   <path id="_244039296" class="fil16" d="M0.753422 2.53813l0.265055 -0.0426756c0.00112042,0.00298779 0.00231554,0.00598803 0.0035729,0.00898828l-0.276072 0.0444559 0.00453149 -0.00652335 0.0029131 -0.00424516zm0.462958 -0.0745454l1.98153 -0.319046 -0.000610008 0.00966053 -1.9828 0.319258 0.00187982 -0.00987217z"/>
   <path id="_244039512" class="fil17" d="M0.76124 2.52729l0.254012 -0.0408954c0.000995931,0.00302514 0.00207901,0.00605028 0.00322433,0.00906297l-0.265055 0.0426756c0.00257697,-0.00369739 0.00520374,-0.00732009 0.00781806,-0.0108432zm0.45707 -0.0735868l1.9802 -0.318847 -0.000597559 0.00968543 -1.98153 0.319046 0.00192962 -0.00988461z"/>
   <path id="_244039680" class="fil17" d="M0.76968 2.51637l0.242746 -0.0390778c0.00087144,0.00302514 0.00181757,0.00605028 0.00282595,0.00910032l-0.254012 0.0408954c0.00278861,-0.00373474 0.00560211,-0.00738234 0.00844051,-0.0109179zm0.450609 -0.0725536l1.97272 -0.31764 0.00576395 0.00464353 -0.000261432 0.00403352 -1.9802 0.318847 0.00197941 -0.00988461z"/>
   <path id="_244040400" class="fil17" d="M0.778918 2.5053l0.231068 -0.037198c0.000746948,0.00306249 0.00155614,0.00611253 0.00244003,0.00918746l-0.242746 0.0390778c0.00305004,-0.00380944 0.00613742,-0.00749438 0.00923726,-0.0110673zm0.443401 -0.0713958l1.96103 -0.315735c0.00319943,0.00270146 0.0064362,0.00536558 0.00966053,0.00800479l-1.97272 0.31764 0.00202921 -0.00990951z"/>
   <path id="_244040544" class="fil17" d="M0.789151 2.49408l0.218818 -0.0352311c0.000610008,0.00307494 0.00126981,0.00616232 0.00201676,0.00924971l-0.231068 0.037198c0.00337372,-0.00387168 0.00678478,-0.00760642 0.0102332,-0.0112167zm0.435259 -0.0700762l1.94949 -0.313893c0.00314963,0.00271391 0.00628681,0.00540293 0.00944889,0.00805459l-1.96103 0.315735 0.00209145 -0.00989706z"/>
   <path id="_244040064" class="fil18" d="M0.800629 2.48267l0.205734 -0.0331272c0.000460618,0.00309984 0.000995931,0.00619967 0.00160594,0.00931195l-0.218818 0.0352311c0.00378454,-0.00397127 0.00759397,-0.00776826 0.0114781,-0.0114159zm0.425922 -0.0685823l1.93816 -0.312063c0.00305004,0.00272636 0.00612498,0.00542782 0.00918746,0.00809194l-1.94949 0.313893 0.00214125 -0.00992196z"/>
   <path id="_244039968" class="fil18" d="M0.8139 2.47095l0.191318 -0.0307992c0.000311228,0.00312473 0.000684703,0.00624947 0.00114532,0.00938665l-0.205734 0.0331272c0.00436965,-0.00410822 0.00880154,-0.00801724 0.0132708,-0.0117146zm0.414818 -0.0667896l1.92701 -0.31027 0.00897583 0.00812929 -1.93816 0.312063 0.00028633 -0.00131961 0.00187982 -0.00860235z"/>
   <path id="_244040304" class="fil18" d="M0.829859 2.45883l0.174636 -0.028135c0.000161839,0.00314963 0.000410822,0.00629926 0.00072205,0.00946134l-0.191318 0.0307992c0.00525354,-0.0043323 0.0105569,-0.00836582 0.0159598,-0.0121255zm0.401061 -0.0645861l1.91603 -0.308502c0.0029131,0.00275126 0.00585109,0.00545272 0.00877664,0.00815418l-1.92701 0.31027 0.0022035 -0.00992196z"/>
   <path id="_244040184" class="fil18" d="M0.850737 2.44588l0.133405 -0.0214872c0.00682213,0.00107063 0.0135696,0.00245248 0.0202547,0.00410822l9.95931e-005 0.00219105 -0.174636 0.028135c0.00683458,-0.00476802 0.0138061,-0.00908787 0.0208772,-0.0129471zm0.38245 -0.0615859l1.9052 -0.306747c0.0028384,0.00275126 0.0057017,0.00549007 0.00856501,0.00819153l-1.91603 0.308502 0.00226574 -0.00994686z"/>
   <path id="_244040520" class="fil18" d="M0.886827 2.43051l0.0557223 -0.00897583 0.00404597 -3.73474e-005c0.0127728,0 0.0252717,0.000971033 0.0375466,0.00290065l-0.133405 0.0214872c0.0117146,-0.00637396 0.0237405,-0.011503 0.03609,-0.0153747zm0.348675 -0.0561456l1.89448 -0.305041 0.00840317 0.00822888 -1.9052 0.306747 0.00231554 -0.00993441z"/>
   <path id="_244038864" class="fil18" d="M1.2379 2.3644l1.88387 -0.303336 0.00821643 0.00825378 -1.89448 0.305041 0.00240268 -0.00995931zm-0.295356 0.0571291l-0.0557223 0.00897583c0.0179019,-0.00561456 0.036476,-0.0086148 0.0557223,-0.00897583z"/>
   <polygon id="_244040328" class="fil18" points="1.24036,2.35444 3.11373,2.0528 3.12177,2.06107 1.2379,2.3644 "/>
   <path id="_244039848" class="fil18" d="M1.2429 2.34445l1.86281 -0.299925c0.00242758,0.00258942 0.00485516,0.00507925 0.00725785,0.00748193l0.000759397 0.000796745 -1.87337 0.301643 0.00253962 -0.00999666z"/>
   <path id="_244040760" class="fil18" d="M1.24555 2.33446l1.58778 -0.255668 0.00468088 0.00473067 0.0043821 -0.00618722 0.25573 -0.0411817c0.00255207,0.0028882 0.00507925,0.00567681 0.00759397,0.00836582l-1.86281 0.299925 0.00265167 -0.00998421z"/>
   <path id="_244023600" class="fil18" d="M1.24827 2.32444l1.57712 -0.253925c0.00261432,0.00278861 0.00525354,0.00555231 0.0079301,0.00827868l-1.58778 0.255668 0.00272636 -0.0100216zm1.60167 -0.257884l0.240953 -0.038804c0.00242758,0.0028882 0.00483027,0.0057017 0.0072205,0.00840317l-0.25573 0.0411817 0.00755663 -0.010781z"/>
   <path id="_244023240" class="fil18" d="M1.25115 2.31441l1.56657 -0.252244c0.00251473,0.00280106 0.00507925,0.00557721 0.00766867,0.00835337l-1.57712 0.253925 0.00287575 -0.010034zm1.60624 -0.258618l0.226587 -0.0364884c0.00231554,0.00290065 0.00463108,0.0057266 0.00692172,0.00845296l-0.240953 0.038804 0.00744458 -0.0107685z"/>
   <path id="_244022976" class="fil18" d="M1.25415 2.30436l1.55615 -0.250564c0.00245248,0.0028135 0.00490496,0.00558966 0.00741969,0.00836582l-1.56657 0.252244 0.00300024 -0.0100465zm1.61056 -0.259328l0.212594 -0.0342351c0.00224084,0.0029131 0.00445679,0.0057515 0.00667274,0.00850276l-0.226587 0.0364884 0.00732009 -0.0107561z"/>
   <path id="_244023192" class="fil18" d="M1.25734 2.29428l1.54581 -0.248908c0.00235289,0.00282595 0.00475557,0.00563946 0.00715825,0.00842807l-1.55615 0.250564c0.00107063,-0.00347331 0.0021288,-0.00683458 0.00318698,-0.0100838zm1.61453 -0.259975l0.198999 -0.0320441c0.00216615,0.0029131 0.0043074,0.0057515 0.0064362,0.00854011l-0.212594 0.0342351 0.00715825 -0.0107312z"/>
   <path id="_244024176" class="fil19" d="M1.26075 2.28414l1.5355 -0.247227c0.00226574,0.0028384 0.00456883,0.00565191 0.00689682,0.00845296l-1.54581 0.248908c0.00114532,-0.00352311 0.00227819,-0.00688437 0.00341106,-0.0101336zm1.61811 -0.260536l0.185778 -0.0299153 0.00622457 0.00856501 -0.198999 0.0320441 0.00699641 -0.0106938z"/>
   <path id="_244023672" class="fil19" d="M1.26806 2.2734l1.52152 -0.244999c0.0022035,0.0028633 0.00441944,0.00571415 0.00667274,0.00851521l-1.5355 0.247227c0.000946134,-0.00273881 0.00189227,-0.00540293 0.0028384,-0.007955l0.00446924 -0.00278861zm1.61765 -0.260473l0.172869 -0.0278238c0.00202921,0.00292555 0.00404597,0.00578885 0.00606273,0.0085899l-0.185778 0.0299153 0.00684703 -0.0106814z"/>
   <path id="_244023864" class="fil19" d="M1.28708 2.26076l1.49605 -0.240891c0.0021288,0.0028633 0.00427005,0.00571415 0.00644865,0.00852766l-1.52152 0.244999c0.00629926,-0.00398372 0.0126359,-0.00819153 0.0190223,-0.0126359zm1.60529 -0.258469l0.160308 -0.0258195 0.00590089 0.00862725 -0.172869 0.0278238c0.00229064,-0.00361025 0.00451904,-0.0071458 0.00666029,-0.0106316z"/>
   <path id="_244024392" class="fil19" d="M1.30413 2.24845l1.4728 -0.237144c0.00204166,0.00287575 0.00410822,0.0057266 0.00619967,0.00856501l-1.49605 0.240891c0.00565191,-0.00392148 0.0113287,-0.00801724 0.0170553,-0.0123122zm1.59468 -0.256776l0.148107 -0.0238401 0.0057515 0.0086397 -0.160308 0.0258195c0.00224084,-0.00361025 0.00436965,-0.0071458 0.00644865,-0.0106191z"/>
   <path id="_244024272" class="fil19" d="M1.31978 2.23635l1.45113 -0.233645c0.00197941,0.0028882 0.00398372,0.00573905 0.00601293,0.00860235l-1.4728 0.237144c0.00519129,-0.00388413 0.0104075,-0.00791765 0.0156486,-0.0121006zm1.58529 -0.255257l0.136218 -0.0219229 0.00563946 0.0086646 -0.148107 0.0238401c0.00216615,-0.0035978 0.0042576,-0.00712091 0.00624947,-0.0105818z"/>
   <path id="_244024032" class="fil19" d="M1.33435 2.22444l1.43079 -0.230371c0.00189227,0.0028882 0.00382188,0.00576395 0.0057764,0.0086397l-1.45113 0.233645c0.00483027,-0.00384678 0.00968543,-0.00781806 0.0145655,-0.0119138zm1.57671 -0.253863l0.124715 -0.0200805 0.00551497 0.00867705 -0.136218 0.0219229c0.00207901,-0.00358535 0.00407087,-0.00709601 0.00598803,-0.0105195z"/>
   <path id="_244024560" class="fil19" d="M1.34805 2.21265l1.4115 -0.227259 0.00558966 0.00867705 -1.43079 0.230371c0.00454393,-0.00382188 0.00911277,-0.00774336 0.0137065,-0.0117893zm1.56849 -0.252531l0.11381 -0.0183376 0.00541537 0.0087144 -0.124715 0.0200805 0.000485516 -0.00087144c0.00170553,-0.00319943 0.00337372,-0.00638641 0.00500455,-0.00958584z"/>
   <path id="_244024704" class="fil19" d="M1.36105 2.20101l1.39313 -0.224321c0.00176778,0.0029131 0.003548,0.0058262 0.00536558,0.00870195l-1.4115 0.227259c0.00431985,-0.00378454 0.00865215,-0.00766867 0.0129969,-0.0116399zm1.56062 -0.251286l0.103378 -0.0166445 0.00530333 0.00870195 -0.11381 0.0183376c0.00175533,-0.00347331 0.00347331,-0.00694662 0.00512904,-0.010395z"/>
   <path id="_244026192" class="fil20" d="M1.37348 2.18942l1.37552 -0.22147c0.00170553,0.002938 0.00343596,0.00583865 0.00519129,0.00873929l-1.39313 0.224321c0.00412066,-0.00378454 0.00826623,-0.00764377 0.0124242,-0.0115901zm1.55302 -0.250053l0.0933312 -0.0150261 0.00522864 0.00873929 -0.103378 0.0166445c0.00165574,-0.00344841 0.00326167,-0.00690927 0.00481782,-0.0103577z"/>
   <path id="_244026216" class="fil20" d="M1.38538 2.17794l1.35861 -0.218756 0.00500455 0.00876419 -1.37552 0.22147c0.00394638,-0.00374719 0.00791765,-0.00758152 0.0119014,-0.0114781zm1.5456 -0.248871l0.0837204 -0.0134824 0.00512904 0.00875174 -0.0933312 0.0150261c0.00154369,-0.00343596 0.00303759,-0.00687192 0.00448169,-0.0102954z"/>
   <path id="_244026288" class="fil20" d="M1.39687 2.16651l1.3423 -0.216129 0.00481782 0.00880154 -1.35861 0.218756c0.00380944,-0.00374719 0.00764377,-0.00754418 0.0114906,-0.0114283zm1.53831 -0.247688l0.0744583 -0.012001 0.00505435 0.00876419 -0.0837204 0.0134824c0.0014441,-0.00342351 0.0028633,-0.00683458 0.00420781,-0.0102456z"/>
   <path id="_244026048" class="fil20" d="M1.40796 2.15516l0.544662 -0.0876917c0.00384678,0.000746948 0.00768112,0.00143165 0.0114906,0.00202921l-0.00148145 -0.0036476 0.771996 -0.124305 0.00180512 0.00366005 0.00273881 0.00517884 -1.3423 0.216129c0.0036725,-0.00372229 0.00738234,-0.00750683 0.0110922,-0.0113536zm1.53109 -0.246518l0.0655945 -0.0105693 0.0049921 0.00875174 -0.0744583 0.012001c0.00133206,-0.00339861 0.00262677,-0.00679723 0.00387168,-0.0101834z"/>
   <path id="_244026312" class="fil20" d="M1.41872 2.14384l0.509755 -0.0820772c0.00815418,0.00224084 0.0161963,0.00414556 0.0241513,0.0057017l-0.544662 0.0876917c0.0035729,-0.00369739 0.0071458,-0.00748193 0.0107561,-0.0113163zm0.540268 -0.0869821l0.771386 -0.124205c0.0013943,0.00297534 0.00280106,0.00593824 0.0042576,0.00888868l-0.771996 0.124305 -0.0036476 -0.00898828zm0.983631 -0.158378l0.0571166 -0.00919991 0.00491741 0.00878909 -0.0655945 0.0105693c0.00124491,-0.00339861 0.00242758,-0.00677233 0.00356045,-0.0101585z"/>
   <path id="_244026360" class="fil20" d="M1.42916 2.1326l0.478881 -0.07711c0.00687192,0.00232799 0.0136941,0.00441944 0.020429,0.00627436l-0.509755 0.0820772c0.00346086,-0.00369739 0.00695907,-0.00743213 0.0104448,-0.0112416zm0.526225 -0.0847288l0.770913 -0.12413 0.00407087 0.00891358 -0.771386 0.124205 -0.0035978 -0.00898828zm0.990491 -0.159486l0.0490123 -0.00789275 0.00484271 0.00878909 -0.0571166 0.00919991c0.00114532,-0.00337372 0.0022284,-0.00673498 0.00326167,-0.0100962z"/>
   <path id="_244026144" class="fil20" d="M1.43933 2.12138l0.450522 -0.0725411c0.00611253,0.00240268 0.0121753,0.00461863 0.0181882,0.00664784l-0.478881 0.07711c0.00319943,-0.00346086 0.00637396,-0.00698397 0.00957339,-0.0105444l0.000597559 -0.000672253zm0.512506 -0.0825253l0.770564 -0.124068c0.00126981,0.00300024 0.00256452,0.00597559 0.00389658,0.00895093l-0.770913 0.12413 -0.003548 -0.00901317zm0.997002 -0.160519l0.0412689 -0.00664784 0.00478047 0.00880154 -0.0490123 0.00789275c0.00104573,-0.00334882 0.00201676,-0.00671008 0.00296289,-0.0100465z"/>
   <path id="_244026480" class="fil20" d="M1.44907 2.11024l0.424142 -0.0682835c0.00558966,0.00244003 0.011142,0.00474312 0.0166445,0.00688437l-0.450522 0.0725411c0.00331147,-0.00372229 0.00654825,-0.00743213 0.00973522,-0.011142zm0.499273 -0.0803841l0.770353 -0.124031c0.00122002,0.00301269 0.00244003,0.00598803 0.00370984,0.00896338l-0.770564 0.124068 -0.00349821 -0.00900073zm1.00314 -0.161515l0.033899 -0.00545272 0.00473067 0.00880154 -0.0412689 0.00664784c0.000921236,-0.00333637 0.00180512,-0.00667274 0.00263922,-0.00999666z"/>
   <path id="_244026576" class="fil21" d="M1.45844 2.09917l0.399331 -0.0642998c0.00517884,0.00248983 0.0103328,0.00484271 0.0154369,0.00708356l-0.424142 0.0682835c0.00318698,-0.00368494 0.00629926,-0.00738234 0.0093742,-0.0110673zm0.48645 -0.07833l0.770265 -0.124031c0.00114532,0.00302514 0.00234044,0.00602538 0.00353555,0.00901317l-0.770353 0.124031 -0.00344841 -0.00901317zm1.00894 -0.162461l0.0268777 -0.00431985 0.00466843 0.00882644 -0.033899 0.00545272c0.000846541,-0.00332392 0.00161839,-0.00664784 0.00235289,-0.00995931z"/>
   <path id="_244026864" class="fil21" d="M1.46744 2.08814l0.375777 -0.0605028c0.00488006,0.00251473 0.00973522,0.00492986 0.014553,0.00723295l-0.399331 0.0642998c0.00306249,-0.0036725 0.00605028,-0.00734499 0.00900073,-0.0110299zm0.474051 -0.0763257l0.770303 -0.124031 0.00336127 0.00902562 -0.770265 0.124031 -0.00339861 -0.00902562zm1.01439 -0.163333l0.0195949 -0.00316208c0.00138185,0.00232799 0.00282595,0.00466843 0.0043323,0.00703376l0.000896338 0.00170553 -0.0268777 0.00431985c0.000734499,-0.00329902 0.0014192,-0.00659804 0.00205411,-0.00989706z"/>
   <path id="_244026984" class="fil21" d="M1.47608 2.07719l0.353344 -0.056905c0.00463108,0.00255207 0.00922481,0.0049921 0.0137936,0.00735744l-0.375777 0.0605028c0.002938,-0.0036476 0.00581375,-0.00730764 0.0086397,-0.0109552zm0.462087 -0.0744085l0.770427 -0.124043 0.00319943 0.00905052 -0.770303 0.124031 -0.00332392 -0.00903807zm1.01946 -0.164142l0.01286 -0.00206656c0.00156859,0.00287575 0.00323678,0.00581375 0.0049921,0.00875174l-0.0195949 0.00316208c0.000622457,-0.00328657 0.00120757,-0.00657314 0.00174288,-0.00984727z"/>
   <path id="_244027584" class="fil21" d="M1.48436 2.06627l0.331919 -0.0534317c0.00440699,0.00256452 0.00878909,0.0050419 0.0131463,0.00744458l-0.353344 0.056905c0.00282595,-0.00363515 0.00557721,-0.00728274 0.00827868,-0.0109179zm0.450547 -0.0725411l0.342638 -0.0551621 0 0.00484271c0.00809194,-0.0028633 0.0160967,-0.0057764 0.0240144,-0.0087144l0.403999 -0.0650467c0.000983482,0.00303759 0.00199186,0.00606273 0.00303759,0.00908787l-0.770427 0.124043 -0.00326167 -0.00905052zm1.02418 -0.164901l0.00687192 -0.00110797c0.0014192,0.00292555 0.0029131,0.00586354 0.00453149,0.00885134l-0.01286 0.00206656c0.000535313,-0.00327412 0.00102083,-0.00654825 0.00145655,-0.00980992z"/>
   <path id="_244028256" class="fil22" d="M1.49228 2.05543l0.311353 -0.0501327c0.00423271,0.00258942 0.00844051,0.00510415 0.0126483,0.00754418l-0.331919 0.0534317c0.00270146,-0.00361025 0.00534068,-0.00723295 0.00791765,-0.0108432zm0.43943 -0.0707484l0.345837 -0.0556974 0 0.00958584 -0.342638 0.0551621 -0.00319943 -0.00905052zm0.411929 -0.066329l0.359058 -0.0578138 0.0028633 0.00911277 -0.403999 0.0650467c0.0143414,-0.00532823 0.0283591,-0.010781 0.0420781,-0.0163457zm0.616593 -0.0992819l0.00168063 -0.000273881c0.00124491,0.002938 0.00258942,0.00591334 0.00404597,0.00892603l-0.00687192 0.00110797c0.00043572,-0.00326167 0.000821643,-0.0065109 0.00114532,-0.00976012z"/>
   <path id="_244027632" class="fil22" d="M1.49983 2.04463l0.291621 -0.0469457c0.00407087,0.00260187 0.00814174,0.00512904 0.0121753,0.00760642l-0.311353 0.0501327c0.00257697,-0.0035978 0.00510415,-0.0071956 0.00755663,-0.0107934zm0.428761 -0.0690305l0.348949 -0.056183 0 0.00956094 -0.345837 0.0556974 -0.00311228 -0.00907542zm0.451667 -0.0727279l0.319731 -0.0514772 0.00270146 0.00913767 -0.359058 0.0578138c0.0124616,-0.0050668 0.0246742,-0.0102083 0.0366254,-0.0154743zm0.581649 -0.0840815l-0.00168063 0.000273881 0.000348576 -0.00349821 0.00133206 0.00322433z"/>
   <path id="_244028112" class="fil22" d="M1.50704 2.0339l0.272624 -0.0438957c0.00394638,0.00262677 0.0078803,0.00517884 0.0117893,0.00768112l-0.291621 0.0469457c0.00246493,-0.00358535 0.00486761,-0.00715825 0.00720805,-0.0107312zm0.418528 -0.0673872l0.351987 -0.0566685 -1.24491e-005 0.00957339 -0.348949 0.056183 -0.00302514 -0.00908787zm0.487085 -0.0784296l0.284811 -0.0458502c0.000821643,0.00307494 0.00166818,0.00612498 0.00252717,0.00916256l-0.319731 0.0514772c0.0110299,-0.00484271 0.0218109,-0.00977257 0.0323927,-0.0147896z"/>
   <path id="_244027752" class="fil22" d="M1.51391 2.02322l0.254323 -0.0409452c0.00382188,0.00263922 0.00763132,0.00521619 0.0114283,0.00773091l-0.272624 0.0438957c0.00234044,-0.003548 0.00464353,-0.00712091 0.00687192,-0.0106814zm0.408718 -0.0657937l0.354925 -0.057154 0 0.00957339 -0.351987 0.0566685 -0.002938 -0.00908787zm0.519067 -0.0835835l0.25339 -0.0408083 0.00237779 0.00919991 -0.284811 0.0458502c0.00987217,-0.00466843 0.0195576,-0.00941155 0.0290438,-0.0142418z"/>
   <path id="_243144008" class="fil22" d="M1.52043 2.01261l0.236708 -0.0381193c0.00370984,0.00265167 0.00741969,0.00525354 0.0111046,0.00778071l-0.254323 0.0409452c0.00221595,-0.00353555 0.00439455,-0.00707111 0.0065109,-0.0106067zm0.399381 -0.0642998l0.357751 -0.0576146 0 0.00957339 -0.354925 0.057154 -0.00282595 -0.00911277zm0.548223 -0.0882893l0.224819 -0.0362021 0.00224084 0.00921236 -0.25339 0.0408083c0.00895093,-0.00454393 0.0177276,-0.00913767 0.0263299,-0.0138185z"/>
   <path id="_244029936" class="fil22" d="M1.52659 2.00205l0.219715 -0.035368c0.0036227,0.00265167 0.00723295,0.00526598 0.0108307,0.00781806l-0.236708 0.0381193c0.0021039,-0.00353555 0.00417046,-0.00704621 0.00616232,-0.0105693zm0.390505 -0.0628681l0.360465 -0.0580379 0 0.00956094 -0.357751 0.0576146 -0.00271391 -0.00913767zm0.574901 -0.0925718l0.198788 -0.0320067 0.00206656 0.00922481 -0.224819 0.0362021c0.00814174,-0.00440699 0.0161341,-0.00888868 0.0239646,-0.0134202z"/>
   <path id="_243143672" class="fil22" d="M1.53241 1.99154l0.203319 -0.0327412c0.00353555,0.00267656 0.00707111,0.00530333 0.0105693,0.0078803l-0.219715 0.035368c0.00199186,-0.00349821 0.00394638,-0.00700886 0.0058262,-0.0105071zm0.382114 -0.0615361l0.363166 -0.0584611 -0.000136941 0.00534068 0 0.0042576 -0.360465 0.0580379c-0.000908787,-0.00312473 -0.00176778,-0.00618722 -0.00256452,-0.00917501zm0.599513 -0.0965306l0.174823 -0.028135c0.000622457,0.00308739 0.00125736,0.00618722 0.00191717,0.00926216l-0.198788 0.0320067c0.00749438,-0.0043323 0.0148394,-0.00870195 0.0220474,-0.0131338z"/>
   <path id="_244039896" class="fil22" d="M1.5379 1.98108l0.187509 -0.0301892 0.0103203 0.0079052 -0.203319 0.0327412c0.00189227,-0.00349821 0.00372229,-0.00697152 0.00549007,-0.0104573zm0.374196 -0.0602538l0.366079 -0.0589467c-0.000211635,0.00321188 -0.000373474,0.0064362 -0.000485516,0.00966053l-0.363166 0.0584611c-0.00085899,-0.00312473 -0.00166818,-0.00618722 -0.00242758,-0.00917501zm0.622121 -0.100166l0.152875 -0.0246244 0.00176778 0.00929951 -0.174823 0.028135 0.00347331 -0.00214125c0.00571415,-0.00356045 0.0112789,-0.00712091 0.0167067,-0.0106689z"/>
   <path id="_243161168" class="fil23" d="M1.54307 1.97069l0.172196 -0.0277367c0.00338617,0.00268901 0.00677233,0.00534068 0.010146,0.00794255l-0.187509 0.0301892c0.00178023,-0.00347331 0.00349821,-0.00693417 0.00516639,-0.010395zm0.366801 -0.0590712l0.369092 -0.0594322c-0.000323678,0.00322433 -0.00057266,0.00647355 -0.000784296,0.00969788l-0.366079 0.0589467c-0.000796745,-0.00316208 -0.00153124,-0.00622457 -0.0022284,-0.00921236zm0.642936 -0.103527l0.13267 -0.0213627 0.00161839 0.00931195 -0.152875 0.0246244c0.00639886,-0.00419536 0.0125985,-0.00839072 0.0185866,-0.0125736z"/>
   <path id="_244030248" class="fil23" d="M1.54789 1.96033l0.157382 -0.025334 0.00840317 0.00668519 0.00159349 0.00126981 -0.172196 0.0277367c0.00166818,-0.00346086 0.00326167,-0.00690927 0.00481782,-0.0103577zm0.359979 -0.0579632l0.372167 -0.0599301c-0.000410822,0.00326167 -0.000771846,0.00649845 -0.00107063,0.00974767l-0.369092 0.0594322c-0.00072205,-0.00317453 -0.0013943,-0.00626192 -0.00200431,-0.00924971zm0.661958 -0.10659l0.114171 -0.0183749 0.00148145 0.0093244 -0.13267 0.0213627c0.00586354,-0.00410822 0.0115403,-0.00820398 0.017018,-0.0123122z"/>
   <path id="_243140600" class="fil23" d="M1.55238 1.95002l0.143078 -0.0230185c0.00321188,0.00267656 0.006486,0.00532823 0.00980992,0.00799235l-0.157382 0.025334c0.00155614,-0.00342351 0.00305004,-0.00687192 0.00449414,-0.0103079zm0.353717 -0.0569424l0.375304 -0.0604281c-0.000510415,0.00327412 -0.000971033,0.00652335 -0.00136941,0.00978502l-0.372167 0.0599301c-0.000547762,-0.00273881 -0.00107063,-0.00540293 -0.00151879,-0.0079799l-0.000248983 -0.00130716zm0.679337 -0.109378l0.0972278 -0.015661 0.00133206 0.00936175 -0.114171 0.0183749c0.00540293,-0.00403352 0.0106067,-0.00805459 0.0156112,-0.0120757z"/>
   <path id="_244029168" class="fil23" d="M1.55655 1.93979l0.129322 -0.0208274 0.00958584 0.00804214 -0.143078 0.0230185c0.0014441,-0.00341106 0.00282595,-0.00682213 0.00417046,-0.0102332zm0.347779 -0.0559962l0.37874 -0.0609883c-0.000597559,0.00328657 -0.00117022,0.0065607 -0.00166818,0.00984727l-0.375304 0.0604281 -0.00176778 -0.00928706zm0.695322 -0.111955l0.0818157 -0.0131712 0.00119512 0.0093742 -0.0972278 0.015661c0.00492986,-0.00395883 0.00966053,-0.00791765 0.0142169,-0.011864z"/>
   <path id="_244026624" class="fil24" d="M1.5604 1.9296l0.116138 -0.0186986 0.00933685 0.00805459 -0.129322 0.0208274c0.00133206,-0.00339861 0.00261432,-0.00679723 0.00384678,-0.0101834zm0.342115 -0.055075l0.38255 -0.0616108c-0.000709601,0.00329902 -0.00136941,0.00658559 -0.00199186,0.00988461l-0.37874 0.0609883 -0.00181757 -0.00926216zm0.710024 -0.114333l0.0678851 -0.0109179 0.00104573 0.00938665 -0.0818157 0.0131712c0.00448169,-0.00388413 0.00876419,-0.00776826 0.0128849,-0.0116399z"/>
   <path id="_243161408" class="fil24" d="M1.56394 1.91946l0.103477 -0.0166694c0.00300024,0.00270146 0.00603783,0.00541537 0.00912522,0.00811684l-0.116138 0.0186986c0.00123246,-0.00339861 0.00240268,-0.00675988 0.00353555,-0.010146zm0.336699 -0.054216l0.386732 -0.0622581c-0.000821643,0.00331147 -0.00158104,0.00662294 -0.00230309,0.00993441l-0.38255 0.0616108 -0.00187982 -0.00928706zm0.723569 -0.116499l0.0553115 -0.00891358 0.000908787 0.00944889 -0.0678851 0.0109179c0.00405842,-0.00382188 0.00796745,-0.00764377 0.0116648,-0.0114532z"/>
   <path id="_244030584" class="fil24" d="M1.56713 1.90937l0.0914016 -0.0147149c0.0029131,0.00271391 0.00586354,0.00542782 0.00887623,0.00812929l-0.103477 0.0166694c0.00110797,-0.00336127 0.0021786,-0.00673498 0.00319943,-0.0100838zm0.331583 -0.0533819l0.391276 -0.0630051c-0.000933685,0.00332392 -0.00179268,0.00666029 -0.00262677,0.00999666l-0.386732 0.0622581 -0.00191717 -0.00924971zm0.735931 -0.118503l0.0440948 -0.00709601 0.000771846 0.00943645 -0.0553115 0.00891358c0.00366005,-0.00375964 0.00713336,-0.00750683 0.0104448,-0.011254z"/>
   <path id="_243161576" class="fil24" d="M1.57004 1.89933l0.0798363 -0.0128475 0.0086646 0.00817908 -0.0914016 0.0147149c0.00102083,-0.00334882 0.00197941,-0.00671008 0.00290065,-0.0100465zm0.404111 -0.0650592l0.318797 -0.0513402c-0.00103328,0.00334882 -0.00201676,0.00671008 -0.00295045,0.0100589l-0.391276 0.0630051 -0.00113287 -0.00539048c0.0224084,-0.00248983 0.0479416,-0.00794255 0.0765622,-0.0163333zm0.669776 -0.107847l0.0341729 -0.00550252 0.000647355 0.00947379 -0.0440948 0.00709601c0.00326167,-0.00369739 0.00634906,-0.00738234 0.00927461,-0.0110673z"/>
   <path id="_244030416" class="fil24" d="M1.57261 1.88936l0.0688562 -0.0110922c0.00275126,0.00272636 0.00556476,0.00547762 0.00840317,0.00821643l-0.0798363 0.0128475c0.000921236,-0.00333637 0.00176778,-0.00664784 0.00257697,-0.00997176zm0.456858 -0.0735619l0.266735 -0.0429495c-0.00114532,0.00336127 -0.0022284,0.00672253 -0.00326167,0.0100838l-0.318797 0.0513402c0.0173043,-0.00507925 0.0357415,-0.0112416 0.055324,-0.0184745zm0.622631 -0.100265l0.0254834 -0.00409577 0.000510415 0.00948624 -0.0341729 0.00550252c0.0028882,-0.00363515 0.00561456,-0.00725785 0.00817908,-0.010893z"/>
   <path id="_243144848" class="fil24" d="M1.57489 1.8794l0.0583989 -0.0093991c0.00268901,0.00276371 0.00541537,0.00551497 0.00817908,0.00826623l-0.0688562 0.0110922c0.000796745,-0.00332392 0.00156859,-0.00664784 0.00227819,-0.00995931zm0.496111 -0.0798737l0.228828 -0.0368494c-0.00126981,0.00339861 -0.00247738,0.00678478 -0.0036227,0.0101709l-0.266735 0.0429495c0.0133081,-0.00491741 0.027164,-0.0103452 0.0415303,-0.016271zm0.588222 -0.094713l0.017989 -0.0028882 0.000373474 0.00951114 -0.0254834 0.00409577c0.00252717,-0.0035729 0.00491741,-0.0071458 0.00712091,-0.0107187z"/>
   <path id="_437440432" class="fil24" d="M1.57685 1.86952l0.0485143 -0.00780561c0.00258942,0.00276371 0.00524109,0.00551497 0.0079301,0.00827868l-0.0583989 0.0093991c0.000697152,-0.00328657 0.00135696,-0.00657314 0.00195451,-0.00987217zm0.529997 -0.0853388l0.196933 -0.031708c-0.00136941,0.00339861 -0.00268901,0.00679723 -0.00394638,0.0101958l-0.228828 0.0368494c0.0116026,-0.00478047 0.0235538,-0.00989706 0.0358411,-0.0153373zm0.558468 -0.0899201l0.0116648 -0.00187982 0.000236534 0.00953604 -0.017989 0.0028882c0.0021786,-0.00352311 0.00420781,-0.00703376 0.00608763,-0.0105444z"/>
   <path id="_437441032" class="fil24" d="M1.57851 1.85968l0.0391401 -0.00629926c0.00252717,0.00277616 0.0050917,0.00556476 0.00770602,0.00834092l-0.0485143 0.00780561c0.000610008,-0.00328657 0.00115777,-0.00657314 0.00166818,-0.00984727zm0.560995 -0.0903309l0.168561 -0.0271391c-0.00148145,0.00342351 -0.0029131,0.00684703 -0.00429495,0.0102705l-0.196933 0.031708c0.010644,-0.00470577 0.0215121,-0.00966053 0.0326665,-0.0148394zm0.530906 -0.0854758l0.00642375 -0.00104573 0.000136941 0.00956094 -0.0116648 0.00187982c0.00185492,-0.00346086 0.003548,-0.00693417 0.00510415,-0.010395z"/>
   <path id="_437440552" class="fil25" d="M1.57987 1.84989l0.0303385 -0.00489251c0.00244003,0.00278861 0.00491741,0.00558966 0.00744458,0.00837827l-0.0391401 0.00629926c0.000497965,-0.00326167 0.000946134,-0.00652335 0.00135696,-0.00978502zm0.590064 -0.0950118l0.142779 -0.0229936c-0.00160594,0.00343596 -0.00314963,0.00688437 -0.00464353,0.0103203l-0.168561 0.0271391c0.00682213,-0.00318698 0.0137438,-0.00644865 0.0207652,-0.00980992l0.00966053 -0.00465598zm0.504626 -0.0812555l0.00229064 -0.000361025 -1.24491e-005 0.00956094 -0.00642375 0.00104573c0.00151879,-0.00342351 0.0029131,-0.00683458 0.00414556,-0.0102456z"/>
   <path id="_437440576" class="fil25" d="M1.58093 1.84014l0.0220723 -0.00356045c0.00236534,0.0028135 0.00476802,0.00561456 0.00720805,0.00841562l-0.0303385 0.00489251c0.000398372,-0.00324922 0.000746948,-0.00649845 0.00105818,-0.00974767zm0.617788 -0.0994686l0.119014 -0.0191717c-0.00171798,0.00346086 -0.00339861,0.00692172 -0.005017,0.0103826l-0.142779 0.0229936c0.00983482,-0.00476802 0.0194331,-0.00951114 0.0287824,-0.0142045zm0.478134 -0.0674121l-0.00229064 0.000361025c0.000846541,-0.00231554 0.00161839,-0.00461863 0.00231554,-0.00693417l0 0.00353555 -2.48983e-005 0.00303759z"/>
   <path id="_437440600" class="fil25" d="M1.58169 1.83046l0.0143663 -0.00232799c0.00227819,0.00282595 0.00458128,0.00565191 0.00694662,0.00845296l-0.0220723 0.00356045c0.000298779,-0.00323678 0.000547762,-0.0064611 0.000759397,-0.00968543zm0.64433 -0.103751l0.0970784 -0.0156361c-0.00184247,0.00347331 -0.00363515,0.00695907 -0.00536558,0.0104324l-0.119014 0.0191717c0.0093493,-0.00469332 0.0184496,-0.0093493 0.027301,-0.0139679z"/>
   <path id="_437441824" class="fil25" d="M1.58215 1.82081l0.00720805 -0.00117022c0.00219105,0.0028384 0.00441944,0.00566436 0.00669764,0.00849031l-0.0143663 0.00232799c0.000199186,-0.00322433 0.000348576,-0.0064362 0.000460618,-0.00964808zm0.669689 -0.107834l0.0769979 -0.0123993c-0.00196696,0.00351066 -0.00388413,0.00699641 -0.00573905,0.0104946l-0.0970784 0.0156361c0.00885134,-0.00460618 0.0174537,-0.00918746 0.0258195,-0.0137314z"/>
   <path id="_437441248" class="fil25" d="M1.58232 1.8112l0.000585109 -8.7144e-005c0.00209145,0.00285085 0.00424516,0.0057017 0.00644865,0.00852766l-0.00720805 0.00117022c9.95931e-005,-0.00319943 0.000161839,-0.00639886 0.000174288,-0.00961073zm0.693853 -0.111719l0.0587724 -0.00946134c-0.0021039,0.00352311 -0.00412066,0.00703376 -0.00611253,0.0105569l-0.0769979 0.0123993c0.00836582,-0.00453149 0.0164578,-0.00903807 0.0243381,-0.0134949z"/>
   <path id="_437441224" class="fil25" d="M2.29904 1.68622l0.0424889 -0.00683458 -0.000908787 0.00133206c-0.00194207,0.00309984 -0.00383433,0.00619967 -0.00567681,0.00929951l-0.0587724 0.00946134c0.00785541,-0.00445679 0.0154992,-0.00887623 0.0228691,-0.0132583zm-0.716137 0.12489l-0.000585109 8.7144e-005 0 -0.00087144 0.000585109 0.000784296z"/>
   <path id="_437441272" class="fil25" d="M2.32046 1.67321l0.0283965 -0.00456883 -0.00732009 0.0107436 -0.0424889 0.00683458c0.00738234,-0.00436965 0.0145157,-0.00870195 0.0214125,-0.0130093z"/>
   <path id="_437441536" class="fil25" d="M2.34038 1.66043l0.015798 -0.00253962 -0.00732009 0.0107561 -0.0283965 0.00456883c0.00688437,-0.00429495 0.0135198,-0.00856501 0.0199186,-0.0127853z"/>
   <path id="_437441416" class="fil25" d="M2.35885 1.64788l0.00464353 -0.000746948 -0.00732009 0.0107561 -0.015798 0.00253962c0.00639886,-0.00422026 0.0125612,-0.00839072 0.0184745,-0.0125487z"/>
   <polygon id="_437440648" class="fil25" points="2.36349,1.64713 2.35885,1.64788 2.36687,1.64219 "/>
   <path id="_437440624" class="fil26" d="M0.549069 1.04501c0.00235289,0.003548 0.00410822,0.00702131 0.00524109,0.0105195 -0.00113287,-0.00349821 -0.0028882,-0.00697152 -0.00524109,-0.0105195zm1.42904 -0.516614c-0.0910281,-0.00816663 -0.179205,-0.0105071 -0.264432,-0.00700886 -0.144759,0.00583865 -0.273757,0.0309486 -0.387006,0.0753173 -0.0957339,0.0385176 -0.200257,0.098647 -0.313482,0.1804 0.0116524,-0.0198813 0.0291683,-0.0443687 0.0525354,-0.0735868 0.0186986,-0.0245248 0.05078,-0.0636275 0.0963065,-0.117321 -0.0537056,0.0104946 -0.118528,0.035617 -0.194381,0.0753048 -0.12611,0.0642002 -0.205498,0.147099 -0.238189,0.248684 -0.0303385,-0.0152004 -0.0671382,-0.0221968 -0.110337,-0.0210266 -0.0723917,0.00351066 -0.138347,0.0175159 -0.197904,0.0420283 -0.0198315,0.00585109 -0.0367499,0.01286 -0.05078,0.021039 0.0292057,0.00933685 0.0607144,0.0239148 0.0945885,0.0437712 0.0292057,0.0175035 0.0513651,0.0344468 0.0665655,0.0507676 -0.00936175,0.00585109 -0.0186986,0.0134326 -0.028023,0.0227695 -0.0408581,0.0350443 -0.0788155,0.0829113 -0.113822,0.143601 -0.0607144,0.1039 -0.0922855,0.214847 -0.094601,0.332728 -0.00234044,0.0957712 0.0291683,0.199087 0.094601,0.310021 0.0198315,0.0314714 0.0402356,0.06303 0.0612871,0.0945512 -0.0303759,0.0466843 -0.0700513,0.0951612 -0.119101,0.145344 -0.0513776,0.0502074 -0.0957214,0.0887125 -0.133081,0.115565 0.0116524,0.00120757 0.0209768,0.00181757 0.0279981,0.00181757 0.0466843,-1.24491e-005 0.107971,-0.0163831 0.183899,-0.0490869 0.0291808,-0.0128226 0.0641753,-0.0285832 0.105058,-0.0472569 -0.0128475,0.0186613 -0.0239272,0.0391152 -0.0332641,0.0612871 -0.0233546,0.0525354 -0.0356045,0.100402 -0.0367872,0.143601 -0.00117022,0.0525354 0.0146028,0.10044 0.0472569,0.143588 0.0152128,0.0198688 0.035617,0.0426009 0.0612995,0.0683209l-0.00174288 0.0385176c-0.00114532,0.0782055 -0.0431736,0.160519 -0.126085,0.246929 -0.0314963,0.0338492 -0.0624573,0.0618847 -0.0928332,0.0840317 0.0245497,0.00820398 0.0537429,0.0122873 0.0875672,0.0122873 0.053718,0 0.10161,-0.0192588 0.143638,-0.0577889 -0.00120757,0.0104946 -0.00179268,0.0216117 -0.00179268,0.0332641 -0.00113287,0.091053 0.035617,0.172794 0.110374,0.245198 0.0618598,0.0595442 0.154668,0.116698 0.278462,0.171624 0.00114532,0.0116648 0.00175533,0.0244999 0.00175533,0.0384927 -0.00122002,0.0233919 -0.00820398,0.0519627 -0.0210266,0.0858368l-0.00351066 0.00521619c0.0583616,0 0.109752,-0.0302887 0.154095,-0.091053 0.00466843,-0.00815418 0.0128475,-0.0233172 0.0245248,-0.045514 -0.0268403,-0.0829113 -0.0490247,-0.173367 -0.0665157,-0.271453 -0.0140675,0.00349821 -0.0297783,0.00524109 -0.0472943,0.00524109 -0.0479043,0 -0.105096,-0.0175284 -0.171661,-0.0525354 -0.10156,-0.0513153 -0.151182,-0.123184 -0.148829,-0.215383 0.00118267,-0.0782179 0.0268154,-0.152963 0.0770726,-0.224147 0.0548384,-0.0806082 0.120259,-0.120881 0.196086,-0.120881 0.0198813,0 0.0391401,0.00239023 0.0578013,0.00700886 0.00235289,0.0607269 0.033899,0.123757 0.0946259,0.189152 0.0361523,0.0385301 0.0688064,0.0653829 0.098037,0.0805584 -0.00117022,-0.0198439 -0.00174288,-0.0414556 -0.00174288,-0.0647853 0.00118267,-0.0560585 0.0116524,-0.129596 0.0315212,-0.220661 0.01286,-0.0595442 0.0251099,-0.105096 0.0367499,-0.136579 0.0549256,-0.0339114 0.113225,-0.0852641 0.175147,-0.154133 0.095709,-0.107424 0.143588,-0.211324 0.143588,-0.311726 0.032679,0.0443687 0.0764377,0.0881772 0.131351,0.131351 0.0922108,0.0735246 0.17572,0.116163 0.250439,0.127815 -0.0315088,-0.0770477 -0.05078,-0.135409 -0.057764,-0.17511 -0.00239023,-0.0128351 -0.00530333,-0.0274379 -0.00876419,-0.0437836 0.0630051,-0.00702131 0.150572,-0.0373599 0.262689,-0.0910654 0.0875672,-0.0420283 0.156411,-0.0811186 0.206593,-0.117346l-0.0262428 0.0385301c-0.0408207,0.0653953 -0.0618722,0.130778 -0.0630798,0.196161l1.24491e-005 0.0665282c0.092273,-0.0326914 0.172221,-0.0700513 0.239957,-0.11208 0.0898952,-0.0560087 0.142978,-0.110884 0.159361,-0.164627l0 0.00352311c-0.00117022,0.10156 0.0186986,0.193248 0.0595567,0.274977 0.0268528,0.0513402 0.0606895,0.0974394 0.101573,0.138322 0.0315586,-0.0443438 0.0560585,-0.082351 0.0735371,-0.113822 0.028023,-0.0525354 0.0443687,-0.103925 0.0490371,-0.154133 0.00466843,0.0117022 0.0110797,0.0239646 0.0192339,0.0367872 0.0490745,0.0934059 0.0934183,0.159971 0.133156,0.199647 0.0279981,0.0291932 0.0565938,0.0554858 0.0857995,0.0788155 -0.0105071,0.169296 -0.0221968,0.316357 -0.0350817,0.441322 -0.00346086,0.0443687 -0.00815418,0.10039 -0.0139555,0.168126 0.0186613,-0.0245372 0.0361772,-0.0531329 0.0525229,-0.0858243 0.0385052,-0.0747197 0.0595567,-0.144161 0.0630424,-0.208411 0.028023,0.0373848 0.0560087,0.0648102 0.0840815,0.0823386 0.0303385,0.0186613 0.0700513,0.0309112 0.119064,0.0367623 -0.0327039,-0.0350568 -0.0601667,-0.0840939 -0.0823137,-0.147124 -0.0163457,-0.0502198 -0.0279857,-0.103925 -0.035007,-0.161092 0.0257075,-0.0630673 0.0484396,-0.166955 0.0683084,-0.311714 0.00231554,-0.131961 -0.00583865,-0.245783 -0.0244999,-0.341542 -0.0186862,-0.0945636 -0.0741844,-0.185617 -0.166395,-0.273184 0.084069,0.0209892 0.158764,0.0152004 0.224159,-0.017491 0.0618598,-0.0315586 0.11559,-0.0724042 0.161117,-0.122612l-0.00522864 -1.24491e-005c-0.0922481,0.00466843 -0.169881,-0.00522864 -0.232961,-0.0297659 -0.0758401,-0.0280355 -0.15178,-0.0794006 -0.227632,-0.154095 -0.01286,-0.038555 -0.0233795,-0.0712091 -0.0315586,-0.0980618 -0.00698397,-0.0163457 -0.01286,-0.0297908 -0.017491,-0.0402854 -0.00817908,-0.0210141 -0.0175159,-0.0396878 -0.028023,-0.0560336 -0.0642375,-0.101597 -0.169906,-0.149439 -0.316992,-0.143626 -0.0688437,0.00351066 -0.128425,0.01286 -0.178608,0.028023 -0.0210141,0.00817908 -0.0584113,0.0239272 -0.112104,0.0472943 0.0303759,-0.0268528 0.0572287,-0.0589716 0.0805833,-0.096319 0.030351,-0.0502074 0.045514,-0.0875548 0.045514,-0.112092 0.00118267,-0.0128226 0.000597559,-0.0274254 -0.00170553,-0.0437712 -0.0431861,0.0326914 -0.0893599,0.0618722 -0.138397,0.0875548 -0.105058,0.0513651 -0.215993,0.0799733 -0.332741,0.0858243 -0.0326914,0.00115777 -0.0572038,0.00115777 -0.0735371,0 -0.0175533,-0.00352311 -0.0402854,-0.00933685 -0.0682835,-0.0175159 0.0676735,-0.0245372 0.123172,-0.0536931 0.166358,-0.0875548 -0.0350319,-0.0140302 -0.0893226,-0.0245372 -0.162897,-0.0315461z"/>
   <path id="_437440768" class="fil27" d="M0.53423 1.05483l0.00319943 0.00632416c0.00309984,0.00931195 0.0131836,0.0143663 0.022508,0.0112665 0.00933685,-0.00312473 0.0143788,-0.0132085 0.0112914,-0.0225329 -0.00174288,-0.00517884 -0.00423271,-0.0100589 -0.0072703,-0.0146775 -0.00544027,-0.00821643 -0.0164951,-0.0104697 -0.0246742,-0.00505435 -0.00822888,0.00541537 -0.0104697,0.0164578 -0.00505435,0.0246742z"/>
   <path id="_437440888" class="fil28" d="M2.53503 3.86983c0.00466843,0.0105071 0.0145655,0.0157482 0.0297783,0.0157482 0.0105195,0 0.0186613,-0.00292555 0.0244999,-0.00872684 0.00581375,-0.00702131 0.00876419,-0.0140302 0.00876419,-0.0210515 0.00118267,-0.0198439 -0.00933685,-0.0309112 -0.0315212,-0.033289 -0.0221346,-1.24491e-005 -0.0338741,0.00995931 -0.0350443,0.0298032 0,0.00814174 0.00117022,0.0139928 0.00352311,0.0175159zm0.429084 -0.654999c0.022147,0 0.0338243,-0.0110797 0.035007,-0.0332641 0,-0.0245497 -0.0111171,-0.0344343 -0.0332641,-0.0297783 -0.0221844,0.00465598 -0.0333014,0.0157855 -0.0333014,0.0333014 1.24491e-005,0.00117022 0.000597559,0.00641131 0.00174288,0.0157482 0.00470577,0.0093493 0.0146028,0.0139928 0.0298157,0.0139928zm-0.234691 0.0210017c0.0058013,0.0140302 0.0210017,0.0210515 0.0455016,0.0210515 0.0303883,0 0.0455514,-0.0134575 0.0455514,-0.0403103 0.00118267,-0.0256826 -0.0133828,-0.0390654 -0.0438085,-0.0402356 -0.0314714,-1.24491e-005 -0.0478545,0.0128226 -0.0489998,0.0384927l0.00175533 0.0210017zm0.0262428 0.318785c0.0198688,0 0.0297659,-0.0116897 0.0297659,-0.0350443 0.00118267,-0.0210515 -0.00815418,-0.0315461 -0.0279857,-0.0315461 -0.0186613,-1.24491e-005 -0.028633,0.0104946 -0.0297783,0.0315461 0,0.00117022 0.00114532,0.00700886 0.00349821,0.0175284 0.00465598,0.0116399 0.0128226,0.0175159 0.0244999,0.0175159zm0.133119 0.320441c0,-0.0210141 -0.00933685,-0.0309361 -0.028023,-0.0297659 -0.0198688,0.00117022 -0.0297783,0.0110797 -0.0297783,0.0297783 0,0.00117022 0.00057266,0.00700886 0.00174288,0.017491 0.00466843,0.0117022 0.0134326,0.0175159 0.0263175,0.0175159 0.00929951,0 0.016881,-0.00463108 0.0227197,-0.0139928 0.00466843,-0.00698397 0.00702131,-0.0140053 0.00702131,-0.0210266z"/>
   <path id="_437441344" class="fil29" d="M2.50523 3.53008c-0.0373599,0 -0.0735122,0.00702131 -0.108544,0.0209768 -0.0327039,0.0152004 -0.0537056,0.0315461 -0.0630424,0.0490745 0.00348576,0.0326914 0.00875174,0.0578013 0.0157482,0.0753173 0.0186488,0.0396754 0.0548758,0.0595193 0.108581,0.0595193 0.0735371,0 0.124317,-0.0426009 0.152353,-0.127815 -0.00348576,-0.00820398 -0.00761887,-0.0163457 -0.01225,-0.0245497 -0.0222217,-0.035007 -0.0531329,-0.0525229 -0.0928457,-0.0525229z"/>
   <path id="_437441632" class="fil30" d="M2.48949 3.2061c-0.0420283,0.00113287 -0.0776079,0.0244999 -0.106814,0.0700513 -0.0327288,0.0536682 -0.0496347,0.128986 -0.0508174,0.225902 -0.00114532,0.0373474 -0.000610008,0.0700513 0.00178023,0.0980743 0.00933685,-0.0175284 0.0303385,-0.0338741 0.0630424,-0.0490745 0.0350443,-0.0139555 0.0711842,-0.0209768 0.108544,-0.0209768 0.0397127,0 0.070624,0.0175284 0.0928457,0.0525229 0.00463108,0.00820398 0.00876419,0.0163582 0.01225,0.0245497 0.0151755,-0.0467092 0.0239272,-0.106838 0.0262801,-0.180425 0.00114532,-0.0665033 -0.0134326,-0.120831 -0.0438085,-0.162822 -0.0291559,-0.0397127 -0.0636026,-0.058984 -0.103303,-0.0578013z"/>
   <path id="_437441728" class="fil31" d="M2.45797 2.7595c-0.00114532,-0.00231554 -0.00352311,-0.00405842 -0.00698397,-0.00526598 -0.00469332,0 -0.00875174,0.00120757 -0.01225,0.00356045 -0.00237779,0.00113287 -0.00409577,0.00405842 -0.00531578,0.00872684 -0.00112042,0.00465598 0,0.00819153 0.00349821,0.0105071 0.0373972,0.0536931 0.0741844,0.0898828 0.110374,0.108544 0.0163457,0.00817908 0.0251099,0.0175159 0.0262428,0.0280728 -0.00113287,0.0093244 -0.0145655,0.0315088 -0.040273,0.0665282 -0.0291683,0.0350319 -0.0490123,0.0530831 -0.0595193,0.0542658 -0.00352311,0 -0.00700886,0.00178023 -0.010532,0.00527843 -0.00231554,0.00230309 -0.00349821,0.00526598 -0.00349821,0.00875174 1.24491e-005,0.00348576 0.00117022,0.00702131 0.00349821,0.0105071 0.00352311,0.00235289 0.00699641,0.00353555 0.010532,0.00353555 0.017491,0.00112042 0.0443438,-0.0210515 0.0805584,-0.066578 0.0326665,-0.040883 0.0484022,-0.068296 0.0472569,-0.0822888 0.00114532,-0.0198937 -0.01225,-0.0374097 -0.040273,-0.0525354 -0.0338368,-0.0175284 -0.0683084,-0.05139 -0.103315,-0.10161z"/>
   <path id="_437441152" class="fil27" d="M2.78472 3.39438c0.162262,-0.0612871 0.285546,-0.107548 0.369839,-0.138746 0.0421403,-0.0155988 0.0745454,-0.0274503 0.0971282,-0.0355049 0.0112914,-0.00402107 0.0201178,-0.00712091 0.0264171,-0.00922481l0.00741969 -0.00242758 0.00202921 -0.00057266 0.00043572 -0.000112042 -0.000971033 -0.00398372 0.000746948 0.00403352 0.000224084 -4.97965e-005 -0.000971033 -0.00398372 0.000746948 0.00403352c0.00964808,-0.00178023 0.0160594,-0.0110424 0.0143165,-0.0207278 -0.00178023,-0.00969788 -0.0110424,-0.0160967 -0.0207278,-0.0143165 -0.00423271,0.000846541 -0.00765622,0.00206656 -0.0145655,0.00434475 -0.0461489,0.0154867 -0.210515,0.076612 -0.494679,0.183911 -0.00918746,0.00348576 -0.0138061,0.0137812 -0.0103577,0.0229687 0.00348576,0.00918746 0.0137438,0.0138559 0.0229687,0.0103577zm0.0312722 0.163968c0.086646,-0.00356045 0.206842,-0.0194331 0.361436,-0.0475433 0.00964808,-0.00174288 0.0161092,-0.011005 0.0143165,-0.0206905 -0.00173043,-0.00968543 -0.0110299,-0.0160967 -0.0206905,-0.0143539 -0.153622,0.0279608 -0.272798,0.0435969 -0.356531,0.0470204 -0.00982237,0.000385923 -0.0174786,0.0086895 -0.0170553,0.0185119 0.000398372,0.00983482 0.0086895,0.0174537 0.0185243,0.0170553zm-0.0470453 0.0971531c0.0421652,0.0264295 0.132509,0.0747571 0.272835,0.146128 0.00880154,0.00444434 0.0195078,0.000958584 0.0239646,-0.00779316 0.00445679,-0.00877664 0.000958584,-0.0194829 -0.00779316,-0.0239397 -0.139854,-0.0711344 -0.230421,-0.119624 -0.270072,-0.144547 -0.00832847,-0.00524109 -0.0193335,-0.00275126 -0.0245621,0.00558966 -0.00519129,0.00832847 -0.00271391,0.0193335 0.00562701,0.0245621zm0.382064 0.200693c0.0301643,0.0139555 0.0615361,0.0290563 0.0940408,0.0453398 0.00881399,0.00436965 0.0195327,0.000809194 0.0239148,-0.00799235 0.00440699,-0.00880154 0.000846541,-0.0194704 -0.00794255,-0.0238899 -0.0328782,-0.0164204 -0.0645737,-0.0316582 -0.0950616,-0.0458004 -0.00893848,-0.00413311 -0.0195202,-0.000211635 -0.0236409,0.0086895 -0.00413311,0.00893848 -0.000248983,0.0195202 0.0086895,0.0236534zm-1.33292 -1.52545c0.0831229,0.0398248 0.148717,0.0691425 0.197331,0.0880901 0.0275748,0.010781 0.0574154,0.0203543 0.0896089,0.0286704 0.00951114,0.00244003 0.0192339,-0.00324922 0.0216864,-0.0127977 0.00246493,-0.00951114 -0.00327412,-0.0192215 -0.0127853,-0.0216864 -0.0309112,-0.0079799 -0.0594322,-0.01713 -0.085538,-0.0273508 -0.0471947,-0.0184123 -0.112291,-0.0474437 -0.194929,-0.0870444 -0.00886379,-0.00427005 -0.0195078,-0.000497965 -0.023753,0.00836582 -0.00422026,0.00886379 -0.000485516,0.0194829 0.00837827,0.023753zm-0.0311228 0.15849c0.132807,0.0434848 0.246082,0.0689558 0.340397,0.0761389l0.00135696 -0.01774 -0.00641131 -0.016632c-0.0310979,0.0119761 -0.0791392,0.0330898 -0.144671,0.063503l0.00751928 0.0161714 -0.0072703 -0.0162835c-0.0970037,0.0432483 -0.162399,0.0729893 -0.196684,0.0895342 -0.00883889,0.0042825 -0.0125861,0.014939 -0.00830357,0.023753 0.00427005,0.00887623 0.0149265,0.0125861 0.0237779,0.00830357 0.0334882,-0.0161341 0.098871,-0.0459 0.1957,-0.0890736l0.000248983 -9.95931e-005c0.0651837,-0.0302763 0.112939,-0.0512157 0.142455,-0.0625694 0.00778071,-0.00300024 0.0124242,-0.0109303 0.011254,-0.0191966 -0.00120757,-0.00822888 -0.00796745,-0.0145281 -0.016271,-0.0151755 -0.0900944,-0.00684703 -0.201004,-0.0315461 -0.332031,-0.0745081 -0.0093244,-0.00305004 -0.0194082,0.00202921 -0.0224707,0.0114034 -0.00306249,0.0093244 0.00202921,0.0194082 0.0114034,0.0224707zm0.852592 -0.0126732c0.110536,-0.0749438 0.209793,-0.116673 0.296763,-0.126645 0.00976012,-0.00114532 0.0167814,-0.00997176 0.0156735,-0.0197319 -0.00113287,-0.00979747 -0.00997176,-0.0168063 -0.0197319,-0.015661 -0.0951239,0.0110299 -0.199074,0.0556601 -0.312685,0.132509 -0.00815418,0.00551497 -0.0102954,0.0166071 -0.00478047,0.0247489 0.00552742,0.00811684 0.0165947,0.0102581 0.0247613,0.00478047zm0.318312 0.000908787c-0.0462236,0.00713336 -0.115279,0.0206033 -0.207701,0.0404721l0.00374719 0.0174039 -0.00319943 -0.0175159c-0.0572785,0.010532 -0.0976012,0.0181384 -0.121093,0.0228317 -0.007955,0.00156859 -0.013831,0.00834092 -0.0142916,0.0164578 -0.000448169,0.00807949 0.00459373,0.0154867 0.0123246,0.0179392 0.0583491,0.0186613 0.103676,0.0334135 0.135932,0.0441571 0.0161465,0.00537803 0.0290314,0.00977257 0.0385799,0.0131463 0.00946134,0.00334882 0.0159224,0.00581375 0.0179766,0.00677233l8.7144e-005 3.73474e-005c0.0204788,0.00911277 0.0378827,0.0181633 0.0522366,0.0269648 0.00836582,0.00515394 0.0193335,0.00251473 0.0244626,-0.00585109 0.00517884,-0.00840317 0.00252717,-0.0193335 -0.00583865,-0.0244999 -0.0160594,-0.00987217 -0.0347953,-0.0195078 -0.0563448,-0.029131l7.46948e-005 2.48983e-005c-0.00436965,-0.00195451 -0.0108556,-0.00436965 -0.0207901,-0.00789275 -0.0295667,-0.0104324 -0.087866,-0.0295916 -0.175508,-0.0576271l-0.00541537 0.0169433 0.00349821 0.0174537c0.023118,-0.00459373 0.0633786,-0.0121753 0.120545,-0.0226823l0.000535313 -0.000112042c0.092024,-0.0197941 0.160718,-0.0331769 0.205597,-0.0400987 0.00972278,-0.0014939 0.0163706,-0.0105693 0.0148767,-0.0202921 -0.00148145,-0.00972278 -0.0105818,-0.0163831 -0.0202921,-0.0149016z"/>
  </g>
 </g>
</svg>
