<?xml version="1.0" encoding="utf-8"?>
<svg width="101px" height="152px" viewBox="0 0 101 152" version="1.1" xmlns:xlink="http://www.w3.org/1999/xlink" xmlns="http://www.w3.org/2000/svg">
  <desc>Created with Lunacy</desc>
  <g id="buled" transform="translate(-84.00003 0)">
    <path d="M0 8.2742C0 3.70448 4.15793 0 9.28701 0C14.4161 0 18.574 3.70448 18.574 8.2742C18.574 12.8439 14.4161 16.5484 9.28701 16.5484C4.15793 16.5484 0 12.8439 0 8.2742Z" transform="translate(66.17038 0.612793)" id="Ellipse-3" fill="#2B246C" stroke="none" />
    <path d="M0 8.27421C0 3.70449 4.15794 0 9.28701 0C14.4161 0 18.574 3.70449 18.574 8.27421C18.574 12.8439 14.4161 16.5484 9.28701 16.5484C4.15794 16.5484 0 12.8439 0 8.27421Z" transform="translate(99.25562 0.612793)" id="Ellipse-4" fill="#2B246C" stroke="none" />
    <path d="M0 8.2742C0 3.70448 4.15794 0 9.28703 0C14.4161 0 18.5741 3.70448 18.5741 8.2742C18.5741 12.8439 14.4161 16.5484 9.28703 16.5484C4.15794 16.5484 0 12.8439 0 8.2742Z" transform="translate(132.3407 0.612793)" id="Ellipse-5" fill="#2B246C" stroke="none" />
    <path d="M0 8.2742C0 3.70449 4.15793 0 9.287 0C14.4161 0 18.574 3.70449 18.574 8.2742C18.574 12.8439 14.4161 16.5484 9.287 16.5484C4.15793 16.5484 0 12.8439 0 8.2742Z" transform="translate(165.4261 0)" id="Ellipse-6" fill="#2B246C" stroke="none" />
    <path d="M0 8.27421C0 3.70449 4.15794 0 9.28701 0C14.4161 0 18.574 3.70449 18.574 8.27421C18.574 12.8439 14.4161 16.5484 9.28701 16.5484C4.15794 16.5484 0 12.8439 0 8.27421Z" transform="translate(66.17026 27.58057)" id="Ellipse-9" fill="#2B246C" stroke="none" />
    <path d="M0 8.27421C0 3.70449 4.15793 0 9.287 0C14.4161 0 18.574 3.70449 18.574 8.27421C18.574 12.8439 14.4161 16.5484 9.287 16.5484C4.15793 16.5484 0 12.8439 0 8.27421Z" transform="translate(99.25552 27.58032)" id="Ellipse-10" fill="#2B246C" stroke="none" />
    <path d="M0 8.27421C0 3.70449 4.15793 0 9.287 0C14.4161 0 18.574 3.70449 18.574 8.27421C18.574 12.8439 14.4161 16.5484 9.287 16.5484C4.15793 16.5484 0 12.8439 0 8.27421Z" transform="translate(132.3406 27.58032)" id="Ellipse-11" fill="#2B246C" stroke="none" />
    <path d="M0 8.27421C0 3.70449 4.15793 0 9.28699 0C14.4161 0 18.574 3.70449 18.574 8.27421C18.574 12.8439 14.4161 16.5484 9.28699 16.5484C4.15793 16.5484 0 12.8439 0 8.27421Z" transform="translate(165.4259 27.58057)" id="Ellipse-12" fill="#2B246C" stroke="none" />
    <path d="M0 8.27421C0 3.70449 4.15793 0 9.28701 0C14.4161 0 18.574 3.70449 18.574 8.27421C18.574 12.8439 14.4161 16.5484 9.28701 16.5484C4.15793 16.5484 0 12.8439 0 8.27421Z" transform="translate(66.17038 54.54834)" id="Ellipse-15" fill="#2B246C" stroke="none" />
    <path d="M0 8.27421C0 3.70449 4.15794 0 9.28701 0C14.4161 0 18.574 3.70449 18.574 8.27421C18.574 12.8439 14.4161 16.5484 9.28701 16.5484C4.15794 16.5484 0 12.8439 0 8.27421Z" transform="translate(99.25562 54.5481)" id="Ellipse-16" fill="#2B246C" stroke="none" />
    <path d="M0 8.27421C0 3.70449 4.15794 0 9.28703 0C14.4161 0 18.5741 3.70449 18.5741 8.27421C18.5741 12.8439 14.4161 16.5484 9.28703 16.5484C4.15794 16.5484 0 12.8439 0 8.27421Z" transform="translate(132.3407 54.54834)" id="Ellipse-17" fill="#2B246C" stroke="none" />
    <path d="M0 8.27421C0 3.70449 4.15793 0 9.287 0C14.4161 0 18.574 3.70449 18.574 8.27421C18.574 12.8439 14.4161 16.5484 9.287 16.5484C4.15793 16.5484 0 12.8439 0 8.27421Z" transform="translate(165.4261 53.93555)" id="Ellipse-18" fill="#2B246C" stroke="none" />
    <path d="M0 8.27421C0 3.70449 4.15794 0 9.28701 0C14.4161 0 18.574 3.70449 18.574 8.27421C18.574 12.8439 14.4161 16.5484 9.28701 16.5484C4.15794 16.5484 0 12.8439 0 8.27421Z" transform="translate(66.17026 81.51587)" id="Ellipse-21" fill="#2B246C" stroke="none" />
    <path d="M0 8.27421C0 3.70449 4.15793 0 9.287 0C14.4161 0 18.574 3.70449 18.574 8.27421C18.574 12.8439 14.4161 16.5484 9.287 16.5484C4.15793 16.5484 0 12.8439 0 8.27421Z" transform="translate(99.25552 81.51587)" id="Ellipse-22" fill="#2B246C" stroke="none" />
    <path d="M0 8.27421C0 3.70449 4.15793 0 9.287 0C14.4161 0 18.574 3.70449 18.574 8.27421C18.574 12.8439 14.4161 16.5484 9.287 16.5484C4.15793 16.5484 0 12.8439 0 8.27421Z" transform="translate(132.3406 81.51587)" id="Ellipse-23" fill="#2B246C" stroke="none" />
    <path d="M0 8.27421C0 3.70449 4.15793 0 9.28699 0C14.4161 0 18.574 3.70449 18.574 8.27421C18.574 12.8439 14.4161 16.5484 9.28699 16.5484C4.15793 16.5484 0 12.8439 0 8.27421Z" transform="translate(165.4259 81.51587)" id="Ellipse-24" fill="#2B246C" stroke="none" />
    <path d="M0 8.27423C0 3.7045 4.15793 0 9.28701 0C14.4161 0 18.574 3.7045 18.574 8.27423C18.574 12.844 14.4161 16.5485 9.28701 16.5485C4.15793 16.5485 0 12.844 0 8.27423Z" transform="translate(66.17038 107.8708)" id="Ellipse-27" fill="#2B246C" stroke="none" />
    <path d="M0 8.27421C0 3.70449 4.15794 0 9.28701 0C14.4161 0 18.574 3.70449 18.574 8.27421C18.574 12.8439 14.4161 16.5484 9.28701 16.5484C4.15794 16.5484 0 12.8439 0 8.27421Z" transform="translate(99.25562 107.8708)" id="Ellipse-28" fill="#2B246C" stroke="none" />
    <path d="M0 8.27423C0 3.7045 4.15794 0 9.28703 0C14.4161 0 18.5741 3.7045 18.5741 8.27423C18.5741 12.844 14.4161 16.5485 9.28703 16.5485C4.15794 16.5485 0 12.844 0 8.27423Z" transform="translate(132.3407 107.8708)" id="Ellipse-29" fill="#2B246C" stroke="none" />
    <path d="M0 8.27422C0 3.70449 4.15793 0 9.287 0C14.4161 0 18.574 3.70449 18.574 8.27422C18.574 12.8439 14.4161 16.5484 9.287 16.5484C4.15793 16.5484 0 12.8439 0 8.27422Z" transform="translate(165.4261 107.2581)" id="Ellipse-30" fill="#2B246C" stroke="none" />
    <path d="M0 8.27422C0 3.7045 4.15794 0 9.28701 0C14.4161 0 18.574 3.7045 18.574 8.27422C18.574 12.844 14.4161 16.5484 9.28701 16.5484C4.15794 16.5484 0 12.844 0 8.27422Z" transform="translate(66.17026 134.8386)" id="Ellipse-33" fill="#2B246C" stroke="none" />
    <path d="M0 8.2742C0 3.70449 4.15793 0 9.287 0C14.4161 0 18.574 3.70449 18.574 8.2742C18.574 12.8439 14.4161 16.5484 9.287 16.5484C4.15793 16.5484 0 12.8439 0 8.2742Z" transform="translate(99.25552 134.8384)" id="Ellipse-34" fill="#2B246C" stroke="none" />
    <path d="M0 8.2742C0 3.70449 4.15793 0 9.287 0C14.4161 0 18.574 3.70449 18.574 8.2742C18.574 12.8439 14.4161 16.5484 9.287 16.5484C4.15793 16.5484 0 12.8439 0 8.2742Z" transform="translate(132.3406 134.8384)" id="Ellipse-35" fill="#2B246C" stroke="none" />
    <path d="M0 8.27422C0 3.7045 4.15793 0 9.28699 0C14.4161 0 18.574 3.7045 18.574 8.27422C18.574 12.844 14.4161 16.5484 9.28699 16.5484C4.15793 16.5484 0 12.844 0 8.27422Z" transform="translate(165.4259 134.8386)" id="Ellipse-36" fill="#2B246C" stroke="none" />
  </g>
</svg>