<?xml version="1.0" encoding="UTF-8"?>
<!DOCTYPE svg PUBLIC "-//W3C//DTD SVG 1.1//EN" "http://www.w3.org/Graphics/SVG/1.1/DTD/svg11.dtd">
<!-- Creator: CorelDRAW -->
<svg xmlns="http://www.w3.org/2000/svg" xml:space="preserve" width="24.4521mm" height="23.8788mm" style="shape-rendering:geometricPrecision; text-rendering:geometricPrecision; image-rendering:optimizeQuality; fill-rule:evenodd; clip-rule:evenodd"
viewBox="0 0 1.81072 1.76827"
 xmlns:xlink="http://www.w3.org/1999/xlink">
 <defs>
  <style type="text/css">
   <![CDATA[
    .fil1 {fill:#ABDDF6}
    .fil5 {fill:#D1EBF5}
    .fil4 {fill:#DFDFDF}
    .fil0 {fill:#F2F5CC}
    .fil3 {fill:#F7F7F7}
    .fil2 {fill:#FAE2C6}
   ]]>
  </style>
 </defs>
 <g id="Layer_x0020_1">
  <metadata id="CorelCorpID_0Corel-Layer"/>
  <g id="_241375056">
   <path id="_438377440" class="fil0" d="M1.55585 1.51251c0.169949,-0.170549 0.254864,-0.37585 0.254864,-0.615992 1.48104e-005,-0.241312 -0.08493,-0.447243 -0.254871,-0.617755 -0.169912,-0.169327 -0.375531,-0.253975 -0.616844,-0.253975 -0.240705,0 -0.446051,0.0846486 -0.615948,0.253975 -0.170526,0.170512 -0.255782,0.37645 -0.255782,0.617755 7.40518e-006,0.240142 0.0852484,0.445444 0.255782,0.615992 0.169897,0.170497 0.375235,0.25576 0.615948,0.25576 0.24132,0 0.446932,-0.0852632 0.616851,-0.25576z"/>
   <polygon id="_438377656" class="fil1" points="1.21336,0.203539 1.02395,0.19911 1.02395,1.00006 1.21336,1.05231 "/>
   <path id="_438377752" class="fil2" d="M1.52665 0.960237c-2.96207e-005,-0.00942679 0.000259181,-0.0200162 0.000873811,-0.0318571 0.00129591,-0.0113151 -0.0158471,-0.023119 -0.0513327,-0.0354041 -0.101214,-0.00908615 -0.208582,-0.0291616 -0.322147,-0.0601597 0.0129887,-0.00652396 0.0445718,-0.017143 0.0947196,-0.0318793 0.0430463,-0.0206382 0.0646028,-0.0525397 0.0646028,-0.095586 7.40518e-006,-0.0194904 -0.00355448,-0.0360114 -0.0106264,-0.0495554 -0.0106783,-0.0195275 -0.0215861,-0.027214 -0.0327531,-0.0230227 -0.0104857,0.00428019 -0.0222674,0.0101895 -0.0353967,0.017691 -0.0125222,0.00766436 -0.0311017,0.0188758 -0.0557832,0.0336343 -0.0241038,0.0146993 -0.0441867,0.0235411 -0.0601597,0.0265476 -0.0152695,0.00298429 -0.0324125,0.00506514 -0.0513327,0.00619073 -0.0707935,-0.000577604 -0.115935,0.00149585 -0.135404,0.00619813 -0.0253405,0.00591674 -0.0637067,0.0472006 -0.115054,0.123911 -0.0491926,-0.00974521 -0.187225,-0.0569828 -0.414157,-0.141594 -0.140913,-0.0522583 -0.248866,-0.0929572 -0.323925,-0.122126 -0.0747997,0.147481 -0.0963043,0.294993 -0.0646176,0.442533 0.169882,0.0270141 0.429493,0.0639215 0.778802,0.110626 0.00237706,0.0796279 0.0144623,0.12537 0.0362854,0.137144 0.00885659,0.00532432 0.0389586,0.00797538 0.0902839,0.00797538 0.00826418,0 0.028621,-0.000918242 0.0610631,-0.00265105 0.018276,-0.000592414 0.0315609,0.000296207 0.039825,0.00265105 0.00590933,0.00174762 0.0165209,0.00914539 0.0318793,0.0221119 0.0241483,0.020653 0.0533839,0.0421799 0.0875736,0.0646324 0.0206753,0.0135367 0.0475412,0.0279842 0.0805683,0.0433425 0.00654618,0.00298429 0.0124481,0.00563534 0.0177058,0.00799019l0.0044283 0.00175503c0.00762733,-0.000888621 0.0217786,-0.00298429 0.0424539,-0.00616111 0.0295096,-0.0106783 0.0413061,-0.0359966 0.0353967,-0.0761622 -0.0198237,-0.0138551 -0.0510957,-0.0333011 -0.0938014,-0.0584268 -0.0293319,-0.0173874 -0.054702,-0.0327679 -0.0761178,-0.0459936 0.0538801,0.0269697 0.111411,0.0493629 0.172607,0.0672686 0.0376553,0.0107597 0.0686238,0.0181057 0.0929202,0.0221341 0.00739037,-0.00201421 0.0182982,-0.00495406 0.0327235,-0.00885659 0.0277472,-0.0100636 0.0418837,-0.0197644 0.0424983,-0.0292134 0.00115521,-0.00878994 0.00173281,-0.0226672 0.00173281,-0.0415801 0.000733112,-0.0190535 -0.00545762,-0.0293837 -0.01855,-0.0309759 -0.0178094,-0.011167 -0.0408247,-0.0214824 -0.0690162,-0.0309684 -0.0642547,-0.0217416 -0.117342,-0.0397214 -0.15933,-0.0539985 0.0556351,0.0141661 0.107531,0.0250813 0.155783,0.0327309 0.0488668,0.00775322 0.0807386,0.0106931 0.095549,0.00883438 0.0155287,-0.00174022 0.0275991,-0.00260662 0.0362854,-0.00260662 0.00917501,0.000459121 0.018898,-0.00750144 0.0292134,-0.0239187 0.0104487,-0.0158693 0.0154694,-0.0291764 0.0150399,-0.0398473 -0.000525768,-0.0105968 -0.00465786,-0.0197274 -0.012374,-0.027414 -0.0274436,-0.00781246 -0.0699271,-0.0181575 -0.127443,-0.0309684 -0.0674019,-0.0147289 -0.146482,-0.0380256 -0.237203,-0.0699567 0.0328864,0.00932312 0.0747923,0.0164025 0.12571,0.0212751 0.0801018,0.0077236 0.138803,0.00949344 0.176088,0.0052947 0.00296207,-0.00222896 0.00593155,-0.00521324 0.00885659,-0.00885659 0.0100414,-0.0117742 0.0150547,-0.0227043 0.0150547,-0.0327309z"/>
   <path id="_438377272" class="fil3" d="M1.26741 0.225658c-0.00941198,9.62673e-005 -0.0187573,9.62673e-005 -0.0281026,0 -0.0814421,-0.000533173 -0.161462,-0.001718 -0.240157,-0.00352486 -0.0100044,-0.000251776 -0.0200902,-0.000503552 -0.030302,-0.000910837 -0.000733112,0.00769398 -0.00111818,0.0168468 -0.00111818,0.0274584l0.00111818 0.0212232 0.16946 0.00356189c0.0332196,0 0.0762363,-0.00148104 0.129094,-0.00442089l7.40518e-006 -0.0433869z"/>
   <path id="_438377296" class="fil4" d="M1.23932 0c-0.0534061,0.00167357 -0.133441,0.00258441 -0.240165,0.00265105l0 0.219482c0.0786948,0.00180686 0.158708,0.00299169 0.240157,0.00352486l7.40518e-006 -0.225658z"/>
   <path id="_438377248" class="fil5" d="M1.09035 0.637201c0.0011478,-0.0052947 0.00179946,-0.009723 0.00179946,-0.0132849 0,-0.0100192 -0.00356189,-0.0194682 -0.0106338,-0.0283248 -0.0088714,-0.0111892 -0.0212677,-0.0159285 -0.037174,-0.0141735l-0.000888621 0.008864c0.00292504,0.0112411 0.00884919,0.0247777 0.0177058,0.0407359 0.00885659,0.0159211 0.0147215,0.0238891 0.0176836,0.0238891 0.00707935,0 0.0100266,-0.00117742 0.00885659,-0.00353227 7.40518e-006,-0.0041543 0.000888621,-0.00885659 0.00265105,-0.0141735zm-0.0636919 -0.118594c-0.0112781,0.00119223 -0.0168542,0.00589452 -0.0168542,0.0141587 7.40518e-006,0.0106338 0.00621294,0.0159285 0.0185796,0.0159285 0.0035693,0 0.00710156,-0.00146622 0.0106338,-0.0044283 0.00293245,-0.00294726 0.0044283,-0.00650915 0.0044283,-0.0105894 7.40518e-006,-0.010619 -0.00561312,-0.0156397 -0.0167949,-0.0150695zm-0.0894175 -0.0415801l-0.00265105 -0.00707935 -0.00355448 -0.00177724 -0.00705713 0 -0.000910837 0c-0.000570199,0.000592414 -0.000873811,0.00322125 -0.000873811,0.00796797 7.40518e-006,0.00410247 0.000577604,0.00647953 0.00178465,0.00707935 0.000577604,-7.40518e-006 0.00234744,-0.000303612 0.00531692,-0.000896026 0.00232523,-0.000592414 0.00499849,-0.00234744 0.00793835,-0.0052947zm0.205323 0.115054c0.00118483,0.000585009 0.00383588,0.00118483 0.00796056,0.00175503 0.00769398,-0.00235485 0.0132849,-0.00709416 0.0168394,-0.0141735 -0.00768657,-0.00942679 -0.0144623,-0.012374 -0.0203716,-0.00884919 -0.0052947,0.00236225 -0.00799019,0.00651656 -0.00799019,0.0124111 0,0.00470229 0.00120704,0.00764955 0.00355448,0.00885659zm-0.193808 0.236307c0.00710156,0 0.0129813,-0.00209566 0.0176836,-0.00620554 0.0041543,-0.0041543 0.00623516,-0.00825677 0.00623516,-0.0124185 0,-0.011204 -0.00680536,-0.0167949 -0.020379,-0.0167949 -0.0141513,-7.40518e-006 -0.0212529,0.00559091 -0.0212529,0.0167949 7.40518e-006,0.00296948 0.000896026,0.00621294 0.00267327,0.00977483 0.00353967,0.00585749 0.00855298,0.00884919 0.0150399,0.00884919zm0.161092 -0.0398473l0 -0.0044283c0,-0.00707194 -0.00354708,-0.011204 -0.010619,-0.0124111 -0.00770879,-0.00116261 -0.0115076,0.00325828 -0.0115076,0.0132849 7.40518e-006,0.0047171 0.000888621,0.00768657 0.00265105,0.00884919 0.00179946,0.000570199 0.0044283,0.00119223 0.00796056,0.00179946 0.00294726,0 0.00676093,-0.00239187 0.0115076,-0.00709416zm0.180531 0.131849c0.0123963,0 0.0186018,-0.00559091 0.0186018,-0.0167949 0,-0.0100044 -0.00620554,-0.0153361 -0.0186018,-0.0159285 -0.0123666,-0.000599819 -0.0185796,0.00442089 -0.0185796,0.0150177 0,0.0118409 0.00621294,0.0177058 0.0185796,0.0177058zm0.0540208 -0.116787c0.000570199,0 0.00202902,-0.00266586 0.00440608,-0.00796797 -0.00590193,-0.00709416 -0.0121223,-0.0103302 -0.0186018,-0.00974521 -0.00647953,0.00116261 -0.00974521,0.00470969 -0.00974521,0.010619l0.0115225 0.0124111c0.00590193,-0.00061463 0.0100266,-0.00239928 0.0124185,-0.00531692z"/>
   <path id="_438378088" class="fil1" d="M0.866428 0.61597c0.0135811,0 0.0203346,-0.00768657 0.0203346,-0.0230227 0,-0.0118039 -0.00675352,-0.0185796 -0.0203346,-0.020379 -0.0135737,-0.00175503 -0.0203568,0.00502071 -0.0203568,0.020379 0,0.000592414 0.000888621,0.0044283 0.00266586,0.0115002 0.00294726,0.00768657 0.00883438,0.0115225 0.017691,0.0115225zm0.146045 0.128339c0.0129442,0 0.0194682,-0.00767176 0.0194682,-0.0230523 7.40518e-006,-0.0141291 -0.0177058,-0.0321311 -0.0531099,-0.0539541 -0.0359669,-0.0218379 -0.0539763,-0.0194904 -0.0539763,0.00705713 0,-0.000592414 0.0117742,0.010656 0.0353967,0.0336417 0.0259774,0.0241853 0.0433647,0.0363076 0.0522213,0.0363076zm-0.0575308 -0.124822l0.00442089 0.00976743c0.00351746,0.00767176 0.00826418,0.0115076 0.0141513,0.0115076 0.00767176,-7.40518e-006 0.0135811,-0.00239928 0.0177058,-0.00710156 0.00354708,-0.00355448 0.00530211,-0.00707194 0.00530211,-0.0106116 0,-0.00531692 -0.00677574,-0.0103376 -0.0203346,-0.0150621 -0.0141735,-0.00413209 -0.0212529,-0.000273992 -0.0212529,0.0115076zm-0.0371814 -0.0760956l0.00267327 -0.00707935c0,-0.00590933 -0.00299169,-0.00944901 -0.00885659,-0.0106116 -0.0047171,0 -0.00769398,0.00383588 -0.00885659,0.011478 0.000577604,0.00120704 0.000896026,0.00296948 0.000896026,0.00532432 0.000570199,0.00174762 0.00323606,0.00264365 0.00796056,0.00264365 0.00764955,0 0.009723,-0.000577604 0.00618332,-0.00175503zm0.357559 0.0628255c-0.00119223,-0.00470229 -0.00176984,-0.00796056 -0.00176984,-0.009723 -0.0171356,0.000599819 -0.0392548,0.0132627 -0.0663652,0.0380256 -0.0253775,0.0241927 -0.0380922,0.0413135 -0.0380922,0.0513327 0,0.000592414 0,0.0041543 0,0.0106338 0.00178465,0.00589452 0.00710156,0.00885659 0.0159508,0.00885659 0.0601671,-0.0566496 0.0902691,-0.0896989 0.0902691,-0.0991257zm0.0619665 -0.0389364l0.00267327 -0.00974521c-0.00888621,-0.0123889 -0.0162544,-0.0165209 -0.0221415,-0.0123889 -0.00474672,0.00294726 -0.00710156,0.00710156 -0.00710156,0.0123889 0,0.00767176 0.000296207,0.0109374 0.000888621,0.00974521l0.0132923 0.00527249 0.0123889 -0.00527249z"/>
  </g>
 </g>
</svg>
