<?xml version="1.0" encoding="UTF-8"?>
<!DOCTYPE svg PUBLIC "-//W3C//DTD SVG 1.1//EN" "http://www.w3.org/Graphics/SVG/1.1/DTD/svg11.dtd">
<!-- Creator: CorelDRAW -->
<svg xmlns="http://www.w3.org/2000/svg" xml:space="preserve" width="30.7231mm" height="32.9039mm" style="shape-rendering:geometricPrecision; text-rendering:geometricPrecision; image-rendering:optimizeQuality; fill-rule:evenodd; clip-rule:evenodd"
viewBox="0 0 3.82782 4.09952"
 xmlns:xlink="http://www.w3.org/1999/xlink">
 <defs>
  <style type="text/css">
   <![CDATA[
    .fil31 {fill:#6D6C6A}
    .fil30 {fill:#7A7065}
    .fil0 {fill:#A6DBF2}
    .fil33 {fill:#C3E5F5}
    .fil32 {fill:#F4A983}
    .fil29 {fill:#F6BEAE}
    .fil28 {fill:#F7C0AF}
    .fil27 {fill:#F7C2B0}
    .fil26 {fill:#F7C2B2}
    .fil25 {fill:#F7C4B3}
    .fil24 {fill:#F7C4B5}
    .fil23 {fill:#F7C6B6}
    .fil22 {fill:#F8C8B7}
    .fil21 {fill:#F8CBB8}
    .fil20 {fill:#F8CBBA}
    .fil19 {fill:#F8CCBB}
    .fil18 {fill:#F9CEBC}
    .fil17 {fill:#F9D0BD}
    .fil16 {fill:#F9D0BE}
    .fil15 {fill:#F9D2BF}
    .fil14 {fill:#F9D4C0}
    .fil13 {fill:#F9D4C2}
    .fil12 {fill:#FAD6C3}
    .fil11 {fill:#FAD7C4}
    .fil10 {fill:#FADAC5}
    .fil9 {fill:#FBDCC6}
    .fil8 {fill:#FBDCC8}
    .fil7 {fill:#FBDDC8}
    .fil6 {fill:#FBDFC9}
    .fil5 {fill:#FBDFCB}
    .fil4 {fill:#FBE1CC}
    .fil3 {fill:#FCE3CD}
    .fil2 {fill:#FCE4CE}
    .fil1 {fill:#FCE7D2}
   ]]>
  </style>
 </defs>
 <g id="Layer_x0020_1">
  <metadata id="CorelCorpID_0Corel-Layer"/>
  <g id="_238282672">
   <path id="_437423392" class="fil0" d="M0.560908 0.559114c-0.373934,0.373922 -0.560908,0.825514 -0.560908,1.35486 0,0.528116 0.186973,0.979172 0.560895,1.35306 0.372676,0.373847 0.823732,0.560821 1.35301,0.560821 0.529299,0 0.980343,-0.186973 1.35306,-0.560821 0.373922,-0.373897 0.560858,-0.824941 0.560858,-1.35306 0,-0.529349 -0.186936,-0.980941 -0.560858,-1.35486 -0.372713,-0.372701 -0.823757,-0.559114 -1.35306,-0.559114 -0.529274,0 -0.98033,0.186413 -1.35299,0.559114z"/>
   <path id="_437422912" class="fil1" d="M1.29171 3.73686l1.62057 0c-0.0105279,0.0159352 -0.0214296,0.031073 -0.0326802,0.0454009 -0.105142,0.133225 -0.193913,0.218557 -0.26635,0.255947 -0.0818313,0.0408409 -0.213275,0.0613111 -0.39438,0.0613111 -0.278074,0 -0.528739,-0.0700699 -0.751868,-0.210322 -0.0650738,-0.0402179 -0.123494,-0.0909887 -0.175287,-0.152337z"/>
   <polygon id="_437423440" class="fil1" points="1.28675,3.73092 2.91615,3.73091 2.91227,3.73686 1.29171,3.73686 "/>
   <polygon id="_437423512" class="fil1" points="1.28188,3.72497 2.91994,3.72497 2.91615,3.73091 1.28675,3.73092 "/>
   <polygon id="_437423464" class="fil1" points="1.27708,3.71902 2.92369,3.71902 2.91994,3.72497 1.28188,3.72497 "/>
   <polygon id="_437423560" class="fil1" points="1.27238,3.71308 2.92736,3.71308 2.92369,3.71902 1.27708,3.71902 "/>
   <polygon id="_437423920" class="fil1" points="1.26777,3.70713 2.93092,3.70713 2.92736,3.71308 1.27238,3.71308 "/>
   <polygon id="_437423536" class="fil1" points="1.26325,3.70118 2.93443,3.70118 2.93092,3.70713 1.26777,3.70713 "/>
   <polygon id="_437423632" class="fil1" points="1.25879,3.69524 2.93789,3.69524 2.93443,3.70118 1.26325,3.70118 "/>
   <polygon id="_437423896" class="fil1" points="1.25443,3.6893 2.94127,3.6893 2.93789,3.69524 1.25879,3.69524 "/>
   <polygon id="_437424136" class="fil1" points="1.25014,3.68334 2.94458,3.68334 2.94127,3.6893 1.25443,3.6893 "/>
   <polygon id="_437424064" class="fil1" points="1.24593,3.6774 2.94786,3.6774 2.94458,3.68334 1.25014,3.68334 "/>
   <polygon id="_437424880" class="fil1" points="1.24177,3.67145 2.95105,3.67145 2.94786,3.6774 1.24593,3.6774 "/>
   <polygon id="_437424304" class="fil1" points="1.23771,3.66551 2.95419,3.66551 2.95105,3.67145 1.24177,3.67145 "/>
   <polygon id="_437424784" class="fil1" points="1.2337,3.65956 2.95729,3.65956 2.95419,3.66551 1.23771,3.66551 "/>
   <polygon id="_437424568" class="fil1" points="1.22975,3.65363 2.96032,3.65363 2.95729,3.65956 1.2337,3.65956 "/>
   <polygon id="_437424760" class="fil1" points="1.22586,3.64767 2.96329,3.64767 2.96032,3.65363 1.22975,3.65363 "/>
   <polygon id="_437424832" class="fil1" points="1.22206,3.64173 2.96622,3.64173 2.96329,3.64767 1.22586,3.64767 "/>
   <polygon id="_437424664" class="fil1" points="1.21831,3.63577 2.9691,3.63577 2.96622,3.64173 1.22206,3.64173 "/>
   <polygon id="_437424448" class="fil1" points="1.21461,3.62984 2.97193,3.62984 2.9691,3.63577 1.21831,3.63577 "/>
   <polygon id="_437424712" class="fil1" points="1.21099,3.62389 2.97472,3.62389 2.97193,3.62984 1.21461,3.62984 "/>
   <polygon id="_437424856" class="fil1" points="1.20742,3.61794 2.97745,3.61794 2.97472,3.62389 1.21099,3.62389 "/>
   <polygon id="_437424280" class="fil1" points="1.20388,3.612 2.98016,3.612 2.97745,3.61794 1.20742,3.61794 "/>
   <polygon id="_437425120" class="fil1" points="1.20043,3.60606 2.98279,3.60606 2.98016,3.612 1.20388,3.612 "/>
   <polygon id="_437425072" class="fil1" points="1.19702,3.6001 2.9854,3.6001 2.98279,3.60606 1.20043,3.60606 "/>
   <polygon id="_437425552" class="fil1" points="1.19365,3.59416 2.98797,3.59416 2.9854,3.6001 1.19702,3.6001 "/>
   <polygon id="_437425168" class="fil1" points="1.19037,3.58822 2.99049,3.58822 2.98797,3.59416 1.19365,3.59416 "/>
   <polygon id="_437425312" class="fil1" points="1.1871,3.58227 2.99298,3.58227 2.99049,3.58822 1.19037,3.58822 "/>
   <polygon id="_437425360" class="fil1" points="1.18389,3.57632 2.99543,3.57632 2.99298,3.58227 1.1871,3.58227 "/>
   <polygon id="_437425384" class="fil1" points="1.18073,3.57037 2.99783,3.57037 2.99543,3.57632 1.18389,3.57632 "/>
   <polygon id="_437425432" class="fil1" points="1.17761,3.56443 3.00021,3.56443 2.99783,3.57037 1.18073,3.57037 "/>
   <polygon id="_437425600" class="fil1" points="1.17456,3.55848 3.00254,3.55848 3.00021,3.56443 1.17761,3.56443 "/>
   <polygon id="_437425048" class="fil1" points="1.17154,3.55253 3.00484,3.55253 3.00254,3.55848 1.17456,3.55848 "/>
   <polygon id="_437425840" class="fil1" points="1.16855,3.54659 3.0071,3.54659 3.00484,3.55253 1.17154,3.55253 "/>
   <polygon id="_437426440" class="fil1" points="1.16563,3.54065 3.00933,3.54065 3.0071,3.54659 1.16855,3.54659 "/>
   <polygon id="_437426464" class="fil1" points="1.16273,3.53469 3.01152,3.53469 3.00933,3.54065 1.16563,3.54065 "/>
   <polygon id="_437425864" class="fil1" points="1.15989,3.52875 3.01369,3.52875 3.01152,3.53469 1.16273,3.53469 "/>
   <polygon id="_437426488" class="fil1" points="1.15709,3.52281 3.01581,3.52281 3.01369,3.52875 1.15989,3.52875 "/>
   <polygon id="_437425744" class="fil1" points="1.15431,3.51686 3.01791,3.51686 3.01581,3.52281 1.15709,3.52281 "/>
   <polygon id="_437426008" class="fil1" points="1.15158,3.51091 3.01998,3.51091 3.01791,3.51686 1.15431,3.51686 "/>
   <polygon id="_437426176" class="fil1" points="1.14889,3.50496 3.02203,3.50496 3.01998,3.51091 1.15158,3.51091 "/>
   <polygon id="_437426248" class="fil1" points="1.14625,3.49902 3.02404,3.49902 3.02203,3.50496 1.14889,3.50496 "/>
   <polygon id="_437426320" class="fil1" points="1.14363,3.49308 3.02601,3.49308 3.02404,3.49902 1.14625,3.49902 "/>
   <polygon id="_437426392" class="fil1" points="1.14105,3.48712 3.02798,3.48712 3.02601,3.49308 1.14363,3.49308 "/>
   <polygon id="_437426824" class="fil2" points="1.13852,3.48119 3.02989,3.48119 3.02798,3.48712 1.14105,3.48712 "/>
   <polygon id="_437426728" class="fil2" points="1.13599,3.47524 3.03179,3.47524 3.02989,3.48119 1.13852,3.48119 "/>
   <polygon id="_437427040" class="fil2" points="1.13355,3.46929 3.03365,3.46929 3.03179,3.47524 1.13599,3.47524 "/>
   <polygon id="_437426992" class="fil2" points="1.13111,3.46335 3.03551,3.46335 3.03365,3.46929 1.13355,3.46929 "/>
   <polygon id="_437427016" class="fil2" points="1.12871,3.45741 3.03731,3.45741 3.03551,3.46335 1.13111,3.46335 "/>
   <polygon id="_437426896" class="fil2" points="1.12634,3.45145 3.03911,3.45145 3.03731,3.45741 1.12871,3.45741 "/>
   <polygon id="_437427256" class="fil2" points="1.12401,3.44551 3.04086,3.44551 3.03911,3.45145 1.12634,3.45145 "/>
   <polygon id="_437426512" class="fil2" points="1.1217,3.43957 3.04262,3.43957 3.04086,3.44551 1.12401,3.44551 "/>
   <polygon id="_437427160" class="fil2" points="1.11944,3.43362 3.04433,3.43362 3.04262,3.43957 1.1217,3.43957 "/>
   <polygon id="_437427232" class="fil2" points="1.11719,3.42767 3.04602,3.42767 3.04433,3.43362 1.11944,3.43362 "/>
   <polygon id="_437427424" class="fil2" points="1.11498,3.42172 3.04768,3.42172 3.04602,3.42767 1.11719,3.42767 "/>
   <polygon id="_437427448" class="fil3" points="1.11281,3.41578 3.04934,3.41578 3.04768,3.42172 1.11498,3.42172 "/>
   <polygon id="_437427592" class="fil3" points="1.11065,3.40984 3.05096,3.40984 3.04934,3.41578 1.11281,3.41578 "/>
   <polygon id="_437427616" class="fil3" points="1.10855,3.40388 3.05256,3.40388 3.05096,3.40984 1.11065,3.40984 "/>
   <polygon id="_437427640" class="fil3" points="1.10644,3.39794 3.05412,3.39794 3.05256,3.40388 1.10855,3.40388 "/>
   <polygon id="_437427520" class="fil3" points="1.10439,3.392 3.05569,3.392 3.05412,3.39794 1.10644,3.39794 "/>
   <polygon id="_437427952" class="fil3" points="1.10234,3.38604 3.05721,3.38604 3.05569,3.392 1.10439,3.392 "/>
   <polygon id="_437427664" class="fil3" points="1.10035,3.3801 3.05874,3.3801 3.05721,3.38604 1.10234,3.38604 "/>
   <polygon id="_437428024" class="fil3" points="1.09837,3.37416 3.06022,3.37416 3.05874,3.3801 1.10035,3.3801 "/>
   <polygon id="_437427760" class="fil3" points="1.09641,3.36821 3.06169,3.36821 3.06022,3.37416 1.09837,3.37416 "/>
   <polygon id="_437427928" class="fil3" points="1.09448,3.36226 3.06315,3.36226 3.06169,3.36821 1.09641,3.36821 1.09541,3.36519 "/>
   <polygon id="_437428408" class="fil4" points="1.09259,3.35631 3.06459,3.35631 3.06315,3.36226 1.09448,3.36226 "/>
   <polygon id="_437428600" class="fil4" points="1.09069,3.35037 3.06599,3.35037 3.06459,3.35631 1.09259,3.35631 "/>
   <polygon id="_437428240" class="fil4" points="1.08884,3.34443 3.06739,3.34443 3.06599,3.35037 1.09069,3.35037 "/>
   <polygon id="_437428504" class="fil4" points="1.08701,3.33847 3.06877,3.33847 3.06739,3.34443 1.08884,3.34443 "/>
   <polygon id="_437428192" class="fil4" points="1.0852,3.33254 3.07012,3.33254 3.06877,3.33847 1.08701,3.33847 "/>
   <polygon id="_437428672" class="fil4" points="1.0834,3.32659 3.07146,3.32659 3.07012,3.33254 1.0852,3.33254 "/>
   <polygon id="_437428144" class="fil4" points="1.08165,3.32064 3.07277,3.32064 3.07146,3.32659 1.0834,3.32659 "/>
   <polygon id="_437428792" class="fil4" points="1.0799,3.3147 3.07409,3.3147 3.07277,3.32064 1.08165,3.32064 "/>
   <polygon id="_437428312" class="fil4" points="1.0782,3.30876 3.07536,3.30876 3.07409,3.3147 1.0799,3.3147 "/>
   <polygon id="_437428360" class="fil4" points="1.0765,3.3028 3.07662,3.3028 3.07536,3.30876 1.0782,3.30876 "/>
   <polygon id="_437428912" class="fil4" points="1.07481,3.29686 3.07787,3.29686 3.07662,3.3028 1.0765,3.3028 "/>
   <polygon id="_437428840" class="fil4" points="1.07316,3.29092 3.0791,3.29092 3.07787,3.29686 1.07481,3.29686 "/>
   <polygon id="_437428936" class="fil4" points="1.07153,3.28497 3.08031,3.28497 3.0791,3.29092 1.07316,3.29092 "/>
   <polygon id="_437429392" class="fil4" points="1.06992,3.27902 3.0815,3.27902 3.08031,3.28497 1.07153,3.28497 "/>
   <polygon id="_437428960" class="fil5" points="1.06833,3.27308 3.08269,3.27308 3.0815,3.27902 1.06992,3.27902 "/>
   <polygon id="_437429560" class="fil5" points="1.06676,3.26713 3.08385,3.26713 3.08269,3.27308 1.06833,3.27308 "/>
   <polygon id="_437429008" class="fil5" points="1.0652,3.26119 3.08501,3.26119 3.08385,3.26713 1.06676,3.26713 "/>
   <polygon id="_437429488" class="fil6" points="1.06367,3.25523 3.08614,3.25523 3.08501,3.26119 1.0652,3.26119 "/>
   <polygon id="_437429152" class="fil6" points="1.06216,3.24929 3.08725,3.24929 3.08614,3.25523 1.06367,3.25523 "/>
   <polygon id="_437429440" class="fil6" points="1.06065,3.24335 3.08836,3.24335 3.08725,3.24929 1.06216,3.24929 "/>
   <polygon id="_437430232" class="fil6" points="1.0592,3.23741 3.08944,3.23741 3.08836,3.24335 1.06065,3.24335 "/>
   <polygon id="_437429608" class="fil6" points="1.05774,3.23145 3.09053,3.23145 3.08944,3.23741 1.0592,3.23741 "/>
   <polygon id="_437429656" class="fil6" points="1.05631,3.22552 3.09157,3.22551 3.09053,3.23145 1.05774,3.23145 "/>
   <polygon id="_437430064" class="fil6" points="1.05489,3.21956 3.09262,3.21956 3.09157,3.22551 1.05631,3.22552 "/>
   <polygon id="_437430136" class="fil7" points="1.05348,3.21361 3.09364,3.21361 3.09262,3.21956 1.05489,3.21956 "/>
   <polygon id="_437429944" class="fil7" points="1.05211,3.20767 3.09466,3.20767 3.09364,3.21361 1.05348,3.21361 "/>
   <polygon id="_437430088" class="fil7" points="1.05075,3.20172 3.09565,3.20172 3.09466,3.20767 1.05211,3.20767 "/>
   <polygon id="_437430256" class="fil7" points="1.04939,3.19578 3.09663,3.19578 3.09565,3.20172 1.05075,3.20172 "/>
   <polygon id="_437429728" class="fil7" points="1.04807,3.18982 3.0976,3.18982 3.09663,3.19578 1.04939,3.19578 "/>
   <polygon id="_437429848" class="fil7" points="1.04675,3.18389 3.09856,3.18389 3.0976,3.18982 1.04807,3.18982 "/>
   <polygon id="_437431000" class="fil7" points="1.04547,3.17794 3.09951,3.17794 3.09856,3.18389 1.04675,3.18389 "/>
   <polygon id="_437430664" class="fil7" points="1.04418,3.172 3.10044,3.172 3.09951,3.17794 1.04547,3.17794 "/>
   <polygon id="_437430592" class="fil7" points="1.04292,3.16604 3.10134,3.16604 3.10044,3.172 1.04418,3.172 "/>
   <polygon id="_437430784" class="fil7" points="1.04169,3.16011 3.10225,3.16011 3.10134,3.16604 1.04292,3.16604 "/>
   <polygon id="_437430808" class="fil7" points="1.04046,3.15415 3.10315,3.15415 3.10225,3.16011 1.04169,3.16011 "/>
   <polygon id="_437430832" class="fil7" points="1.03925,3.14821 3.10402,3.14821 3.10315,3.15415 1.04046,3.15415 "/>
   <polygon id="_437430856" class="fil7" points="1.03805,3.14227 3.10489,3.14227 3.10402,3.14821 1.03925,3.14821 "/>
   <polygon id="_437430688" class="fil7" points="1.03687,3.13632 3.10574,3.13632 3.10489,3.14227 1.03805,3.14227 "/>
   <polygon id="_437430712" class="fil8" points="1.03572,3.13037 3.10658,3.13037 3.10574,3.13632 1.03687,3.13632 "/>
   <polygon id="_437430424" class="fil8" points="1.03456,3.12443 3.10741,3.12443 3.10658,3.13037 1.03572,3.13037 "/>
   <polygon id="_437430880" class="fil8" points="1.03344,3.11848 3.10823,3.11848 3.10741,3.12443 1.03456,3.12443 "/>
   <polygon id="_437431336" class="fil8" points="1.03232,3.11254 3.10903,3.11254 3.10823,3.11848 1.03344,3.11848 "/>
   <polygon id="_437431120" class="fil9" points="1.03123,3.10658 3.10982,3.10658 3.10903,3.11254 1.03232,3.11254 "/>
   <polygon id="_437431456" class="fil9" points="1.03013,3.10064 3.1106,3.10064 3.10982,3.10658 1.03123,3.10658 "/>
   <path id="_437431768" class="fil9" d="M0.939577 3.0947l0.0839119 0c-0.0126833,0.00271608 -0.0266375,0.00402428 -0.0419746,0.00402428 -0.0132689,0 -0.027248,-0.00133312 -0.0419373,-0.00402428zm0.0894811 0l2.08231 0 -0.000772463 0.00594298 -2.08047 0 -0.00107148 -0.00594298z"/>
   <path id="_437431792" class="fil10" d="M0.913624 3.08876l2.1985 0 -0.000760004 0.00594298 -2.08231 0 -0.000211804 -0.00124591c-0.00176919,0.000448527 -0.00355084,0.000859677 -0.00535741,0.00124591l-0.0839119 0c-0.00840988,-0.00154493 -0.0170689,-0.00352592 -0.0259523,-0.00594298z"/>
   <path id="_437431624" class="fil10" d="M0.893927 3.0828l2.21895 0 -0.000747545 0.00595544 -2.1985 0c-0.00644135,-0.00175673 -0.0130073,-0.00372527 -0.0196978,-0.00595544z"/>
   <path id="_437431696" class="fil10" d="M0.877169 3.07687l2.23643 0 -0.000722627 0.00593052 -2.21895 0c-0.00550691,-0.00181903 -0.0110886,-0.00380002 -0.0167575,-0.00593052z"/>
   <path id="_437431504" class="fil10" d="M0.862131 3.07091l2.2522 0 -0.000735086 0.00595544 -2.23643 0c-0.00494626,-0.00186886 -0.00995481,-0.00384986 -0.0150381,-0.00595544z"/>
   <path id="_437431552" class="fil10" d="M0.848351 3.06497l2.26668 0 -0.000697709 0.00594298 -2.2522 0c-0.00454757,-0.00188132 -0.00913251,-0.00386232 -0.0137797,-0.00594298z"/>
   <path id="_437431648" class="fil10" d="M0.835431 3.05902l2.28031 0 -0.000710168 0.00595544 -2.26668 0c-0.00427347,-0.00189378 -0.00857185,-0.00388723 -0.0129201,-0.00595544z"/>
   <path id="_437432032" class="fil10" d="M0.823209 3.05307l2.29318 0 -0.000161968 0.00184394 -0.000485904 0.00409904 -2.28031 0c-0.00402428,-0.00190624 -0.00811086,-0.00389969 -0.0122224,-0.00594298z"/>
   <path id="_437431912" class="fil10" d="M0.811597 3.04713l2.30529 0 -0.000498363 0.00594298 -2.29318 0c-0.0038374,-0.0019187 -0.00769971,-0.00389969 -0.0116119,-0.00594298z"/>
   <path id="_437432152" class="fil10" d="M0.800172 3.04117l2.31724 0 -0.000523281 0.00595544 -2.30529 0 -0.00188132 -0.000984267c-0.0032269,-0.00163214 -0.00641643,-0.0032892 -0.00954366,-0.00497117z"/>
   <path id="_437432608" class="fil10" d="M0.789482 3.03524l2.32844 0 -0.000510822 0.00593052 -2.31724 0c-0.00363805,-0.00194362 -0.00718889,-0.00392461 -0.0106899,-0.00593052z"/>
   <path id="_437432176" class="fil11" d="M0.779453 3.02929l2.33898 0 -0.000510822 0.00595544 -2.32844 0c-0.00340133,-0.00196853 -0.00675282,-0.00394953 -0.0100296,-0.00595544z"/>
   <path id="_437432368" class="fil11" d="M0.770071 3.02335l2.34887 0 -0.000510822 0.00594298 -2.33898 0c-0.00318953,-0.00195608 -0.00631675,-0.00393707 -0.00938169,-0.00594298z"/>
   <path id="_437432488" class="fil11" d="M0.7613 3.01739l2.35817 0 -0.000523281 0.00595544 -2.34887 0c-0.00299018,-0.00195608 -0.0059056,-0.00393707 -0.00877119,-0.00595544z"/>
   <path id="_437431960" class="fil11" d="M0.753102 3.01146l2.36688 0 -0.000510822 0.00593052 -2.35817 0c-0.00279083,-0.00195608 -0.00551937,-0.00393707 -0.00819808,-0.00593052z"/>
   <path id="_437432248" class="fil11" d="M0.745402 3.0055l2.3751 0 -0.000523281 0.00595544 -2.36688 0c-0.00262887,-0.00196853 -0.00519544,-0.00394953 -0.00769971,-0.00595544z"/>
   <path id="_437432320" class="fil11" d="M0.738213 2.99956l2.3828 0 -0.000510822 0.00594298 -2.3751 0c-0.00244198,-0.00195608 -0.00484658,-0.00393707 -0.00718889,-0.00594298z"/>
   <path id="_437432920" class="fil11" d="M0.73146 2.99362l2.39009 0 -0.000535741 0.00594298 -2.3828 0c-0.00230493,-0.00195608 -0.00454757,-0.00394953 -0.00675282,-0.00594298z"/>
   <path id="_437433088" class="fil11" d="M0.725144 2.98768l2.39693 0 -0.000523281 0.00594298 -2.39009 0c-0.00215542,-0.00198099 -0.00426101,-0.00394953 -0.00631675,-0.00594298z"/>
   <path id="_437432728" class="fil11" d="M0.719238 2.98172l2.40334 0 -0.000510822 0.00595544 -2.39693 0c-0.00201837,-0.00196853 -0.00398691,-0.00394953 -0.0059056,-0.00595544z"/>
   <path id="_437432872" class="fil11" d="M0.713706 2.97578l2.40941 0 -0.000535741 0.00594298 -2.40334 0c-0.00189378,-0.00195608 -0.00373772,-0.00393707 -0.00553183,-0.00594298z"/>
   <path id="_437432704" class="fil11" d="M0.708548 2.96983l2.41509 0 -0.000523281 0.00594298 -2.40941 0c-0.00176919,-0.00195608 -0.00348854,-0.00394953 -0.00515806,-0.00594298z"/>
   <path id="_437433328" class="fil12" d="M0.703739 2.96389l2.42043 0 -0.000523281 0.00594298 -2.41509 0c-0.0016446,-0.00196853 -0.00325182,-0.00394953 -0.00480921,-0.00594298z"/>
   <path id="_437432752" class="fil12" d="M0.699241 2.95794l2.42546 0 -0.000535741 0.00595544 -2.42043 0c-0.00154493,-0.00195608 -0.00304002,-0.00394953 -0.00449773,-0.00595544z"/>
   <path id="_437433040" class="fil12" d="M0.69508 2.95199l2.43014 0 -0.000523281 0.00594298 -2.42546 0c-0.00143279,-0.00196853 -0.00280329,-0.00393707 -0.00416133,-0.00594298z"/>
   <path id="_437433136" class="fil12" d="M0.691205 2.94605l2.43455 0 -0.000535741 0.00594298 -2.43014 0c-0.00133312,-0.00196853 -0.00261641,-0.00394953 -0.00387477,-0.00594298z"/>
   <path id="_437433256" class="fil12" d="M0.687604 2.94011l2.43869 0 -0.000535741 0.00594298 -2.43455 0c-0.00123345,-0.00196853 -0.00244198,-0.00393707 -0.00360067,-0.00594298z"/>
   <path id="_437433688" class="fil12" d="M0.684303 2.93415l2.44253 0 -0.000535741 0.00595544 -2.43869 0c-0.00114624,-0.00196853 -0.00223018,-0.00396199 -0.00330166,-0.00595544z"/>
   <path id="_437433520" class="fil12" d="M0.681238 2.92822l2.44613 0 -0.000535741 0.00593052 -2.44253 0c-0.00105902,-0.00195608 -0.00208067,-0.00393707 -0.00306493,-0.00593052z"/>
   <path id="_437433496" class="fil12" d="M0.678422 2.92227l2.44949 0 -0.0005482 0.00595544 -2.44613 0c-0.000971808,-0.00198099 -0.0019187,-0.00396199 -0.00281575,-0.00595544z"/>
   <path id="_437434120" class="fil12" d="M0.675868 2.91632l2.45258 0 -0.000535741 0.00594298 -2.44949 0c-0.000897054,-0.00196853 -0.00174427,-0.00394953 -0.00255411,-0.00594298z"/>
   <path id="_437433544" class="fil12" d="M0.673513 2.91037l2.45547 0 -0.000535741 0.00595544 -2.45258 0c-0.000822299,-0.00196853 -0.00160722,-0.00394953 -0.00235477,-0.00595544z"/>
   <path id="_437433424" class="fil13" d="M0.671407 2.90444l2.45813 0 -0.0005482 0.00593052 -2.45547 0c-0.000735086,-0.00196853 -0.00143279,-0.00394953 -0.00210558,-0.00593052z"/>
   <path id="_437433592" class="fil13" d="M0.669501 2.89848l2.46059 0 -0.000560659 0.00595544 -2.45813 0c-0.00067279,-0.00198099 -0.00129574,-0.00396199 -0.00190624,-0.00595544z"/>
   <path id="_437433640" class="fil13" d="M0.667794 2.89254l2.46284 0 -0.000535741 0.00594298 -2.46059 0c-0.000585577,-0.00196853 -0.00117115,-0.00394953 -0.00170689,-0.00594298z"/>
   <path id="_437433904" class="fil13" d="M0.666299 2.88659l2.46489 0 -0.000560659 0.00594298 -2.46284 0c-0.000523281,-0.00196853 -0.00102164,-0.00396199 -0.00149509,-0.00594298z"/>
   <path id="_437433976" class="fil14" d="M0.664991 2.88064l2.46675 0 -0.0005482 0.00595544 -2.46489 0c-0.000460986,-0.00198099 -0.000909513,-0.00396199 -0.0013082,-0.00595544z"/>
   <path id="_437434672" class="fil14" d="M0.663882 2.8747l2.46841 0 -0.0005482 0.00594298 -2.46675 0c-0.000398691,-0.00195608 -0.000772463,-0.00394953 -0.00110886,-0.00594298z"/>
   <path id="_437434696" class="fil14" d="M0.662935 2.86874l2.46991 0 -0.000560659 0.00595544 -2.46841 0c-0.000348854,-0.00198099 -0.00067279,-0.00394953 -0.00094689,-0.00595544z"/>
   <polygon id="_437434720" class="fil14" points="0.662163,2.86281 3.13341,2.86281 3.13285,2.86874 0.662935,2.86874 "/>
   <path id="_437434264" class="fil14" d="M0.661552 2.85686l2.47242 0 -0.000560659 0.00595544 -2.47125 0c-0.000236723,-0.00196853 -0.000436068,-0.00394953 -0.000610495,-0.00595544z"/>
   <polygon id="_437434312" class="fil14" points="0.661116,2.85091 3.13453,2.85091 3.13397,2.85686 0.661552,2.85686 "/>
   <polygon id="_437434912" class="fil15" points="0.660842,2.84497 3.1351,2.84497 3.13453,2.85091 0.661116,2.85091 "/>
   <polygon id="_437434408" class="fil15" points="0.660693,2.83903 3.13566,2.83903 3.1351,2.84497 0.660842,2.84497 "/>
   <polygon id="_437434432" class="fil15" points="0.66073,2.83307 3.13624,2.83307 3.13566,2.83903 0.660693,2.83903 "/>
   <polygon id="_437434528" class="fil15" points="0.660842,2.82713 3.13682,2.82713 3.13624,2.83307 0.66073,2.83307 0.660767,2.83055 "/>
   <polygon id="_437434552" class="fil15" points="0.661029,2.82118 3.13738,2.82118 3.13682,2.82713 0.660842,2.82713 "/>
   <polygon id="_437434624" class="fil15" points="0.661316,2.81524 3.13797,2.81524 3.13738,2.82118 0.661029,2.82118 "/>
   <polygon id="_437435608" class="fil15" points="0.661702,2.80929 3.13854,2.80929 3.13797,2.81524 0.661316,2.81524 "/>
   <polygon id="_437435704" class="fil15" points="0.662188,2.80334 3.13913,2.80334 3.13904,2.80429 3.13854,2.80929 0.661702,2.80929 "/>
   <polygon id="_437435656" class="fil15" points="0.662761,2.7974 3.13964,2.7974 3.13913,2.80334 0.662188,2.80334 "/>
   <polygon id="_437435680" class="fil15" points="0.663434,2.79146 3.14014,2.79146 3.13964,2.7974 0.662761,2.7974 "/>
   <polygon id="_437435176" class="fil15" points="0.664219,2.7855 3.14065,2.7855 3.14014,2.79146 0.663434,2.79146 "/>
   <polygon id="_437435416" class="fil16" points="0.665078,2.77956 3.14115,2.77956 3.14065,2.7855 0.664219,2.7855 "/>
   <polygon id="_437435080" class="fil16" points="0.66605,2.77362 3.14166,2.77362 3.14115,2.77956 0.665078,2.77956 "/>
   <polygon id="_437435272" class="fil16" points="0.667134,2.76767 3.14217,2.76767 3.14166,2.77362 0.66605,2.77362 "/>
   <polygon id="_437435392" class="fil17" points="0.668305,2.76172 1.18385,2.76172 1.18481,2.76223 1.18478,2.76172 3.14267,2.76172 3.14217,2.76767 0.667134,2.76767 "/>
   <path id="_437436088" class="fil17" d="M0.669588 2.75579l0.503758 0c0.00355084,0.00214296 0.00703938,0.0041115 0.010503,0.00593052l-0.515544 0 0.00128329 -0.00593052zm0.514872 0l1.95872 0 -0.000510822 0.00593052 -1.95788 0 -0.000323936 -0.00593052z"/>
   <path id="_437436016" class="fil17" d="M0.670971 2.74983l0.493006 0c0.00315215,0.00210558 0.00629184,0.00408658 0.00936923,0.00595544l-0.503758 0 0.00138296 -0.00595544zm0.513202 0l1.95951 0 -0.000510822 0.00595544 -1.95872 0 -0.000286559 -0.00595544z"/>
   <path id="_437436112" class="fil17" d="M0.672454 2.74389l0.482976 0c0.00287805,0.00208067 0.00571872,0.00406166 0.00854693,0.00594298l-0.493006 0 0.00148263 -0.00594298zm0.511458 0l1.96027 0 -0.000498363 0.00594298 -1.95951 0 -0.000261641 -0.00594298z"/>
   <path id="_437436208" class="fil17" d="M0.674049 2.73795l0.473408 0c0.0026787,0.00205575 0.00533249,0.0040492 0.00797381,0.00594298l-0.482976 0 0.00159476 -0.00594298zm0.509651 0l1.96098 0 -0.000498363 0.00594298 -1.96027 0 -0.000211804 -0.00594298z"/>
   <path id="_437436328" class="fil17" d="M0.675756 2.732l0.464176 0c0.00252919,0.00204329 0.00503347,0.00402428 0.00752529,0.00594298l-0.473408 0 0.00170689 -0.00594298zm0.50777 0l1.96166 0 -0.000498363 0.00594298 -1.96098 0 -0.000174427 -0.00594298z"/>
   <path id="_437436424" class="fil17" d="M0.67755 2.72605l0.455242 0c0.0024046,0.00204329 0.00478429,0.00403674 0.00713905,0.00595544l-0.464176 0 0.00179411 -0.00595544zm0.505826 0l1.96231 0 -0.000498363 0.00595544 -1.96166 0 -0.000149509 -0.00595544z"/>
   <path id="_437436136" class="fil17" d="M0.679469 2.7201l0.446509 0c0.00229247,0.00203083 0.00454757,0.00401182 0.00681512,0.00594298l-0.455242 0 0.0019187 -0.00594298zm0.503795 0l1.96292 0 -0.000498363 0.00594298 -1.96231 0 -0.000112132 -0.00594298z"/>
   <path id="_437435920" class="fil17" d="M0.681487 2.71416l0.437912 0c0.00220526,0.00203083 0.00439806,0.00401182 0.0065784,0.00594298l-0.446509 0 0.00201837 -0.00594298zm0.50169 0l1.9635 0 -0.000498363 0.00594298 -1.96292 0 -8.72136e-005 -0.00594298z"/>
   <path id="_437435872" class="fil17" d="M0.683617 2.70821l0.429415 0 0.00636659 0.00595544 -0.437912 0 0.0021305 -0.00595544zm0.499497 0l1.96406 0 -0.000498363 0.00595544 -1.9635 0 -6.22954e-005 -0.00595544z"/>
   <path id="_437436160" class="fil17" d="M0.68586 2.70226l0.421017 0 0.00615479 0.00594298 -0.429415 0 0.00224263 -0.00594298zm0.497217 0l1.9646 0 -0.000498363 0.00594298 -1.96406 0 -3.73772e-005 -0.00594298z"/>
   <path id="_437437000" class="fil18" d="M0.688215 2.69632l0.412682 0 0.00598036 0.00594298 -0.421017 0 0.00235477 -0.00594298zm0.494887 0l1.96505 0 -0.000473445 0.00594298 -1.9646 0 -1.24591e-005 -0.00482166 3.73772e-005 -0.00112132z"/>
   <path id="_437437240" class="fil18" d="M0.690669 2.69038l0.404397 0 0.00583085 0.00594298 -0.412682 0 0.00245444 -0.00594298zm0.492595 0l1.96537 0 -0.000485904 0.00594298 -1.96505 0 0.000161968 -0.00594298z"/>
   <path id="_437436880" class="fil18" d="M0.693236 2.68442l0.396149 0 0.00568134 0.00595544 -0.404397 0 0.00256657 -0.00595544zm0.490252 0l1.96564 0 -0.000498363 0.00595544 -1.96537 0 0.000224263 -0.00595544z"/>
   <path id="_437436712" class="fil18" d="M0.695914 2.67848l0.387914 0 0.00286559 0.00308985 0.00269116 0.00285313 -0.396149 0 0.0026787 -0.00594298zm0.487873 0l1.96583 0 -0.000485904 0.00594298 -1.96564 0 0.000299018 -0.00594298z"/>
   <path id="_437437192" class="fil18" d="M0.69873 2.67254l0.379728 0 0.00536986 0.00594298 -0.387914 0 0.00281575 -0.00594298zm0.485393 0l1.96598 0 -0.000485904 0.00594298 -1.96583 0 0.000336395 -0.00594298z"/>
   <path id="_437436760" class="fil18" d="M0.701633 2.66659l0.371605 0 0.00522036 0.00594298 -0.379728 0 0.00290297 -0.00594298zm0.482902 0l1.96604 0 -0.000473445 0.00594298 -1.96598 0 0.00041115 -0.00594298z"/>
   <path id="_437436640" class="fil18" d="M0.704661 2.66064l0.363506 0 0.00507085 0.00595544 -0.371605 0 0.00302756 -0.00595544zm0.48031 0l1.96609 0 -0.000485904 0.00595544 -1.96604 0 0.000436068 -0.00595544z"/>
   <path id="_437436784" class="fil19" d="M0.707813 2.65469l0.355445 0 0.00490888 0.00594298 -0.363506 0 0.00315215 -0.00594298zm0.477644 0l1.96607 0 -0.000460986 0.00594298 -1.96609 0 0.000485904 -0.00594298z"/>
   <path id="_437436856" class="fil19" d="M0.711077 2.64875l0.347409 0 0.00477183 0.00594298 -0.355445 0 0.00326428 -0.00594298zm0.474915 0l1.96602 0 -0.000485904 0.00594298 -1.96607 0 0.000535741 -0.00594298z"/>
   <path id="_437436976" class="fil19" d="M0.714466 2.64281l0.33941 0 0.00460986 0.00594298 -0.347409 0 0.00338887 -0.00594298zm0.472112 0l1.96591 0 -0.000473445 0.00594298 -1.96602 0 0.000585577 -0.00594298z"/>
   <path id="_437437768" class="fil19" d="M0.717967 2.63685l0.331449 0 0.00446035 0.00595544 -0.33941 0 0.003501 -0.00595544zm0.469246 0l1.96573 0 -0.000460986 0.00595544 -1.96591 0 0.000635413 -0.00595544z"/>
   <path id="_437437600" class="fil19" d="M0.721593 2.63091l0.323537 0 0.00428592 0.00594298 -0.331449 0 0.00362559 -0.00594298zm0.466269 0l1.96567 0 -0.000523281 0.0051456 -6.22954e-005 0.000797381 -1.96573 0 0.000647872 -0.00594298z"/>
   <path id="_437437792" class="fil19" d="M0.725343 2.62497l0.315638 0 0.00414887 0.00594298 -0.323537 0 0.00375018 -0.00594298zm0.463216 0l1.96558 0 -0.000610495 0.00594298 -1.96567 0 0.000697709 -0.00594298z"/>
   <path id="_437437528" class="fil19" d="M0.729193 2.61902l0.307827 0 0.00396199 0.00594298 -0.315638 0 0.00384986 -0.00594298zm0.460101 0l1.96545 0 -0.000598036 0.00594298 -1.96558 0 0.000735086 -0.00594298z"/>
   <path id="_437437264" class="fil19" d="M0.733205 2.61307l0.299977 0 0.0038374 0.00595544 -0.307827 0 0.00401182 -0.00595544zm0.45685 0l1.96528 0 -0.000598036 0.00595544 -1.96545 0 0.000760004 -0.00595544z"/>
   <path id="_437437288" class="fil19" d="M0.737316 2.60714l0.292203 0 0.00366297 0.00593052 -0.299977 0 0.0041115 -0.00593052zm0.453536 0l1.96507 0 -0.000585577 0.00593052 -1.96528 0 0.000797381 -0.00593052z"/>
   <path id="_437437456" class="fil19" d="M0.741428 2.60118l0.28459 0 0.003501 0.00595544 -0.292203 0 0.000585577 -0.000847218 0.00352592 -0.00510822zm0.450246 0l1.96483 0 -0.000585577 0.00595544 -1.96507 0 0.000822299 -0.00595544z"/>
   <path id="_437437672" class="fil19" d="M0.745664 2.59524l0.277028 0 0.00332657 0.00594298 -0.28459 0 0.00423609 -0.00594298zm0.44687 0l1.96456 0 -0.000585577 0.00594298 -1.96483 0 0.000859677 -0.00594298z"/>
   <path id="_437437576" class="fil19" d="M0.750074 2.5893l0.26944 0c0.0010341,0.00196853 0.00208067,0.00396199 0.00317707,0.00594298l-0.277028 0 0.00441052 -0.00594298zm0.443344 0l1.96426 0 -0.000585577 0.00594298 -1.96456 0 0.000884595 -0.00594298z"/>
   <path id="_437437744" class="fil19" d="M0.754647 2.58335l0.261865 0 0.00300264 0.00594298 -0.26944 0 0.00457248 -0.00594298zm0.439681 0l1.96393 0 -0.000573118 0.00594298 -1.96426 0 0.000909513 -0.00594298z"/>
   <path id="_437437936" class="fil20" d="M0.759406 2.5774l0.254265 0 0.00284067 0.00595544 -0.261865 0 0.00475937 -0.00595544zm0.435869 0l1.96354 0 -0.000560659 0.00595544 -1.96393 0 0.00094689 -0.00595544z"/>
   <path id="_437438608" class="fil20" d="M0.764377 2.57144l0.246615 0c0.000859677,0.00198099 0.00176919,0.00397445 0.0026787,0.00595544l-0.254265 0c0.0016446,-0.00201837 0.00330166,-0.00399937 0.00497117,-0.00595544zm0.431869 0l1.96313 0 -0.000560659 0.00595544 -1.96354 0 0.000971808 -0.00595544z"/>
   <path id="_437438584" class="fil20" d="M0.769585 2.56551l0.238903 0 0.00250428 0.00593052 -0.246615 0c0.00171935,-0.00201837 0.00346362,-0.00399937 0.0052079,-0.00593052zm0.427646 0l1.9627 0 -0.000560659 0.00593052 -1.96313 0 0.000984267 -0.00593052z"/>
   <path id="_437438344" class="fil20" d="M0.775042 2.55956l0.231116 0 0.00232985 0.00595544 -0.238903 0c0.00180657,-0.00203083 0.00362559,-0.00401182 0.00545708,-0.00595544zm0.42321 0l1.96224 0 -0.000560659 0.00595544 -1.9627 0 0.00102164 -0.00595544z"/>
   <path id="_437438416" class="fil21" d="M0.780773 2.55361l0.223229 0c0.00068525,0.00198099 0.00140788,0.00396199 0.00215542,0.00594298l-0.231116 0c0.00189378,-0.00201837 0.00381248,-0.00399937 0.00573118,-0.00594298zm0.418513 0l1.96176 0 -0.0005482 0.00594298 -1.96224 0 0.0010341 -0.00594298z"/>
   <path id="_437438536" class="fil21" d="M0.786841 2.54767l0.215168 0 0.00199345 0.00594298 -0.223229 0c0.00200591,-0.00203083 0.00403674,-0.00401182 0.00606757,-0.00594298zm0.413517 0l1.96123 0 -0.0005482 0.00594298 -1.96176 0 0.00107148 -0.00594298z"/>
   <path id="_437438368" class="fil21" d="M0.793282 2.54173l0.20692 0c0.000573118,0.00198099 0.00117115,0.00396199 0.00180657,0.00594298l-0.215168 0c0.00214296,-0.00203083 0.00427347,-0.00401182 0.00644135,-0.00594298zm0.408147 0l1.96071 0 -0.0005482 0.00594298 -1.96123 0 0.00107148 -0.00594298z"/>
   <path id="_437438680" class="fil21" d="M0.80016 2.53577l0.198386 0c0.000510822,0.00198099 0.00107148,0.00397445 0.00165706,0.00595544l-0.20692 0c0.00228001,-0.00204329 0.00457248,-0.00402428 0.00687741,-0.00595544zm0.402391 0l1.96013 0 -0.000535741 0.00595544 -1.96071 0 0.00112132 -0.00595544z"/>
   <path id="_437438704" class="fil21" d="M0.807523 2.52983l0.189565 0 0.00145771 0.00594298 -0.198386 0c0.00245444,-0.00204329 0.00489642,-0.00402428 0.00736332,-0.00594298zm0.396149 0l1.95954 0 -0.000535741 0.00594298 -1.96013 0 0.00112132 -0.00594298z"/>
   <path id="_437438032" class="fil21" d="M0.815534 2.52389l0.180258 0c0.000398691,0.00198099 0.000834759,0.00396199 0.00129574,0.00594298l-0.189565 0c0.00266624,-0.00204329 0.00533249,-0.00402428 0.00801119,-0.00594298zm0.389284 0l1.95892 0 -0.000523281 0.00594298 -1.95954 0 0.00114624 -0.00594298z"/>
   <path id="_437438080" class="fil21" d="M0.824318 2.51794l0.170378 0c0.000336395,0.00198099 0.000697709,0.00397445 0.0010964,0.00594298l-0.180258 0c0.00290297,-0.00205575 0.00583085,-0.0040492 0.00878365,-0.00594298zm0.381659 0l1.95828 0 -0.000523281 0.00594298 -1.95892 0 0.00115869 -0.00594298z"/>
   <path id="_437439304" class="fil22" d="M0.834086 2.51199l0.159676 0c0.000286559,0.00198099 0.000585577,0.00396199 0.000934431,0.00595544l-0.170378 0c0.00323936,-0.00208067 0.00649118,-0.00407412 0.00976792,-0.00595544zm0.373087 0l1.95761 0 -0.000523281 0.00595544 -1.95828 0 0.00119607 -0.00595544z"/>
   <path id="_437439424" class="fil22" d="M0.845199 2.50604l0.147827 0c0.000224263,0.00198099 0.000448527,0.00396199 0.000735086,0.00594298l-0.159676 0c0.00367543,-0.00209313 0.00737578,-0.00407412 0.0111135,-0.00594298zm0.363182 0l1.95692 0 -0.000523281 0.00594298 -1.95761 0 0.00120853 -0.00594298z"/>
   <path id="_437438944" class="fil22" d="M0.858319 2.5001l0.134134 0c0.000161968,0.00198099 0.000348854,0.00396199 0.000573118,0.00594298l-0.147827 0c0.0043233,-0.00214296 0.0087089,-0.00412396 0.0131194,-0.00594298zm0.351284 0l1.95621 0 -0.000510822 0.00594298 -1.95692 0 0.00122099 -0.00594298z"/>
   <path id="_437439520" class="fil22" d="M0.874802 2.49416l0.117277 0c8.72136e-005,0.00198099 0.000224263,0.00396199 0.000373772,0.00594298l-0.134134 0c0.0054197,-0.00223018 0.0109266,-0.00421117 0.0164834,-0.00594298zm0.336034 0l1.95548 0 -0.000498363 0.00594298 -1.95621 0 0.00123345 -0.00594298z"/>
   <path id="_437439544" class="fil22" d="M0.899508 2.4882l0.0721755 0c0.0068525,0.00108394 0.0136178,0.00247936 0.0203083,0.00417379l8.72136e-005 0.00178165 -0.117277 0c0.00811086,-0.00251673 0.0163339,-0.00451019 0.0247064,-0.00595544zm0.312573 0l1.95476 0 -0.000523281 0.00595544 -1.95548 0 0.00124591 -0.00595544z"/>
   <path id="_437436376" class="fil22" d="M1.21335 2.48226l1.95398 0 -0.000498363 0.00594298 -1.95476 0 0.00127083 -0.00594298zm-0.241669 0.00594298l-0.0721755 0c0.0113004,-0.00194362 0.0228375,-0.00291543 0.0346362,-0.00291543 0.0127706,0 0.0252795,0.000971808 0.0375392,0.00291543z"/>
   <polygon id="_437435584" class="fil22" points="1.21465,2.47632 3.16783,2.47632 3.16734,2.48226 1.21335,2.48226 1.21461,2.47652 "/>
   <polygon id="_437439280" class="fil22" points="1.21594,2.47037 3.16833,2.47037 3.16783,2.47632 1.21465,2.47632 "/>
   <polygon id="_437439352" class="fil22" points="1.21725,2.46442 3.16882,2.46442 3.16833,2.47037 1.21594,2.47037 "/>
   <polygon id="_437439400" class="fil22" points="1.21859,2.45849 3.16932,2.45849 3.16882,2.46442 1.21725,2.46442 "/>
   <polygon id="_437439064" class="fil23" points="1.21993,2.45253 3.16979,2.45253 3.16932,2.45849 1.21859,2.45849 "/>
   <polygon id="_437440120" class="fil23" points="1.2213,2.44659 3.17028,2.44659 3.16979,2.45253 1.21993,2.45253 "/>
   <polygon id="_437440288" class="fil23" points="1.22268,2.44063 3.17075,2.44063 3.17028,2.44659 1.2213,2.44659 "/>
   <polygon id="_437440192" class="fil23" points="1.22409,2.4347 3.17124,2.4347 3.17075,2.44063 1.22268,2.44063 "/>
   <polygon id="_437440240" class="fil23" points="1.22553,2.42875 3.17171,2.42875 3.17124,2.4347 1.22409,2.4347 "/>
   <polygon id="_437440144" class="fil23" points="1.22698,2.42281 3.17218,2.42281 3.17171,2.42875 1.22553,2.42875 "/>
   <polygon id="_437439832" class="fil23" points="1.22847,2.41686 3.17264,2.41686 3.17218,2.42281 1.22698,2.42281 "/>
   <polygon id="_437440024" class="fil24" points="1.22997,2.41092 3.1731,2.41092 3.17264,2.41686 1.22847,2.41686 "/>
   <polygon id="_437439880" class="fil24" points="1.23152,2.40496 3.17356,2.40496 3.1731,2.41092 1.22997,2.41092 "/>
   <polygon id="_437439616" class="fil24" points="1.2331,2.39902 3.17401,2.39902 3.17356,2.40496 1.23152,2.40496 "/>
   <polygon id="_437439688" class="fil25" points="1.23471,2.39308 3.17447,2.39308 3.17401,2.39902 1.2331,2.39902 "/>
   <polygon id="_244023720" class="fil25" points="1.23635,2.38714 3.17492,2.38714 3.17447,2.39308 1.23471,2.39308 "/>
   <polygon id="_437423152" class="fil25" points="1.23803,2.38118 3.17537,2.38118 3.17492,2.38714 1.23635,2.38714 "/>
   <polygon id="_244028592" class="fil25" points="1.23978,2.37524 3.17582,2.37524 3.17537,2.38118 1.23803,2.38118 "/>
   <polygon id="_437423104" class="fil25" points="1.24156,2.36929 3.17626,2.36929 3.17582,2.37524 1.23978,2.37524 "/>
   <polygon id="_244028544" class="fil25" points="1.24342,2.36334 3.17669,2.36334 3.17626,2.36929 1.24156,2.36929 "/>
   <polygon id="_242678528" class="fil25" points="1.2453,2.3574 3.17713,2.3574 3.17669,2.36334 1.24342,2.36334 "/>
   <polygon id="_438373072" class="fil26" points="1.24728,2.35145 3.17756,2.35145 3.17713,2.3574 1.2453,2.3574 "/>
   <polygon id="_438373120" class="fil26" points="1.24933,2.34551 3.178,2.34551 3.17756,2.35145 1.24728,2.35145 "/>
   <polygon id="_438373192" class="fil26" points="1.25144,2.33955 3.17844,2.33955 3.178,2.34551 1.24933,2.34551 1.25139,2.3398 "/>
   <polygon id="_438372736" class="fil26" points="1.25246,2.33361 3.17886,2.33361 3.17844,2.33955 1.25144,2.33955 "/>
   <polygon id="_438372832" class="fil26" points="1.25347,2.32767 3.17927,2.32767 3.17886,2.33361 1.25246,2.33361 "/>
   <polygon id="_438372880" class="fil26" points="1.2545,2.32173 3.17969,2.32173 3.17927,2.32767 1.25347,2.32767 "/>
   <polygon id="_438372688" class="fil26" points="1.25556,2.31577 3.18011,2.31577 3.17969,2.32173 1.2545,2.32173 "/>
   <polygon id="_438373984" class="fil27" points="1.25662,2.30984 3.18053,2.30984 3.18011,2.31577 1.25556,2.31577 "/>
   <polygon id="_438373888" class="fil27" points="1.25769,2.30388 3.18094,2.30388 3.18053,2.30984 1.25662,2.30984 "/>
   <polygon id="_438373936" class="fil27" points="1.25878,2.29794 3.18135,2.29794 3.18094,2.30388 1.25769,2.30388 "/>
   <polygon id="_438373336" class="fil27" points="1.25989,2.29199 3.18176,2.29199 3.18135,2.29794 1.25878,2.29794 "/>
   <polygon id="_438373384" class="fil28" points="1.261,2.28605 3.18216,2.28605 3.18176,2.29199 1.25989,2.29199 "/>
   <polygon id="_438373504" class="fil28" points="1.26213,2.2801 3.18256,2.2801 3.18216,2.28605 1.261,2.28605 "/>
   <polygon id="_438373840" class="fil28" points="1.26326,2.27416 3.18297,2.27416 3.18256,2.2801 1.26213,2.2801 "/>
   <polygon id="_438373816" class="fil28" points="1.26443,2.26821 3.18337,2.26821 3.18297,2.27416 1.26326,2.27416 "/>
   <polygon id="_438373648" class="fil28" points="1.26561,2.26227 3.18376,2.26227 3.18337,2.26821 1.26443,2.26821 "/>
   <polygon id="_438373912" class="fil28" points="1.26678,2.25631 3.18417,2.25631 3.18376,2.26227 1.26561,2.26227 "/>
   <polygon id="_438374104" class="fil28" points="1.268,2.25037 3.18454,2.25037 3.18417,2.25631 1.26678,2.25631 "/>
   <polygon id="_438374560" class="fil28" points="1.26921,2.24443 3.18493,2.24443 3.18454,2.25037 1.268,2.25037 "/>
   <polygon id="_438374488" class="fil28" points="1.27045,2.23849 3.18531,2.23847 3.18493,2.24443 1.26921,2.24443 "/>
   <polygon id="_438374248" class="fil28" points="1.2717,2.23253 3.1857,2.23253 3.18531,2.23847 1.27045,2.23849 "/>
   <polygon id="_438374176" class="fil29" points="1.27296,2.22659 3.18609,2.22659 3.1857,2.23253 1.2717,2.23253 "/>
   <polygon id="_438374512" class="fil29" points="1.27424,2.22064 3.18646,2.22064 3.18609,2.22659 1.27296,2.22659 "/>
   <polygon id="_438374632" class="fil29" points="1.27554,2.21469 3.18683,2.21469 3.18646,2.22064 1.27424,2.22064 "/>
   <path id="_438372760" class="fil29" d="M3.18787 2.19148l0 0.00677774 -0.0010341 0.0164335 -1.9113 0c0.0518422,-0.236087 0.127955,-0.404683 0.228238,-0.505826 0.118511,-0.116654 0.246441,-0.18741 0.383839,-0.212041 0.137324,-0.0249182 0.314891,-0.0371654 0.532838,-0.0368166 0.217947,0.000423609 0.393794,0.0441924 0.527505,0.131418 0.134309,0.0868398 0.214284,0.28687 0.239912,0.600054z"/>
   <path id="_438372472" class="fil30" d="M0.536301 1.10776c0.00235477,0.00348854 0.0041115,0.00693971 0.00524527,0.0104656 -0.00113378,-0.00352592 -0.00289051,-0.00697709 -0.00524527,-0.0104656zm0.517064 -0.341778c0.0187135,-0.0245942 0.0508206,-0.0636908 0.0963835,-0.117514 -0.0537485,0.0105528 -0.118623,0.0356704 -0.194536,0.0753774 -0.126211,0.0643013 -0.205662,0.147279 -0.23838,0.248895 -0.0303628,-0.0151502 -0.0671918,-0.0221647 -0.110425,-0.0210309 -0.0724496,0.00348854 -0.138458,0.0175424 -0.198062,0.0421242 -0.0198473,0.00581839 -0.0367792,0.0127706 -0.0508206,0.0210434 0.029229,0.0092571 0.0607629,0.023909 0.0946641,0.0437688 0.0291916,0.0175299 0.0514062,0.0344618 0.0666187,0.0508206 -0.00936923,0.00588069 -0.0187135,0.0134683 -0.0280454,0.0227752 -0.0408907,0.0350723 -0.0788784,0.0830149 -0.113913,0.14374 -0.0607629,0.103971 -0.0923592,0.215031 -0.0946766,0.332969 -0.00234231,0.0958726 0.0291916,0.199246 0.0946766,0.310231 0.0198473,0.0315339 0.0402678,0.0631177 0.0613361,0.0946641 -0.0304002,0.0467714 -0.0701073,0.0952372 -0.119196,0.145497 -0.0514186,0.0502475 -0.0957979,0.088771 -0.133188,0.11562 0.0116617,0.00117115 0.0209936,0.00181903 0.0280205,0.00181903 0.0467216,0 0.108058,-0.0163962 0.184046,-0.0491262 0.0292041,-0.0128578 0.0642266,-0.0286061 0.105142,-0.0472947 -0.0128578,0.0186762 -0.0239464,0.039134 -0.0332907,0.0613111 -0.0233982,0.0526147 -0.035633,0.100545 -0.0368166,0.14374 -0.00117115,0.0525773 0.0146145,0.10052 0.0472947,0.143716 0.015225,0.0198473 0.0356454,0.042635 0.0613485,0.0683879l-0.00174427 0.0385359c-0.00114624,0.0782306 -0.0432081,0.16071 -0.126186,0.247064 -0.0315215,0.0339385 -0.0625072,0.0619839 -0.0929074,0.0841611 0.0245693,0.00819808 0.0537859,0.0122597 0.0876372,0.0122597 0.0537609,0 0.101691,-0.0192119 0.143753,-0.0577852 -0.00120853,0.0104532 -0.00179411,0.0215791 -0.00179411,0.0332657 -0.00113378,0.0911257 0.0356454,0.172969 0.110462,0.245394 0.0619092,0.0596167 0.154792,0.116829 0.278685,0.171761 0.00114624,0.0116866 0.00175673,0.0245195 0.00175673,0.0385235 -0.00122099,0.0234231 -0.00821054,0.0520416 -0.0210434,0.0859303l-0.00351346 0.0052079c0.0584082,0 0.109839,-0.0303254 0.154219,-0.0911382 0.00467216,-0.00812332 0.0128578,-0.0233109 0.0245444,-0.045513 -0.0268992,-0.0829775 -0.0490639,-0.173543 -0.0665689,-0.271733 -0.0140788,0.00355084 -0.0298021,0.00527019 -0.0473321,0.00527019 -0.0479425,0 -0.10518,-0.0175299 -0.171798,-0.0525773 -0.101641,-0.0514186 -0.151303,-0.123208 -0.148948,-0.215592 0.00118361,-0.078243 0.0268369,-0.15301 0.0771342,-0.224263 0.0548823,-0.0806975 0.12033,-0.121003 0.196243,-0.121003 0.0198972,0 0.0391714,0.00235477 0.0578475,0.00708922 0.00235477,0.0607006 0.0339261,0.123831 0.0947015,0.189191 0.0361812,0.0386356 0.0688613,0.0654725 0.0981153,0.0806601 -0.00117115,-0.0198473 -0.00174427,-0.0414887 -0.00174427,-0.0647872 0.00118361,-0.0561032 0.0116617,-0.129786 0.0315464,-0.220924 0.0128702,-0.0595544 0.02513,-0.105142 0.0367792,-0.136714 0.0510199,-0.302469 0.135194,-0.512754 0.252384,-0.63094 0.118523,-0.116654 0.246428,-0.18741 0.383839,-0.212041 0.137324,-0.0249182 0.314891,-0.0371654 0.532838,-0.0368166 0.217959,0.000423609 0.393782,0.0441924 0.527505,0.131418 0.134733,0.0871014 0.214782,0.288091 0.240161,0.602945 -0.0105155,0.169419 -0.0222145,0.316648 -0.0351097,0.441687 -0.00346362,0.0443793 -0.0081607,0.100507 -0.0139666,0.168235 0.0186762,-0.0245195 0.0362061,-0.0531504 0.0525649,-0.0859054 0.0385359,-0.074742 0.0596042,-0.144276 0.0630928,-0.208503 0.0280454,0.0373897 0.0560534,0.0648246 0.0841486,0.0823296 0.0303628,0.0187135 0.0701073,0.0309733 0.119159,0.036829 -0.03273,-0.0351097 -0.0602147,-0.0841237 -0.0823795,-0.147204 -0.0163588,-0.0502599 -0.028008,-0.104008 -0.0350349,-0.161283 0.025728,-0.0630928 0.0484783,-0.167101 0.068363,-0.311975 0.00231739,-0.131979 -0.00584331,-0.245892 -0.0245195,-0.34174 -0.0187011,-0.0946392 -0.0742437,-0.185802 -0.166528,-0.273439 0.0841362,0.0210558 0.158891,0.0151378 0.224338,-0.0175798 0.0619092,-0.0314343 0.115683,-0.0724246 0.161245,-0.122647l-0.00523281 0c-0.0923218,0.00470953 -0.170017,-0.0052079 -0.233147,-0.0297897 -0.0759007,-0.0280205 -0.151901,-0.0794142 -0.227814,-0.154256 -0.0128702,-0.0385359 -0.0233982,-0.0712535 -0.0315838,-0.0981028 -0.00698955,-0.0163463 -0.0128702,-0.0297897 -0.017505,-0.0403425 -0.00818562,-0.0210185 -0.0175299,-0.0397071 -0.0280454,-0.0560534 -0.0642889,-0.101691 -0.170042,-0.149596 -0.317246,-0.143678 -0.0688987,0.00345117 -0.128528,0.0127581 -0.17875,0.0279831 -0.0210309,0.00818562 -0.058458,0.0239464 -0.112194,0.0472947 0.0304002,-0.0268493 0.0572744,-0.058919 0.0806476,-0.0963835 0.0303752,-0.0501727 0.0455504,-0.0876372 0.0455504,-0.112157 0.00118361,-0.0128827 0.000598036,-0.0274474 -0.00170689,-0.0438186 -0.0432206,0.03273 -0.0894313,0.061959 -0.138508,0.0876496 -0.105142,0.0513937 -0.216165,0.0800247 -0.333006,0.0858306 -0.0327175,0.00124591 -0.0572495,0.00124591 -0.0735958,0 -0.0175673,-0.003501 -0.0403176,-0.00930693 -0.0683381,-0.017505 0.0677276,-0.0245195 0.12327,-0.0537485 0.166491,-0.0876372 -0.0350599,-0.0139791 -0.0893939,-0.0245195 -0.163027,-0.031509 -0.0911008,-0.00819808 -0.179348,-0.0105528 -0.264643,-0.00701446 -0.144874,0.00588069 -0.274013,0.0309982 -0.387315,0.0753401 -0.0958103,0.0385609 -0.200417,0.0987631 -0.313732,0.180557 0.0116617,-0.0198473 0.0291916,-0.0444415 0.0525773,-0.0735958z"/>
   <path id="_438374656" class="fil31" d="M0.521525 1.11767l0.00312723 0.00616725c0.00310231,0.00933185 0.0131942,0.0143902 0.022526,0.0112879 0.00934431,-0.00305248 0.0143902,-0.0131443 0.0113004,-0.0224886 -0.00174427,-0.00523281 -0.00423609,-0.0101542 -0.0073384,-0.0147889 -0.00549446,-0.00819808 -0.016583,-0.010366 -0.0247437,-0.00488396 -0.0081607,0.00545708 -0.010366,0.0165457 -0.0048715,0.0247064z"/>
   <path id="_438374680" class="fil32" d="M2.4555 2.94445c-0.00352592,-0.00345117 -0.00646626,-0.00693971 -0.00877119,-0.0104656 -0.00114624,-0.00228001 -0.00352592,-0.00409904 -0.00698955,-0.00524527 -0.00469707,0 -0.00875873,0.00114624 -0.0122597,0.00346362 -0.00237968,0.00120853 -0.00409904,0.00412396 -0.00532003,0.00879611l0 0.00345117c0,0.00361313 0.00122099,0.00589315 0.003501,0.0070643 0.0374271,0.0537485 0.0742437,0.0900044 0.110462,0.108643 0.0163588,0.00826037 0.02513,0.0175299 0.0262637,0.0280828 -0.00113378,0.00929448 -0.0145771,0.031509 -0.0403051,0.0666436 -0.0291916,0.0350349 -0.0490514,0.0531131 -0.0595669,0.0542842 -0.00352592,0 -0.00701446,0.00179411 -0.0105404,0.00524527 -0.00231739,0.00235477 -0.003501,0.00532003 -0.003501,0.00879611 1.24591e-005,0.00346362 0.00117115,0.00695217 0.003501,0.0105279 0.00352592,0.00235477 0.007002,0.00348854 0.0105404,0.00348854 0.017505,0.00114624 0.0443793,-0.0210309 0.0806227,-0.0666187 0.0326926,-0.0408782 0.0484409,-0.0684004 0.0472947,-0.082367 0.00114624,-0.0198224 -0.0122597,-0.0373523 -0.0403051,-0.0525773 -0.031509,-0.0163463 -0.0630928,-0.0467465 -0.0946267,-0.0912129z"/>
   <path id="_438374224" class="fil31" d="M2.7184 2.65359c-0.0257031,0.029229 -0.0385733,0.0636659 -0.0385733,0.103373 0,0.0421242 0.0146145,0.0776948 0.0438061,0.106924 0.0304002,0.0304375 0.0666436,0.0455504 0.108668,0.0455504 0.0420992,0 0.0777447,-0.0151129 0.106936,-0.0455504 0.0303628,-0.029229 0.0455753,-0.0647997 0.0455753,-0.106924 1.24591e-005,-0.0256657 -0.00588069,-0.0496245 -0.0175673,-0.0718266 -0.0221647,0 -0.0490514,-0.00178165 -0.0805853,-0.00527019 -0.0526147,-0.00581839 -0.108681,-0.0145896 -0.16826,-0.0262762zm-0.609909 0.210297c0.0303628,-0.029229 0.0455504,-0.0647997 0.0455504,-0.106924 0,-0.0362186 -0.011126,-0.0683381 -0.0332907,-0.0964208 -0.0128702,0.00473445 -0.0414887,0.0140912 -0.0859054,0.0280828 -0.0444042,0.0129076 -0.0835381,0.0210309 -0.117439,0.0245319 -0.0350225,0.00230493 -0.0560659,0.00348854 -0.0630803,0.00348854 -0.00348854,0.0128578 -0.00524527,0.0263011 -0.00524527,0.0403176 1.24591e-005,0.0421242 0.0146145,0.0776948 0.0438311,0.106924 0.0303503,0.0304375 0.0665564,0.0455504 0.108643,0.0455504 0.0420619,0 0.0777073,-0.0151129 0.106936,-0.0455504z"/>
   <path id="_438374848" class="fil31" d="M2.33432 3.64284l-0.0146519 -0.00363805 0.0110512 0.0105155c0.000386232,-0.000710168 0.00188132,-0.00124591 0.00358822,-0.00687741l-0.0146394 -0.00363805 0.0110512 0.0105155 -0.00409904 -0.00388723 0.00373772 0.00424855 0.000361313 -0.000361313 -0.00409904 -0.00388723 0.00373772 0.00424855c0.000174427,-0.000286559 0.00469707,-0.003501 0.0114001,-0.00745053 0.0204578,-0.0122971 0.0637905,-0.035471 0.128877,-0.0687866l0.000249182 -0.000112132c0.0413891,-0.0219529 0.0842608,-0.0327549 0.129674,-0.0327923 0.0527144,0 0.109092,0.0147516 0.169369,0.0452016 0.00879611,0.00444789 0.0195234,0.000921972 0.0239464,-0.0078866 0.00446035,-0.00877119 0.000921972,-0.019486 -0.00787414,-0.023909 -0.0640771,-0.0323936 -0.125999,-0.0490514 -0.185441,-0.0490514 -0.0511445,-3.73772e-005 -0.100271,0.0124092 -0.146394,0.0369287l0.00834759 0.0157607 -0.00812332 -0.0158729c-0.0480048,0.0245693 -0.084186,0.0436317 -0.108743,0.0572121 -0.0122971,0.0068525 -0.0216788,0.0122597 -0.0284067,0.0165332 -0.00341379,0.00218034 -0.00612987,0.00399937 -0.00855939,0.00593052l-0.00376264 0.00333903c-0.00128329,0.0016446 -0.00332657,0.00292788 -0.00518298,0.00913251 -0.00237968,0.00954366 0.00346362,0.0192493 0.0130073,0.0215916 0.00955612,0.00239214 0.0192119,-0.00345117 0.0215791,-0.0130073z"/>
   <path id="_438374824" class="fil33" d="M1.44596 1.61601c-0.0256906,0.089967 -0.0374271,0.20388 -0.0350723,0.341778 0.00122099,0.137897 0.0157857,0.246578 0.0438435,0.325942 0.24213,0.00735086 0.543004,0.00143279 0.902598,-0.0174926 0.36074,-0.0189627 0.63479,-0.0247687 0.822013,-0.0175299 0.0233608,-0.308462 0.0157607,-0.52986 -0.0227752,-0.664231 -0.578463,-0.0646876 -1.14868,-0.0541721 -1.71061,0.0315339z"/>
  </g>
 </g>
</svg>
