<?xml version="1.0" encoding="UTF-8"?>
<!DOCTYPE svg PUBLIC "-//W3C//DTD SVG 1.1//EN" "http://www.w3.org/Graphics/SVG/1.1/DTD/svg11.dtd">
<!-- Creator: CorelDRAW -->
<svg xmlns="http://www.w3.org/2000/svg" xml:space="preserve" width="24.3987mm" height="23.5993mm" style="shape-rendering:geometricPrecision; text-rendering:geometricPrecision; image-rendering:optimizeQuality; fill-rule:evenodd; clip-rule:evenodd"
viewBox="0 0 3.77042 3.64689"
 xmlns:xlink="http://www.w3.org/1999/xlink">
 <defs>
  <style type="text/css">
   <![CDATA[
    .fil3 {fill:#5CAECE}
    .fil4 {fill:#7C7C79}
    .fil1 {fill:#E8E6E5}
    .fil6 {fill:#EB6B6B}
    .fil2 {fill:#F4F4F4}
    .fil0 {fill:#F5B7B9}
    .fil5 {fill:#FBFCFC}
   ]]>
  </style>
 </defs>
 <g id="Layer_x0020_1">
  <metadata id="CorelCorpID_0Corel-Layer"/>
  <g id="_241375104">
   <path id="_438379744" class="fil0" d="M3.19362 3.1046c0.354624,-0.355829 0.531889,-0.784289 0.531889,-1.28549 1.54534e-005,-0.503517 -0.177266,-0.933213 -0.531905,-1.28904 -0.354593,-0.353418 -0.783671,-0.53005 -1.28725,-0.53005 -0.502312,-1.54534e-005 -0.930803,0.176647 -1.28538,0.53005 -0.355876,0.355829 -0.533775,0.785525 -0.533775,1.28904 1.54534e-005,0.501184 0.177899,0.929659 0.533775,1.28549 0.354577,0.355783 0.783053,0.533728 1.28538,0.533728 0.503579,0 0.932657,-0.177945 1.28727,-0.533728z"/>
   <path id="_438379432" class="fil1" d="M2.6076 1.54004l-0.565995 0.454669c0.0634361,0.134228 0.198298,0.419312 0.404662,0.855297 0.172707,0.361531 0.273215,0.559937 0.301681,0.59548 0.0152679,0.0189613 0.0301495,0.0330238 0.0447839,0.0424813l0.000710855 0.000973562c0.0158397,0.00840663 0.0313703,0.0114819 0.0467155,0.00928747 0.0135835,-0.00194712 0.032313,-0.0123781 0.0561884,-0.0316021 0.0293305,-0.02352 0.0154843,-0.211139 -0.041585,-0.562781 -0.0126872,-0.0784258 -0.0277233,-0.165459 -0.0451393,-0.261208l-0.000973562 -0.00676857c-0.000525414,-0.00443512 -0.00154534,-0.00928747 -0.00256526,-0.0144643 -0.0239836,-0.122576 -0.0461128,-0.235185 -0.0661404,-0.337888 -0.0102919,-0.0540559 -0.0199812,-0.105655 -0.029176,-0.154673 -0.00193167,-0.0124709 -0.00392515,-0.0249417 -0.00591864,-0.0374899 -0.00454329,-0.0244009 -0.00897841,-0.0481527 -0.0131817,-0.0709 -0.0205839,-0.108328 -0.0373508,-0.19992 -0.0503934,-0.275039 -0.0164424,-0.0943273 -0.027677,-0.162894 -0.0336729,-0.205375zm-2.20421 -1.02646c0.00604227,0.0161642 0.0164733,0.0335029 0.031154,0.0519388 0.0285578,0.0354964 0.200646,0.176431 0.516421,0.422974 0.176972,0.137581 0.325602,0.253142 0.44603,0.346634 0.138369,0.107215 0.239295,0.185147 0.302515,0.233871l0.566149 -0.454731c-0.0401942,-0.0149898 -0.10329,-0.0402251 -0.189335,-0.0758606 -0.0714255,-0.030165 -0.158922,-0.066944 -0.26246,-0.110692 -0.0212793,-0.00897841 -0.0434549,-0.018405 -0.0664031,-0.028156 -0.0112037,-0.00398697 -0.0230255,-0.00862298 -0.0352646,-0.0138926 -0.045881,-0.0194403 -0.094111,-0.0401015 -0.144783,-0.061798 -0.0542877,-0.0238291 -0.112114,-0.0488017 -0.173526,-0.0750261 -0.0456492,-0.0206457 -0.0930911,-0.0414614 -0.142078,-0.0623389 -0.00486781,-0.00225619 -0.00936474,-0.0041106 -0.0136608,-0.0057332l-0.00644405 -0.00234891c-0.0891196,-0.0370881 -0.170868,-0.0705601 -0.245183,-0.100431 -0.331104,-0.131539 -0.511352,-0.185456 -0.540621,-0.161951 -0.0239527,0.0191931 -0.0382471,0.0352337 -0.0430222,0.0481063 -0.00602681,0.0149434 -0.00582592,0.0314321 0.000509961,0.0494353z"/>
   <path id="_438379672" class="fil2" d="M2.85139 2.60456c-0.0111419,0.00491417 -0.020383,0.0103074 -0.0277079,0.016226 0.056003,0.0496362 0.106659,0.119624 0.152061,0.209934l0.0100601 -0.00808211c0.0117909,-0.0104774 0.0202748,-0.0193167 0.025529,-0.0265798 0.00904022,-0.0162569 -0.00902477,-0.0555548 -0.0541022,-0.117971 -0.0449538,-0.0634515 -0.0802493,-0.0880224 -0.10584,-0.0735271zm0.0453711 -0.43033c0.00902477,-0.0163033 -0.00885478,-0.0553849 -0.0534532,-0.117137 -0.0449075,-0.0634052 -0.0804193,-0.0883314 -0.106582,-0.0743616 -0.010601,0.00551685 -0.0196103,0.0112191 -0.0269816,0.0171069 0.0560339,0.0496517 0.106721,0.119624 0.152123,0.209949l0.010091 -0.00809756c0.0117137,-0.0104774 0.0199194,-0.0196258 0.0247872,-0.0274452zm-1.80276 -1.7067l-0.0100601 0.00809756c0.0783795,0.0637451 0.135835,0.128387 0.172166,0.193723 0.00740216,-0.00587228 0.0149125,-0.0134444 0.0226083,-0.0226855 0.019224,-0.0224537 0.00259617,-0.0624625 -0.049698,-0.120073 -0.0507179,-0.0568993 -0.085009,-0.08266 -0.102873,-0.0773132 -0.00870024,0.00290523 -0.0194558,0.00900931 -0.032143,0.0182504zm0.744698 0.447869c0.00734035,-0.00591864 0.0146189,-0.013738 0.0218356,-0.0236127 0.019224,-0.0224537 0.00292069,-0.0621534 -0.0489408,-0.11913 -0.0512125,-0.0575483 -0.0857662,-0.0836027 -0.10363,-0.0783022 -0.00815938,0.00358518 -0.0186522,0.00995197 -0.0313858,0.0191931l-0.0101529 0.0080512c0.0779931,0.0632197 0.135387,0.127846 0.172274,0.193801z"/>
   <path id="_438379504" class="fil3" d="M0.742905 3.45601c0.01159,0.0018544 0.0239991,-0.00261162 0.0374281,-0.0134444 0.0122082,-0.00981289 0.0134444,-0.0384171 0.00353882,-0.0858125 -0.00931838,-0.0479209 -0.0254981,-0.124477 -0.0486781,-0.229652 -0.0230564,-0.105222 -0.039777,-0.194913 -0.0501153,-0.269136l-0.259972 0.211881 0.0773595 0.0962899c0.015067,0.0200276 0.0747325,0.099906 0.178888,0.239651 0.0240918,0.0300259 0.0446139,0.046731 0.0615508,0.0502234zm-0.511568 -0.627484l0.0765096 0.09544 0.262954 -0.208172c-0.070251,-0.026178 -0.154194,-0.0618135 -0.251905,-0.106984 -0.0972789,-0.0447839 -0.168334,-0.0767878 -0.213086,-0.0961508 -0.0441657,-0.0198576 -0.0723681,-0.0248954 -0.0845608,-0.0150825 -0.013429,0.0107864 -0.0205684,0.0219747 -0.0212329,0.0336574 -0.000216347,0.0173078 0.0114509,0.0406578 0.0350173,0.0700192 0.113969,0.131786 0.179398,0.207539 0.196289,0.227273zm2.59236 -0.20774c-0.00667585,0.00539322 -0.0117755,0.0104774 -0.0150361,0.0150825l0.000973562 0.00675312c0.0174314,0.0957645 0.0324366,0.182798 0.0451393,0.261224 0.00584137,-0.00282797 0.010601,-0.00508416 0.0141862,-0.0068922 0.0214029,-0.0121463 0.04823,-0.028156 0.0805893,-0.0481372 0.00962745,-0.00676857 0.0183895,-0.0127336 0.0262089,-0.0180959 -0.045402,-0.0903095 -0.0960581,-0.160298 -0.152061,-0.209934zm0.0111728 -0.393844c0.0101683,-0.0061968 0.0191776,-0.0118527 0.0270125,-0.0171532 -0.0453865,-0.0903249 -0.0961045,-0.160298 -0.152123,-0.209949 -0.00919475,0.00734035 -0.0152525,0.014248 -0.0180804,0.0206148 0.00421877,0.0227474 0.00862298,0.0464992 0.0131817,0.0709 0.00199348,0.0125481 0.00397151,0.025019 0.00591864,0.0374899 0.00921021,0.0490181 0.018884,0.100617 0.029176,0.154673 0.005965,-0.00375517 0.0107864,-0.00662949 0.0143253,-0.00843754 0.021882,-0.0115282 0.0487554,-0.0276306 0.0805893,-0.0481372zm-1.75093 -1.7513c-0.00690765,0.00645951 -0.0146498,0.0136608 -0.0233191,0.0216965 -0.0263634,0.0272906 -0.0476582,0.0503625 -0.0636061,0.0692465 -0.00259617,0.00304431 -0.00610408,0.0068922 -0.0104774,0.0114046 0.0743307,0.0298714 0.156048,0.0633433 0.245183,0.100431l0.00644405 0.00234891c0.0052696,-0.00217892 0.0112655,-0.00601136 0.0179414,-0.0114046 -0.0363154,-0.0653368 -0.0938019,-0.129978 -0.172181,-0.193723zm0.729986 0.452073c0.0073558,-0.000803575 0.0156234,-0.00496053 0.0247717,-0.0123009 -0.0368563,-0.065955 -0.0942964,-0.130581 -0.172274,-0.193801 -0.00675312,0.00658313 -0.0145416,0.0138462 -0.0232573,0.0218047 -0.0268579,0.0266416 -0.048369,0.0493735 -0.0643633,0.0682884 -0.00256526,0.00304431 -0.00636679,0.00717036 -0.0113582,0.0121618 0.0506716,0.0216965 0.0988861,0.0423577 0.144783,0.061798 0.0122545,0.0052696 0.0240454,0.00990561 0.0352646,0.0138926 0.0229637,0.00975107 0.0451084,0.0191776 0.066434,0.028156z"/>
   <path id="_438379576" class="fil2" d="M3.20583 0.975015l-0.0578574 0.0163033c-0.0226855,-0.0633897 -0.0502543,-0.115205 -0.0827064,-0.155569l-0.0118064 -0.0146652c-0.0324366,-0.0403642 -0.0770505,-0.0784722 -0.133996,-0.114247l0.0284342 -0.0530359c0.0836954,0.0153761 0.146591,0.0498216 0.188732,0.103568l0.00446602 0.00543958c0.046051,0.0536232 0.0676394,0.124307 0.0647341,0.212206zm0.0938328 -0.0165815c0.0352491,-0.0564511 0.0579965,-0.115128 0.0685666,-0.175813 0.0119455,-0.0679021 0.000664495,-0.123349 -0.0337347,-0.166139 -0.0413223,-0.0513206 -0.0963672,-0.0785958 -0.165196,-0.0816092 -0.0377526,-0.00190076 -0.0757369,0.000927202 -0.113984,0.0084839 -0.0244781,0.00465146 -0.0488944,0.011111 -0.0732335,0.0195949 -0.116487,0.0391588 -0.241212,0.110692 -0.374188,0.214585 -0.133455,0.103089 -0.252601,0.197911 -0.357375,0.284126 -0.103754,0.0862452 -0.361439,0.299826 -0.773024,0.640527 -0.210413,0.174051 -0.417179,0.363262 -0.620283,0.567633 -0.194342,0.195392 -0.385361,0.404152 -0.573073,0.626464 -0.0218665,0.0829382 0.0246327,0.145262 0.139482,0.186738 0.259864,-0.131215 0.505912,-0.268966 0.738176,-0.4133 0.070761,-0.0447375 0.119764,-0.0751188 0.147178,-0.091113 0.0270279,-0.0165351 0.0831237,-0.0531905 0.168519,-0.109642 0.0855962,-0.0576874 0.276569,-0.202068 0.57298,-0.433003 0.296365,-0.231121 0.497907,-0.388019 0.604675,-0.470679 0.107169,-0.08317 0.225604,-0.178826 0.355118,-0.286876 0.129638,-0.10805 0.226036,-0.214725 0.289395,-0.319977z"/>
   <path id="_438380056" class="fil4" d="M3.14797 0.991318l0.0578574 -0.0163033c0.00290523,-0.0878987 -0.0186831,-0.158567 -0.0647496,-0.212206l-0.00445057 -0.00543958c-0.0421413,-0.0537468 -0.105037,-0.0881924 -0.188732,-0.103568l-0.0284187 0.0530359c0.0569611,0.0357745 0.101544,0.0738825 0.133981,0.114247l0.0118218 0.0146652c0.0324521,0.0403642 0.0599745,0.0921793 0.082691,0.155569z"/>
   <path id="_438379816" class="fil5" d="M0.655594 2.80624c-0.00522324,-0.0291296 -0.0222065,-0.0501462 -0.0509034,-0.0633897 -0.0122545,0.000927202 -0.0357127,0.0155924 -0.0700501,0.044243 -0.0348782,0.027986 -0.103723,0.0883623 -0.206411,0.180943 -0.103228,0.0919475 -0.148059,0.146992 -0.134444,0.165289 0.0137999,0.0171687 0.0766951,-0.0152988 0.188902,-0.0973871 0.111774,-0.0827064 0.184173,-0.138462 0.21746,-0.167144 0.0334411,-0.0298559 0.0519388,-0.0507179 0.0554467,-0.0625552z"/>
   <path id="_438379960" class="fil5" d="M2.56918 0.987377c-0.180789,0.143284 -0.399037,0.325123 -0.654697,0.545581 -0.255011,0.219932 -0.468113,0.416252 -0.63929,0.58902 -0.171146,0.172722 -0.244766,0.274096 -0.220643,0.304014 0.02403,0.0300722 0.138601,-0.0177096 0.343729,-0.143268 0.205097,-0.125512 0.442739,-0.286243 0.712972,-0.482176 0.269816,-0.196629 0.497521,-0.367945 0.683116,-0.513948 0.185595,-0.146034 0.239558,-0.268039 0.162059,-0.365781 -0.0773441,-0.0988088 -0.206442,-0.0766178 -0.387246,0.0665576z"/>
   <polygon id="_438380824" class="fil6" points="2.82372,2.99951 2.47194,3.34946 2.76756,3.64517 3.11934,3.29504 3.47121,3.64689 3.76677,3.35131 3.41501,2.99951 3.77042,2.64395 3.47486,2.34837 3.11934,2.70381 2.76574,2.34837 2.47011,2.64395 "/>
  </g>
 </g>
</svg>
