<?xml version="1.0" encoding="UTF-8"?>
<!DOCTYPE svg PUBLIC "-//W3C//DTD SVG 1.1//EN" "http://www.w3.org/Graphics/SVG/1.1/DTD/svg11.dtd">
<!-- Creator: CorelDRAW -->
<svg xmlns="http://www.w3.org/2000/svg" xml:space="preserve" width="24.9966mm" height="27.2215mm" style="shape-rendering:geometricPrecision; text-rendering:geometricPrecision; image-rendering:optimizeQuality; fill-rule:evenodd; clip-rule:evenodd"
viewBox="0 0 4.15269 4.52232"
 xmlns:xlink="http://www.w3.org/1999/xlink">
 <defs>
  <style type="text/css">
   <![CDATA[
    .fil3 {fill:#6D6C6A}
    .fil2 {fill:#7A7065}
    .fil5 {fill:#EB6B6B}
    .fil4 {fill:#F4A983}
    .fil0 {fill:#F5B7B9}
    .fil1 {fill:#FBDDC0}
    .fil6 {fill:#FCE7CF}
   ]]>
  </style>
 </defs>
 <g id="Layer_x0020_1">
  <metadata id="CorelCorpID_0Corel-Layer"/>
  <g id="_241387848">
   <path id="_438378784" class="fil0" d="M3.33954 3.77807c0.381236,-0.382565 0.571804,-0.843145 0.571804,-1.38189 1.6613e-005,-0.541369 -0.190568,-1.00336 -0.571821,-1.38589 -0.381203,-0.379874 -0.84248,-0.569777 -1.38385,-0.569777 -0.540007,0 -1.00065,0.189904 -1.38184,0.569777 -0.382582,0.382532 -0.573831,0.84454 -0.573831,1.38589 1.6613e-005,0.538744 0.191249,0.999324 0.573831,1.38191 0.381186,0.382532 0.841816,0.573814 1.38184,0.573814 0.541369,0 1.00265,-0.191282 1.38387,-0.573831z"/>
   <path id="_438378880" class="fil1" d="M3.00432 1.3979c-0.00912055,-0.014254 -0.015583,-0.027262 -0.0195203,-0.0389576 -0.00518327,0.0519323 -0.0220621,0.104596 -0.0506697,0.157973 -0.0182909,0.0324453 -0.0435261,0.0714194 -0.0760545,0.116906 -0.041599,-0.0416323 -0.0759714,-0.0889628 -0.103217,-0.142324 -0.0429281,-0.0831482 -0.0638107,-0.176713 -0.0624484,-0.280694l1.6613e-005 -0.00390406c-0.0168622,0.0545074 -0.0715357,0.110394 -0.163821,0.167625 -0.0688278,0.0442405 -0.150763,0.0825502 -0.245624,0.115062l1.6613e-005 -0.068263c0.0012792,-0.0663358 0.0226602,-0.133203 0.0642426,-0.200785l0.0273949 -0.039024c-0.0520652,0.0363659 -0.122887,0.0766691 -0.212597,0.12091 -0.114381,0.054607 -0.204041,0.08569 -0.268965,0.0935812 0.00380438,0.0169121 0.00709376,0.0318472 0.00970201,0.0448718 0.00647908,0.0402368 0.0259994,0.100044 0.0584945,0.179255 -0.0766858,-0.0116457 -0.162475,-0.055122 -0.257436,-0.130545 -0.0558364,-0.0455363 -0.100708,-0.0910062 -0.134549,-0.136493 1.6613e-005,0.103981 -0.0493407,0.21057 -0.148089,0.319751 -0.0623321,0.0714693 -0.122239,0.124747 -0.179404,0.159867 -0.0115793,0.0311827 -0.0240557,0.0779982 -0.0370637,0.140397 -0.0208161,0.0922356 -0.0318472,0.167625 -0.0330932,0.22612 3.32261e-005,0.0233911 0.000681134,0.0455695 0.0019105,0.0663026 -0.0299201,-0.0155332 -0.06298,-0.0435261 -0.0993792,-0.0837795 -0.0623819,-0.0664023 -0.0949103,-0.130662 -0.0974687,-0.193093 -0.0195369,-0.00519988 -0.0396885,-0.00780813 -0.0605047,-0.00780813 -0.077965,0 -0.144949,0.0416489 -0.200752,0.124797 -0.052032,0.0727651 -0.0780314,0.149567 -0.0780314,0.23014 -0.00270792,0.0948438 0.0480449,0.168273 0.152092,0.220272 0.0675652,0.0362995 0.126026,0.0545572 0.175417,0.0545572 0.0181913,0 0.0345385,-0.00189389 0.0487426,-0.00589763 0.0182245,0.100193 0.0409677,0.19311 0.068263,0.278833 0.0819355,0.25089 0.209241,0.430244 0.382183,0.53808 0.228728,0.143055 0.4854,0.214541 0.770164,0.214541 0.185817,-1.6613e-005 0.320931,-0.0207829 0.405541,-0.062465 0.0740111,-0.0389077 0.164951,-0.126741 0.272836,-0.263134 0.122239,-0.155947 0.202829,-0.404245 0.241803,-0.744779 0.00910394,-0.0988475 0.0169287,-0.184538 0.0233911,-0.257386 0.00647908,-0.0701734 0.0110144,-0.128003 0.0136393,-0.173523 0.0143038,-0.127372 0.0266141,-0.278169 0.0370138,-0.452306 -0.0298702,-0.023441 -0.059159,-0.0499886 -0.0876836,-0.0799419 -0.041599,-0.0415824 -0.0870689,-0.109829 -0.136493,-0.204739z"/>
   <path id="_438379096" class="fil2" d="M0.508774 0.569295l0.00579795 0.00980169 -0.00579795 -0.00980169zm0.0720341 -0.161828c-0.0740775,0.00392068 -0.141626,0.0188724 -0.202745,0.0448884 -0.0207165,0.00516665 -0.0383097,0.0123435 -0.0526633,0.021464 0.0299367,0.00908733 0.0624484,0.0240058 0.0975351,0.044822 0.0299035,0.0182079 0.0526965,0.03512 0.0682796,0.0506697 -0.00915378,0.00651231 -0.0188226,0.0143537 -0.0292223,0.0234742 -0.0416323,0.0363493 -0.0807061,0.0857232 -0.117006,0.148089 -0.0624318,0.106639 -0.0949103,0.220372 -0.0974687,0.341182 -0.00137888,0.0987977 0.031166,0.204789 0.0974687,0.317857 0.0208327,0.0324453 0.0416156,0.064957 0.0622989,0.0974354 -0.029837,0.048128 -0.0700904,0.0981166 -0.120843,0.150165 -0.0533112,0.0506033 -0.0987146,0.0896771 -0.136443,0.116956 0.011679,0.0012792 0.0207995,0.0019105 0.0273118,0.0019105 0.0480615,0 0.111075,-0.0161146 0.189106,-0.048726 0.0299035,-0.0142041 0.0663026,-0.0305015 0.109214,-0.0487094 -0.0142872,0.0182079 -0.0260326,0.0389742 -0.0351532,0.0624484 -0.0233745,0.0531783 -0.0357014,0.102602 -0.0370803,0.148089 -0.00117953,0.0533278 0.0149683,0.102087 0.0488091,0.146228 0.0156163,0.0208161 0.0363992,0.0442073 0.0623487,0.0702067l-0.00184405 0.0389576c-0.00137888,0.080623 -0.044307,0.165167 -0.128701,0.253465 -0.0325948,0.0351698 -0.064442,0.064442 -0.0956246,0.0877334 0.0247202,0.00784135 0.0546569,0.011679 0.0896771,0.011679 0.0546735,0 0.103383,-0.0194705 0.146245,-0.0584446 -0.00124598,0.0104164 -0.00196034,0.0214807 -0.00196034,0.0331264 3.32261e-005,0.0936311 0.0383595,0.177411 0.115062,0.251505 0.0623653,0.0610695 0.157259,0.120295 0.284631,0.177411 0.00132904,0.0117454 0.00194372,0.0248199 0.00194372,0.0390739 -0.00122936,0.0233745 -0.00845603,0.0525636 -0.0214308,0.0876836l-0.00388745 0.00579795c0.0597737,0 0.112487,-0.0311827 0.157923,-0.0934815 0.00523311,-0.00918701 0.0136891,-0.02477 0.0253349,-0.0468654 -0.027262,-0.0857232 -0.0500551,-0.17864 -0.068263,-0.278833 -0.0141709,0.00398713 -0.0305514,0.00589763 -0.0487426,0.00589763 -0.0493739,0 -0.107852,-0.0182577 -0.175417,-0.0545572 -0.104031,-0.0519988 -0.1548,-0.125428 -0.152092,-0.220272 1.6613e-005,-0.0805732 0.0259994,-0.157375 0.0780314,-0.23014 0.0558198,-0.0831648 0.12277,-0.124797 0.200752,-0.124797 0.0208327,0 0.0409677,0.00260825 0.0605047,0.00780813 0.00257502,0.0624318 0.0350701,0.126691 0.0974687,0.193093 0.0364158,0.0402534 0.0694425,0.0682463 0.0993792,0.0837795 -0.00122936,-0.0207331 -0.0019105,-0.0429115 -0.0019105,-0.0663026 0.00126259,-0.0585111 0.0122604,-0.133868 0.0330932,-0.22612 0.0130246,-0.0623986 0.0254678,-0.109214 0.0370637,-0.140397 0.0571821,-0.03512 0.117055,-0.0883979 0.179404,-0.159867 0.0987811,-0.109181 0.148089,-0.21577 0.148089,-0.319751 0.0338574,0.0454865 0.0786959,0.0909564 0.134549,0.136493 0.0949767,0.0754232 0.180733,0.118899 0.257436,0.130545 -0.0324951,-0.0792276 -0.0520154,-0.139001 -0.0584945,-0.179255 -0.00260825,-0.0130412 -0.00589763,-0.0279597 -0.00970201,-0.0448718 0.064957,-0.00789119 0.154551,-0.0389576 0.268965,-0.0935812 0.089727,-0.0442405 0.160515,-0.0845437 0.21258,-0.12091l-0.0273617 0.039024c-0.041599,0.0675818 -0.0629966,0.134449 -0.0642758,0.200802l1.6613e-005 0.0682297c0.0948604,-0.0324951 0.176779,-0.0708047 0.245607,-0.115045 0.0922854,-0.0572319 0.146926,-0.113102 0.163805,-0.167625l1.6613e-005 0.00388745c-0.00137888,0.103998 0.0194705,0.197579 0.0624318,0.28071 0.0272454,0.0533611 0.0615845,0.100692 0.103217,0.142324 0.0325283,-0.0454865 0.0577635,-0.084444 0.0760545,-0.116906 0.0286243,-0.0533777 0.0454699,-0.106024 0.0506697,-0.157973 0.00393729,0.011679 0.0103998,0.0247036 0.0195203,0.0389576 0.0494404,0.0949103 0.0948604,0.163157 0.136493,0.204739 0.0285412,0.0299367 0.0577967,0.0565175 0.0876836,0.0799419 -0.0103831,0.174138 -0.02271,0.324934 -0.0370138,0.452306 -0.00262486,0.0455197 -0.00717683,0.103366 -0.0136393,0.173523 0.0194871,-0.0246704 0.0377282,-0.0538428 0.0545406,-0.0876504 0.0390905,-0.0767522 0.0604714,-0.148238 0.0644087,-0.214524 0.0285744,0.0390074 0.0571654,0.0669671 0.0857897,0.0838792 0.0312491,0.0194372 0.0721006,0.0324619 0.122804,0.0389742 -0.0338241,-0.0363992 -0.0617506,-0.0871187 -0.0838294,-0.152126 -0.0169287,-0.0506199 -0.0292888,-0.105842 -0.0370304,-0.165715 0.026016,-0.0636445 0.0494238,-0.17025 0.0701568,-0.319751 0.00260825,-0.13518 -0.00591424,-0.251505 -0.0253847,-0.34894 -0.0194206,-0.0975185 -0.0760378,-0.19105 -0.169569,-0.280777 0.0858063,0.0208161 0.162475,0.0149683 0.230074,-0.0175434 0.0624152,-0.0325117 0.116906,-0.0747586 0.163771,-0.126708l-0.00388745 0c-0.094877,0.00513343 -0.174869,-0.00521649 -0.239826,-0.0312159 -0.0780148,-0.0286243 -0.15598,-0.0812211 -0.234028,-0.15794 -0.0129083,-0.0390074 -0.0233247,-0.0720839 -0.0311162,-0.0994622 -0.00774167,-0.0168788 -0.0144035,-0.0311328 -0.0195369,-0.0428284 -0.0077749,-0.0207663 -0.0169121,-0.0396221 -0.0272288,-0.0565508 -0.0662694,-0.103981 -0.174852,-0.153421 -0.325599,-0.148138 -0.0715357,0.00383761 -0.132539,0.0136061 -0.183308,0.0292223 -0.0220953,0.00903749 -0.0604382,0.025285 -0.115012,0.048726 0.0311993,-0.0272952 0.0584114,-0.0604548 0.0818856,-0.0994622 0.0312491,-0.0506697 0.0467657,-0.0889794 0.0467657,-0.114979 0.00129582,-0.0129748 0.000614682,-0.027993 -0.00199356,-0.044905 -0.044091,0.0338407 -0.0915876,0.0637276 -0.142291,0.089727 -0.107885,0.0532614 -0.221618,0.0825502 -0.341132,0.0877334 -0.0338407,0.0012792 -0.0592255,0.0012792 -0.0760877,0 -0.016829,-0.00257502 -0.0403032,-0.00845603 -0.0701568,-0.0175766 0.0701734,-0.0247368 0.127372,-0.0545738 0.171513,-0.0896938 -0.0363327,-0.0142706 -0.0922356,-0.0246704 -0.167675,-0.031166 -0.0935148,-0.00913717 -0.183906,-0.0116956 -0.271025,-0.00780813 -0.148122,0.00651231 -0.280727,0.0325117 -0.397699,0.0779982 -0.0974853,0.0389742 -0.204739,0.100177 -0.321645,0.183308 0.0129914,-0.0195369 0.0312325,-0.0442073 0.0545074,-0.0740941 0.0195868,-0.0259994 0.0527132,-0.0663026 0.099429,-0.12091 -0.0558862,0.0104164 -0.122704,0.0363493 -0.200752,0.0779483 -0.128718,0.0650566 -0.209972,0.150182 -0.243796,0.255442 -0.0311827,-0.0155996 -0.0688112,-0.0234244 -0.113068,-0.023441z"/>
   <path id="_438378712" class="fil3" d="M0.488357 0.581473l0.00578134 0.00973524c0.00667844,0.0113135 0.0212813,0.0149683 0.0325782,0.00827329 0.0112802,-0.00669505 0.014985,-0.0212979 0.00827329,-0.0325615l-0.00576472 -0.00973524c-0.0067615,-0.0113135 -0.0213644,-0.0149683 -0.032628,-0.00827329 -0.011247,0.00669505 -0.0149683,0.0212979 -0.00824006,0.0325615z"/>
   <path id="_438378928" class="fil2" d="M3.03361 2.26748c0.0337743,-0.0337909 0.050703,-0.0746922 0.050703,-0.122853 0,-0.0480449 -0.0169287,-0.0890126 -0.050703,-0.122754 -0.0325449,-0.0325117 -0.0728149,-0.0487593 -0.120959,-0.0487593 -0.0480781,0 -0.0889628,0.0162642 -0.12277,0.0487593 -0.033874,0.0337411 -0.0506531,0.0747088 -0.0506531,0.122754 1.6613e-005,0.0481446 0.0167792,0.0890625 0.0506531,0.122853 0.0338241,0.0337577 0.074659,0.050703 0.12277,0.050703 0.0481446,0 0.0883979,-0.0169453 0.120959,-0.050703z"/>
   <path id="_438378688" class="fil4" d="M2.44276 2.33578l0 0.00380438 0.00390406 0.00594747c0.037778,0.0558696 0.0754066,0.0929167 0.113102,0.111025 0.0169951,0.00915378 0.0260991,0.0189056 0.0273783,0.0293054 -0.00126259,0.0103665 -0.0149683,0.0331264 -0.0410176,0.0682463 -0.0299035,0.0363161 -0.0507196,0.0552383 -0.0623487,0.0565175l-0.00973524 0.00588101 -0.0039539 0.00775829 0.0039539 0.0116956 0.00973524 0.00388745c0.018158,0 0.0461344,-0.0233413 0.0837795,-0.0700572 0.0325283,-0.0416821 0.0488091,-0.0695588 0.0488091,-0.083929 1.6613e-005,-0.0207497 -0.0143537,-0.038293 -0.0429115,-0.0525969 -0.0324951,-0.0169287 -0.0643589,-0.0481612 -0.0955914,-0.0936809l-0.00973524 -0.0116457 -0.0077749 -0.00589763 -0.0116956 0.00398713c-0.00257502,0.00124598 -0.00451874,0.00456858 -0.00589763,0.00975185z"/>
   <path id="_438379000" class="fil3" d="M2.19254 3.00766c0.11968,-0.0370803 0.230689,-0.0554377 0.333108,-0.0554377 0.102469,0 0.196283,0.0183076 0.282206,0.0546237 0.0121275,0.00508359 0.0260492,-0.000564843 0.0311827,-0.0126591 0.00508359,-0.0121109 -0.000581456,-0.0260326 -0.0126591,-0.0311162 -0.0921359,-0.0389742 -0.192611,-0.0583616 -0.300729,-0.0583616 -0.108051,0 -0.223794,0.0193376 -0.347179,0.0574977 -0.0125096,0.00390406 -0.0195369,0.0172111 -0.0156827,0.0297706 0.00392068,0.0125428 0.0171945,0.0195203 0.0297539,0.0156827zm-0.331247 -0.87652c0.0368809,-0.00528294 0.0727485,-0.00789119 0.107636,-0.00789119 0.0571821,0 0.111606,0.00702731 0.163589,0.0210155l-0.000215969 -6.64521e-005c0.0630631,0.0173938 0.104861,0.0385588 0.124066,0.0581788l0.016829 -0.0167792 0.00845603 -0.022195c-0.0212315,-0.00797426 -0.0479452,-0.0107819 -0.0826997,-0.0108815 -0.0287738,0 -0.0629634,0.00219292 -0.102801,0.00656215 -0.0629966,0.00702731 -0.113733,0.0165466 -0.152989,0.0293718 -0.0124764,0.00403697 -0.0192877,0.0174935 -0.0152508,0.0299367 0.00410342,0.0125096 0.0175434,0.0192877 0.0300031,0.0152175 0.0343724,-0.0112304 0.0825003,-0.0205337 0.14342,-0.0272786 0.0386585,-0.00423632 0.0713031,-0.00627973 0.0976182,-0.00627973 0.0316644,-0.000132904 0.0544741,0.00328938 0.065771,0.00774167 0.0104828,0.00398713 0.0222947,9.96782e-005 0.0283751,-0.00927007 0.00614682,-0.00940298 0.00480117,-0.0218129 -0.00312325,-0.0297373 -0.030136,-0.0297706 -0.078048,-0.0514838 -0.144915,-0.0703396l-0.000182743 -9.96782e-005c-0.056152,-0.0151179 -0.114863,-0.0226103 -0.175949,-0.0226103 -0.0372464,-1.6613e-005 -0.0753733,0.00279099 -0.114348,0.00833974 -0.013008,0.00186066 -0.0220455,0.0139383 -0.0201516,0.0269131 0.00187727,0.0129748 0.0138885,0.0220123 0.0268633,0.0201516z"/>
   <polygon id="_438379120" class="fil5" points="3.77054,3.56203 4.15269,3.18002 3.83485,2.86216 3.45277,3.24423 3.07258,2.86216 2.75489,3.18002 3.13503,3.56203 2.75678,3.93839 3.07447,4.25619 3.45277,3.87982 3.83105,4.25809 4.14879,3.94033 "/>
   <path id="_438378832" class="fil6" d="M1.91934 2.13037c0.00393729,-0.044091 -0.0133735,-0.0867366 -0.051733,-0.127837 -0.114148,0.0467657 -0.195469,0.0921525 -0.243796,0.136194 -0.0557533,0.0510518 -0.114497,0.150182 -0.176281,0.297323 -0.00337245,-0.0265642 -0.0125428,-0.049241 -0.0272786,-0.0679971 -0.0180418,-0.0243879 -0.0424961,-0.0396885 -0.0731472,-0.0458686 -0.0755561,-0.0141211 -0.118384,0.00508359 -0.128552,0.0574977 -0.00262486,0.0115128 0.00413665,0.0705223 0.0204839,0.177095 -0.00387084,0.0218129 -0.0233911,0.0431108 -0.0585942,0.0638605 -0.0351532,0.0206832 -0.0542748,0.0393563 -0.0575642,0.0560025 -0.00961895,0.0486097 -0.00347212,0.0845769 0.0186398,0.108151 0.00719344,0.00613021 0.0392898,0.0393563 0.0962891,0.0997114 0.00769183,0.0348874 0.0179587,0.120577 0.030651,0.256821 -0.0155166,0.0321961 -0.0899762,0.225622 -0.223279,0.580393 -0.0972029,0.259396 -0.168755,0.461095 -0.214474,0.604997 0.200137,0.134682 0.426191,0.199855 0.677895,0.195386 0.165964,-0.688411 0.288917,-1.08297 0.368859,-1.18358 0.0350701,-0.0312325 0.0602555,-0.0570824 0.0757887,-0.0774333 0.0212148,-0.023657 0.0751906,-0.0879992 0.162127,-0.192944 0.0857232,-0.106456 0.130728,-0.171795 0.134865,-0.196133 0.0042031,-0.0243879 0.00812377,-0.0579795 0.0118783,-0.100708 0.0024255,-0.0429281 -0.0357845,-0.07951 -0.114763,-0.109729l0.0198193 -0.101622c-0.0258997,-0.0463337 -0.0514838,-0.0741938 -0.0765362,-0.0836466 -0.0248199,-0.0107819 -0.0655716,-0.0096854 -0.122089,0.00328938 -0.0077749,-0.055853 -0.020949,-0.0888797 -0.0394393,-0.098914 -0.0193542,-0.0126259 -0.0567003,-0.0242384 -0.111739,-0.0346382 -0.0384259,-0.00712699 -0.0753733,0.00684457 -0.110909,0.0419147 0.00485101,-0.0190551 0.00973524,-0.0388247 0.014769,-0.059159 0.128336,-0.0895941 0.194289,-0.155847 0.19811,-0.198426z"/>
  </g>
 </g>
</svg>
