<?xml version="1.0" encoding="UTF-8"?>
<!DOCTYPE svg PUBLIC "-//W3C//DTD SVG 1.1//EN" "http://www.w3.org/Graphics/SVG/1.1/DTD/svg11.dtd">
<!-- Creator: CorelDRAW -->
<svg xmlns="http://www.w3.org/2000/svg" xml:space="preserve" width="27.4669mm" height="23.5442mm" style="shape-rendering:geometricPrecision; text-rendering:geometricPrecision; image-rendering:optimizeQuality; fill-rule:evenodd; clip-rule:evenodd"
viewBox="0 0 4.76667 4.08591"
 xmlns:xlink="http://www.w3.org/1999/xlink">
 <defs>
  <style type="text/css">
   <![CDATA[
    .fil3 {fill:#EB6B6B}
    .fil1 {fill:#F2BD7D}
    .fil0 {fill:#F5B7B9}
    .fil2 {fill:#FAE2C6}
   ]]>
  </style>
 </defs>
 <g id="Layer_x0020_1">
  <metadata id="CorelCorpID_0Corel-Layer"/>
  <g id="_241114504">
   <path id="_438379912" class="fil0" d="M3.79679 3.48648c0.398245,-0.399598 0.597315,-0.880761 0.597315,-1.44356 1.73542e-005,-0.56547 -0.19907,-1.04806 -0.597332,-1.44765 -0.39821,-0.396856 -0.880067,-0.595267 -1.44559,-0.595267 -0.564099,0 -1.0453,0.198411 -1.44349,0.595267 -0.39965,0.399581 -0.599432,0.882202 -0.599432,1.44765 1.73542e-005,0.562797 0.199782,1.04396 0.599432,1.44356 0.398192,0.399598 0.879373,0.599432 1.44349,0.599432 0.565522,-1.73542e-005 1.04738,-0.199834 1.44561,-0.599432z"/>
   <path id="_438380416" class="fil1" d="M4.60164 1.84866c0.0693648,-0.355709 0.0149246,-0.640839 -0.162852,-0.855355 -0.49699,0.184684 -0.749511,0.283099 -0.757702,0.295369 -0.1792,0.0502231 -0.325773,0.0705796 -0.43986,0.0610868 -0.282475,-0.210472 -0.437812,-0.324559 -0.466464,-0.34219 -0.10718,-0.0692433 -0.215869,-0.10383 -0.325825,-0.10383 -0.0746578,0 -0.133697,0.0284262 -0.177134,0.0854695 -0.0570433,0.0869273 -0.103969,0.140569 -0.140552,0.160874 -0.0285824,0.0177013 -0.0624058,0.0353679 -0.101817,0.0529998 -0.0611215,0.028513 -0.135831,0.0570086 -0.224008,0.085591 -0.0596985,0.0134842 -0.0895998,0.0542493 -0.0895998,0.122139 0,0.131684 0.116707,0.19756 0.350243,0.19756 0.0503099,0 0.12351,-0.0217448 0.220017,-0.0651304 0.0406956,-0.0285477 0.077313,-0.0495984 0.109939,-0.0632041 -0.0285303,0.138452 0.0108117,0.258699 0.118095,0.360534 0.0774172,0.0746578 0.171078,0.121532 0.281138,0.140552l0.366538 0.297312c0.00683756,-0.0108637 0.018274,-0.0251636 0.0346564,-0.0427781 0.0529824,-0.0529651 0.123562,-0.100446 0.211791,-0.142495l1.1934 -0.244504z"/>
   <path id="_438380776" class="fil2" d="M0.0356109 1.48212c-0.0652345,0.352985 -0.0408171,0.632752 0.0732869,0.839076l1.31154 0c0.0258057,0.0271593 0.0488868,0.0549608 0.069278,0.0835085 0.224026,0.278344 0.441266,0.448051 0.651755,0.509155 0.215869,0.0570433 0.336012,-0.00544922 0.360447,-0.187356 0,-0.0150114 0,-0.0258057 0,-0.0325739 0.103153,0.0352985 0.186593,0.0630999 0.250456,0.0834564 0.057078,0.00813913 0.114139,-0.0746752 0.171078,-0.24846 0.165715,0.00270726 0.268921,-0.0217101 0.309634,-0.0733389 0.00952746,-0.0176319 0.0142478,-0.0536245 0.0142478,-0.107891l-0.0855389 -0.0692607 -0.366521 -0.29733c-0.110078,-0.0190202 -0.203756,-0.0658593 -0.281156,-0.140534 -0.107284,-0.101835 -0.14666,-0.222065 -0.118095,-0.360534 -0.0326086,0.0136057 -0.0692607,0.0346737 -0.109939,0.0632041 -0.0964894,0.0433855 -0.169724,0.0651304 -0.220017,0.0651304 -0.233536,0 -0.350243,-0.0658766 -0.350243,-0.19756 0,-0.0678897 0.0298666,-0.108655 0.0895998,-0.122139 0.0881941,-0.0285824 0.162887,-0.057078 0.224008,-0.085591l-0.270899 -0.0530171c-0.215869,-0.00406089 -0.348195,0.175156 -0.397134,0.537755 -0.0869273,0.00270726 -0.528939,-0.0658766 -1.32579,-0.2057z"/>
   <polygon id="_438380320" class="fil3" points="4.43471,2.34969 4.03548,2.74684 3.63836,2.34969 3.30633,2.68171 3.70351,3.07878 3.30841,3.47391 3.64046,3.80588 4.03548,3.41076 4.43062,3.80793 4.76255,3.47595 4.36745,3.07878 4.76667,2.68171 "/>
  </g>
 </g>
</svg>
