<?xml version="1.0" encoding="UTF-8"?>
<!DOCTYPE svg PUBLIC "-//W3C//DTD SVG 1.1//EN" "http://www.w3.org/Graphics/SVG/1.1/DTD/svg11.dtd">
<!-- Creator: CorelDRAW -->
<svg xmlns="http://www.w3.org/2000/svg" xml:space="preserve" width="24.8822mm" height="23.5439mm" style="shape-rendering:geometricPrecision; text-rendering:geometricPrecision; image-rendering:optimizeQuality; fill-rule:evenodd; clip-rule:evenodd"
viewBox="0 0 6.2256 5.89076"
 xmlns:xlink="http://www.w3.org/1999/xlink">
 <defs>
  <style type="text/css">
   <![CDATA[
    .fil1 {fill:#CBCBC9}
    .fil2 {fill:#E9EAEA}
    .fil4 {fill:#F09393}
    .fil0 {fill:#F2F5CC}
    .fil5 {fill:#FBF167}
    .fil3 {fill:#FEFEFE}
   ]]>
  </style>
 </defs>
 <g id="Layer_x0020_1">
  <metadata id="CorelCorpID_0Corel-Layer"/>
  <g id="_241113976">
   <path id="_438377896" class="fil0" d="M6.2256 2.94529c0,-0.815237 -0.287008,-1.51095 -0.861199,-2.08707 -0.574091,-0.572215 -1.26883,-0.858197 -2.08417,-0.858197 -0.813285,-2.50203e-005 -1.5071,0.286007 -2.08114,0.858197 -0.576168,0.576118 -0.864227,1.27183 -0.864227,2.08707 2.50203e-005,0.811459 0.288034,1.5052 0.864227,2.08131 0.574041,0.576043 1.26783,0.864152 2.08114,0.864152 0.815362,0 1.51008,-0.288109 2.08417,-0.864152 0.574241,-0.576118 0.861149,-1.26983 0.861199,-2.08131z"/>
   <path id="_438377920" class="fil1" d="M1.35155 3.22652c0,-0.112366 0.00192656,-0.211997 0.00595483,-0.299118l-1.3575 0 0 0.355814 1.35155 0c0,-0.0186151 0,-0.0375054 0,-0.056696z"/>
   <path id="_438378400" class="fil2" d="M5.20297 3.22652c0,-0.179446 -0.00502908,-0.32694 -0.0149872,-0.442609l-3.82448 0c-0.00242697,0.0432351 -0.00435353,0.091174 -0.00600487,0.143491 -0.00402827,0.0871207 -0.00595483,0.186752 -0.00595483,0.299143 0,0.0191656 0,0.0380809 0,0.056671 0.0082567,0.49325 0.120823,0.855069 0.337849,1.08553 0.249227,0.269118 0.778457,0.403703 1.58784,0.403703 0.809407,0 1.33864,-0.134584 1.58789,-0.403703 0.225233,-0.239219 0.337824,-0.620003 0.337849,-1.14223z"/>
   <path id="_438377848" class="fil3" d="M3.15163 2.58362c0.0219929,-0.0358541 0.0329267,-0.0758616 0.0329267,-0.119597 2.50203e-005,-0.117746 -0.0638518,-0.17852 -0.19138,-0.182448 -0.127579,-0.00407831 -0.191405,0.0518171 -0.191405,0.167486 0,0.0318509 0.0130106,0.0687808 0.0389316,0.110665 0.0378808,0.0637017 0.0926252,0.0956276 0.164408,0.0956276 0.0657784,0 0.114668,-0.0239945 0.146519,-0.0717332zm0.604115 -0.816313c-0.0678551,-0.0619253 -0.152524,-0.088747 -0.254156,-0.0807405 -0.0977043,0.00793144 -0.182398,0.046813 -0.254181,0.11652 -0.0757865,0.0777381 -0.113742,0.173491 -0.113742,0.287108 0,0.00397823 0.00900731,0.0607493 0.0269969,0.170388 0.0557453,0.109664 0.176443,0.164509 0.361819,0.164509 0.131557,0 0.22816,-0.0518921 0.290085,-0.155476 0.0378808,-0.0657784 0.056696,-0.130556 0.056696,-0.194408 0,-0.13556 -0.0378808,-0.238193 -0.113517,-0.3079zm-0.729642 -0.0568461c0.0238944,-0.0339275 0.0358541,-0.072709 0.0358541,-0.11667 0,-0.119597 -0.0607743,-0.181372 -0.182473,-0.185375 -0.121599,-0.00392819 -0.182298,0.0558203 -0.182298,0.179446 2.50203e-005,0.0378557 0.00688059,0.0717082 0.0208419,0.101633 0.0299243,0.0617001 0.083743,0.0927003 0.161456,0.0927003 0.0638018,0 0.112742,-0.0238444 0.146594,-0.0717332zm1.74627 -0.696791c0.117971,-0.0456621 0.199762,-0.129355 0.245124,-0.251254 0.0220179,-0.0617501 0.0329518,-0.175267 0.0329518,-0.340752 0,-0.101658 -0.0547695,-0.187402 -0.164408,-0.257259 -0.103709,-0.067705 -0.223331,-0.0996309 -0.358816,-0.0956026 -0.145518,0.00192656 -0.26514,0.0458622 -0.358891,0.131607 -0.109589,0.0996309 -0.164484,0.243147 -0.164484,0.4306 0,0.00195158 0,0.025846 0,0.0715831 0.00407831,0.0518921 0.0179646,0.100782 0.041884,0.146669 0.0299743,0.056696 0.073935,0.101633 0.131557,0.134559 -0.0840933,0.0421592 -0.14782,0.107863 -0.19133,0.19726 -0.0438606,0.0857696 -0.0658535,0.186451 -0.0658535,0.30212 0,0.241221 0.168487,0.361769 0.505485,0.361769 0.205267,-2.50203e-005 0.352786,-0.0738099 0.442559,-0.221255 0.0518171,-0.0858197 0.077638,-0.176368 0.077638,-0.272071 2.50203e-005,-0.0219678 -0.0238193,-0.078864 -0.0716332,-0.170563 -0.0327015,-0.060399 -0.0666541,-0.116169 -0.101783,-0.167411zm0.412635 0.301995c0,0.0019766 0.00708075,0.0319009 0.020967,0.0896728 0.032026,0.0577719 0.0897729,0.0868205 0.173441,0.0868205 0.0558203,0 0.101633,-0.0188903 0.137562,-0.0568962 0.0339275,-0.035779 0.0508163,-0.0795896 0.0508163,-0.131507 2.50203e-005,-0.137637 -0.0637768,-0.202264 -0.19138,-0.194333 -0.127554,0.00783136 -0.191405,0.0766622 -0.191405,0.206242z"/>
   <path id="_438378184" class="fil4" d="M2.69118 4.95179c0.0660786,-0.00815662 0.125902,-0.0311253 0.179446,-0.0687058 0.0556952,-0.0377807 0.0835178,-0.107587 0.0836679,-0.209345 0,-0.103584 -0.0348533,-0.210321 -0.10471,-0.31996 -0.0497404,-0.0778132 -0.109589,-0.150522 -0.179296,-0.218302 -0.0617001,0.0669043 -0.11747,0.139563 -0.167486,0.218302 -0.0696565,0.109739 -0.10451,0.21545 -0.10466,0.317007 -5.00406e-005,0.103359 0.0317007,0.17817 0.0957027,0.224332 0.0655032,0.0460874 0.131181,0.0649778 0.197335,0.056671z"/>
   <path id="_438378256" class="fil5" d="M2.55963 4.53623c-0.0477888,0.0737349 -0.0718083,0.145443 -0.0718083,0.2153 2.50203e-005,0.06778 0.0219178,0.116545 0.0658034,0.146519 0.0438106,0.0318509 0.0876712,0.0448114 0.131607,0.0388565 0.0438106,-0.00400325 0.0846187,-0.0188903 0.122549,-0.0448614 0.0358791,-0.0259961 0.0537436,-0.072734 0.0537436,-0.140514 0,-0.0698567 -0.0228936,-0.141565 -0.0687808,-0.2153 -0.0337774,-0.0518921 -0.0747107,-0.100707 -0.122449,-0.146594 -0.0399324,0.0458873 -0.0768124,0.0947019 -0.110665,0.146594z"/>
   <path id="_438378592" class="fil4" d="M3.13367 4.35378c-0.0695565,0.109739 -0.10441,0.21545 -0.10456,0.317007 -7.50609e-005,0.103359 0.0317758,0.17817 0.0956777,0.224332 0.0654281,0.0460874 0.131282,0.0649778 0.197285,0.056671 0.0662288,-0.00815662 0.126027,-0.0311253 0.179521,-0.0687058 0.0555951,-0.0377807 0.0834928,-0.107587 0.0836429,-0.209345 2.50203e-005,-0.103584 -0.0349284,-0.210321 -0.104635,-0.31996 -0.0498154,-0.0778132 -0.109664,-0.150522 -0.179446,-0.218302 -0.06155,0.0669043 -0.117395,0.139563 -0.167486,0.218302z"/>
   <path id="_438378352" class="fil5" d="M3.19052 4.53623c-0.0478138,0.0737349 -0.0718083,0.145443 -0.0718083,0.2153 2.50203e-005,0.06778 0.0220429,0.116545 0.0658535,0.146519 0.0438356,0.0318509 0.0876712,0.0448114 0.131557,0.0388565 0.0438856,-0.00400325 0.0847438,-0.0188903 0.1227,-0.0448614 0.035779,-0.0259961 0.0537436,-0.072734 0.0537436,-0.140514 0,-0.0698567 -0.0229937,-0.141565 -0.0687808,-0.2153 -0.0339275,-0.0518921 -0.0747357,-0.100707 -0.122625,-0.146594 -0.0398574,0.0458873 -0.0767123,0.0947019 -0.11064,0.146594z"/>
   <path id="_438379192" class="fil4" d="M4.2162 4.67374c0,-0.103584 -0.0348533,-0.210321 -0.10466,-0.31996 -0.0498154,-0.0778132 -0.109714,-0.150522 -0.179421,-0.218302 -0.0618252,0.06778 -0.11762,0.140489 -0.167436,0.218302 -0.0697566,0.109639 -0.104635,0.216376 -0.104635,0.31996 0,0.101758 0.0329267,0.175417 0.0987051,0.22138 0.0637017,0.0457371 0.128479,0.0646275 0.194333,0.056671 0.0657284,-0.00785638 0.126553,-0.0309251 0.182373,-0.0687058 0.0538437,-0.0379308 0.0807405,-0.107587 0.0807405,-0.209345z"/>
   <path id="_438378808" class="fil5" d="M3.82153 4.53623c-0.0478138,0.0737349 -0.0718083,0.145443 -0.0718083,0.2153 0,0.06778 0.0219178,0.116545 0.0658535,0.146519 0.0438106,0.0318509 0.0876211,0.0448114 0.131482,0.0388565 0.0439106,-0.00400325 0.0847438,-0.0188903 0.122625,-0.0448614 0.0358541,-0.0259961 0.0538187,-0.072734 0.0538187,-0.140514 0,-0.0698567 -0.0229186,-0.141565 -0.0687808,-0.2153 -0.0338525,-0.0518921 -0.0747857,-0.100707 -0.1226,-0.146594 -0.0398824,0.0458873 -0.0768124,0.0947019 -0.11059,0.146594z"/>
  </g>
 </g>
</svg>
