<?xml version="1.0" encoding="UTF-8"?>
<!DOCTYPE svg PUBLIC "-//W3C//DTD SVG 1.1//EN" "http://www.w3.org/Graphics/SVG/1.1/DTD/svg11.dtd">
<!-- Creator: CorelDRAW -->
<svg xmlns="http://www.w3.org/2000/svg" xml:space="preserve" width="24.6088mm" height="23.5442mm" style="shape-rendering:geometricPrecision; text-rendering:geometricPrecision; image-rendering:optimizeQuality; fill-rule:evenodd; clip-rule:evenodd"
viewBox="0 0 6.14644 5.88054"
 xmlns:xlink="http://www.w3.org/1999/xlink">
 <defs>
  <style type="text/css">
   <![CDATA[
    .fil2 {fill:#56B1C4}
    .fil3 {fill:#74C7D9}
    .fil0 {fill:#F2F5CC}
    .fil1 {fill:#F9FAFA}
   ]]>
  </style>
 </defs>
 <g id="Layer_x0020_1">
  <metadata id="CorelCorpID_0Corel-Layer"/>
  <g id="_241114120">
   <path id="_438376384" class="fil0" d="M5.2868 5.01783c0.573213,-0.575111 0.85962,-1.26761 0.85962,-2.0776 4.99532e-005,-0.813838 -0.286457,-1.50839 -0.859645,-2.0835 -0.573088,-0.571165 -1.26661,-0.856723 -2.08053,-0.856723 -0.811865,0 -1.50447,0.285558 -2.0775,0.856723 -0.575161,0.575086 -0.862717,1.26969 -0.862717,2.0835 2.49766e-005,0.809991 0.287531,1.50249 0.862717,2.0776 0.573038,0.575111 1.26561,0.862717 2.0775,0.862717 0.813938,-2.49766e-005 1.50744,-0.287606 2.08055,-0.862717z"/>
   <path id="_438376624" class="fil1" d="M4.82416 2.23581c0.0145614,0.0492788 0.0294224,0.101005 0.0447081,0.15518 0.0102154,0.0314206 0.0202311,0.0633656 0.029872,0.0955355 0.0153606,0.0529504 0.0312208,0.107674 0.0478052,0.164196 0.00417109,0.0142117 0.00814237,0.0282236 0.0118639,0.0417859 0.00944116,0.0325195 0.0183578,0.0643148 0.0268499,0.0955355 0.0493787,0.173488 0.0920887,0.333687 0.128405,0.4806 0.00831721,0.034193 0.0162098,0.0670622 0.0238776,0.0985327 0.037365,0.158801 0.066163,0.300993 0.086519,0.42675 -1.23539,0.451777 -2.33396,0.765183 -3.29541,0.940319 -0.0483797,-0.134849 -0.0950859,-0.270172 -0.140319,-0.40592 -0.0131627,-0.0439089 -0.0271745,-0.0876679 -0.0417359,-0.131402 -0.0442336,-0.147137 -0.0860444,-0.295373 -0.125408,-0.444708 -0.011714,-0.0432345 -0.0236528,-0.0870435 -0.0358664,-0.131327 -0.0185576,-0.0795255 -0.0375149,-0.159201 -0.0566469,-0.238801l-0.00299719 -0.0179332c-0.0104402,-0.0478052 -0.0203809,-0.0945365 -0.0297971,-0.140319 -0.00252264,-0.00981581 -0.0054449,-0.0207306 -0.00894162,-0.0327943 -0.00921637,-0.0453825 -0.018133,-0.0901156 -0.0269248,-0.134349 -0.0340681,-0.159001 -0.0599688,-0.2933 -0.0775274,-0.402973 0.308386,-0.0756541 0.782042,-0.20306 1.42079,-0.382117 0.692826,-0.193793 1.31764,-0.354018 1.87462,-0.48055 0.0316454,0.0867188 0.070509,0.20316 0.116366,0.349298 0.00974088,0.0314955 0.0196566,0.0632907 0.029897,0.0954606zm0.600038 1.67758c-0.041661,-0.318677 -0.14419,-0.756516 -0.307537,-1.31339 -0.161299,-0.556828 -0.269722,-0.895137 -0.325295,-1.01492 -0.598414,0.130178 -1.277,0.301393 -2.03587,0.513469 -0.757241,0.212201 -1.28155,0.351621 -1.5731,0.417834 0.0148111,0.132601 0.0496785,0.329691 0.104477,0.590996 0.00906651,0.0434343 0.0179332,0.0882174 0.0269498,0.134374 0.0136372,0.0568218 0.0274992,0.116541 0.0417109,0.179132 0.0191071,0.0838215 0.0390135,0.167418 0.0597191,0.25074 0.108299,0.428424 0.241674,0.849329 0.399925,1.26267 1.03835,-0.174911 2.24123,-0.515217 3.60902,-1.02089z"/>
   <path id="_438376888" class="fil2" d="M4.82416 2.23581c-0.0102154,-0.0321699 -0.0201561,-0.0639651 -0.029897,-0.0954606l-3.33425 0.916342c0.00879177,0.0442086 0.0177084,0.0889667 0.0269248,0.134349 1.83953,-0.518539 2.95194,-0.836991 3.33722,-0.95523zm0.161124 0.552208c-0.00851702,-0.0311958 -0.0174586,-0.062991 -0.0268748,-0.0955105l-3.37307 0.928355c0.0122136,0.0443085 0.0241274,0.0881175 0.0358414,0.131352 1.85746,-0.524484 2.97876,-0.845858 3.36407,-0.964172zm0.152282 0.579108c-0.00764284,-0.0314455 -0.0155854,-0.0642898 -0.0238776,-0.0985077l-3.33128 0.919339 -0.00299719 0c-0.0101405,0.00264752 -0.0210803,0.00564471 -0.0327943,0.00894162 0.0145614,0.0437091 0.0285732,0.087518 0.0417359,0.131402 0.00751796,-0.00214799 0.0144115,-0.00414612 0.0209054,-0.00594443l0.00594443 0c1.79345,-0.509448 2.90093,-0.827825 3.32236,-0.95523z"/>
   <path id="_438377824" class="fil3" d="M4.86889 2.39096c-0.0153107,-0.0541493 -0.0301717,-0.105876 -0.0447581,-0.155155 -0.385264,0.118239 -1.4977,0.436716 -3.3372,0.95523 0.0035217,0.0120637 0.00641899,0.0230035 0.00894162,0.0327943 0.00944116,0.0457821 0.0193569,0.0925133 0.0297971,0.140319l0.00299719 0.0179082c0.0191321,0.0796004 0.0380643,0.159301 0.0566469,0.238826l3.37312 -0.92838c-0.00372151,-0.0135873 -0.00774275,-0.0275742 -0.0118889,-0.0417859 -0.0165845,-0.056547 -0.0324446,-0.111246 -0.0478052,-0.164196 -0.00964097,-0.0321699 -0.0196566,-0.0641149 -0.029847,-0.0955605zm-0.0746051 -0.25064c-0.045882,-0.146113 -0.0847706,-0.262554 -0.116391,-0.349273 -0.556978,0.126531 -1.18182,0.286756 -1.87462,0.48055 -0.638752,0.179032 -1.11241,0.306463 -1.42079,0.382117 0.0175586,0.109672 0.0434343,0.243996 0.0775274,0.402973l3.33428 -0.916367zm0.319401 1.12829c-0.036291,-0.146912 -0.079051,-0.307087 -0.12843,-0.480575 -0.385314,0.118314 -1.50661,0.439713 -3.36407,0.964172 0.0393631,0.14931 0.081174,0.297596 0.125408,0.444708 0.011714,-0.00329691 0.0226538,-0.0062941 0.0327943,-0.00891665l0.00299719 -2.49766e-005 3.3313 -0.919364zm0.110372 0.525308c-0.020331,-0.125757 -0.049154,-0.267924 -0.086519,-0.42675 -0.421405,0.127356 -1.52892,0.445757 -3.32236,0.955205l-0.00591946 0c-0.00649392,0.00177334 -0.0134374,0.00379644 -0.0209304,0.00594443 0.0452326,0.135723 0.0919389,0.271096 0.140319,0.40592 0.961449,-0.175161 2.06002,-0.488517 3.29541,-0.940319z"/>
   <path id="_438377728" class="fil1" d="M1.86708 4.78379c-0.207156,0.066238 -0.426101,0.0994818 -0.657309,0.0994818 -0.0782267,0 -0.157902,-0.0038464 -0.238926,-0.0114393 -0.320675,-0.0301468 -0.539395,-0.11187 -0.658283,-0.235554 -0.124234,-0.128555 -0.200562,-0.282585 -0.230659,-0.465939 -0.00699345,-0.04266 -0.0104152,-0.0857447 -0.0104152,-0.129329 0,-0.141917 0.0367156,-0.289953 0.11182,-0.444858 0.0990322,-0.204883 0.207431,-0.358689 0.322972,-0.462167 0.118964,-0.10675 0.242773,-0.201536 0.371527,-0.284583 0.127256,-0.0817984 0.268024,-0.140319 0.423004,-0.175835l-0.00794256 -0.0347924 0.00686857 0.0349922 0.014936 -0.00292226c0.0193569,-0.00379644 0.0319201,-0.0225539 0.0281486,-0.0419107 -0.00379644,-0.0193319 -0.0225789,-0.0319451 -0.0419607,-0.0281736l-0.014911 0.00292226 -0.00104902 0.000224789c-0.162498,0.0372151 -0.311333,0.0989573 -0.445733,0.185476 -0.132126,0.0850953 -0.259007,0.182279 -0.380643,0.291377 -0.125033,0.112245 -0.237727,0.273819 -0.339532,0.484246 -0.0788761,0.162623 -0.119039,0.321599 -0.118964,0.476004 0,0.0474306 0.00377147,0.0943866 0.0113644,0.140818 0.0319451,0.196291 0.115542,0.365558 0.249791,0.504153 0.139245,0.143191 0.374274,0.225589 0.702942,0.256959 0.0831971,0.00784265 0.165045,0.011789 0.245645,0.011789 0.238077,0 0.46459,-0.0342429 0.679064,-0.102829 0.0188074,-0.00609429 0.0290977,-0.0261255 0.0231034,-0.0449329 -0.00599439,-0.0188074 -0.0261006,-0.0291727 -0.044858,-0.0231783z"/>
  </g>
 </g>
</svg>
