<?xml version="1.0" encoding="UTF-8"?>
<!DOCTYPE svg PUBLIC "-//W3C//DTD SVG 1.1//EN" "http://www.w3.org/Graphics/SVG/1.1/DTD/svg11.dtd">
<!-- Creator: CorelDRAW -->
<svg xmlns="http://www.w3.org/2000/svg" xml:space="preserve" width="33.9463mm" height="32.9037mm" style="shape-rendering:geometricPrecision; text-rendering:geometricPrecision; image-rendering:optimizeQuality; fill-rule:evenodd; clip-rule:evenodd"
viewBox="0 0 4.771 4.62446"
 xmlns:xlink="http://www.w3.org/1999/xlink">
 <defs>
  <style type="text/css">
   <![CDATA[
    .fil27 {fill:#6D6C6A}
    .fil26 {fill:#7A7065}
    .fil0 {fill:#A6DBF2}
    .fil23 {fill:#EAE2EA}
    .fil24 {fill:#EAE2EB}
    .fil25 {fill:#EAE2ED}
    .fil21 {fill:#EDE3E8}
    .fil22 {fill:#EDE3EA}
    .fil19 {fill:#EEE3E7}
    .fil20 {fill:#EEE3E9}
    .fil17 {fill:#F1E4E4}
    .fil18 {fill:#F1E4E5}
    .fil14 {fill:#F3E4E0}
    .fil15 {fill:#F3E4E2}
    .fil16 {fill:#F3E5E4}
    .fil28 {fill:#F4A983}
    .fil11 {fill:#F5E5DD}
    .fil12 {fill:#F5E5DF}
    .fil13 {fill:#F5E5E0}
    .fil9 {fill:#F7E5DC}
    .fil10 {fill:#F7E6DD}
    .fil7 {fill:#F9E6D8}
    .fil8 {fill:#F9E6DA}
    .fil4 {fill:#FAE6D5}
    .fil5 {fill:#FAE6D6}
    .fil6 {fill:#FAE7D8}
    .fil1 {fill:#FCE7D2}
    .fil2 {fill:#FCE7D3}
    .fil3 {fill:#FCE7D5}
    .fil29 {fill:#FDEE4F}
   ]]>
  </style>
 </defs>
 <g id="Layer_x0020_1">
  <metadata id="CorelCorpID_0Corel-Layer"/>
  <g id="_238283152">
   <path id="_437442112" class="fil0" d="M2.15899 4.318c0.597079,0 1.10588,-0.210931 1.52632,-0.632693 0.421805,-0.421721 0.632679,-0.930523 0.632679,-1.52631 0,-0.597065 -0.210874,-1.10651 -0.632679,-1.52832 -0.420442,-0.420442 -0.929244,-0.630669 -1.52632,-0.630669 -0.597051,-1.40545e-005 -1.10587,0.210228 -1.52627,0.630669 -0.421805,0.421805 -0.632721,0.931254 -0.632721,1.52832 0,0.595786 0.210917,1.10459 0.632721,1.52631 0.420399,0.421763 0.929216,0.632693 1.52627,0.632693z"/>
   <path id="_437442400" class="fil1" d="M1.29246 3.94573l2.17969 -0.227445c-0.0496688,0.238688 -0.124256,0.42151 -0.223805,0.548296 -0.118606,0.150299 -0.218745,0.246503 -0.300458,0.28868 -0.0923102,0.046113 -0.240586,0.0691905 -0.444882,0.0692046 -0.313683,0 -0.596447,-0.079099 -0.848149,-0.237269 -0.153616,-0.0949525 -0.274401,-0.242104 -0.362396,-0.441467z"/>
   <polygon id="_437442016" class="fil1" points="1.28813,3.93582 3.47434,3.70767 3.47215,3.71828 1.29246,3.94573 "/>
   <polygon id="_437442592" class="fil1" points="1.28387,3.92587 3.47648,3.69708 3.47434,3.70767 1.28813,3.93582 "/>
   <polygon id="_437442184" class="fil1" points="1.27969,3.91593 3.47856,3.68648 3.47648,3.69708 1.28387,3.92587 "/>
   <polygon id="_437441920" class="fil1" points="1.27562,3.90598 3.48061,3.6759 3.47856,3.68648 1.27969,3.91593 "/>
   <polygon id="_437442760" class="fil1" points="1.27161,3.89603 3.4826,3.6653 3.48061,3.6759 1.27562,3.90598 "/>
   <polygon id="_437443336" class="fil1" points="1.26771,3.88605 3.48456,3.65473 3.4826,3.6653 1.27161,3.89603 "/>
   <polygon id="_437442808" class="fil1" points="1.26385,3.87609 3.48647,3.64415 3.48456,3.65473 1.26771,3.88605 "/>
   <polygon id="_437443120" class="fil1" points="1.26009,3.8661 3.48834,3.63359 3.48647,3.64415 1.26385,3.87609 "/>
   <polygon id="_437443144" class="fil1" points="1.25639,3.8561 3.49015,3.62301 3.48834,3.63359 1.26009,3.8661 "/>
   <polygon id="_437443360" class="fil2" points="1.25275,3.84611 3.49194,3.61244 3.49015,3.62301 1.25639,3.8561 "/>
   <polygon id="_437442880" class="fil2" points="1.24921,3.8361 3.49368,3.6019 3.49194,3.61244 1.25275,3.84611 "/>
   <polygon id="_437442664" class="fil2" points="1.24572,3.8261 3.49538,3.59134 3.49368,3.6019 1.24921,3.8361 "/>
   <polygon id="_437443096" class="fil2" points="1.24232,3.81608 3.49707,3.58079 3.49538,3.59134 1.24572,3.8261 "/>
   <polygon id="_437442904" class="fil2" points="1.23896,3.80604 3.49868,3.57023 3.49707,3.58079 1.24232,3.81608 "/>
   <polygon id="_437443000" class="fil2" points="1.23568,3.79601 3.50027,3.55971 3.49868,3.57023 1.23896,3.80604 1.23569,3.79609 "/>
   <polygon id="_437444080" class="fil2" points="1.23244,3.78597 3.50184,3.54915 3.50027,3.55971 1.23568,3.79601 "/>
   <polygon id="_437443984" class="fil2" points="1.22929,3.77592 3.50335,3.53862 3.50184,3.54915 1.23244,3.78597 "/>
   <polygon id="_437443648" class="fil2" points="1.22619,3.76587 3.50482,3.5281 3.50335,3.53862 1.22929,3.77592 "/>
   <polygon id="_437444104" class="fil2" points="1.22314,3.75581 3.50628,3.51757 3.50482,3.5281 1.22619,3.76587 "/>
   <polygon id="_437443792" class="fil2" points="1.22015,3.74575 3.5077,3.50703 3.50628,3.51757 1.22314,3.75581 "/>
   <polygon id="_437443840" class="fil2" points="1.21721,3.73567 3.50908,3.49652 3.5077,3.50703 1.22015,3.74575 "/>
   <polygon id="_437443456" class="fil3" points="1.21433,3.72559 3.51043,3.48599 3.50908,3.49652 1.21721,3.73567 "/>
   <polygon id="_437443744" class="fil3" points="1.2115,3.71551 3.51175,3.47548 3.51043,3.48599 1.21433,3.72559 "/>
   <polygon id="_437443864" class="fil3" points="1.20872,3.70544 3.51303,3.46498 3.51175,3.47548 1.2115,3.71551 "/>
   <polygon id="_437443624" class="fil3" points="1.20598,3.69533 3.51428,3.45447 3.51303,3.46498 1.20872,3.70544 "/>
   <polygon id="_437444344" class="fil4" points="1.20332,3.68524 3.51546,3.44397 3.51528,3.44609 3.51428,3.45447 1.20598,3.69533 "/>
   <polygon id="_437444224" class="fil4" points="1.20068,3.67514 3.51636,3.4335 3.51546,3.44397 1.20332,3.68524 "/>
   <polygon id="_437444632" class="fil4" points="1.19811,3.66503 3.51726,3.42303 3.51636,3.4335 1.20068,3.67514 "/>
   <polygon id="_437444536" class="fil4" points="1.19558,3.65493 3.51816,3.41256 3.51726,3.42303 1.19811,3.66503 "/>
   <polygon id="_437444920" class="fil5" points="1.19309,3.64481 3.51907,3.40208 3.51816,3.41256 1.19558,3.65493 "/>
   <polygon id="_437444296" class="fil5" points="1.19067,3.63467 3.51999,3.3916 3.51907,3.40208 1.19309,3.64481 "/>
   <polygon id="_437444608" class="fil5" points="1.18827,3.62455 3.5209,3.38113 3.51999,3.3916 1.19067,3.63467 "/>
   <polygon id="_437444320" class="fil5" points="1.18591,3.61442 3.52182,3.37067 3.5209,3.38113 1.18827,3.62455 "/>
   <polygon id="_437444248" class="fil5" points="1.18362,3.60427 3.52274,3.36019 3.52182,3.37067 1.18591,3.61442 "/>
   <polygon id="_437444584" class="fil5" points="1.18137,3.59414 3.52368,3.3497 3.52274,3.36019 1.18362,3.60427 "/>
   <polygon id="_437444824" class="fil5" points="1.17916,3.58399 3.5246,3.33923 3.52368,3.3497 1.18137,3.59414 "/>
   <polygon id="_437445592" class="fil5" points="1.17698,3.57385 3.52554,3.32878 3.5246,3.33923 1.17916,3.58399 "/>
   <polygon id="_437445016" class="fil5" points="1.17486,3.56368 3.52648,3.31829 3.52554,3.32878 1.17698,3.57385 "/>
   <polygon id="_437445136" class="fil5" points="1.17277,3.55354 3.52742,3.30782 3.52648,3.31829 1.17486,3.56368 "/>
   <polygon id="_437445472" class="fil5" points="1.17073,3.54336 3.52838,3.29734 3.52742,3.30782 1.17277,3.55354 "/>
   <polygon id="_437445448" class="fil5" points="1.16873,3.5332 3.52933,3.28687 3.52838,3.29734 1.17073,3.54336 "/>
   <polygon id="_437445064" class="fil6" points="1.16675,3.52302 3.53029,3.27638 3.52933,3.28687 1.16873,3.5332 "/>
   <polygon id="_437445616" class="fil6" points="1.16483,3.51285 3.53126,3.26592 3.53029,3.27638 1.16675,3.52302 "/>
   <polygon id="_437445304" class="fil6" points="1.16294,3.50267 3.53223,3.25543 3.53126,3.26592 1.16483,3.51285 "/>
   <polygon id="_437445568" class="fil6" points="1.1611,3.4925 3.53321,3.24495 3.53223,3.25543 1.16294,3.50267 "/>
   <path id="_437445208" class="fil7" d="M1.06608 3.49202l2.46809 -0.257549 -0.000955709 0.0104847 -2.37211 0.247543 -0.000505964 -0.00286713c-0.0158816,0.00394933 -0.0336185,0.0058748 -0.0533932,0.0058748 -0.0130988,0 -0.026788,-0.00116653 -0.0411236,-0.00348553z"/>
   <path id="_437445400" class="fil7" d="M1.03353 3.48503l2.50164 -0.261035 -0.000997872 0.0104706 -2.46809 0.257549c-0.0105128,-0.0017006 -0.0213629,-0.00403365 -0.0325503,-0.00698511z"/>
   <path id="_437446240" class="fil7" d="M1.00784 3.47735l2.52833 -0.263832 -0.000997872 0.0104847 -2.50164 0.261035c-0.00837651,-0.00220656 -0.0169357,-0.00477854 -0.0256917,-0.00768783z"/>
   <path id="_437446312" class="fil7" d="M0.985462 3.46931l2.5517 -0.266263 -0.000997872 0.0104706 -2.52833 0.263832c-0.00733647,-0.00244549 -0.0147854,-0.0051018 -0.0223748,-0.0080392z"/>
   <path id="_437446336" class="fil7" d="M0.965238 3.46104l2.57294 -0.268484 -0.00101193 0.0104847 -2.5517 0.266263c-0.0066478,-0.00255793 -0.0133799,-0.00532667 -0.0202245,-0.00826407z"/>
   <path id="_437446000" class="fil7" d="M0.946461 3.45262l2.59273 -0.27055 -0.00101193 0.0104847 -2.57294 0.268484c-0.00616994,-0.00265631 -0.0124383,-0.00545316 -0.0187769,-0.00841867z"/>
   <path id="_437445712" class="fil7" d="M0.92878 3.44409l2.61143 -0.272504 -0.00102598 0.0104847 -2.59273 0.27055c-0.00581858,-0.00271253 -0.0117215,-0.0055656 -0.0176806,-0.00853111z"/>
   <path id="_437446384" class="fil7" d="M0.911971 3.43546l2.62924 -0.274359 -0.000196764 0.00229089 -0.000801109 0.0081938 -2.61143 0.272504c-0.00507369,-0.00252982 -0.0101895,-0.00517207 -0.0153757,-0.00789865l-0.00143356 -0.000730836z"/>
   <path id="_437445736" class="fil8" d="M0.895696 3.42679l2.64641 -0.276172 -0.000899491 0.0104847 -2.62924 0.274359c-0.0055656,-0.00283902 -0.0109907,-0.0057202 -0.0162752,-0.00867165z"/>
   <path id="_437445760" class="fil8" d="M0.880601 3.41799l2.66241 -0.27783 -0.000899491 0.0104566 -2.64641 0.276172c-0.00515802,-0.00289524 -0.0102036,-0.00581858 -0.0150946,-0.00879814z"/>
   <path id="_437445784" class="fil8" d="M0.866589 3.40907l2.67729 -0.279376 -0.000871382 0.0104706 -2.66241 0.27783c-0.00480665,-0.00292334 -0.00947276,-0.00590291 -0.0140124,-0.00892463z"/>
   <path id="_437445976" class="fil8" d="M0.853603 3.40005l2.69118 -0.280838 -0.000899491 0.0104847 -2.67729 0.279376c-0.00444124,-0.00295145 -0.00878409,-0.00595913 -0.0129864,-0.00902302z"/>
   <path id="_437447080" class="fil8" d="M0.841586 3.39093l2.70408 -0.282173 -0.000885436 0.0104566 -2.69118 0.280838c-0.00413204,-0.00299362 -0.00812353,-0.0060294 -0.0120166,-0.0091214z"/>
   <path id="_437446528" class="fil8" d="M0.830469 3.38171l2.7161 -0.283424 -0.000899491 0.0104706 -2.70408 0.282173c-0.00380878,-0.00302173 -0.00751918,-0.00609967 -0.0111171,-0.00921978z"/>
   <path id="_437446576" class="fil8" d="M0.820251 3.37239l2.72719 -0.284576 -0.000871382 0.0104706 -2.7161 0.283424c-0.00349958,-0.00307794 -0.00691483,-0.00616994 -0.0102177,-0.00931816z"/>
   <path id="_437446624" class="fil8" d="M0.810849 3.36301l2.73747 -0.285659 -0.000885436 0.0104566 -2.72719 0.284576c-0.00323254,-0.003092 -0.00636671,-0.00621211 -0.00940249,-0.00937438z"/>
   <path id="_437446864" class="fil8" d="M0.802191 3.35353l2.747 -0.286642 -0.000871382 0.0104706 -2.73747 0.285659c-0.00297956,-0.00312011 -0.0058748,-0.00628238 -0.0086576,-0.00948682z"/>
   <path id="_437446768" class="fil8" d="M0.794306 3.34397l2.75576 -0.28757 -0.000871382 0.0104847 -2.747 0.286642c-0.00272658,-0.00313416 -0.00535478,-0.0063386 -0.0078846,-0.00955709z"/>
   <path id="_437446912" class="fil8" d="M0.787111 3.33436l2.76383 -0.288413 -0.000871382 0.0104566 -2.75576 0.28757c-0.00248765,-0.00316227 -0.00489098,-0.00636671 -0.00719593,-0.00961331z"/>
   <path id="_437447056" class="fil8" d="M0.780575 3.32464l2.77122 -0.289158 -0.000857327 0.0104566 -2.76383 0.288413c-0.00227684,-0.00320444 -0.00444124,-0.00643698 -0.00653536,-0.00971169z"/>
   <path id="_437446552" class="fil8" d="M0.7747 3.31489l2.77796 -0.289889 -0.000871382 0.0104847 -2.77122 0.289158c-0.00205196,-0.00321849 -0.00400554,-0.00646509 -0.0058748,-0.00975385z"/>
   <path id="_437447152" class="fil9" d="M0.769416 3.30507l2.78409 -0.290507 -0.000843273 0.0104425 -2.77796 0.289889c-0.0018552,-0.00323254 -0.00361202,-0.00652131 -0.00528451,-0.00982412z"/>
   <path id="_437446480" class="fil9" d="M0.764722 3.29517l2.78963 -0.291084 -0.000843273 0.0104706 -2.78409 0.290507c-0.00164438,-0.00327471 -0.00320444,-0.00656347 -0.00469422,-0.0098944z"/>
   <path id="_437447536" class="fil9" d="M0.760604 3.28524l2.79459 -0.291618 -0.000843273 0.0104706 -2.78963 0.291084c-0.00146167,-0.00327471 -0.00282496,-0.00659158 -0.00411798,-0.00993656z"/>
   <path id="_437447248" class="fil9" d="M0.756992 3.27523l2.79902 -0.292081 -0.000815163 0.0104706 -2.79459 0.291618c-0.00127896,-0.00330282 -0.00248765,-0.00663374 -0.00361202,-0.0100068z"/>
   <path id="_437447392" class="fil9" d="M0.753942 3.26518l2.80291 -0.292489 -8.43273e-005 0.000899491 -0.000758945 0.00955709 -2.79902 0.292081c-0.00109625,-0.00331687 -0.00210818,-0.00666185 -0.00304984,-0.010049z"/>
   <path id="_437447944" class="fil9" d="M0.75137 3.25507l2.80655 -0.292883 -0.00106815 0.0104987 -2.80291 0.292489c-0.0009276,-0.00334498 -0.00178493,-0.00671807 -0.00257198,-0.0101052z"/>
   <path id="_437447680" class="fil9" d="M0.749248 3.24491l2.80974 -0.293206 -0.00106815 0.0104847 -2.80655 0.292883c-0.000773,-0.00337309 -0.00148978,-0.00674618 -0.00212224,-0.0101614z"/>
   <path id="_437447320" class="fil9" d="M0.747617 3.23469l2.81241 -0.293473 -0.00104004 0.0104847 -2.80974 0.293206c-0.000632454,-0.00337309 -0.00115247,-0.00678834 -0.00163033,-0.0102177z"/>
   <path id="_437447920" class="fil9" d="M0.746437 3.22445l2.81463 -0.293712 -0.00104004 0.0104847 -2.81241 0.293473c-0.0004638,-0.00338714 -0.000843273,-0.00681645 -0.00118058,-0.0102458z"/>
   <path id="_437447344" class="fil9" d="M0.745678 3.21415l2.81642 -0.29388 -0.00102598 0.0104706 -2.81463 0.293712c-0.000323254,-0.00341525 -0.000576236,-0.00684456 -0.000758945,-0.010302z"/>
   <path id="_437447704" class="fil9" d="M0.745326 3.20382l2.81777 -0.294035 -0.000997872 0.0104847 -2.81642 0.29388c-0.000182709,-0.00341525 -0.0003092,-0.00685862 -0.000351364,-0.0103301z"/>
   <path id="_437447848" class="fil9" d="M0.745369 3.19343l2.81872 -0.294133 -0.000997872 0.0104847 -2.81777 0.294035c-4.21636e-005,-0.00342931 -2.81091e-005,-0.00690078 4.21636e-005,-0.0103863z"/>
   <path id="_437447968" class="fil10" d="M0.745664 3.18303l2.81941 -0.294218 -0.000983818 0.0104847 -2.81872 0.294133 1.40545e-005 -0.000365418c4.21636e-005,-0.00334498 0.000140545,-0.00670402 0.000281091,-0.0100349z"/>
   <path id="_437448616" class="fil10" d="M0.746198 3.17259l0.582758 -0.0607999c0.00254387,0.00144762 0.00507369,0.00282496 0.0075754,0.00411798l-0.000267036 -0.00489098 2.22978 -0.232673 -0.000969763 0.0104706 -2.81941 0.294218c0.000126491,-0.00348553 0.0003092,-0.00697105 0.000534073,-0.0104425z"/>
   <path id="_437448664" class="fil10" d="M0.746985 3.16212l0.567551 -0.0592118c0.00487693,0.00321849 0.00968358,0.00616994 0.01442,0.00888247l-0.582758 0.0607999c0.000210818,-0.00348553 0.000477854,-0.00697105 0.000787054,-0.0104706zm0.588773 -0.0614324l2.23124 -0.232828 -0.000955709 0.0104847 -2.22978 0.232673 -0.000505964 -0.0103301z"/>
   <path id="_437448520" class="fil10" d="M0.748067 3.15163l0.553496 -0.0577501c0.00438502,0.00320444 0.00869976,0.00621211 0.0129723,0.00902302l-0.567551 0.0592118c0.000323254,-0.00348553 0.000674618,-0.00698511 0.0010822,-0.0104847zm0.587283 -0.0612778l2.23259 -0.232968 -0.000941654 0.0104706 -2.23124 0.232828 -0.000407582 -0.0103301z"/>
   <path id="_437448640" class="fil11" d="M0.749416 3.14112l0.5402 -0.0563728c0.00403365,0.00320444 0.00801109,0.00625427 0.0119464,0.00913545l-0.553496 0.0577501c0.000393527,-0.00349958 0.000857327,-0.00701322 0.00134924,-0.0105128zm0.585625 -0.0611091l2.23384 -0.233095 -0.000941654 0.0104706 -2.23259 0.232968 -0.0003092 -0.0103441z"/>
   <path id="_437448112" class="fil11" d="M0.751033 3.13058l0.527369 -0.0550376c0.00376662,0.00320444 0.00751918,0.00626833 0.0112155,0.00920572l-0.5402 0.0563728c0.000505964,-0.00352769 0.00102598,-0.00702727 0.00161627,-0.0105409zm0.583783 -0.0609124l2.23498 -0.233221 -0.000913545 0.0104706 -2.23384 0.233095 -0.000224873 -0.0103441z"/>
   <path id="_437448736" class="fil11" d="M0.752958 3.12l0.514832 -0.0537165c0.00356985,0.00320444 0.0071116,0.00628238 0.0106112,0.00926194l-0.527369 0.0550376c0.000590291,-0.00354174 0.00125085,-0.00705538 0.00192547,-0.0105831zm0.581703 -0.0607016l2.23605 -0.233334 -0.000913545 0.0104847 -2.23498 0.233221 -0.0001546 -0.0103723z"/>
   <path id="_437448688" class="fil11" d="M0.755179 3.10938l0.502478 -0.0524375c0.00341525,0.00320444 0.00678834,0.00632454 0.0101333,0.00933222l-0.514832 0.0537165c0.000702727,-0.00354174 0.00143356,-0.00706943 0.00222062,-0.0106112zm0.579398 -0.0604626l2.23703 -0.233446 -0.000899491 0.0104847 -2.23605 0.233334 -8.43273e-005 -0.0103723z"/>
   <path id="_437448016" class="fil12" d="M0.75768 3.09876l0.490236 -0.0511585c0.00327471,0.00320444 0.00652131,0.00632454 0.0097398,0.00934627l-0.502478 0.0524375c0.000787054,-0.0035558 0.00161627,-0.00708349 0.00250171,-0.0106252zm0.576981 -0.0602097l2.23785 -0.23353 -0.000899491 0.0104566 -2.23703 0.233446 -1.40545e-005 -0.006184 9.83818e-005 -0.00418825z"/>
   <path id="_437448472" class="fil12" d="M0.760491 3.08809l0.478037 -0.0498936c0.00314822,0.00321849 0.00628238,0.00635265 0.00938843,0.00940249l-0.490236 0.0511585c0.000885436,-0.0035558 0.00184114,-0.00712565 0.00281091,-0.0106674zm0.57455 -0.0599567l2.23837 -0.233586 -0.000899491 0.0104706 -2.23785 0.23353 0.000379473 -0.0104144z"/>
   <path id="_437448880" class="fil12" d="M0.763625 3.07738l0.465796 -0.0486006c0.00304984,0.00320444 0.00609967,0.00635265 0.00910734,0.00941654l-0.478037 0.0498936c0.000997872,-0.00358391 0.00203791,-0.00715376 0.00313416,-0.0107096zm0.57195 -0.0596756l2.23869 -0.233615 -0.000857327 0.0104566 -2.23837 0.233586 0.000534073 -0.0104285z"/>
   <path id="_437449384" class="fil12" d="M0.767055 3.06664l0.453568 -0.0473357 0.00522829 0.00569209 0.00356985 0.00378067 -0.465796 0.0486006c0.00109625,-0.00358391 0.00223467,-0.00716782 0.00342931,-0.0107377zm0.569209 -0.0593945l2.23886 -0.233629 -0.000857327 0.0104706 -2.23869 0.233615 0.000688673 -0.0104566z"/>
   <path id="_437449120" class="fil12" d="M0.770821 3.05588l0.441369 -0.0460567c0.00274064,0.00316227 0.00555154,0.00631049 0.00843273,0.00948682l-0.453568 0.0473357c0.00120869,-0.00361202 0.00245954,-0.00718187 0.00376662,-0.0107658zm0.566257 -0.0590853l2.2389 -0.233643 -0.000857327 0.0104706 -2.23886 0.233629 0.000815163 -0.0104566z"/>
   <path id="_437449144" class="fil12" d="M0.774939 3.04507l0.429113 -0.0447918c0.00264225,0.00317633 0.00535478,0.00635265 0.00813758,0.00954303l-0.441369 0.0460567c0.00132113,-0.00361202 0.00269847,-0.00722403 0.00411798,-0.0108079zm0.563081 -0.058762l2.2388 -0.233629 -0.000843273 0.0104706 -2.2389 0.233643 0.000941654 -0.0104847z"/>
   <path id="_437449264" class="fil12" d="M0.779367 3.03422l0.416858 -0.0434988c0.00254387,0.00317633 0.00514396,0.00636671 0.00782838,0.00955709l-0.429113 0.0447918c0.00143356,-0.00362607 0.00290929,-0.00723809 0.00442718,-0.0108501zm0.559722 -0.0584107l2.23858 -0.233586 -0.000843273 0.0104566 -2.2388 0.233629 0.00106815 -0.0104987z"/>
   <path id="_437448832" class="fil12" d="M0.784159 3.02336l0.404588 -0.0422198c0.00243144,0.00319038 0.00493314,0.00638076 0.00747702,0.0095852l-0.416858 0.0434988c0.001546,-0.00361202 0.00313416,-0.00725214 0.0047926,-0.0108642zm0.556096 -0.0580312l2.23823 -0.233572 -0.000815163 0.0104706 -2.23858 0.233586 0.00116653 -0.0104847z"/>
   <path id="_437449240" class="fil12" d="M0.789303 3.01244l0.392304 -0.0409409c0.002319,0.00321849 0.00469422,0.00642293 0.00713971,0.00964142l-0.404588 0.0422198c0.00165844,-0.00365418 0.00337309,-0.00729431 0.00514396,-0.0109204zm0.552231 -0.0576236l2.23778 -0.233516 -0.000829218 0.0104566 -2.23823 0.233572 0.00127896 -0.0105128z"/>
   <path id="_437448928" class="fil12" d="M0.794812 3.00149l0.379979 -0.0396619c0.00219251,0.00321849 0.0044834,0.00645103 0.00681645,0.00966952l-0.392304 0.0409409c0.00178493,-0.00365418 0.00361202,-0.00730836 0.00550938,-0.0109485zm0.548071 -0.057202l2.23722 -0.233446 -0.000787054 0.0104566 -2.23778 0.233516 0.00134924 -0.0105269z"/>
   <path id="_437449336" class="fil12" d="M0.800687 2.9905l0.367639 -0.0383689c0.00209413,0.00323254 0.00424447,0.00645103 0.00646509,0.00969763l-0.379979 0.0396619c0.00189736,-0.00368229 0.003865,-0.00733647 0.0058748,-0.0109907zm0.543658 -0.0567382l2.23657 -0.23339 -0.000815163 0.0104706 -2.23722 0.233446 0.00146167 -0.0105269z"/>
   <path id="_437449360" class="fil12" d="M0.806956 2.97948l0.355271 -0.0370759c0.00196764,0.00323254 0.00399149,0.00647914 0.00609967,0.00972574l-0.367639 0.0383689c0.00203791,-0.00368229 0.00411798,-0.00735053 0.00626833,-0.0110188zm0.538921 -0.0562463l2.23582 -0.233305 -0.000787054 0.0104425 -2.23657 0.23339 0.00153195 -0.0105269z"/>
   <path id="_437448976" class="fil13" d="M0.813589 2.9684l0.342875 -0.0357829c0.00184114,0.0032466 0.00376662,0.00650725 0.00576236,0.00978196l-0.355271 0.0370759c0.0021644,-0.0037104 0.00435691,-0.00740674 0.00663374,-0.011075zm0.533918 -0.0557263l2.23498 -0.233221 -0.000787054 0.0104706 -2.23582 0.233305 0.00163033 -0.010555z"/>
   <path id="_437450008" class="fil13" d="M0.820645 2.95729l0.330464 -0.0344758c0.00171465,0.00326065 0.00349958,0.00653536 0.00535478,0.00981007l-0.342875 0.0357829c0.00229089,-0.00372445 0.00465205,-0.0074208 0.00705538,-0.0111171zm0.528549 -0.05515l2.23407 -0.233137 -0.000773 0.0104566 -2.23498 0.233221 0.00168655 -0.0105409z"/>
   <path id="_437449720" class="fil13" d="M0.828108 2.94613l0.317998 -0.0331828c0.00158816,0.00328876 0.00327471,0.00657753 0.00500342,0.00986629l-0.330464 0.0344758c0.00243144,-0.00372445 0.00493314,-0.00744891 0.00746296,-0.0111593zm0.522857 -0.0545597l2.23307 -0.233024 -0.000773 0.0104566 -2.23407 0.233137 0.00177087 -0.010569z"/>
   <path id="_437450128" class="fil13" d="M0.835852 2.93494l0.30563 -0.0318898c0.00147573,0.00328876 0.00302173,0.00659158 0.00462394,0.0098944l-0.317998 0.0331828 0.00428664 -0.00615589 0.00345742 -0.00503153zm0.516954 -0.0539413l2.232 -0.232898 -0.000773 0.0104425 -2.23307 0.233024 0.00184114 -0.010569z"/>
   <path id="_437450032" class="fil14" d="M0.843947 2.92372l0.293332 -0.0306108c0.00133518,0.00330282 0.00272658,0.00661969 0.00420231,0.00993656l-0.30563 0.0318898c0.00268442,-0.00380878 0.00538289,-0.00756134 0.00809542,-0.0112155zm0.510756 -0.0533089l2.23085 -0.232785 -0.000744891 0.0104706 -2.232 0.232898 0.00189736 -0.0105831z"/>
   <path id="_437450176" class="fil14" d="M0.852591 2.91245l0.28088 -0.0293178c0.00119464,0.00331687 0.0024736,0.00663374 0.00380878,0.00997872l-0.293332 0.0306108c0.00285307,-0.00385094 0.00573425,-0.00760351 0.00864354,-0.0112717zm0.50408 -0.0526061l2.22963 -0.232659 -0.000744891 0.0104425 -2.23085 0.232785 0.00196764 -0.010569z"/>
   <path id="_437449792" class="fil14" d="M0.861909 2.9011l0.268175 -0.0279966c0.00105409,0.00334498 0.00217845,0.00668996 0.00338714,0.0100349l-0.28088 0.0293178c0.00306389,-0.00389311 0.006184,-0.00767378 0.00931816,-0.0113561zm0.496758 -0.0518472l2.22836 -0.232518 -0.000730836 0.0104566 -2.22963 0.232659 0.00199574 -0.0105971z"/>
   <path id="_437449600" class="fil14" d="M0.872056 2.88966l0.255062 -0.0266193c0.000913545,0.00335904 0.00189736,0.00670402 0.00296551,0.0100631l-0.268175 0.0279966c0.00334498,-0.00393527 0.00674618,-0.00774405 0.0101474,-0.0114404zm0.488705 -0.0510039l2.227 -0.232392 -0.000730836 0.0104706 -2.22836 0.232518 0.00209413 -0.0105971z"/>
   <path id="_437450248" class="fil14" d="M0.88323 2.87812l0.241359 -0.0251857c0.000758945,0.00335904 0.00160222,0.00673213 0.00252982,0.0101052l-0.255062 0.0266193c0.00368229,-0.00397744 0.0074208,-0.00782838 0.0111734,-0.0115388zm0.479653 -0.0500482l2.22561 -0.232251 -0.000730836 0.0104425 -2.227 0.232392 0.00212224 -0.0105831z"/>
   <path id="_437450056" class="fil14" d="M0.895696 2.86644l0.226798 -0.0236678c0.0006184,0.00338714 0.00132113,0.00677429 0.00209413,0.0101614l-0.241359 0.0251857c0.00411798,-0.00404771 0.00827813,-0.00795487 0.0124664,-0.0116793zm0.46938 -0.0489801l2.22413 -0.232111 -0.000716782 0.0104706 -2.22561 0.232251 0.00219251 -0.0106112z"/>
   <path id="_437449696" class="fil15" d="M0.909905 2.85458l0.210973 -0.0220235c0.000477854,0.0034012 0.000997872,0.0068024 0.00161627,0.0102177l-0.226798 0.0236678c0.00469422,-0.00414609 0.00941654,-0.00810947 0.0142091,-0.011862zm0.457391 -0.0477292l2.22263 -0.231928 -0.000716782 0.0104285 -2.22413 0.232111 0.00222062 -0.0106112z"/>
   <path id="_437450608" class="fil15" d="M0.926658 2.84246l0.193067 -0.0201542c0.0003092,0.00341525 0.000688673,0.00683051 0.00115247,0.0102458l-0.210973 0.0220235c0.00550938,-0.00431474 0.011089,-0.0083484 0.016753,-0.012115zm0.442915 -0.0462254l2.22105 -0.231773 -0.000702727 0.0104566 -2.22263 0.231928 0.00227684 -0.0106112z"/>
   <path id="_437450800" class="fil15" d="M0.947712 2.82988l0.171339 -0.0178914c0.000126491,0.00342931 0.000379473,0.00687267 0.000674618,0.010316l-0.193067 0.0201542c0.00691483,-0.00459584 0.0139281,-0.00879814 0.0210537,-0.0125788zm0.42418 -0.0442718l2.21942 -0.231591 -0.000688673 0.0104425 -2.22105 0.231773 0.000576236 -0.00261414 0.00174276 -0.00801109z"/>
   <path id="_437450992" class="fil15" d="M0.978505 2.81629l0.105915 -0.0110609c0.0117355,0.00133518 0.0232603,0.00341525 0.0346023,0.00621211l2.81091e-005 0.000548127 -0.171339 0.0178914c0.010049,-0.00534073 0.0203088,-0.00988034 0.0307935,-0.0135907zm0.395748 -0.0413063l2.21776 -0.231408 -0.000702727 0.0104425 -2.21942 0.231591 0.00236116 -0.0106252z"/>
   <path id="_437448376" class="fil15" d="M1.37666 2.76437l2.21605 -0.231253 -0.000688673 0.0104566 -2.21776 0.231408 0.00240333 -0.0106112zm-0.292236 0.0408566l-0.105915 0.0110609c0.023977,-0.00851705 0.0490644,-0.0127756 0.0752621,-0.0127756 0.0103723,0 0.0205758,0.000576236 0.030653,0.00171465z"/>
   <polygon id="_437449648" class="fil15" points="1.37912,2.75373 3.59337,2.52268 3.59271,2.53312 1.37666,2.76437 "/>
   <polygon id="_437450704" class="fil15" points="1.38165,2.7431 3.59404,2.51224 3.59337,2.52268 1.37912,2.75373 "/>
   <polygon id="_437450416" class="fil15" points="1.38426,2.73244 3.59472,2.50178 3.59404,2.51224 1.38165,2.7431 "/>
   <polygon id="_437451040" class="fil15" points="1.38693,2.72179 3.59536,2.49134 3.59472,2.50178 1.38426,2.73244 "/>
   <polygon id="_437450656" class="fil15" points="1.3897,2.71112 3.59602,2.48089 3.59536,2.49134 1.38693,2.72179 "/>
   <polygon id="_437450872" class="fil16" points="1.39255,2.70044 3.59102,2.47103 3.59637,2.47534 3.59602,2.48089 1.3897,2.71112 "/>
   <path id="_437450944" class="fil16" d="M1.39555 2.68976l2.18434 -0.227937c0.0037104,0.00310605 0.00740674,0.006184 0.0111312,0.00920572l-2.19847 0.229412 0.00299362 -0.0106815z"/>
   <path id="_437450536" class="fil16" d="M1.39864 2.67905l2.1704 -0.226475c0.00359796,0.00312011 0.00723809,0.00619805 0.0108501,0.00924789l-2.18434 0.227937 0.003092 -0.0107096z"/>
   <polygon id="_437451808" class="fil16" points="1.40188,2.66835 3.55848,2.4433 3.56904,2.45257 1.39864,2.67905 "/>
   <polygon id="_437451784" class="fil17" points="1.40533,2.6576 3.54818,2.43399 3.55848,2.4433 1.40188,2.66835 "/>
   <polygon id="_437451304" class="fil17" points="1.40898,2.64684 3.53815,2.42466 3.54818,2.43399 1.40533,2.6576 "/>
   <path id="_437451640" class="fil17" d="M1.41792 2.63554l2.11042 -0.220221c0.00326065,0.00314822 0.00653536,0.00626833 0.00981007,0.00934627l-2.12916 0.222174 0.00265631 -0.00736458 0.00628238 -0.00393527z"/>
   <path id="_437451232" class="fil17" d="M1.4365 2.62322l2.08226 -0.217283 0.00957114 0.00937438 -2.11042 0.220221c0.00615589,-0.00390716 0.0123539,-0.00801109 0.0185801,-0.0123118z"/>
   <path id="_437451376" class="fil18" d="M1.45353 2.61107l2.05587 -0.214529 0.00936032 0.00940249 -2.08226 0.217283c0.00564993,-0.00389311 0.0113139,-0.00794082 0.0170341,-0.0121572z"/>
   <path id="_437451664" class="fil18" d="M1.46935 2.59904l1.71758 -0.179224 0.0021644 0.00217845 0.00184114 -0.00260009 0.309312 -0.0322833 0.00916356 0.0094306 -2.05587 0.214529c0.00524234,-0.00387905 0.0105128,-0.0078846 0.0158114,-0.0120307z"/>
   <path id="_437451712" class="fil18" d="M1.48426 2.5871l1.69352 -0.176722c0.00300767,0.00317633 0.00607156,0.00632454 0.00914951,0.0094306l-1.71758 0.179224c0.0049472,-0.003865 0.00992251,-0.00784243 0.0149119,-0.0119323zm1.71457 -0.178914l0.292264 -0.0304984c0.00282496,0.00300767 0.00564993,0.00590291 0.00841867,0.00868571l0.000730836 0.000730836 -0.309312 0.0322833 0.00789865 -0.0112015z"/>
   <path id="_437451568" class="fil18" d="M1.49838 2.57526l1.67058 -0.174318c0.00289524,0.00317633 0.00584669,0.00632454 0.0088122,0.00944465l-1.69352 0.176722c0.00468016,-0.00383689 0.00940249,-0.00778622 0.0141248,-0.011848zm1.7082 -0.178254l0.275919 -0.0287837c0.00289524,0.00327471 0.00573425,0.00643698 0.00858732,0.00947276l-0.292264 0.0304984 0.00775811 -0.0111874z"/>
   <path id="_437451496" class="fil18" d="M1.51186 2.56346l1.6486 -0.172028c0.00279685,0.00319038 0.00562182,0.00636671 0.008503,0.00950087l-1.67058 0.174318c0.00446934,-0.00383689 0.0089668,-0.00775811 0.0134783,-0.0117918zm1.7024 -0.177635l0.260065 -0.0271393c0.00274064,0.00327471 0.00548127,0.00646509 0.00817974,0.00952898l-0.275919 0.0287837 0.00767378 -0.0111734z"/>
   <path id="_437452144" class="fil18" d="M1.52478 2.55174l1.62749 -0.169821c0.00269847,0.00319038 0.00542505,0.00636671 0.0081938,0.00951492l-1.6486 0.172028c0.00428664,-0.00382284 0.00860138,-0.00773 0.0129161,-0.0117215zm1.69702 -0.177087l0.244718 -0.025523c0.0026282,0.00327471 0.00521423,0.00645103 0.00781433,0.00955709l-0.260065 0.0271393 0.00753323 -0.0111734z"/>
   <path id="_437452120" class="fil18" d="M1.53724 2.54008l1.60712 -0.167713c0.00260009,0.00320444 0.00522829,0.00638076 0.00789865,0.00955709l-1.62749 0.169821c0.00413204,-0.00380878 0.00830623,-0.00770189 0.0124664,-0.0116653zm1.69197 -0.176567l0.229792 -0.023977c0.00252982,0.00327471 0.00501747,0.00647914 0.00750513,0.00959925l-0.244718 0.025523 0.0074208 -0.0111453z"/>
   <path id="_437452240" class="fil18" d="M1.54927 2.52844l1.58749 -0.165661c0.00250171,0.00321849 0.00501747,0.00642293 0.00760351,0.0095852l-1.60712 0.167713c0.00399149,-0.00380878 0.00801109,-0.00768783 0.0120307,-0.0116372zm1.68721 -0.176061l0.215287 -0.0224732c0.00241738,0.00328876 0.00483476,0.00650725 0.00723809,0.00962736l-0.229792 0.023977 0.0072662 -0.0111312z"/>
   <path id="_437452528" class="fil18" d="M1.56094 2.51685l1.56847 -0.163679c0.00241738,0.00323254 0.00487693,0.00643698 0.00735053,0.00961331l-1.58749 0.165661c0.00387905,-0.00379473 0.00775811,-0.00765973 0.0116653,-0.011595zm1.68264 -0.175597l0.201163 -0.0209834c0.00234711,0.00328876 0.00469422,0.00650725 0.00702727,0.00964142l-0.215287 0.0224732 0.00709754 -0.0111312z"/>
   <path id="_437452360" class="fil18" d="M1.57227 2.50529l1.55008 -0.161768c0.002319,0.0032466 0.00468016,0.00645103 0.00706943,0.00964142l-1.56847 0.163679c0.00375256,-0.00379473 0.00753323,-0.00764567 0.011328,-0.0115528zm1.67825 -0.175134l0.187417 -0.0195499 0.0068024 0.00965547 -0.201163 0.0209834 0.00694294 -0.011089z"/>
   <path id="_437452600" class="fil18" d="M1.5833 2.49377l1.53223 -0.159899c0.00224873,0.0032466 0.00449745,0.00646509 0.00681645,0.00965547l-1.55008 0.161768c0.00365418,-0.00378067 0.00735053,-0.00763162 0.0110328,-0.0115247zm1.67397 -0.174698l0.174051 -0.0181585 0.00661969 0.00969763 -0.187417 0.0195499 0.00674618 -0.011089z"/>
   <path id="_437452264" class="fil18" d="M1.59404 2.48226l1.51491 -0.158085 0.00657753 0.00969763 -1.53223 0.159899 0.0107377 -0.0115107zm1.66981 -0.174248l0.161009 -0.0168092 0.00646509 0.00971169 -0.174051 0.0181585c0.00226278,-0.00375256 0.00446934,-0.00743485 0.00657753,-0.0110609z"/>
   <path id="_437452336" class="fil18" d="M1.60456 2.47077l1.49805 -0.156301c0.00209413,0.00326065 0.00421636,0.0064932 0.0063386,0.00969763l-1.51491 0.158085 0.0105269 -0.0114826zm1.6656 -0.173798l0.148374 -0.0154741 0.00631049 0.00969763 -0.161009 0.0168092 0.00632454 -0.0110328z"/>
   <path id="_437451952" class="fil19" d="M1.61478 2.45933l0.56079 -0.0585091c0.00907923,0.0021644 0.0180601,0.00393527 0.0269285,0.00532667l-0.00319038 -0.00781433 0.8972 -0.0936173c0.0020098,0.00327471 0.00404771,0.00652131 0.00609967,0.00975385l-1.49805 0.156301 0.00480665 -0.00531262 0.005411 -0.00612778zm1.66127 -0.173349l0.136301 -0.0142232 0.006184 0.0097398 -0.148374 0.0154741 0.00193953 -0.00348553 0.00394933 -0.00750513z"/>
   <path id="_437452432" class="fil19" d="M1.62462 2.44794l0.5237 -0.0546441c0.00917762,0.00288118 0.0182709,0.00539694 0.0272518,0.00753323l-0.56079 0.0585091 0.00983818 -0.0113982zm0.570685 -0.0595491l0.895345 -0.0934346 0.00586074 0.00976791 -0.8972 0.0936173 -0.00400554 -0.00995062zm1.08625 -0.11335l0.124734 -0.0130145 0.00607156 0.0097398 -0.136301 0.0142232c0.00188331,-0.00365418 0.0037104,-0.00732242 0.00549533,-0.0109485z"/>
   <path id="_437453104" class="fil19" d="M1.63415 2.43657l0.491066 -0.0512429c0.00777216,0.00292334 0.0154741,0.00557965 0.0231057,0.00796893l-0.5237 0.0546441c0.00323254,-0.00379473 0.00640887,-0.00758945 0.00952898,-0.0113701zm0.557206 -0.0581436l0.893644 -0.0932378c0.0018552,0.00327471 0.00373851,0.00653536 0.00564993,0.00976791l-0.895345 0.0934346 -0.00394933 -0.00996467zm1.09538 -0.114306l0.113617 -0.011848 0.00593102 0.00975385 -0.124734 0.0130145c0.00178493,-0.00364013 0.00351364,-0.00728025 0.00518613,-0.0109204z"/>
   <path id="_437452696" class="fil19" d="M1.64334 2.42522l0.461326 -0.0481368c0.00690078,0.0029374 0.0137594,0.00569209 0.0205477,0.00823596l-0.491066 0.0512429c0.00310605,-0.00378067 0.006184,-0.0075754 0.00919167,-0.011342zm0.544093 -0.0567663l0.892112 -0.0930973c0.00178493,0.00330282 0.00359796,0.00656347 0.00545316,0.00982412l-0.893644 0.0932378 -0.00392122 -0.00996467zm1.10421 -0.115219l0.102865 -0.0107377 0.00584669 0.00976791 -0.113617 0.011848c0.00168655,-0.00364013 0.00331687,-0.0072662 0.00490504,-0.0108782z"/>
   <path id="_437453296" class="fil19" d="M1.65221 2.41392l0.433667 -0.0452556c0.00631049,0.00296551 0.0125788,0.00577642 0.0187909,0.00841867l-0.461326 0.0481368c0.00300767,-0.00376662 0.00595913,-0.00753323 0.00886842,-0.0112999zm0.531374 -0.0554452l0.890721 -0.0929427 0.000112436 0.000224873 0.00512991 0.00959925 -0.892112 0.0930973 -0.00385094 -0.00997872zm1.11267 -0.116105l0.092507 -0.00965547 0.00574831 0.00978196 -0.102865 0.0107377c0.00158816,-0.00362607 0.00312011,-0.00725214 0.00460989,-0.0108642z"/>
   <path id="_437452984" class="fil19" d="M1.66075 2.40265l0.407694 -0.0425431c0.00584669,0.00299362 0.0116512,0.00583263 0.0174276,0.00855922l-0.433667 0.0452556c0.00289524,-0.00373851 0.00574831,-0.00751918 0.00854516,-0.0112717zm0.519034 -0.0541521l0.889709 -0.0928584 0.00480665 0.0098944 -0.890721 0.0929427 -0.00379473 -0.00997872zm1.12075 -0.116962l0.0825704 -0.00861543 0.00564993 0.00979602 -0.092507 0.00965547c0.00147573,-0.00361202 0.00290929,-0.00722403 0.00428664,-0.0108361z"/>
   <path id="_437453368" class="fil19" d="M1.66898 2.39142l0.383085 -0.0399711c0.00549533,0.00300767 0.0109485,0.00588885 0.0163876,0.0086576l-0.407694 0.0425431c0.0027828,-0.00373851 0.00553749,-0.00749107 0.00822191,-0.0112296zm0.507074 -0.0529153l0.888823 -0.0927459c0.00150384,0.00331687 0.00306389,0.00660563 0.00462394,0.00988034l-0.889709 0.0928584 -0.00373851 -0.00999278zm1.12848 -0.117763l0.0729993 -0.00760351 0.00557965 0.00978196 -0.0825704 0.00861543c0.0013914,-0.00359796 0.00271253,-0.00719593 0.00399149,-0.0107939z"/>
   <path id="_437452888" class="fil19" d="M1.67688 2.38022l0.359642 -0.0375397c0.00521423,0.00302173 0.0104004,0.00594507 0.0155443,0.00877003l-0.383085 0.0399711c0.00268442,-0.00375256 0.00532667,-0.00746296 0.00789865,-0.0112015zm0.495507 -0.0517067l0.888092 -0.0926756c0.00143356,0.00331687 0.00289524,0.00663374 0.00439907,0.00992251l-0.888823 0.0927459 -0.00366824 -0.00999278zm1.13585 -0.118522l0.0638076 -0.00666185 0.00549533 0.00981007 -0.0729993 0.00760351c0.00127896,-0.00359796 0.00251576,-0.00716782 0.00369634,-0.0107517z"/>
   <path id="_437452624" class="fil20" d="M1.68445 2.36906l0.337239 -0.0351926c0.00497531,0.00302173 0.00992251,0.00597318 0.0148275,0.0088122l-0.359642 0.0375397c0.00257198,-0.00372445 0.0051018,-0.00744891 0.0075754,-0.0111593zm0.484348 -0.0505542l0.88746 -0.0925913c0.00137735,0.00333093 0.00276874,0.00663374 0.00421636,0.00992251l-0.888092 0.0926756 -0.00358391 -0.0100068zm1.14282 -0.119239l0.0550235 -0.00574831 0.00539694 0.00981007 -0.0638076 0.00666185c0.00118058,-0.00358391 0.00230494,-0.00715376 0.00338714,-0.0107236z"/>
   <path id="_437452816" class="fil20" d="M1.69169 2.35793l0.315777 -0.0329579c0.00476449,0.00304984 0.00950087,0.00601534 0.0142232,0.00889652l-0.337239 0.0351926c0.00245954,-0.0037104 0.00487693,-0.00743485 0.00723809,-0.0111312zm0.473582 -0.0494298l0.886982 -0.0925492 0.00400554 0.00996467 -0.88746 0.0925913 -0.00352769 -0.0100068zm1.14944 -0.119941l0.0465908 -0.00486287 0.00534073 0.00982412 -0.0550235 0.00574831c0.0010822,-0.00358391 0.00210818,-0.00713971 0.003092,-0.0107096z"/>
   <path id="_437452864" class="fil20" d="M1.6986 2.34683l0.295131 -0.0307935c0.00459584,0.00304984 0.00917762,0.0060294 0.0137313,0.00893869l-0.315777 0.0329579c0.00236116,-0.0037104 0.00466611,-0.00740674 0.00691483,-0.0111031zm0.463252 -0.0483336l0.394497 -0.0411798 0 0.00650725c0.00847489,-0.00300767 0.0168795,-0.00605751 0.0251717,-0.00913545l0.466906 -0.048713 0.00382284 0.00997872 -0.886982 0.0925492 -0.00341525 -0.0100068zm1.15563 -0.120602l0.0385094 -0.0040196 0.00529856 0.00982412 -0.0465908 0.00486287c0.000969763,-0.0035558 0.00191142,-0.0071116 0.0027828,-0.0106674z"/>
   <path id="_437453656" class="fil20" d="M1.70524 2.33575l0.27523 -0.0287134c0.00445529,0.00306389 0.00886842,0.00605751 0.0132675,0.00899491l-0.295131 0.0307935c0.00226278,-0.00369634 0.00446934,-0.00739269 0.00663374,-0.011075zm0.453273 -0.0473076l0.397842 -0.0415031 0 0.0103723 -0.394497 0.0411798 -0.00334498 -0.010049zm0.460174 -0.0480103l0.42612 -0.0444686c0.00119464,0.00334498 0.00238927,0.00667591 0.00362607,0.0100068l-0.466906 0.048713c0.0125929,-0.00466611 0.024989,-0.00941654 0.0371602,-0.0142513zm0.701294 -0.073182l0.0308216 -0.00321849 0.00520018 0.00983818 -0.0385094 0.0040196c0.000885436,-0.0035558 0.00171465,-0.00709754 0.00248765,-0.0106393z"/>
   <path id="_437453416" class="fil20" d="M1.71151 2.32472l0.256102 -0.0267177c0.00430069,0.00307794 0.00858732,0.00608562 0.0128599,0.00903707l-0.27523 0.0287134c0.00215034,-0.00368229 0.00423042,-0.00735053 0.00626833,-0.0110328zm0.4438 -0.0462957l0.401046 -0.0418544 0 0.0103723 -0.397842 0.0415031 -0.00320444 -0.0100209zm0.497334 -0.0519034l0.388721 -0.0405614 0.00344336 0.0100068 -0.42612 0.0444686c0.0115107,-0.00456773 0.0228246,-0.00920572 0.0339558,-0.013914zm0.66953 -0.0698651l0.0228527 -0.00238927c0.00133518,0.00222062 0.00271253,0.00445529 0.00416014,0.00670402l0.00161627 0.00306389 -0.0308216 0.00321849c0.000787054,-0.00352769 0.00151789,-0.00706943 0.00219251,-0.0105971z"/>
   <path id="_437453584" class="fil20" d="M1.71748 2.31371l0.23762 -0.0247922c0.00418825,0.00307794 0.00836245,0.00611373 0.0125085,0.00907923l-0.256102 0.0267177c0.00205196,-0.00368229 0.00404771,-0.00733647 0.00597318,-0.0110047zm0.434707 -0.045354l0.404181 -0.0421777 -1.40545e-005 0.0103863 -0.401046 0.0418544 -0.00312011 -0.0100631zm0.531697 -0.0554873l0.354231 -0.0369634 0.0032466 0.010049 -0.388721 0.0405614c0.0105831,-0.0044834 0.0209975,-0.00903707 0.0312432,-0.013647zm0.64017 -0.0668012l0.0153476 -0.00160222c0.00177087,0.00321849 0.00364013,0.00650725 0.00562182,0.00979602l-0.0228527 0.00238927c0.000674618,-0.00354174 0.00129302,-0.00705538 0.00188331,-0.0105831z"/>
   <path id="_437453536" class="fil20" d="M1.72314 2.30277l0.219785 -0.0229511c0.00407582,0.003092 0.00813758,0.00612778 0.0121712,0.00910734l-0.23762 0.0247922c0.00193953,-0.00365418 0.00382284,-0.00730836 0.00566398,-0.0109485zm0.426092 -0.0444686l0.407132 -0.0424869 0 0.0103723 -0.404181 0.0421777 -0.00295145 -0.0100631zm0.563545 -0.0588042l0.322257 -0.0336325c0.000983818,0.00335904 0.0020098,0.00671807 0.00307794,0.010049l-0.354231 0.0369634c0.00979602,-0.00439907 0.0194234,-0.00885436 0.0288961,-0.0133799zm0.612848 -0.0639482l0.00862949 -0.000899491c0.00161627,0.00323254 0.00331687,0.00650725 0.00514396,0.00982412l-0.0153476 0.00160222c0.000576236,-0.00349958 0.00109625,-0.00701322 0.00157411,-0.0105269z"/>
   <path id="_437421184" class="fil20" d="M1.72847 2.29182l0.202568 -0.021124c0.00397744,0.003092 0.00794082,0.00612778 0.0118901,0.0091214l-0.219785 0.0229511c0.00181304,-0.00366824 0.00361202,-0.00729431 0.00532667,-0.0109485zm0.417926 -0.0435972l0.409971 -0.042782 0 0.0103723 -0.407132 0.0424869 -0.00283902 -0.0100771zm0.5932 -0.0618962l0.292545 -0.0305405c0.000941654,0.00337309 0.00188331,0.00673213 0.00289524,0.0100771l-0.322257 0.0336325c0.00906518,-0.0043288 0.018032,-0.00872787 0.0268161,-0.0131691zm0.587311 -0.0612919l0.00275469 -0.000295145c0.00141951,0.00326065 0.00295145,0.00656347 0.00459584,0.00990845l-0.00862949 0.000899491c0.000477854,-0.00351364 0.000899491,-0.00702727 0.00127896,-0.0105128z"/>
   <path id="_437452744" class="fil21" d="M1.73349 2.28091l0.185913 -0.0193953 0.000365418 0.000295145 0.0112717 0.00888247 -0.202568 0.021124c0.00172871,-0.00364013 0.0034012,-0.0072662 0.00501747,-0.0109063zm0.410252 -0.0428101l0.412627 -0.0430491 0 0.0103863 -0.409971 0.042782c-0.000941654,-0.00344336 -0.00181304,-0.00683051 -0.00265631,-0.0101193zm0.620859 -0.0647774l0.264802 -0.0276312c0.000871382,0.00337309 0.00179898,0.00673213 0.00274064,0.0100912l-0.292545 0.0305405c0.00847489,-0.00427258 0.0167952,-0.00861543 0.025003,-0.0130005zm0.565063 -0.0485866l-0.00275469 0.000295145 0.000562182 -0.00555154 0.00219251 0.0052564z"/>
   <path id="_437453464" class="fil21" d="M1.7382 2.27005l0.169695 -0.0177087c0.00378067,0.00306389 0.00761756,0.00612778 0.0115107,0.00917762l-0.185913 0.0193953c0.00161627,-0.00362607 0.00319038,-0.00725214 0.00470827,-0.0108642zm0.403098 -0.0420652l0.415171 -0.0433161 -9.83818e-005 0.00400554 0 0.00638076 -0.412627 0.0430491c-0.000871382,-0.00345742 -0.00168655,-0.00683051 -0.00244549,-0.0101193zm0.646664 -0.0674759l0.238885 -0.0249328 0.00255793 0.0101193 -0.264802 0.0276312c0.00791271,-0.00421636 0.0156989,-0.008503 0.0233586,-0.0128177z"/>
   <path id="_437421592" class="fil21" d="M1.74258 2.25921l0.154094 -0.0160643c0.00368229,0.00307794 0.0074208,0.00612778 0.0112155,0.00919167l-0.169695 0.0177087m0.400892 -0.0521986l0.417842 -0.0436112c-0.000196764,0.00348553 -0.000365418,0.00697105 -0.0004638,0.0104285l-0.415171 0.0433161c-0.000801109,-0.00347147 -0.00153195,-0.00685862 -0.00220656,-0.0101333zm0.670725 -0.0699916l0.214641 -0.0224029 0.00238927 0.0101193 -0.238885 0.0249328c0.00740674,-0.0041742 0.014687,-0.00839056 0.0218548,-0.0126491z"/>
   <path id="_437421832" class="fil21" d="M1.74666 2.24842l0.139084 -0.0145043c0.00358391,0.00307794 0.00723809,0.00616994 0.0109344,0.00923383l-0.154094 0.0160643c0.00140545,-0.00359796 0.00275469,-0.00719593 0.00407582,-0.0107939zm0.390491 -0.0407441l0.420526 -0.0438923c-0.000295145,0.00349958 -0.000548127,0.00697105 -0.000744891,0.0104566l-0.417842 0.0436112c-0.000660563,-0.0032466 -0.00126491,-0.00638076 -0.00179898,-0.0094306l-0.000140545 -0.000744891zm0.69317 -0.0723387l0.191929 -0.0200137 0.00220656 0.0101333 -0.214641 0.0224029c0.00588885,-0.00349958 0.0117215,-0.00704133 0.0174557,-0.0105971l0.00304984 -0.00192547z"/>
   <path id="_437421736" class="fil22" d="M1.75041 2.23765l0.124678 -0.0130145c0.00349958,0.003092 0.00705538,0.006184 0.0106533,0.009276l-0.139084 0.0145043c0.00129302,-0.00358391 0.00254387,-0.00718187 0.00375256,-0.0107658zm0.384799 -0.0401538l0.423534 -0.0442015c-0.000421636,0.00349958 -0.000773,0.00699916 -0.00106815,0.0104847l-0.420526 0.0438923 -0.00193953 -0.0101755zm0.714336 -0.0745453l0.170636 -0.0178071 0.00206602 0.0101755 -0.191929 0.0200137c0.00659158,-0.00413204 0.0129864,-0.00826407 0.0192266,-0.0123821z"/>
   <path id="_437421760" class="fil22" d="M1.75385 2.22691l0.110848 -0.0115669c0.0034012,0.00310605 0.00687267,0.006184 0.0103863,0.00929005l-0.124678 0.0130145c0.00120869,-0.00358391 0.00234711,-0.00715376 0.00344336,-0.0107377zm0.37936 -0.0395916l0.426893 -0.0445388c-0.000505964,0.00351364 -0.000955709,0.00701322 -0.00136329,0.0105128l-0.423534 0.0442015 -0.00199574 -0.0101755zm0.734336 -0.0766254l0.150735 -0.015727 0.00189736 0.0101755 -0.170636 0.0178071c0.00616994,-0.00408987 0.0121853,-0.00816569 0.0180039,-0.0122556z"/>
   <path id="_437421520" class="fil22" d="M1.757 2.2162l0.0976088 -0.0101895c0.00331687,0.00310605 0.00668996,0.00622616 0.0100912,0.00933222l-0.110848 0.0115669c0.00111031,-0.00356985 0.00215034,-0.00713971 0.00314822,-0.0107096zm0.374174 -0.0390435l0.430589 -0.0449324c-0.000604345,0.00352769 -0.00115247,0.00704133 -0.00165844,0.010555l-0.426893 0.0445388 -0.00203791 -0.0101614zm0.753197 -0.078593l0.132155 -0.0138016 0.00175682 0.0102036 -0.150735 0.015727c0.00577642,-0.00404771 0.0113842,-0.00809542 0.0168233,-0.0121291z"/>
   <path id="_437421544" class="fil22" d="M1.75983 2.20555l0.0850019 -0.00888247c0.00320444,0.00312011 0.00646509,0.00624022 0.00978196,0.00934627l-0.0976088 0.0101895c0.000983818,-0.0035558 0.00193953,-0.00709754 0.00282496,-0.0106533zm0.369255 -0.0385376l0.434665 -0.0453681c-0.000702727,0.00352769 -0.00137735,0.00705538 -0.00198169,0.0105831l-0.430589 0.0449324 -0.00209413 -0.0101474zm0.77099 -0.0804482l0.114882 -0.0119885 0.00157411 0.0101895 -0.132155 0.0138016c0.00539694,-0.0040196 0.0106393,-0.00801109 0.0156989,-0.0120026z"/>
   <path id="_437421352" class="fil22" d="M1.76236 2.1949l0.0729571 -0.00760351c0.00312011,0.00313416 0.00628238,0.00625427 0.00951492,0.00937438l-0.0850019 0.00888247c0.000885436,-0.0035558 0.00174276,-0.0071116 0.00252982,-0.0106533zm0.402817 -0.0420231l0.400878 -0.0418404c-0.000815163,0.00354174 -0.00158816,0.00706943 -0.00230494,0.0106112l-0.434665 0.0453681 -0.00168655 -0.00801109c0.0118199,-0.00132113 0.0244268,-0.00335904 0.0377786,-0.00612778zm0.749472 -0.0782276l0.0988737 -0.010316 0.00143356 0.0102458 -0.114882 0.0119885c0.00501747,-0.00397744 0.00988034,-0.00795487 0.0145746,-0.0119183z"/>
   <path id="_437421280" class="fil22" d="M1.76455 2.18429l0.0615308 -0.00640887c0.00302173,0.00313416 0.00609967,0.00628238 0.00923383,0.00941654l-0.0729571 0.00760351c0.000787054,-0.00352769 0.00151789,-0.00706943 0.00219251,-0.0106112zm0.464938 -0.0485163l0.339178 -0.0353893c-0.0009276,0.0035558 -0.00178493,0.0071116 -0.00261414,0.0106533l-0.400878 0.0418404c0.0197607,-0.00411798 0.0411939,-0.00982412 0.0643136,-0.0171044zm0.698637 -0.0729009l0.0841305 -0.00878409 0.00126491 0.0102458 -0.0988737 0.010316c0.00466611,-0.00392122 0.00914951,-0.00785649 0.0134783,-0.0117777z"/>
   <path id="_437421568" class="fil22" d="M1.76646 2.17372l0.0506947 -0.00529856c0.00292334,0.00314822 0.00588885,0.00631049 0.00892463,0.00945871l-0.0615308 0.00640887c0.000688673,-0.00352769 0.00133518,-0.00705538 0.00191142,-0.010569zm0.506708 -0.0528872l0.298434 -0.0311308c-0.00102598,0.00356985 -0.0020098,0.00712565 -0.0029374,0.0106815l-0.339178 0.0353893c0.0139562,-0.00439907 0.0285167,-0.00937438 0.0436815,-0.01494zm0.66738 -0.0696403l0.0705538 -0.00735053 0.00115247 0.0102458 -0.0841305 0.00878409c0.00430069,-0.00390716 0.00844678,-0.00778622 0.0124242,-0.0116793z"/>
   <path id="_437422408" class="fil22" d="M1.76805 2.16318l0.040449 -0.00423042c0.00282496,0.00314822 0.0057202,0.00632454 0.0086576,0.00947276l-0.0506947 0.00529856c0.000576236,-0.00352769 0.00111031,-0.00704133 0.00158816,-0.0105409zm0.542182 -0.0565976l0.264633 -0.0276031c-0.00113842,0.00356985 -0.00222062,0.00713971 -0.00326065,0.0107236l-0.298434 0.0311308c0.0119745,-0.00438502 0.0243425,-0.00913545 0.0370618,-0.0142513zm0.641674 -0.0669558l0.058228 -0.00607156 0.000969763 0.0102879 -0.0705538 0.00735053c0.00394933,-0.00385094 0.00773,-0.00771594 0.0113561,-0.0115669z"/>
   <path id="_437422336" class="fil23" d="M1.76935 2.15265l0.0308216 -0.00320444c0.00272658,0.00316227 0.00549533,0.00632454 0.00832029,0.00950087l-0.040449 0.00423042c0.000477854,-0.00351364 0.0009276,-0.00702727 0.00130707,-0.0105269zm0.574297 -0.0599286l0.234795 -0.0244971c-0.00125085,0.00358391 -0.00244549,0.00716782 -0.00358391,0.0107517l-0.264633 0.0276031c0.0108642,-0.00435691 0.0220094,-0.0089668 0.0334217,-0.0138578zm0.618568 -0.0645385l0.0470546 -0.00490504 0.000857327 0.0102739 -0.058228 0.00607156c0.00359796,-0.00380878 0.00704133,-0.00763162 0.010316,-0.0114404z"/>
   <path id="_437421976" class="fil23" d="M1.77034 2.14218l0.0217564 -0.00227684c0.00264225,0.00317633 0.00532667,0.00635265 0.00808136,0.00954303l-0.0308216 0.00320444c0.000379473,-0.00348553 0.000702727,-0.00698511 0.000983818,-0.0104706zm0.604317 -0.0630627l0.207712 -0.0216721c-0.00136329,0.00359796 -0.00268442,0.00718187 -0.00392122,0.0107798l-0.234795 0.0244971c0.0101193,-0.0043288 0.0204494,-0.00886842 0.0310043,-0.0136048zm0.596896 -0.0622897l0.0370197 -0.003865 0.000702727 0.010316 -0.0470546 0.00490504c0.00327471,-0.00379473 0.00638076,-0.0075754 0.00933222,-0.0113561z"/>
   <path id="_437422600" class="fil23" d="M1.77101 2.13174l0.0133378 -0.00140545c0.00252982,0.00319038 0.00511585,0.00639482 0.00774405,0.00957114l-0.0217564 0.00227684c0.000281091,-0.00347147 0.000491909,-0.00697105 0.000674618,-0.0104425zm0.632876 -0.0660423l0.182709 -0.019072c-0.00146167,0.00359796 -0.00288118,0.00722403 -0.00423042,0.010822l-0.207712 0.0216721c0.00957114,-0.00430069 0.0193109,-0.00878409 0.0292334,-0.0134221zm0.575997 -0.0601113l0.0281372 -0.00292334 0.000548127 0.010302 -0.0370197 0.003865c0.00292334,-0.00375256 0.00570614,-0.00750513 0.00833434,-0.0112436z"/>
   <path id="_437422264" class="fil23" d="M1.77139 2.12131l0.00548127 -0.000562182c0.00244549,0.00319038 0.00493314,0.00639482 0.00747702,0.0095852l-0.0133378 0.00140545c0.000168655,-0.00347147 0.000295145,-0.006957 0.000379473,-0.0104285zm0.660465 -0.0689094l0.159336 -0.0166406c-0.00158816,0.00362607 -0.00312011,0.00723809 -0.00459584,0.0108642l-0.182709 0.019072c0.00661969,-0.003092 0.0132956,-0.00625427 0.0200699,-0.00950087l0.00789865 -0.00379473zm0.555379 -0.0579609l0.020365 -0.00212224 0.000421636 0.0103441 -0.0281372 0.00292334c0.00258604,-0.0037104 0.00505964,-0.00743485 0.00735053,-0.0111453z"/>
   <path id="_437453032" class="fil24" d="M2.45872 2.03922l0.137397 -0.0143356c-0.0017006,0.00362607 -0.00333093,0.0072662 -0.00491909,0.0108782l-0.159336 0.0166406c0.00913545,-0.00442718 0.0180882,-0.0088122 0.0268582,-0.0131832zm0.53493 -0.0558246l0.013661 -0.00141951 0.000295145 0.0103441 -0.020365 0.00212224c0.00229089,-0.00369634 0.00442718,-0.00736458 0.00640887,-0.0110469zm-1.21677 0.137355l-0.00548127 0.000562182 8.43273e-005 -0.00778622 0.00539694 0.00722403z"/>
   <path id="_437452048" class="fil24" d="M2.48465 2.02613l0.116723 -0.0121853c-0.00181304,0.00365418 -0.00356985,0.00729431 -0.0052564,0.0109344l-0.137397 0.0143356c0.00882625,-0.00439907 0.0174698,-0.00874192 0.0259306,-0.0130848zm0.514481 -0.0536883l0.00802514 -0.000843273 0.0001546 0.0103723 -0.013661 0.00141951c0.00196764,-0.00365418 0.00380878,-0.00730836 0.00548127,-0.0109485z"/>
   <path id="_437422072" class="fil24" d="M2.50954 2.01316l0.0974542 -0.0101755c-0.00192547,0.00366824 -0.00380878,0.00730836 -0.00562182,0.0109625l-0.116723 0.0121853c0.00848894,-0.00435691 0.0167671,-0.00867165 0.0248906,-0.0129723zm0.494158 -0.0515661l0.00344336 -0.000351364 1.40545e-005 0.0103582 -0.00802514 0.000843273c0.00167249,-0.00362607 0.00317633,-0.00723809 0.00456773,-0.0108501z"/>
   <path id="_437451736" class="fil24" d="M2.53343 2.00028l0.0795065 -0.00829218c-0.00203791,0.00366824 -0.00400554,0.00732242 -0.00594507,0.0109907l-0.0974542 0.0101755c0.00815163,-0.00431474 0.0161065,-0.00861543 0.0238927,-0.012874zm0.473708 -0.0390435l-0.00344336 0.000351364c0.00127896,-0.0034012 0.00245954,-0.00678834 0.00348553,-0.0101755l0 0.00393527 -4.21636e-005 0.00588885z"/>
   <path id="_437422168" class="fil24" d="M2.55632 1.98754l0.0629362 -0.00657753c-0.0021644,0.00368229 -0.00427258,0.00735053 -0.00632454,0.0110328l-0.0795065 0.00829218c0.00782838,-0.00427258 0.01546,-0.00853111 0.0228948,-0.0127475z"/>
   <path id="_437422288" class="fil24" d="M2.57818 1.97487l0.0477433 -0.00498936c-0.00227684,0.00368229 -0.00449745,0.00737863 -0.00666185,0.011075l-0.0629362 0.00657753c0.00747702,-0.00427258 0.0147713,-0.00847489 0.0218548,-0.0126631z"/>
   <path id="_437422240" class="fil24" d="M2.59898 1.96231l0.0343774 -0.00358391 -0.00579047 0.008503 -0.00164438 0.00265631 -0.0477433 0.00498936c0.00712565,-0.00421636 0.0140686,-0.00841867 0.0208007,-0.0125648z"/>
   <path id="_437422672" class="fil24" d="M2.6187 1.94987l0.0222624 -0.00230494 -0.00760351 0.0111593 -0.0343774 0.00358391c0.00677429,-0.0041742 0.0133378,-0.00832029 0.0197185,-0.0124383z"/>
   <path id="_437423416" class="fil25" d="M2.63733 1.93757l0.0112155 -0.00118058 -0.00758945 0.0111734 -0.0222624 0.00230494c0.00640887,-0.00413204 0.012635,-0.00822191 0.0186363,-0.0122977z"/>
   <path id="_437422744" class="fil25" d="M2.65485 1.92536l0.00129302 -0.000140545 -0.00758945 0.0111734 -0.0112155 0.00118058c0.00604345,-0.00410393 0.0118761,-0.00817974 0.017512,-0.0122134z"/>
   <polygon id="_437422384" class="fil25" points="2.65614,1.92522 2.65485,1.92536 2.65719,1.92367 "/>
   <path id="_437442328" class="fil26" d="M0.604978 1.24953c0.00265631,0.00393527 0.004638,0.00792676 0.00591696,0.0118761 -0.00127896,-0.00396338 -0.00326065,-0.00792676 -0.00591696,-0.0118761zm2.48919 -0.425066c-0.0777216,0.00390716 -0.144987,0.0144762 -0.201641,0.0316087 -0.0237241,0.00924789 -0.0659439,0.027055 -0.126561,0.0533932 0.0342931,-0.0303156 0.0646087,-0.0665342 0.090975,-0.108712 0.034265,-0.056696 0.0513834,-0.0988737 0.0513834,-0.126561 0.00133518,-0.0145183 0.000674618,-0.0309762 -0.00192547,-0.0494158 -0.0487552,0.0368932 -0.100884,0.0698651 -0.156244,0.0988596 -0.118606,0.057975 -0.243846,0.0902583 -0.37565,0.0968498 -0.0369072,0.00132113 -0.0645806,0.00133518 -0.0830202,0 -0.0198169,-0.00397744 -0.0454805,-0.0105269 -0.0770892,-0.0197326 0.0764005,-0.0277015 0.139056,-0.0606313 0.187811,-0.0988737 -0.0395495,-0.0158395 -0.100841,-0.0276874 -0.183904,-0.0356283 -0.102767,-0.00920572 -0.202315,-0.0118199 -0.298533,-0.00787054 -0.163426,0.00659158 -0.309059,0.0349396 -0.436914,0.0850019 -0.108079,0.0434988 -0.226081,0.111368 -0.353907,0.203636 0.0131551,-0.0223889 0.0329298,-0.0501044 0.0593102,-0.0830202 0.0211099,-0.0277156 0.0573285,-0.0718468 0.108726,-0.132436 -0.0606313,0.0118199 -0.133813,0.040196 -0.219448,0.0849457 -0.142373,0.0725355 -0.231998,0.166097 -0.268906,0.28081 -0.0342509,-0.0171746 -0.0757961,-0.0250592 -0.124565,-0.0237662 -0.0817272,0.00397744 -0.156188,0.0197888 -0.223425,0.0474762 -0.0223889,0.00660563 -0.041489,0.0145183 -0.0573285,0.0236819 0.032972,0.0106112 0.068544,0.0270269 0.106786,0.0494158 0.032972,0.0197747 0.057989,0.0389311 0.0751496,0.0573847 -0.010569,0.00657753 -0.0211099,0.0151508 -0.0316368,0.0256776 -0.046127,0.0395635 -0.0889793,0.0935611 -0.128501,0.162161 -0.068544,0.117271 -0.104186,0.242525 -0.1068,0.375608 -0.00264225,0.10815 0.0329298,0.224718 0.1068,0.349986 0.0223889,0.0355439 0.0454243,0.07113 0.0691905,0.106758 -0.0342931,0.0527467 -0.0790849,0.107433 -0.13446,0.164115 -0.0580031,0.056696 -0.108065,0.100167 -0.150243,0.130426 0.0131551,0.00132113 0.0236819,0.00202385 0.0316087,0.00202385 0.0527045,-1.40545e-005 0.121895,-0.0184677 0.207614,-0.0553749 0.0329438,-0.0145465 0.0724512,-0.0322833 0.118606,-0.053351 -0.0145043,0.0210678 -0.0270128,0.0441453 -0.0375537,0.0691483 -0.0263663,0.0593523 -0.040196,0.113434 -0.0415312,0.162119 -0.00132113,0.0593383 0.016486,0.113392 0.053351,0.162161 0.0171746,0.022417 0.04021,0.0480806 0.0692046,0.0771454l-0.00196764 0.0434707c-0.00129302,0.0882344 -0.0487412,0.181247 -0.142344,0.278786 -0.035558,0.0382002 -0.0705116,0.069837 -0.104805,0.0948541 0.0277156,0.00923383 0.0606735,0.0138578 0.0988596,0.0138578 0.0606453,0 0.114713,-0.0217845 0.162161,-0.0652552 -0.00136329,0.0118199 -0.00202385,0.0244549 -0.00202385,0.0375537 -0.00127896,0.102809 0.04021,0.195091 0.124608,0.276818 0.069837,0.0672791 0.174614,0.131803 0.314372,0.193756 0.00129302,0.0131832 0.00198169,0.0276593 0.00198169,0.0434707 -0.00137735,0.0264085 -0.00926194,0.0586918 -0.0237381,0.0969342l-0.00396338 0.00586074c0.0658877,0 0.123905,-0.0342088 0.173967,-0.102795 0.00527045,-0.00917762 0.0145043,-0.0263382 0.0276874,-0.0513412 -0.0303016,-0.0936032 -0.0553468,-0.195766 -0.0750934,-0.306459 -0.0158816,0.00394933 -0.0336185,0.0058748 -0.0533932,0.0058748 -0.0540819,0 -0.118648,-0.0197747 -0.193798,-0.0593102 -0.114657,-0.0580171 -0.170678,-0.138999 -0.168022,-0.24313 0.00133518,-0.088375 0.0302735,-0.172688 0.0870117,-0.253094 0.0619103,-0.0909891 0.135767,-0.136456 0.221373,-0.136456 0.0224451,-1.40545e-005 0.0441875,0.00274064 0.0652552,0.00792676 0.00265631,0.0685299 0.0382705,0.139744 0.106829,0.213559 0.0408144,0.0434566 0.0776795,0.0737442 0.11068,0.0909048 -0.00132113,-0.0223889 -0.00196764,-0.0467876 -0.00196764,-0.0731679 0.00133518,-0.0632454 0.0131551,-0.146238 0.0355861,-0.249117 0.0145183,-0.0671807 0.028348,-0.118606 0.041489,-0.15415 0.0620086,-0.0382424 0.127826,-0.0962174 0.197733,-0.174009 0.108051,-0.121277 0.162105,-0.23859 0.162105,-0.35194 0.0368932,0.0501044 0.0862949,0.0995624 0.148289,0.148289 0.104102,0.0830202 0.19838,0.131115 0.282735,0.14434 -0.035572,-0.0870398 -0.0573285,-0.152913 -0.0652131,-0.197733 -0.00269847,-0.0145183 -0.00598723,-0.0309481 -0.0098944,-0.0494158 0.07113,-0.00792676 0.16999,-0.0421777 0.296565,-0.102809 0.0988596,-0.0474341 0.176581,-0.0916216 0.233235,-0.13252l-0.029627 0.043555c-0.0460848,0.0737723 -0.0698511,0.147587 -0.0712144,0.221443l1.40545e-005 0.0751496c0.104172,-0.0369494 0.194431,-0.0790849 0.270901,-0.126561 0.101488,-0.0632595 0.161416,-0.125212 0.179912,-0.185843l0 0.00393527c-0.00132113,0.114671 0.0211099,0.218169 0.0672369,0.310409 0.0303156,0.0580031 0.0685159,0.110075 0.114671,0.15623 0.0356283,-0.0501326 0.0632876,-0.0929989 0.0830202,-0.128501 0.0316368,-0.0593383 0.0500904,-0.117313 0.0553608,-0.174009 0.00527045,0.013141 0.0125085,0.0270128 0.0217143,0.041489 0.055403,0.105465 0.105465,0.180615 0.150327,0.225407 0.0316087,0.0329157 0.0638919,0.0625568 0.0968639,0.0889652 -0.011862,0.191071 -0.0250592,0.357196 -0.0396057,0.498248 -0.00390716,0.0500904 -0.00920572,0.113336 -0.0157551,0.189807 0.0210678,-0.0277015 0.0408425,-0.0600269 0.0592961,-0.0969342 0.0434707,-0.0843132 0.0672369,-0.162794 0.0711722,-0.235203 0.0316368,0.0421355 0.0632314,0.0731258 0.0949244,0.0928724 0.0342509,0.0211099 0.0790849,0.0348974 0.134418,0.0415312 -0.0369213,-0.0395214 -0.0679256,-0.0948822 -0.0929286,-0.166097 -0.0184536,-0.056696 -0.0315946,-0.117285 -0.0395214,-0.181894 0.0290226,-0.0711581 0.0546862,-0.188485 0.0771173,-0.351912 0.00261414,-0.148936 -0.00659158,-0.277394 -0.0276593,-0.385544 -0.0210959,-0.106716 -0.083751,-0.209525 -0.187853,-0.308385 0.0949103,0.0237241 0.179238,0.0170903 0.253066,-0.0197747 0.069837,-0.0355861 0.130496,-0.0817412 0.181894,-0.138395l-0.00590291 0c-0.104144,0.00522829 -0.191788,-0.00595913 -0.263003,-0.0336466 -0.0856203,-0.0316508 -0.171353,-0.0896258 -0.256987,-0.173981 -0.0145183,-0.0434988 -0.0263944,-0.0803779 -0.0356283,-0.110736 -0.0078846,-0.0183974 -0.0145183,-0.0336044 -0.0197466,-0.0454664 -0.00923383,-0.0237241 -0.0197747,-0.044834 -0.0316368,-0.0632876 -0.0725214,-0.114629 -0.191816,-0.168711 -0.357871,-0.162077z"/>
   <path id="_437441872" class="fil27" d="M0.588267 1.26068l0.00356985 0.00706943c0.00349958,0.0105269 0.0148838,0.0162049 0.0254106,0.0127053 0.0105409,-0.00349958 0.016233,-0.0148697 0.0127475,-0.0254106 -0.00196764,-0.00581858 -0.00475044,-0.0113701 -0.00827813,-0.0166827 -0.00614183,-0.00920572 -0.0186223,-0.0116934 -0.0278702,-0.00555154 -0.00924789,0.00615589 -0.0117355,0.0186223 -0.00557965,0.0278702z"/>
   <path id="_437442568" class="fil26" d="M3.09613 2.83126c-0.00660563,0.0052564 -0.0125085,0.0104425 -0.017779,0.0157973 -0.0356142,0.0355439 -0.053351,0.0783962 -0.053351,0.128501 0,0.0500904 0.0177368,0.09224 0.053351,0.126533 0.0342228,0.0356142 0.0764427,0.053337 0.126533,0.053337 0.0500904,0 0.0929146,-0.0177228 0.128543,-0.053337 0.0342088,-0.0342931 0.0513834,-0.0764286 0.0513834,-0.126533 0,-0.00269847 0,-0.00591696 0,-0.0098944 -0.141051,-0.0605891 -0.237227,-0.105507 -0.28868,-0.134404zm-0.723584 0.0157973c-0.00559371,-0.00563587 -0.0115528,-0.0108501 -0.017779,-0.0157973 -0.0516645,0.0294583 -0.147924,0.0743345 -0.288694,0.134404l1.40545e-005 0.0098944c0,0.0500904 0.0171184,0.09224 0.0513693,0.126533 0.0355861,0.0356142 0.0784806,0.053337 0.128543,0.053337 0.0501185,0 0.0922821,-0.0177228 0.126533,-0.053337 0.0355861,-0.0342931 0.0533651,-0.0764286 0.0533651,-0.126533 0,-0.0501044 -0.017793,-0.0929567 -0.053351,-0.128501z"/>
   <path id="_437442496" class="fil28" d="M2.73233 3.19307l0 0.00389311 0.00396338 0.00792676c0.0422058,0.0606032 0.083737,0.101488 0.124594,0.122556 0.0184536,0.00929005 0.028348,0.0197888 0.029627,0.0316789 -0.00127896,0.0105269 -0.0164438,0.0355861 -0.0454664,0.0751496 -0.0329298,0.0395214 -0.0553327,0.0599145 -0.0671948,0.0612356 -0.00397744,0 -0.00791271,0.0020098 -0.0118901,0.00594507 -0.00261414,0.00261414 -0.00394933,0.00594507 -0.00394933,0.0098944 1.40545e-005,0.00389311 0.00132113,0.00791271 0.00394933,0.0118901 0.00397744,0.00261414 0.00789865,0.00392122 0.0118901,0.00392122 0.0197466,0.00130707 0.0500623,-0.0237381 0.0909469,-0.0751637 0.0368791,-0.0460708 0.0546441,-0.0770751 0.053351,-0.0928724 0.00129302,-0.0223889 -0.0138297,-0.0421777 -0.0454664,-0.0593383 -0.0354596,-0.0183693 -0.0717344,-0.0525921 -0.108726,-0.102823 -0.00244549,-0.00380878 -0.0051018,-0.00774405 -0.00791271,-0.0118901 -0.00129302,-0.00257198 -0.00397744,-0.00462394 -0.0078846,-0.00590291 -0.00529856,-1.40545e-005 -0.00988034,0.00127896 -0.0138297,0.00400554 -0.00268442,0.00133518 -0.00462394,0.00455367 -0.00600129,0.0098944z"/>
   <path id="_437442544" class="fil27" d="M2.45935 3.92434c0.13134,-0.0726058 0.252644,-0.108192 0.363985,-0.108192 0.111326,0.000126491 0.213292,0.0352207 0.308174,0.10666 0.00884031,0.00668996 0.0214753,0.00491909 0.0281512,-0.00392122 0.00666185,-0.00889652 0.00490504,-0.0214753 -0.00394933,-0.0281934 -0.100841,-0.0761194 -0.212406,-0.11484 -0.332376,-0.114755 -0.120026,2.81091e-005 -0.24788,0.0382846 -0.38345,0.113223 -0.00969763,0.00538289 -0.0132253,0.0176103 -0.00784243,0.0273501 0.00535478,0.00968358 0.0175963,0.0132253 0.027308,0.00782838zm0.623516 -1.24334c0.0332952,0.00555154 0.0935189,0.0311168 0.175541,0.0768362 0.0405192,0.0225856 0.0742642,0.0398025 0.101516,0.0517348 0.0275047,0.0118761 0.0477292,0.018819 0.0653396,0.0199574 0.011089,0.000548127 0.0205477,-0.00796893 0.0211521,-0.0190298 0.000562182,-0.011089 -0.00796893,-0.0205337 -0.019072,-0.021138 -0.00739269,-0.000168655 -0.0260571,-0.00542505 -0.0512991,-0.0166125 -0.0254528,-0.0111453 -0.0582561,-0.0278561 -0.0981007,-0.0500482 -0.0840743,-0.0465768 -0.145141,-0.0736317 -0.188204,-0.0812915 -0.0109344,-0.00193953 -0.0213629,0.00542505 -0.0232322,0.0163454 -0.00193953,0.0109344 0.005411,0.0213629 0.0163595,0.0232462zm-0.748896 -0.0629643c-0.0847067,0.070357 -0.162471,0.121502 -0.232715,0.153349l0.00833434 0.018299 -0.00799703 -0.0184255c-0.0396057,0.0171746 -0.0700057,0.0305265 -0.0912842,0.0401819 -0.0106393,0.00482071 -0.0189736,0.00868571 -0.0251998,0.0117355l-0.00787054 0.00397744 -0.00636671 0.00389311c-0.00884031,0.00676023 -0.0105409,0.019339 -0.00380878,0.0281934 0.00670402,0.00884031 0.019325,0.0105269 0.0281794,0.00380878l-0.00598723 -0.00784243 0.00538289 0.00825002 0.000604345 -0.000407582 -0.00598723 -0.00784243 0.00538289 0.00825002 0.000646509 -0.000365418c0.00393527,-0.00224873 0.0172028,-0.00860138 0.037624,-0.017779 0.0205477,-0.00923383 0.0488114,-0.0216159 0.0846786,-0.0371883l0.000323254 -0.000112436c0.0747421,-0.0339698 0.15512,-0.0870819 0.241752,-0.159055 0.00854516,-0.00706943 0.0097398,-0.0197326 0.0026282,-0.0283058 -0.00708349,-0.00853111 -0.0197607,-0.00968358 -0.0283199,-0.00261414z"/>
   <path id="_437422696" class="fil29" d="M3.91855 1.08285c-0.0276172,-0.0620086 -0.0496547,-0.118297 -0.0660985,-0.16895 -0.0823456,0.102444 -0.173981,0.224634 -0.274977,0.366486 -0.123708,0.175415 -0.203566,0.302341 -0.239377,0.380948 0.0634844,-0.0519034 0.13713,-0.111495 0.220966,-0.178956 0.102654,-0.0827531 0.172885,-0.137917 0.210804,-0.165492 0.0181866,0.0632454 0.0640044,0.153223 0.137467,0.269861 0.0184536,-0.0297535 0.0448621,-0.0710035 0.0794503,-0.123708 0.088656,-0.138592 0.17058,-0.249848 0.245744,-0.333711 0.111284,-0.125605 0.224746,-0.240361 0.340542,-0.344168 -0.0397744,0.0262539 -0.0824299,0.0544332 -0.128009,0.0846786 -0.211085,0.145493 -0.366486,0.258674 -0.466161,0.339459 -0.0148416,-0.0268582 -0.0349396,-0.0689937 -0.0603502,-0.126449z"/>
   <path id="_437423296" class="fil29" d="M3.49309 1.88314c0.0694716,-0.00778622 0.149231,-0.0161065 0.239335,-0.0251576 0.110862,-0.0101052 0.186251,-0.0155303 0.22625,-0.0161627 -0.018566,0.0522267 -0.0281091,0.13602 -0.0285026,0.251492 0.0272518,-0.0116653 0.0651287,-0.0280248 0.113575,-0.0490082 0.125338,-0.0570614 0.234444,-0.0974261 0.327358,-0.121192 0.13751,-0.0377927 0.270831,-0.0654098 0.399894,-0.0828937 -0.040196,-0.00101193 -0.0835824,-0.00153195 -0.130061,-0.00161627 -0.217185,0.00529856 -0.37891,0.0127475 -0.484966,0.0222343 0.00153195,-0.0242862 0.00663374,-0.0634 0.0153476,-0.117482 0.0100631,-0.0558527 0.0202245,-0.105269 0.0304,-0.14836 -0.104453,0.0333655 -0.22528,0.0761475 -0.362424,0.128374 -0.168936,0.0660985 -0.284408,0.119407 -0.346206,0.159772z"/>
   <path id="_437422792" class="fil29" d="M3.22563 1.54739l0.138114 -0.422859c0.00347147,-0.0105269 -0.00230494,-0.0218689 -0.012874,-0.0253263 -0.0105269,-0.00345742 -0.021911,0.00229089 -0.0253263,0.0128599l-0.138142 0.422859c-0.00347147,0.0105269 0.002319,0.021911 0.0128599,0.0253684 0.0105831,0.00341525 0.021911,-0.00233305 0.0253684,-0.0129021zm0.226686 0.601844l0.948147 0.207178c0.0108501,0.00237522 0.0215878,-0.00449745 0.023963,-0.0153054 0.00237522,-0.0108642 -0.00451151,-0.0216018 -0.0153616,-0.023977l-0.948133 -0.207178c-0.0108642,-0.00237522 -0.0215737,0.00451151 -0.0239349,0.0153616 -0.00237522,0.0108501 0.00449745,0.0215456 0.0153195,0.0239208zm1.06503 0.233404l0.0905112 0.0190861c0.0108501,0.00229089 0.0215316,-0.00466611 0.0238365,-0.0155162 0.00229089,-0.0108642 -0.00466611,-0.0215456 -0.0155162,-0.0238084l-0.0905112 -0.0191001c-0.0108923,-0.00229089 -0.0215456,0.00468016 -0.0238365,0.0155303 -0.00229089,0.0108501 0.00465205,0.0215175 0.0155162,0.0238084zm-1.1238 -1.35098l0.103652 -0.31804c0.00341525,-0.0105269 -0.00233305,-0.0218689 -0.0129161,-0.0253122 -0.0105269,-0.00347147 -0.0218689,0.002319 -0.0253263,0.0128599l-0.103652 0.318026c-0.00345742,0.0105269 0.00233305,0.0218689 0.012874,0.0253403 0.010569,0.00344336 0.021897,-0.00234711 0.0253684,-0.012874zm0.146589 -0.458839l0.0356985 -0.114306c0.00330282,-0.0106112 -0.00261414,-0.0218689 -0.0132253,-0.0251998 -0.010569,-0.00330282 -0.0218689,0.00261414 -0.0251717,0.0132253l-0.0356845 0.114292c-0.00331687,0.0106252 0.00258604,0.0218829 0.0131972,0.0252279 0.0105831,0.00328876 0.0218829,-0.0026282 0.0251857,-0.0132394z"/>
  </g>
 </g>
</svg>
