<?xml version="1.0" encoding="UTF-8"?>
<!DOCTYPE svg PUBLIC "-//W3C//DTD SVG 1.1//EN" "http://www.w3.org/Graphics/SVG/1.1/DTD/svg11.dtd">
<!-- Creator: CorelDRAW -->
<svg xmlns="http://www.w3.org/2000/svg" xml:space="preserve" width="7.7811mm" height="8.381mm" style="shape-rendering:geometricPrecision; text-rendering:geometricPrecision; image-rendering:optimizeQuality; fill-rule:evenodd; clip-rule:evenodd"
viewBox="0 0 0.397242 0.427868"
 xmlns:xlink="http://www.w3.org/1999/xlink">
 <defs>
  <style type="text/css">
   <![CDATA[
    .fil0 {fill:#AFDEF2}
    .fil1 {fill:#C6E7F5}
    .fil2 {fill:#E4F3FB}
   ]]>
  </style>
 </defs>
 <g id="Layer_x0020_1">
  <metadata id="CorelCorpID_0Corel-Layer"/>
  <g id="_241113832">
   <path id="_244012440" class="fil0" d="M0.315273 0.345731c-0.0029355,-0.000265471 -0.00534516,-0.00131204 -0.00721368,-0.00319587l-0.000403312 -0.000398207c-0.00186851,-0.00240966 -0.00280787,-0.00493675 -0.00280787,-0.00760678 0.000270577,-0.00162346 0.000668784,-0.00280277 0.00120483,-0.00360939 -0.00240966,-0.00240966 -0.00587611,-0.0054728 -0.0104198,-0.00921492 -0.00271598,-0.00260877 -0.00525327,-0.00501843 -0.00761188,-0.00722899 0.00189404,-0.00189914 0.00372171,-0.00380849 0.00548301,-0.00576379 0.00587611,0.00661126 0.0112672,0.0125435 0.016158,0.0177815 0.00186341,-0.00158772 0.00427307,-0.00238924 0.00720346,-0.00238924 0.00267514,0.000275682 0.0050899,0.00160304 0.00721368,0.0040127l0.000408418 0c0.00133246,0.00239435 0.00200635,0.00506948 0.00200635,0.00800498 0,0.0029355 -0.00120994,0.00534516 -0.00360939,0.00721368 -0.00240456,0.00160304 -0.00494696,0.00239945 -0.00761188,0.00239945l0 -5.10522e-006zm-0.267233 -0.218498l0.00269556 0c0.00159793,0.000199104 0.00295082,0.000765783 0.00407397,0.00172556l0.000796414 -5.10522e-006c0.00239945,0.00213398 0.00400249,0.00443133 0.00480912,0.00681036 0,0.00160304 -0.000132736,0.00281808 -0.000403312,0.0036196 0.0029355,0.00186851 0.00708094,0.00400249 0.0124261,0.00639684 0.0020523,0.00116399 0.00402802,0.00227693 0.00592716,0.00331839 -0.00135799,0.0021544 -0.0026445,0.00434965 -0.00385955,0.00657042l0 -5.10522e-006c-0.00607011,-0.0039106 -0.0117012,-0.00745873 -0.0168932,-0.010675 -0.00133757,0.0018583 -0.00347665,0.00320097 -0.00641216,0.0040076 -0.000592205,0.000112315 -0.00118441,0.000173577 -0.0017613,0.000173577 -0.00203188,0 -0.00398718,-0.000730046 -0.00586079,-0.00217482l-0.000387997 -5.10522e-006c-0.0021493,-0.00186851 -0.00347155,-0.00414544 -0.0040127,-0.00681547 -0.000801519,-0.00294061 -0.000275682,-0.00573827 0.00159793,-0.0084134 0.00160304,-0.00213398 0.00374213,-0.00360939 0.00641726,-0.00441091l0.000847466 -0.00011742zm0.0264399 0.202754c-0.00091894,0 -0.00186851,-9.69992e-005 -0.00284361,-0.000270577 -0.00267514,-0.000530943 -0.00480401,-0.00213909 -0.00641216,-0.00480912 -0.00133246,-0.00239435 -0.00174088,-0.00493675 -0.00119973,-0.00760678 0.000791309,-0.0029355 0.00226161,-0.00521243 0.0044058,-0.00682568l0.000403312 0c0.00179704,-0.00119973 0.00367576,-0.00179193 0.00563616,-0.00179193 0.000648363,-5.10522e-006 0.00131204,7.14731e-005 0.00197572,0.000204209 0.00160304,0.000520732 0.00279766,0.00106189 0.00359918,0.00158772 0.00216461,-0.00150093 0.00495206,-0.00372171 0.00834703,-0.00664189 0.00142946,0.00173067 0.00290998,0.00344602 0.00444154,0.00514096 -0.00319587,0.0020574 -0.00625389,0.00403312 -0.00917408,0.00591695 0.00133246,0.00214419 0.00173577,0.00467128 0.00119973,0.00762209 -0.000530943,0.00267003 -0.00213909,0.00467128 -0.00481422,0.00599863l-0.000393102 0.000393102c-0.00160304,0.000719836 -0.0033286,0.00108231 -0.00517159,0.00108231zm0.240395 -0.167911c-0.00104657,-0.00219014 -0.0021544,-0.00436496 -0.00333371,-0.00650915 0.00598332,-0.00298145 0.0115021,-0.00582506 0.0165562,-0.00857166 -0.0010721,-0.00213909 -0.00134267,-0.00467638 -0.000806625,-0.00761188 0.0010721,-0.00269045 0.00307334,-0.00468659 0.00601905,-0.00599863l0 -0.000413523c0.0011742,-0.000219524 0.00232798,-0.000321629 0.00346134,-0.000321629 0.00169493,0 0.00334902,0.00023484 0.00494696,0.000735152 0.00294571,0.000520732 0.00494185,0.00225651 0.00600884,0.00519711 0.0010772,0.00267003 0.00120483,0.00532985 0.000403312,0.00800498 -0.000801519,0.00267003 -0.00240456,0.00467128 -0.00480912,0.00601395l-0.000806625 -5.10522e-006c-0.00166941,0.000837256 -0.00328266,0.00126099 -0.00484996,0.00126099 -0.00093936,0 -0.0018583,-0.000148051 -0.00275682,-0.000454365 -0.00159793,-0.000541153 -0.00280277,-0.00120994 -0.00360429,-0.00199614 -0.00294061,0.00186341 -0.00668784,0.0044058 -0.0112213,0.00760678 -0.00181746,0.00104657 -0.00355834,0.00208803 -0.00520732,0.00306824l0 -5.10522e-006z"/>
   <path id="_244012224" class="fil1" d="M0.237168 0.394511c-0.00308355,0 -0.00617221,-0.00103636 -0.00925066,-0.00307845 -0.00320608,-0.00267514 -0.00535027,-0.00613647 -0.00642237,-0.01043l-0.000393102 -0.000806625c-0.000270577,-0.0047887 0.00106699,-0.00893413 0.0040127,-0.0124108 0.00132736,-0.00186851 0.00253219,-0.00321629 0.00359918,-0.00401781 -0.000781099,-0.0035226 -0.00199614,-0.00803051 -0.00363492,-0.0135646 0.00350729,-0.000806625 0.00695331,-0.00177151 0.0103381,-0.00286403 0.000745362,0.00488059 0.00144988,0.00955187 0.00211356,0.0140342 0.000622837,-7.65783e-005 0.00124057,-0.000112315 0.00185319,-0.000112315 0.00330818,-5.10522e-006 0.00643768,0.00123546 0.00936808,0.00372171 0.00347665,0.00267003 0.0054728,0.00627942 0.00600374,0.010818l0.000806625 0.000791309c0,0.00427817 -0.00120483,0.00816325 -0.00359918,0.0116399 -0.00321118,0.00373702 -0.00722389,0.00574337 -0.0120228,0.00600374 -0.000924045,0.000173577 -0.00184809,0.000275682 -0.00277213,0.000275682zm0.0161172 -0.347722l0.00314482 0c0.00247093,0.000239945 0.00485506,0.00104657 0.00714731,0.00242498 0.00373702,0.00214419 0.00627942,0.0054779 0.00761699,0.0100164 0.00106699,0.00400249 0.000663679,0.0080203 -0.00120483,0.0120177l0 0.000806625c-0.00240456,0.0040127 -0.00587611,0.00654489 -0.0104198,0.00762209 -0.00213909,0.000525838 -0.00386976,0.000786204 -0.00521243,0.000786204 -0.00183788,0.0039157 -0.00407907,0.00922003 -0.00671336,0.0159232l5.10522e-006 -5.10522e-006c-0.00336944,-0.00150093 -0.00680015,-0.00284361 -0.0102921,-0.00403823 0.00286403,-0.00531964 0.00559532,-0.0103432 0.00819388,-0.0150757 -0.00347155,-0.00214419 -0.00561064,-0.00536048 -0.00641216,-0.00962334 -0.00134778,-0.00426286 -0.000806625,-0.0084134 0.00160304,-0.0124159l0 -0.000801519c0.00239945,-0.00373702 0.00573316,-0.00614668 0.0100164,-0.00721368 0.000852572,-0.000204209 0.00169493,-0.000347155 0.00252708,-0.000423733zm-0.136192 0.335163c-0.00367576,0 -0.00707583,-0.00112315 -0.0101951,-0.00334392 -0.00347155,-0.00241477 -0.00561574,-0.00601905 -0.00641726,-0.0108231 -0.000801519,-0.00401781 0,-0.00801519 0.00240966,-0.0120177l0 -0.00081173c0.00294061,-0.00374723 0.00667763,-0.0058659 0.0112162,-0.00640705 0.00213909,-0.000265471 0.00387486,-0.000403312 0.00521243,-0.000403312 0.00173577,-0.00308355 0.00389528,-0.00708604 0.00648363,-0.0120075 0.00314482,0.00185319 0.0063611,0.00356344 0.00962844,0.00512564 -0.00268024,0.00393102 -0.00524306,0.00769357 -0.00769357,0.0112876 0.00321118,0.00240456 0.00494185,0.00573827 0.00520732,0.0100369 0.000796414,0.00452322 -0.000137841,0.00867377 -0.00281298,0.0124108l0 0.000801519c-0.0029355,0.00346134 -0.00653979,0.00546769 -0.0108129,0.00602416 -0.000750467,8.16835e-005 -0.00149583,0.00012763 -0.00222588,0.00012763zm-0.0915366 -0.139199c-0.00454875,-0.000806625 -0.00829088,-0.00291508 -0.0112213,-0.00641216 -0.00240966,-0.00373702 -0.00347665,-0.00786714 -0.00320608,-0.0124108 0.000536048,-0.00426286 0.00266492,-0.0080203 0.00641216,-0.0112315 0.00294061,-0.00239945 0.00667763,-0.00359407 0.0112162,-0.00359407l0.000796414 -0.000408418c0.00428328,0.000541153 0.00787735,0.00267514 0.0108231,0.00641216 0.00160814,0.00160304 0.00267003,0.00307845 0.00320097,0.00441091 0.00377276,0 0.00884735,-8.67887e-005 0.0152391,-0.000250156 0,8.67887e-005 0,0.000163367 0,0.000250156 0,0.00357365 0.00011742,0.00711157 0.000362471,0.0105882 -0.00517159,-0.00034205 -0.0101032,-0.000658573 -0.0148,-0.000980202 -0.000801519,0.00400249 -0.00292529,0.00708604 -0.00641216,0.00923024 -0.00297634,0.00274661 -0.00634579,0.00411991 -0.0101134,0.00411991 -0.000622837,-5.10522e-006 -0.00125588,-3.06313e-005 -0.00189914,-0.00011742l-0.000398207 0.000393102zm0.332595 -0.0316473c-0.00454365,-0.000265471 -0.00841851,-0.00200125 -0.0116297,-0.00521243 -0.00159793,-0.00160814 -0.00265982,-0.00307845 -0.00320097,-0.00439559 -0.00428328,0.000433944 -0.00990413,0.00118441 -0.0168625,0.00220545 -0.000387997,-0.00368597 -0.000924045,-0.00730557 -0.00159793,-0.010869 0.00590674,-0.000204209 0.0115225,-0.000393102 0.0168574,-0.000551364 0,-0.00402291 0.00173577,-0.00749446 0.00521243,-0.01043 0.00246582,-0.00297124 0.00584037,-0.00443644 0.0101237,-0.00443644 0.000362471,-5.10522e-006 0.000724941,0 0.00109762,2.55261e-005l0.000801519 -0.000398207c0.00426796,0.000260366 0.00801009,0.00200635 0.0112162,0.00521753 0.00320097,0.00319587 0.00467128,0.00707073 0.00441091,0.0116144 0.000260366,0.00426286 -0.00120994,0.00828067 -0.00441091,0.0120177 -0.00294571,0.00267003 -0.00668273,0.00427817 -0.0112162,0.00480401l-0.000801519 0.000408418zm-0.222215 -0.113566c-0.00161325,-0.00554937 -0.00314482,-0.0108333 -0.0045998,-0.0158721 -0.00131204,0.000331839 -0.00258835,0.000495206 -0.00383402,0.000495206 -0.00278234,-5.10522e-006 -0.0053809,-0.000832151 -0.00778035,-0.00248624 -0.00374213,-0.00214419 -0.00627942,-0.0054728 -0.00761188,-0.0100318l-0.000403312 -0.000393102c-0.000806625,-0.00428328 -0.000137841,-0.0084134 0.00200125,-0.0124312 0.00240966,-0.00400249 0.00601395,-0.00641216 0.0108282,-0.00719836 0.00143457,-0.000530943 0.00290998,-0.000770888 0.00442623,-0.000770888 0.00242498,0 0.00495206,0.000653468 0.00758125,0.00197061 0.00375234,0.00212888 0.00641216,0.00532985 0.00802541,0.00960802l0.000398207 0.000408418c0.00106699,0.00480401 0.000265471,0.00908219 -0.00240456,0.0128243 -0.000796414,0.00186851 -0.00173067,0.0033286 -0.00280787,0.00439559 0.00155199,0.00398207 0.00364513,0.00906687 0.00628963,0.0152442 -0.00343581,0.00126099 -0.00680015,0.00267514 -0.0101134,0.00423733l5.10522e-006 0z"/>
   <path id="_244012200" class="fil2" d="M0.327204 0.214373l0 0.0102666c-0.000178683,0.00552895 -0.000663679,0.0109354 -0.00144478,0.0162193 -0.0124159,-0.00389018 -0.0257967,-0.00819898 -0.0401423,-0.0129315l-0.00360429 0.0184349c0.010527,0.00245051 0.0240813,0.00558 0.0406733,0.00937318 -0.00524817,0.0195275 -0.0149736,0.0371864 -0.0291814,0.0529769 -0.0017613,0.0019553 -0.00358897,0.00386465 -0.00548301,0.00576379 -5.10522e-006,0 0,0 -5.10522e-006,0 -0.0155862,0.0156016 -0.0331176,0.0265522 -0.0525991,0.0328623 -0.00338476,0.00109252 -0.00683078,0.0020574 -0.0103381,0.00286403 -0.0101798,0.00237903 -0.0208599,0.00356344 -0.032025,0.00356344 -0.00406375,0 -0.00805604,-0.000163367 -0.0119871,-0.00046968 0.00200125,-0.0125639 0.00426286,-0.0260264 0.00677973,-0.0404078l-0.0192416 -0.00121504c-0.000699415,0.0105321 -0.00160814,0.0237189 -0.00272108,0.0395603 -0.0106801,-0.0020574 -0.0208293,-0.00538601 -0.0304526,-0.00997049 -0.00326734,-0.0015673 -0.00648363,-0.00327245 -0.00962844,-0.00512564 -0.00983776,-0.00578932 -0.0190782,-0.0130132 -0.0277264,-0.0216614 -0.00180725,-0.00181235 -0.00355834,-0.00363492 -0.00524306,-0.00550343 -0.00153157,-0.00170004 -0.00301208,-0.00340518 -0.00444154,-0.00514096 -0.00421181,-0.00513075 -0.00796925,-0.01043 -0.0112825,-0.0159334 0.00947018,-0.00494185 0.0195377,-0.010093 0.0301923,-0.0154841l-0.0100215 -0.0156271c-0.00763741,0.0045028 -0.016786,0.0102258 -0.0274303,0.0171586 -0.00601905,-0.0135799 -0.00957739,-0.0281961 -0.0106699,-0.0438385 -0.000245051,-0.00347665 -0.000362471,-0.00700947 -0.000362471,-0.0105882 0,-8.67887e-005 0,-0.000158262 0,-0.000250156 3.06313e-005,-0.0233666 0.00525838,-0.0445686 0.0156883,-0.0636008 0.00121504,-0.00222077 0.00250156,-0.00441091 0.00385955,-0.00657042 0.0020523,-0.00327755 0.00427307,-0.00648873 0.00665721,-0.00962844 0.00635089,0.00604458 0.0129775,0.0124312 0.0198746,0.0191344l0.0116144 -0.0148256c-0.00585058,-0.00485506 -0.0128039,-0.0104249 -0.0208548,-0.0167502 0.000796414,-0.000837256 0.00159793,-0.00165409 0.00241987,-0.00246582 0.0115582,-0.0115582 0.0241732,-0.0205638 0.0378552,-0.0270219 0.00331329,-0.0015622 0.00667763,-0.00297634 0.0101134,-0.00423733 0.00690736,-0.0025424 0.0140649,-0.00448238 0.0214777,-0.00580974 0.000265471,0.00919961 0.000490101,0.0188842 0.000684099,0.0290487l0.0188332 -0.00241477c-0.000883203,-0.00798456 -0.00201146,-0.0175058 -0.00336944,-0.0285586 0.00207272,-0.000142946 0.00416586,-0.00022463 0.00627431,-0.000265471l0.00623347 0c0.0145856,0.000285892 0.0283135,0.00263429 0.0411787,0.0070401 0.00349197,0.00119462 0.00692268,0.00253729 0.010287,0.00404333 0.0145499,0.00646831 0.0279153,0.0157598 0.0400913,0.0278796 -0.00907198,0.00641216 -0.0187259,0.0131715 -0.0289721,0.0203137l0.0124312 0.014024c0.00724431,-0.00594758 0.0162601,-0.0135288 0.0270628,-0.0227131 0.00510011,0.00627942 0.00952634,0.0128396 0.0132838,0.0196755 0.00117931,0.00214419 0.00228714,0.00432412 0.00333371,0.00651426 0.00462022,0.00970502 0.00794883,0.0199614 0.00998581,0.0307538 0.000673889,0.00356344 0.00120994,0.00718815 0.00159793,0.010869 0.000377786,0.00350218 0.000627942,0.00705541 0.000745362,0.0106699z"/>
   <path id="_244012920" class="fil2" d="M0.169452 0.427868c-0.00131715,0 -0.00267514,-0.000132736 -0.00405354,-0.000377786 -0.005871,-0.00106699 -0.0104198,-0.00415054 -0.0136207,-0.00921492 -0.00321118,-0.00480912 -0.00441091,-0.0100215 -0.00360429,-0.0156322l0.000393102 -0.000801519c0.0010772,-0.00587611 0.00414544,-0.0102768 0.00923024,-0.0132327 0.00212377,-0.00159283 0.00412502,-0.00278745 0.00600374,-0.00358897 0.000536048,-0.00669294 0.00106189,-0.0156271 0.00159793,-0.0268586 0.000163367,-0.00235351 0.000326734,-0.00466107 0.000484996,-0.00692778 0.00111294,-0.0158415 0.00202167,-0.0290283 0.00272108,-0.0395603l0.0192416 0.00120994c-0.00251687,0.0143865 -0.00477849,0.0278541 -0.00677973,0.0404129 -0.00182767,0.0114663 -0.00345113,0.022172 -0.00484996,0.0321169 0.00455386,0.00134267 0.00828067,0.00427817 0.0112264,0.00882182 0.00346644,0.00480401 0.00467128,0.0101492 0.0036145,0.0160202l-0.000408418 0.000801519c-0.00134267,0.00534516 -0.0044058,0.00961313 -0.00921492,0.0128243 -0.00368086,0.00265471 -0.00767315,0.00398718 -0.011982,0.00398718zm-0.00308866 -0.427868l0.00369107 0c0.00510011,0.000403312 0.00955697,0.00252198 0.0133859,0.00633047 0.00400249,0.00401781 0.00613647,0.00882182 0.00641216,0.0144325l0 0.000801519c0,0.00588632 -0.00214419,0.0109558 -0.00641216,0.015234 -0.00187872,0.00185319 -0.00375234,0.00333371 -0.00561574,0.00439559 0.000801519,0.00668784 0.00200635,0.0154943 0.00360939,0.0264501 0.000801519,0.00636621 0.00154688,0.0123393 0.00223609,0.0179244 0.00135799,0.0110528 0.00248624,0.020574 0.00336944,0.0285637l-0.0188332 0.00240966c-0.000193998,-0.0101696 -0.000423733,-0.0198491 -0.000684099,-0.0290487 -0.00046968,-0.0162244 -0.00104146,-0.0309938 -0.00172046,-0.0442827 -0.00480401,-0.000530943 -0.00908729,-0.00267003 -0.0128192,-0.00641216 -0.00426796,-0.00427817 -0.00641216,-0.00934255 -0.00641216,-0.0152289l0 -0.00081173c0.000260366,-0.00560553 0.00240456,-0.0104044 0.00641216,-0.0144274 0.0038136,-0.00380849 0.00828067,-0.00592716 0.0133808,-0.00633047zm-0.14459 0.334836c-0.0023484,0 -0.0046968,-0.000377786 -0.0070452,-0.00112315 -0.00587611,-0.00211867 -0.0101441,-0.00585569 -0.0128192,-0.0112009 -0.00240456,-0.0050848 -0.00253729,-0.0105576 -0.000393102,-0.0164286 0.00186341,-0.00535027 0.00520222,-0.00921492 0.0100062,-0.0116297l0.000806625 -0.000393102c0.00313971,-0.00157751 0.00637642,-0.00236372 0.00970502,-0.00236372 0.00233309,0 0.00470701,0.000377786 0.00713199,0.00114867 0.00239435,0.000806625 0.0044058,0.00201656 0.00600374,0.00360939 0.005871,-0.00374213 0.0133553,-0.00854103 0.0224425,-0.014412 0.00427307,-0.00286403 0.00835724,-0.00555448 0.0122372,-0.00809688 0.0106444,-0.00693289 0.0197929,-0.0126558 0.0274303,-0.0171586l0.0100215 0.0156271c-0.0106546,0.00538601 -0.0207221,0.0105474 -0.0301923,0.0154841 -0.0126201,0.00658573 -0.0242038,0.0127784 -0.0347308,0.0185779 0.00160814,0.00425775 0.00160814,0.00894945 0,0.0140189 -0.00239435,0.00562085 -0.00627942,0.00975607 -0.0116195,0.0124159l-0.000796414 0.000408418c-0.0027364,0.00100573 -0.00546258,0.00151625 -0.00819388,0.00151625l5.10522e-006 0zm0.353756 -0.0538499c-0.00207272,0 -0.00413012,-0.000316524 -0.006162,-0.000959781l-0.000806625 0c-0.00560553,-0.00213398 -0.00974586,-0.005871 -0.0124159,-0.0112162 -0.00133246,-0.00241477 -0.00213398,-0.00467128 -0.00240456,-0.00682057 -0.00667763,-0.00159283 -0.0154892,-0.00334392 -0.0264501,-0.00520222 -0.00155709,-0.000362471 -0.00309376,-0.000714731 -0.00460491,-0.00105168 -0.016592,-0.00379828 -0.0301463,-0.00692268 -0.0406733,-0.00937318l0.00360429 -0.0184349c0.0143457,0.00473254 0.0277264,0.00904134 0.0401423,0.0129315 0.0107108,0.00335413 0.0207068,0.00639684 0.029983,0.00911282 0.00213398,-0.00428328 0.00561574,-0.00761188 0.0104198,-0.0100215 0.00296613,-0.00147541 0.00597821,-0.00221567 0.00902092,-0.00221567 0.00244029,-5.10522e-006 0.00491122,0.00045947 0.00740257,0.00142436l0.000806625 0c0.00506948,0.00213398 0.00894945,0.00574337 0.0116195,0.0108129 0.00267003,0.00560553 0.00294061,0.0112111 0.000801519,0.016837 -0.00187872,0.00534516 -0.0054779,0.00934766 -0.0108231,0.0120228 -0.00320097,0.00143967 -0.006356,0.00215951 -0.00945997,0.00215951l0 -5.10522e-006zm-0.104335 -0.122382l-0.0124312 -0.014024c0.0102462,-0.0071422 0.0199001,-0.0139015 0.0289721,-0.0203137 0.0112876,-0.00795904 0.0216666,-0.0153463 0.0311418,-0.0221515 -0.00240456,-0.00454875 -0.00306824,-0.00921492 -0.00201146,-0.014024 0.0010721,-0.00614668 0.00414544,-0.0108231 0.00922003,-0.0140342l0.000408418 -0.000398207c0.00348686,-0.00203188 0.00702989,-0.0030325 0.0106393,-0.0030325 0.00164899,-5.10522e-006 0.00330818,0.000219524 0.00497759,0.000622837 0.00615179,0.0010721 0.0108231,0.00415054 0.0140342,0.00921492 0.00319587,0.00481933 0.00414033,0.0101543 0.00280787,0.0160406 -0.0010772,0.00560553 -0.0040127,0.0101492 -0.00882182,0.0136258l-0.000398207 0.000393102c-0.00357876,0.00226161 -0.00729536,0.00338987 -0.0111447,0.00338987 -0.00160304,0 -0.00323671,-0.000188893 -0.0048857,-0.000581995 -0.00267514,-0.00081173 -0.00494696,-0.00147541 -0.00680526,-0.00200125 -0.0050848,0.00399739 -0.0117624,0.00975097 -0.0200482,0.0172301 -0.00297634,0.0025424 -0.00584037,0.00499801 -0.00859208,0.0073311 -0.0107975,0.00918429 -0.0198185,0.0167655 -0.0270628,0.0227131zm-0.166297 0c-0.00689715,-0.00670315 -0.0135237,-0.0130898 -0.0198746,-0.0191344 -0.0121198,-0.0115225 -0.0232645,-0.0218299 -0.033429,-0.0309478 -0.00373192,0.00321118 -0.00827556,0.00480912 -0.0136258,0.00480912 -0.00612626,-0.000265471 -0.0112111,-0.00239945 -0.0152136,-0.00641726l-0.000816835 -0.000801519c-0.00347155,-0.00400249 -0.00533495,-0.0088065 -0.00559532,-0.014412 0.000260366,-0.00615179 0.00239435,-0.0112366 0.00641216,-0.015234 0.00426796,-0.00427817 0.00934766,-0.00641216 0.0152136,-0.00641216 0.00587611,-5.10522e-006 0.0106903,0.00185319 0.0144325,0.00561064l0.000801519 0.000796414c0.0040076,0.00400249 0.00614158,0.00908729 0.00640705,0.0152391 0,0.00265471 -0.000398207,0.00493675 -0.00119973,0.00680526 0.00534516,0.00426286 0.0125588,0.00975607 0.0216359,0.0164286 0.00559532,0.00429349 0.0108026,0.00832661 0.0156118,0.0120943 0.00805093,0.00632026 0.0150042,0.0119003 0.0208548,0.0167502l-0.0116144 0.0148256z"/>
  </g>
 </g>
</svg>
