<?xml version="1.0" encoding="UTF-8"?>
<!DOCTYPE svg PUBLIC "-//W3C//DTD SVG 1.1//EN" "http://www.w3.org/Graphics/SVG/1.1/DTD/svg11.dtd">
<!-- Creator: CorelDRAW -->
<svg xmlns="http://www.w3.org/2000/svg" xml:space="preserve" width="11.9219mm" height="12.8414mm" style="shape-rendering:geometricPrecision; text-rendering:geometricPrecision; image-rendering:optimizeQuality; fill-rule:evenodd; clip-rule:evenodd"
viewBox="0 0 12.6079 13.5803"
 xmlns:xlink="http://www.w3.org/1999/xlink">
 <defs>
  <style type="text/css">
   <![CDATA[
    .fil1 {fill:#AFDEF2}
    .fil2 {fill:#C6E7F5}
    .fil3 {fill:#E4F3FB}
    .fil0 {fill:#FEFEFE}
   ]]>
  </style>
 </defs>
 <g id="Layer_x0020_1">
  <metadata id="CorelCorpID_0Corel-Layer"/>
  <g id="_241114720">
   <path id="_244011840" class="fil0" d="M10.0065 10.9736c-0.0933811,-0.0085661 -0.169736,-0.042196 -0.228958,-0.10163l-0.0126905 -0.012479c-0.0593282,-0.0764604 -0.0890452,-0.156728 -0.0890452,-0.241649 0.0085661,-0.0511851 0.0211509,-0.0892567 0.0381773,-0.114532 -0.0764604,-0.0766719 -0.186656,-0.173754 -0.330694,-0.292517 -0.0861898,-0.0826999 -0.166669,-0.159055 -0.241754,-0.22917 0.06028,-0.0600685 0.118339,-0.121194 0.173966,-0.183272 0.186762,0.209817 0.357661,0.398271 0.512803,0.564728 0.0593282,-0.0506563 0.135789,-0.0761431 0.228747,-0.0761431 0.0850265,0.0085661 0.16191,0.0509736 0.229064,0.127434l0.0126905 0c0.0424075,0.0761431 0.0637699,0.160958 0.0637699,0.254128 0.000105754,0.0931696 -0.0380716,0.169841 -0.114638,0.229064 -0.0761431,0.0507621 -0.156728,0.0760374 -0.241437,0.0760374z"/>
   <path id="_244012488" class="fil1" d="M2.94484 9.80491l0 0.00296112 -0.289661 0.186656c0.0424075,0.0677885 0.055098,0.148585 0.0380716,0.241754 -0.0166034,0.084815 -0.0680001,0.148479 -0.152709,0.190464l-0.0123733 0.012902c-0.0507621,0.0225257 -0.105649,0.0338414 -0.164342,0.0338414l0.000105754 0c-0.0289767,0 -0.0593282,-0.00285537 -0.0902085,-0.00835459 -0.0847092,-0.0171322 -0.152498,-0.0678943 -0.203577,-0.152604 -0.0420902,-0.0763546 -0.055098,-0.156939 -0.0381773,-0.241649 0.0254868,-0.0933811 0.0720187,-0.1654 0.139702,-0.216268l0.0132193 0c0.0571074,-0.0380716 0.116647,-0.0571074 0.178936,-0.0571074 0.0206221,0 0.0414557,0.00222084 0.0627123,0.00634526 0.0508678,0.0167092 0.0885164,0.0338414 0.114003,0.0507621 0.0685288,-0.0481182 0.156834,-0.118022 0.26428,-0.210451l0.00137481 0c0.0446283,0.0541462 0.0907372,0.107975 0.138644,0.160747z"/>
   <path id="_244011936" class="fil0" d="M9.99389 5.14453c-0.0329954,-0.0697979 -0.0684231,-0.13875 -0.105649,-0.20675 0.190041,-0.0945444 0.364747,-0.185176 0.525176,-0.272212 -0.0339471,-0.0678943 -0.0424075,-0.148373 -0.025381,-0.241649 0.0341587,-0.084815 0.0973998,-0.148373 0.190887,-0.190569l0 -0.0130078c0.0372255,-0.00666252 0.0734993,-0.0100467 0.109456,-0.0100467 0.054252,0 0.1066,0.00761431 0.157362,0.0230544 0.0934869,0.0166034 0.156939,0.0718072 0.190887,0.165188 0.0342644,0.0849207 0.0383888,0.169313 0.0130078,0.254233 -0.0255926,0.0849207 -0.0765662,0.148479 -0.152815,0.191204l-0.0256983 -0.000105754c-0.0528772,0.0263328 -0.104062,0.0394464 -0.153767,0.0394464 -0.0298227,0 -0.0592224,-0.00465319 -0.0876704,-0.0140653 -0.0507621,-0.0171322 -0.0889394,-0.0382831 -0.11432,-0.0637699 -0.0931696,0.0592224 -0.212461,0.139807 -0.356392,0.241754 -0.0577419,0.0334184 -0.112523,0.065885 -0.165083,0.097294z"/>
   <path id="_244012608" class="fil1" d="M1.53164 4.03791l0.0748741 0c0.0522427,0.00560498 0.0966595,0.0240062 0.13325,0.0553095l0.0250638 0c0.0765662,0.0677885 0.127434,0.140125 0.153132,0.216056 0,0.0509736 -0.00454744,0.0892567 -0.0130078,0.114638 0.0931696,0.0595397 0.224728,0.127117 0.394146,0.203471 0.0650389,0.0369083 0.127963,0.0718072 0.188243,0.104908 -0.0432535,0.0685288 -0.0841805,0.138009 -0.122569,0.208548l0.000105754 -0.000105754c-0.192684,-0.12405 -0.371621,-0.236784 -0.536492,-0.338625 -0.0420902,0.0591167 -0.110196,0.101524 -0.20326,0.126905 -0.0190358,0.0037014 -0.0378601,0.00571074 -0.0563671,0.00571074 -0.0644044,-0.000105754 -0.126165,-0.0231602 -0.185387,-0.0691633l-0.0126905 0c-0.0677885,-0.0593282 -0.110196,-0.131453 -0.127117,-0.216268 -0.025381,-0.0932753 -0.00877761,-0.182215 0.0508678,-0.26703 0.0505506,-0.0682116 0.118551,-0.114743 0.203577,-0.140019 0.0115272,-0.00190358 0.0227372,-0.00338414 0.0336299,-0.00433593z"/>
   <path id="_244011696" class="fil0" d="M7.52791 12.5214c-0.00190358,0 -0.00348989,0 -0.0048647,0l0 -1.15875c0.00549923,0.036168 0.0108927,0.071913 0.0159689,0.107341 0.0196703,-0.00264386 0.0393406,-0.00401867 0.0586937,-0.00401867 0.105331,0 0.204529,0.0394464 0.297381,0.118128 0.110513,0.0847092 0.173966,0.199453 0.190887,0.343596l0.025381 0.0252753c0,0.135789 -0.0380716,0.258781 -0.114003,0.369188 -0.102264,0.118551 -0.229593,0.182215 -0.381773,0.190675 -0.029294,0.00571074 -0.0586937,0.0085661 -0.0876704,0.0085661z"/>
   <path id="_244015608" class="fil2" d="M7.52178 11.3547l0 1.16668c-0.0957077,-0.00126905 -0.191944,-0.0338414 -0.288075,-0.097717 -0.101524,-0.084815 -0.16963,-0.1948 -0.203577,-0.3308l-0.0126905 -0.025381c-0.00835459,-0.152392 0.0339471,-0.28395 0.127646,-0.394146 0.0420902,-0.0594339 0.0801618,-0.101841 0.114003,-0.127434 -0.0246408,-0.111571 -0.0631354,-0.254974 -0.115166,-0.43042 0.111359,-0.0259098 0.220498,-0.0562613 0.328262,-0.0911603 0.0171322,0.113369 0.0339471,0.223565 0.0495988,0.330377zm-6.58437 -4.73029l0.00327839 0c0.134943,0.0174495 0.248205,0.085238 0.341058,0.203154 0.0508678,0.0509736 0.0846035,0.0976113 0.10163,0.140019 0.119502,-0.000105754 0.280778,-0.00264386 0.483403,-0.00772007 0.000105754,0.00243235 0,0.00518196 0,0.00772007 0.000105754,0.11358 0.0037014,0.225574 0.0115272,0.335982 -0.163919,-0.0105754 -0.320753,-0.0208336 -0.469549,-0.0306688 -0.025381,0.126799 -0.0931696,0.224622 -0.20326,0.292305 -0.0946501,0.0874589 -0.201568,0.130924 -0.320964,0.130924 -0.0196703,0 -0.0399751,-0.0011633 -0.0605972,-0.00359565l-0.012902 0.0125848c-0.144037,-0.0252753 -0.263011,-0.0932753 -0.355863,-0.203577 -0.0765662,-0.118445 -0.110408,-0.250215 -0.101947,-0.394252 0.0170265,-0.135471 0.0847092,-0.254233 0.203577,-0.356181 0.0934869,-0.0760374 0.212037,-0.114215 0.355863,-0.114215l0.0247465 -0.012479zm2.77912 5.49838c-0.116753,0 -0.224834,-0.0355335 -0.32382,-0.106177 -0.109985,-0.0761431 -0.17809,-0.190464 -0.203577,-0.343279 -0.0252753,-0.127434 0,-0.254233 0.0765662,-0.381456l0 -0.0255926c0.0935926,-0.119079 0.21172,-0.186339 0.356075,-0.203471 0.0677885,-0.00846035 0.122781,-0.0126905 0.165506,-0.0126905 0.055098,-0.0982458 0.123733,-0.225257 0.205375,-0.381244 0.100255,0.0589052 0.202202,0.113157 0.305947,0.16265 -0.0850265,0.124684 -0.166457,0.244293 -0.244187,0.358507 0.101736,0.0762489 0.157045,0.182109 0.164871,0.318003 0.0256983,0.144037 -0.00391291,0.27549 -0.0889394,0.394252l0.000105754 0.025381c-0.0932753,0.11009 -0.207596,0.173649 -0.343173,0.190992 -0.0237947,0.00274961 -0.0474837,0.00412442 -0.0707497,0.00412442l0 0z"/>
   <path id="_244011984" class="fil0" d="M11.3676 6.70049c-0.144566,-0.00846035 -0.267136,-0.0635584 -0.369506,-0.165294 -0.0503391,-0.0508678 -0.0840747,-0.0978228 -0.101313,-0.139913 -0.136106,0.0141711 -0.314302,0.0376486 -0.535117,0.0701151 -0.0123733,-0.116647 -0.0293997,-0.231602 -0.0508678,-0.344653 0.187608,-0.00645102 0.365699,-0.0123733 0.534906,-0.0177667 0,-0.127646 0.0549923,-0.237524 0.165506,-0.330905 0.078364,-0.0941214 0.184753,-0.140865 0.320647,-0.140865 0.0118445,0 0.023689,0.000317263 0.035745,0.000951789l0.0250638 -0.012902c0.135894,0.00877761 0.254128,0.0636641 0.356392,0.165717 0.101313,0.101313 0.14795,0.224834 0.139807,0.368554 0.00814309,0.135366 -0.0384946,0.262905 -0.139807,0.381667 -0.0938041,0.0847092 -0.212355,0.135577 -0.356392,0.152392l-0.0250638 0.012902z"/>
   <path id="_244013472" class="fil2" d="M4.63289 2.95594l0 0.00645102c-0.107975,0.0398694 -0.214047,0.084392 -0.318321,0.133568l0.000105754 -0.000105754c-0.0511851,-0.175975 -0.0999379,-0.343807 -0.146153,-0.503391 -0.0414557,0.0104697 -0.0819596,0.0156516 -0.121406,0.0156516 -0.0885164,-0.000105754 -0.170899,-0.0265443 -0.247148,-0.0789985 -0.118868,-0.0681058 -0.19903,-0.17386 -0.241754,-0.318109l-0.0125848 -0.0126905c-0.0254868,-0.136 -0.00465319,-0.267347 0.0634526,-0.394358 0.0765662,-0.127222 0.190887,-0.203577 0.343702,-0.228958 0.0344759,-0.012479 0.0695864,-0.0200933 0.105649,-0.0230544l0.0702209 0c0.0662022,0.00539347 0.13452,0.0259098 0.205269,0.0614433 0.118974,0.067577 0.203683,0.169313 0.254445,0.30489l0.0127963 0.0126905c0.0338414,0.152709 0.00877761,0.288392 -0.0763546,0.407154 -0.0250638,0.0594339 -0.0549923,0.105966 -0.0891509,0.139913 0.0488585,0.125107 0.114215,0.284373 0.197232,0.477904z"/>
   <path id="_244011480" class="fil0" d="M7.86009 3.05926c-0.106918,-0.0475895 -0.215845,-0.0902085 -0.326569,-0.128069 0.0911603,-0.168678 0.177667,-0.328156 0.260261,-0.478538 -0.11009,-0.0680001 -0.178196,-0.16963 -0.203577,-0.305419 -0.043042,-0.135366 -0.0258041,-0.266818 0.0504448,-0.393935l0.000105754 -0.0258041c0.0762489,-0.118551 0.182321,-0.195011 0.317898,-0.228747 0.0444168,-0.0105754 0.0879876,-0.0156516 0.130924,-0.0156516 0.096025,0 0.188243,0.0263328 0.27623,0.07921 0.118656,0.0676828 0.199453,0.173754 0.241437,0.318109 0.0339471,0.126905 0.0215739,0.254128 -0.0380716,0.381667l0 0.0251695c-0.0762489,0.127011 -0.186339,0.207702 -0.330377,0.24186 -0.0680001,0.0164977 -0.123204,0.0252753 -0.165506,0.0252753 -0.0583764,0.123944 -0.129761,0.292411 -0.213201,0.504871z"/>
   <path id="_244011912" class="fil0" d="M7.52305 11.0075l0 -8.08006c0.00359565,0.0011633 0.00687403,0.00243235 0.0104697,0.0037014 0.110725,0.0377543 0.219652,0.0805848 0.326569,0.128069 0.461935,0.205375 0.88601,0.500535 1.27265,0.885164 -0.287969,0.203154 -0.594445,0.418153 -0.91964,0.64489l0.394252 0.445014c0.230227,-0.188983 0.516293,-0.429468 0.859148,-0.721245 0.16191,0.199241 0.302563,0.407577 0.421748,0.624691 0.0372255,0.0680001 0.0726532,0.136952 0.105543,0.20675 0.146681,0.30838 0.25233,0.63368 0.317052,0.976218 0.0214681,0.112946 0.0383888,0.228006 0.0508678,0.344653 0.0175552,0.163708 0.0263328,0.331117 0.0263328,0.502227 0,0.232448 -0.0163919,0.458339 -0.0487528,0.677357 -0.394146,-0.123415 -0.818644,-0.260261 -1.27402,-0.410538l-0.11432 0.585245c0.334078,0.0777295 0.764181,0.176821 1.29094,0.29717 -0.166352,0.620038 -0.47526,1.18054 -0.926408,1.68149 -0.0556268,0.0619721 -0.113792,0.123204 -0.173966,0.183378l0.000105754 -0.000105754c-0.481077,0.481394 -1.02074,0.823298 -1.61857,1.02592z"/>
   <path id="_244015944" class="fil3" d="M7.52178 2.92717l0 8.0808 -0.0495988 0.0163919c-0.107658,0.0348989 -0.217008,0.0652504 -0.328262,0.0911603 -0.32308,0.0750856 -0.662234,0.11284 -1.01651,0.11284l0.000105754 -0.000105754c-0.12902,0 -0.25582,-0.0048647 -0.380398,-0.0148056 0.0635584,-0.398588 0.13526,-0.825942 0.215104,-1.28259l-0.610731 -0.0384946c-0.0222084,0.334395 -0.0511851,0.753077 -0.0866128,1.25594 -0.338837,-0.0654619 -0.66107,-0.171005 -0.966278,-0.316734 -0.103745,-0.0495988 -0.205692,-0.103745 -0.305947,-0.16265 -0.31187,-0.183801 -0.605338,-0.412865 -0.87977,-0.687192 -0.0573189,-0.0575304 -0.11284,-0.115801 -0.166352,-0.175023 -0.048647,-0.0537232 -0.0956019,-0.108081 -0.140971,-0.163285 -0.133674,-0.162544 -0.252859,-0.331011 -0.35819,-0.5054 0.300765,-0.156939 0.620144,-0.320647 0.958452,-0.491546l-0.318003 -0.496305c-0.2426,0.143191 -0.53279,0.324666 -0.870993,0.545058 -0.190887,-0.431161 -0.303727,-0.895105 -0.33852,-1.39162 -0.00782582,-0.110408 -0.0115272,-0.222401 -0.0115272,-0.335982 0.000105754,-0.00264386 0,-0.00518196 0,-0.00772007 0.00105754,-0.742078 0.167092,-1.41499 0.497997,-2.01906 0.0383888,-0.0705382 0.07921,-0.139913 0.122569,-0.208548 0.0650389,-0.103851 0.135471,-0.205692 0.211086,-0.305207 0.201885,0.191838 0.412125,0.394358 0.630825,0.607347l0.368871 -0.470607c-0.185705,-0.154084 -0.406414,-0.331328 -0.662022,-0.531839 0.0250638,-0.0264386 0.0508678,-0.0525599 0.0767777,-0.0786812 0.366862,-0.36665 0.767354,-0.652399 1.20169,-0.857351 0.105014,-0.049493 0.211826,-0.0943329 0.320753,-0.134414 0.219335,-0.0806906 0.446495,-0.14224 0.681587,-0.184541 0.00846035,0.292199 0.0157574,0.599627 0.0217854,0.922072l0.597829 -0.0765662c-0.0280249,-0.253599 -0.0638756,-0.555845 -0.107129,-0.906844 0.0460031,-0.00285537 0.0922178,-0.00507621 0.138644,-0.00655677l0.318321 0c0.436237,0.0140653 0.848044,0.0868243 1.23542,0.218065z"/>
   <path id="_244015224" class="fil3" d="M5.37824 13.5803c-0.0419845,0 -0.0849207,-0.00391291 -0.128809,-0.0119502 -0.186022,-0.0338414 -0.330588,-0.131664 -0.432007,-0.292517 -0.101947,-0.152921 -0.140125,-0.318003 -0.114426,-0.496199l0.012479 -0.0250638c0.0341587,-0.186551 0.131558,-0.326887 0.292834,-0.419951 0.0674713,-0.0506563 0.130924,-0.0889394 0.190569,-0.11432 0.0170265,-0.212249 0.0338414,-0.496199 0.0505506,-0.852169 0.00549923,-0.0749798 0.0105754,-0.148268 0.0154401,-0.219863 0.0354277,-0.502968 0.0644044,-0.921543 0.0865071,-1.25583l0.610943 0.0383888c-0.0799503,0.456542 -0.151758,0.884001 -0.21521,1.28259 -0.0580591,0.363901 -0.109456,0.703689 -0.153978,1.01947 0.144355,0.042619 0.262905,0.135789 0.356075,0.279932 0.110408,0.152392 0.148268,0.322128 0.114638,0.50889l-0.0130078 0.024958c-0.0420902,0.169947 -0.139702,0.305207 -0.292199,0.40726 -0.116859,0.0842862 -0.243552,0.126376 -0.380398,0.126376zm-2.29349 -5.42837l0.00412442 0 0.316946 0.494402c-0.338308,0.170899 -0.657686,0.334818 -0.958452,0.491652 -0.400492,0.208971 -0.7682,0.405462 -1.10249,0.589475 0.0515024,0.135366 0.0515024,0.28395 0,0.445014 -0.0758259,0.17809 -0.19903,0.309543 -0.368448,0.394146l-0.0250638 0.0127963c-0.0871416,0.0319378 -0.173966,0.0480125 -0.260473,0.0480125l0 0c-0.0744511,0 -0.148902,-0.0118445 -0.223353,-0.0355335 -0.186656,-0.0674713 -0.322234,-0.185916 -0.406943,-0.355652 -0.0763546,-0.161275 -0.0804791,-0.334924 -0.0123733,-0.521369 0.0590109,-0.169736 0.165188,-0.292622 0.317686,-0.369188l0.0254868 -0.0122675c0.0998321,-0.0500218 0.202625,-0.0749798 0.308168,-0.0749798 0.0738165,0 0.149114,0.0121618 0.225997,0.036591 0.0763546,0.025381 0.140125,0.0637699 0.190675,0.114215 0.186656,-0.118445 0.423758,-0.271048 0.71215,-0.457705 0.135894,-0.0906315 0.265338,-0.176081 0.388436,-0.256349 0.336933,-0.21944 0.62596,-0.400386 0.867926,-0.54326z"/>
   <path id="_244011600" class="fil0" d="M11.9192 8.91869c-0.0659907,0 -0.13103,-0.0101524 -0.195751,-0.030563l-0.025381 0c-0.178302,-0.0676828 -0.309543,-0.186445 -0.39457,-0.356392 -0.0419845,-0.0765662 -0.0674713,-0.148268 -0.0762489,-0.216373 -0.21172,-0.0506563 -0.491652,-0.105543 -0.839161,-0.165188 -0.0495988,-0.0113157 -0.0983516,-0.0223142 -0.146153,-0.0333126 -0.526762,-0.120348 -0.956971,-0.21944 -1.29094,-0.297064l0.114426 -0.58535c0.455273,0.150277 0.879665,0.287123 1.27392,0.410538 0.340106,0.106389 0.657052,0.202837 0.951789,0.289132 0.0674713,-0.135789 0.177879,-0.241543 0.330694,-0.317898 0.0940156,-0.0470607 0.189618,-0.0706439 0.286489,-0.0706439 0.0775179,0 0.155459,0.0150171 0.234457,0.0450514l0.0256983 0c0.160958,0.0678943 0.284056,0.182532 0.369083,0.34349 0.084392,0.177985 0.0931696,0.356075 0.0250638,0.534165 -0.0592224,0.169736 -0.173649,0.296852 -0.343384,0.381773 -0.101524,0.0457916 -0.201462,0.0686346 -0.300025,0.0686346zm-3.3118 -3.88436l-0.394252 -0.44512c0.325195,-0.226632 0.631671,-0.441524 0.91964,-0.644784 0.357978,-0.252647 0.687403,-0.487105 0.988169,-0.703372 -0.0765662,-0.144143 -0.0973998,-0.292622 -0.0638756,-0.445014 0.0342644,-0.195011 0.131558,-0.343384 0.292517,-0.445226l0.0131135 -0.0127963c0.110408,-0.0639814 0.222824,-0.0961307 0.337462,-0.0961307 0.0524542,0 0.10512,0.00676828 0.158314,0.0201991 0.195117,0.0334184 0.343384,0.131241 0.445014,0.292305 0.101736,0.152815 0.131558,0.322128 0.0892567,0.508573 -0.0341587,0.177985 -0.127011,0.322339 -0.279826,0.432535l-0.0123733 0.0125848c-0.113792,0.0717015 -0.231814,0.107764 -0.354066,0.107764 -0.0510794,0 -0.102793,-0.00623951 -0.155142,-0.0187185 -0.0847092,-0.0254868 -0.156728,-0.0465319 -0.21595,-0.0636641 -0.161381,0.127328 -0.373101,0.309649 -0.636218,0.547173 -0.0943329,0.0807963 -0.185493,0.158314 -0.272635,0.232448 -0.342856,0.291776 -0.629027,0.532262 -0.859148,0.721245z"/>
   <path id="_244015344" class="fil3" d="M3.32925 5.03433c-0.2187,-0.212989 -0.429045,-0.415403 -0.630825,-0.607242 -0.384417,-0.365804 -0.738165,-0.69322 -1.06061,-0.982246 -0.118551,0.101418 -0.263011,0.152286 -0.432324,0.152286 -0.194905,-0.00824884 -0.356392,-0.0760374 -0.483192,-0.203366l-0.0260156 -0.0256983c-0.110196,-0.127117 -0.169101,-0.279509 -0.17735,-0.457388 0.00824884,-0.195223 0.0757201,-0.356286 0.203366,-0.483297 0.135471,-0.136106 0.296535,-0.203683 0.483192,-0.203683 0.186339,0 0.339048,0.0593282 0.458022,0.177879l0.0251695 0.0258041c0.127328,0.126905 0.194694,0.288181 0.203577,0.483297 0,0.0842862 -0.0126905,0.156939 -0.0384946,0.215845 0.169736,0.135577 0.398482,0.309649 0.686769,0.52158 0.177667,0.136212 0.34275,0.264174 0.495565,0.383888 0.255714,0.200405 0.476212,0.37786 0.661917,0.531839l-0.368765 0.470501zm2.69494 -4.3998l0 0.0978228c-0.0105754,0.166563 -0.0781525,0.311658 -0.202097,0.435814 -0.0592224,0.0589052 -0.119079,0.10586 -0.17809,0.139807 0.0254868,0.212037 0.0637699,0.492075 0.114638,0.839267 0.0256983,0.201885 0.0492815,0.391291 0.0707497,0.56843 0.0432535,0.350893 0.0789985,0.653245 0.107129,0.906949l-0.597724 0.0764604c-0.00613375,-0.322445 -0.0134308,-0.629767 -0.0218912,-0.922072 -0.0144883,-0.515235 -0.0326781,-0.983621 -0.0544635,-1.40548 -0.152392,-0.0168149 -0.288286,-0.084815 -0.406943,-0.203366 -0.135471,-0.135789 -0.203577,-0.296852 -0.203577,-0.483297l0.000105754 -0.025381c0.00835459,-0.178408 0.0764604,-0.331011 0.203471,-0.458128 0.121935,-0.121935 0.264703,-0.189089 0.427882,-0.201356l0.110831 0c0.163602,0.0122675 0.306053,0.0794215 0.427882,0.201356 0.121194,0.121194 0.188666,0.265443 0.202097,0.43317z"/>
  </g>
 </g>
</svg>
