<?xml version="1.0" encoding="UTF-8"?>
<!DOCTYPE svg PUBLIC "-//W3C//DTD SVG 1.1//EN" "http://www.w3.org/Graphics/SVG/1.1/DTD/svg11.dtd">
<!-- Creator: CorelDRAW -->
<svg xmlns="http://www.w3.org/2000/svg" xml:space="preserve" width="6.0155mm" height="5.6848mm" style="shape-rendering:geometricPrecision; text-rendering:geometricPrecision; image-rendering:optimizeQuality; fill-rule:evenodd; clip-rule:evenodd"
viewBox="0 0 0.700092 0.661605"
 xmlns:xlink="http://www.w3.org/1999/xlink">
 <defs>
  <style type="text/css">
   <![CDATA[
    .fil0 {fill:#ACDDF1}
    .fil1 {fill:#BEE4F4}
    .fil2 {fill:#D8EEF9}
   ]]>
  </style>
 </defs>
 <g id="Layer_x0020_1">
  <metadata id="CorelCorpID_0Corel-Layer"/>
  <g id="_79263032">
   <path id="_244018104" class="fil0" d="M0.473405 0.629449c-0.00295609,0 -0.00581907,-0.000570269 -0.00851912,-0.00169917 -0.00431775,-0.00233927 -0.00732039,-0.00553976 -0.00896137,-0.00958983l-0.000360782 -0.000872861c-0.00129183,-0.00489966 -0.00109399,-0.00939198 0.00062846,-0.0135119l0.00420137 -0.00472509c-0.00212978,-0.00527208 -0.00546993,-0.0121851 -0.00999716,-0.0208788 -0.00245565,-0.00572597 -0.00479491,-0.0110912 -0.00699452,-0.0159792 0.00417809,-0.00167589 0.00819325,-0.00343325 0.0121619,-0.00529535 0.00472509,0.0139425 0.0091243,0.026535 0.0132209,0.0377541 0.0015246,-0.00050044 0.00311902,-0.000768117 0.00476,-0.000768117 0.00249056,-1.16381e-005 0.00508587,0.000605183 0.00782083,0.00173408 0.00393369,0.00215306 0.00675012,0.00576088 0.00844929,0.0108235l0.000605183 0.000256039c0.00050044,0.00452724 -0.000197848,0.00906611 -0.00212978,0.0135934 -0.0018621,0.00448068 -0.00529535,0.00739022 -0.0101834,0.00868205 -0.00160606,0.000302592 -0.00316557,0.000477164 -0.00470181,0.000477164zm-0.282993 -0.509902l0.00577252 0c0.00510914,0.00124528 0.00853076,0.00368929 0.0103347,0.00733203l0.00124528 0.000488802c0.0022578,0.00482983 0.00325868,0.00939198 0.00292117,0.0135584l-0.00292117 0.00526044c0.00325868,0.00479491 0.00821653,0.0107536 0.0148386,0.0178762 0.00239746,0.00313066 0.00472509,0.00608675 0.00692469,0.00892646 -0.00345653,0.00242073 -0.00685487,0.00492293 -0.0101485,0.00755315l0 0c-0.00676176,-0.00992734 -0.0130813,-0.0190167 -0.0189469,-0.0273031 -0.00243237,0.00146641 -0.0054001,0.00223452 -0.00882171,0.00223452 -0.0011289,0 -0.00232763,-9.31051e-005 -0.00359619,-0.000267677 -0.00445741,-0.000907775 -0.00789066,-0.00359619 -0.0103929,-0.00798377l-0.000593545 -0.000279315c-0.00205995,-0.00424792 -0.00263022,-0.00857731 -0.00169917,-0.0130114 0.000675012,-0.00502768 0.00329359,-0.00899628 0.00789066,-0.0118476 0.00224616,-0.00133839 0.00465526,-0.00217633 0.00719237,-0.00253712zm-0.0757759 0.329674c-0.00425956,0 -0.00842602,-0.00132675 -0.0124877,-0.00399188 -0.00375912,-0.00257203 -0.00595873,-0.00635443 -0.00669193,-0.0115218 -0.00050044,-0.00452724 0.000535355,-0.00869369 0.00306083,-0.0124179 0.00317721,-0.00399188 0.0068665,-0.00649408 0.0111959,-0.00758807l0.000593545 0.000256039c0.00123364,-0.000232763 0.00239746,-0.000325868 0.00357291,-0.000325868 0.00329359,0 0.00634279,0.00094269 0.00914758,0.00283971l0.00446905 0.00474836c0.00429447,-0.000907775 0.0100088,-0.00249056 0.0171081,-0.00474836 0.00107071,0.00358455 0.00222289,0.00714582 0.00346817,0.010742 -0.00623804,0.00105907 -0.0121968,0.00209487 -0.0178878,0.00309575 0.000663374,0.00416646 -0.000395697,0.008298 -0.00309575,0.0124645 -0.00256039,0.00374748 -0.00631951,0.00578416 -0.011289,0.00608675l-0.000861223 0.000360782c-0.000104743,0 -0.000209487,0 -0.000302592,0zm0.518421 -0.0991104l-0.00124528 -0.000512078c-0.000488802,0 -0.000989242,4.65526e-005 -0.00145477,4.65526e-005 -0.00429447,0 -0.00786738,-0.00126856 -0.0106838,-0.00375912l-0.00422465 -0.0054001c-0.0057376,0.000965966 -0.0130929,0.00239746 -0.0221474,0.0043643 -0.00345653,0.000465526 -0.00679668,0.000896137 -0.00995061,0.00133839 -0.000174572,-0.00403844 -0.000477164,-0.00810015 -0.000872861,-0.0121269 0.0110912,-0.000698289 0.0214025,-0.00148968 0.0308993,-0.00239746 -0.000232763,-0.00400352 0.000965966,-0.00805359 0.00368929,-0.0121851 0.00339834,-0.00343325 0.00776264,-0.00519061 0.0131162,-0.00529535l0.000279315 -0.00062846c0.00481819,0.00104743 0.00904284,0.00309575 0.0126157,0.00605183 0.00416646,0.00273496 0.00608675,0.00669193 0.00581907,0.0118942 -5.81907e-005,0.00478328 -0.00159443,0.00891482 -0.00455051,0.012511 -0.00296773,0.00356127 -0.00673848,0.00559795 -0.011289,0.00609839z"/>
   <path id="_244017960" class="fil1" d="M0.327684 0.654867c-0.00320049,0 -0.00638934,-0.000558631 -0.00958983,-0.00171081 -0.00665702,-0.0013733 -0.01222,-0.0054001 -0.0165844,-0.012092 -0.00318885,-0.00620313 -0.00422465,-0.0128601 -0.00309575,-0.0201456l-9.31051e-005 -0.00146641c0.00268841,-0.00751824 0.0074135,-0.0129765 0.0142102,-0.0164098 0.0032354,-0.00200176 0.00595873,-0.00325868 0.00813506,-0.00379403 0.00105907,-0.00593545 0.00211814,-0.0136283 0.00318885,-0.0231483 0.00592381,0.000989242 0.0118244,0.001769 0.0177133,0.00230435 -0.00199012,0.00796049 -0.00396861,0.0155835 -0.00586562,0.022869 0.00649408,0.001769 0.0114636,0.00602856 0.0148503,0.0127903 0.00359619,0.00631951 0.00432939,0.013186 0.00219961,0.0204715l0.000698289 0.00173408c-0.00275824,0.00655227 -0.00712254,0.0117196 -0.0130464,0.0154787 -0.00420137,0.00209487 -0.00846093,0.00313066 -0.0127205,0.00313066l0 -1.16381e-005zm0.0301195 -0.605137l0.000640098 0c0.00204831,3.49144e-005 0.00414318,0.000302592 0.00629624,0.000837946 0.00658719,0.000349144 0.0124528,0.00359619 0.0176201,0.00962474 0.00435267,0.00569105 0.00634279,0.0123132 0.00605183,0.0199012l0.000372421 0.000896137c-0.00150132,0.00805359 -0.00550484,0.0140938 -0.0120222,0.0180857l-0.00715746 0.00492293c-0.000209487,0.00708763 -0.000279315,0.0162468 -0.000232763,0.0274078l0 -1.16381e-005c-0.00329359,-0.000174572 -0.00659883,-0.000221125 -0.00989242,-0.000221125 -0.00276988,-1.16381e-005 -0.00556303,5.81907e-005 -0.00832127,0.000162934 0.00110562,-0.00955492 0.00219961,-0.0186443 0.00322377,-0.0272682 -0.00721565,-0.00114054 -0.0127554,-0.00469017 -0.0164796,-0.0105791 -0.0043643,-0.0057376 -0.00606347,-0.0124645 -0.0051557,-0.0203086l-0.000360782 -0.000884499c0.0015246,-0.00705271 0.0052488,-0.0129765 0.0111144,-0.0177016 0.00439922,-0.00317721 0.00913594,-0.00481819 0.0143033,-0.00486474zm-0.208905 0.50726c-0.0025022,0 -0.00496949,-0.000325868 -0.00749496,-0.00105907 -0.00728548,-0.0021065 -0.0129533,-0.00642425 -0.0169451,-0.0129533 -0.00375912,-0.00592381 -0.00469017,-0.0128601 -0.00279315,-0.0207043 0.00136166,-0.00669193 0.00519061,-0.0122899 0.0114519,-0.0168869l0.000523716 -0.00119873c0.00446905,-0.00246729 0.00899628,-0.00368929 0.0135817,-0.00368929 0.00257203,-1.16381e-005 0.00516734,0.000360782 0.00776264,0.0011289 0.00346817,0.000954328 0.00619149,0.00189702 0.00825144,0.00276988 0.0046669,-0.0036311 0.0105674,-0.00836782 0.0177249,-0.0142218 0.0036311,0.00489966 0.00742514,0.00958983 0.011417,0.0141171 -0.00665702,0.00425956 -0.0130114,0.0083911 -0.0191098,0.0123132 0.00336342,0.00576088 0.00382895,0.0119873 0.00145477,0.0187141 -0.00168753,0.00746005 -0.00581907,0.0132209 -0.0123364,0.0172128l-0.00050044 0.00119873c-0.00430611,0.00219961 -0.00862386,0.00325868 -0.0129882,0.00325868zm0.480865 -0.106198c-0.00334015,0 -0.00683159,-0.000535355 -0.0104278,-0.00157115l-0.00148968 9.31051e-005c-0.00679668,-0.00335179 -0.0115916,-0.00851912 -0.0144313,-0.015502 -0.00141985,-0.00350308 -0.00209487,-0.00642425 -0.00205995,-0.00882171 -0.00681995,-0.0021065 -0.0159093,-0.00459707 -0.0272333,-0.00756479 0.00175736,-0.00590054 0.00329359,-0.0117894 0.00458543,-0.0176783 0.00917086,0.00352636 0.0178878,0.00688978 0.0261742,0.0100903 0.00260694,-0.00615658 0.00752988,-0.0103579 0.0147572,-0.0125808 0.00293281,-0.00153623 0.00595873,-0.00226944 0.00907775,-0.00226944 0.00350308,0 0.0071691,0.000931051 0.0109631,0.00280479l0.00146641 -0.000104743c0.00638934,0.00315394 0.0109864,0.00825144 0.0138145,0.015246 0.00282807,0.00698289 0.00256039,0.0138843 -0.000803032,0.0206461 -0.00236254,0.00671521 -0.00719237,0.0119175 -0.0145477,0.0155369 -0.00313066,0.00114054 -0.00642425,0.00167589 -0.00985751,0.00167589l1.16381e-005 0zm-0.528919 -0.165634c-0.00415482,0 -0.0081467,-0.00110562 -0.0120455,-0.00329359l-0.000861223 0.00031423c-0.00642425,-0.00415482 -0.0108002,-0.00984587 -0.0130231,-0.0170732 -0.00126856,-0.00728548 -0.000197848,-0.0143382 0.00316557,-0.0211 0.00356127,-0.00620313 0.00925232,-0.0105558 0.0170848,-0.013058 0.0022578,-0.000663374 0.00458543,-0.000954328 0.00698289,-0.000954328 0.00399188,-1.16381e-005 0.00815834,0.000896137 0.0125226,0.00272333l0.00150132 -0.000104743c0.00619149,0.00359619 0.010323,0.00921741 0.012383,0.016852 0.00143149,0.00349144 0.00212978,0.00645917 0.00205995,0.00882171 0.00577252,0.00242073 0.0136166,0.00562122 0.023509,0.00949672 -6.98289e-005,0.000116381 -0.000104743,0.000256039 -0.000162934,0.000395697 -0.00233927,0.00548157 -0.00443413,0.0109515 -0.00629624,0.0164447 -0.00772773,-0.00386386 -0.0150481,-0.00755315 -0.0220426,-0.0110912 -0.00382895,0.00558631 -0.00908939,0.00892646 -0.0158162,0.00998553 -0.00306083,0.00109399 -0.00601692,0.00164098 -0.00896137,0.00164098zm0.422139 -0.0831778c-0.00418973,-0.00445741 -0.00858895,-0.00875188 -0.0131511,-0.0128485 0.00783247,-0.00626132 0.0152809,-0.0121851 0.0223452,-0.0177831 -0.00393369,-0.00552812 -0.00513242,-0.0118476 -0.00359619,-0.0188654 0.000698289,-0.00743677 0.00418973,-0.0134188 0.010486,-0.0180158l0.000523716 -0.00119873c0.00479491,-0.00330523 0.00992734,-0.00493457 0.0154205,-0.00493457 0.00150132,0 0.00306083,0.000104743 0.00458543,0.000372421 0.00766954,0.00129183 0.0137912,0.00509751 0.0183534,0.0113821 0.0043643,0.00569105 0.00605183,0.0124528 0.0051557,0.0202387 -0.000954328,0.0068665 -0.00415482,0.0127205 -0.00961311,0.0176551l-0.000535355 0.001222c-0.00486474,0.00356127 -0.0101601,0.00537682 -0.0158512,0.00537682 -0.00162934,-1.16381e-005 -0.00332851,-0.000174572 -0.00502768,-0.000477164 -0.00361946,-0.000570269 -0.00645917,-0.00126856 -0.00848421,-0.00211814 -0.00536518,0.00478328 -0.01222,0.0114752 -0.0206112,0.020006l0 -1.16381e-005z"/>
   <path id="_244018008" class="fil2" d="M0.354149 0.131232l0.000256039 0 0.010486 0 0.000290954 0 0.00418973 0.000174572c0.01222,0.000593545 0.0244285,0.0022578 0.0366485,0.00502768 -0.00555139,0.0142684 -0.0114868,0.029235 -0.0177714,0.0449l0.0304337 0.00855403c0.0037824,-0.0128136 0.00823981,-0.0281178 0.0133373,-0.0459707 0.00482983,0.00173408 0.00969457,0.00359619 0.0145593,0.00566778 0.0241026,0.0102067 0.0452025,0.0234043 0.0632533,0.0395464 0.00456215,0.00409663 0.00894973,0.0083911 0.0131511,0.0128601 0.0180857,0.019331 0.032517,0.0422348 0.0433055,0.0687116 -0.0180275,0.00389878 -0.0372188,0.00801868 -0.0575157,0.0123132l0.0099157 0.0295376c0.0149899,-0.00443413 0.0336924,-0.0101834 0.0562006,-0.0172477 0.00372421,0.0129183 0.00626132,0.0258367 0.00758807,0.038755 0.000407335,0.0040268 0.000698289,0.00808851 0.000872861,0.0121269 0.000756479,0.0178645 -0.000768117,0.0357175 -0.00464362,0.0535587 -0.00129183,0.0058889 -0.00282807,0.0117894 -0.00458543,0.0176783 -0.0025022,0.00826308 -0.0054932,0.0165145 -0.00898465,0.0247776 -0.00476,0.0112075 -0.0101601,0.0217982 -0.016177,0.0316907 -0.0164796,-0.013989 -0.0342045,-0.0292699 -0.0531048,-0.0458077l-0.0174572 0.02586c0.0145244,0.0105907 0.0332618,0.0241724 0.0562006,0.0407219 -0.0207043,0.026535 -0.0470414,0.0472858 -0.0790346,0.0622291 -0.00395697,0.0018621 -0.0079954,0.00361946 -0.0121619,0.00529535 -0.0279199,0.0113472 -0.0558514,0.017015 -0.0837946,0.017015 -0.00599364,0 -0.0120106,-0.000267677 -0.0180391,-0.000803032 -0.0058889,-0.000535355 -0.0117894,-0.00130347 -0.0177133,-0.00230435 -0.0171197,-0.002991 -0.0342278,-0.00808851 -0.0513475,-0.0153391 -0.00619149,-0.00264186 -0.0122084,-0.00546993 -0.0180391,-0.00849584 0.0112192,-0.0179111 0.0234043,-0.0370791 0.0365903,-0.0574575l-0.028688 -0.0143266c-0.00789066,0.0156533 -0.0178529,0.0352636 -0.0298053,0.0588308 -0.0150248,-0.0100903 -0.0284436,-0.0217633 -0.0401865,-0.0350192 -0.00399188,-0.00452724 -0.00778592,-0.00921741 -0.011417,-0.0141171 -0.0113239,-0.0152227 -0.0208206,-0.0322958 -0.0284436,-0.0511031 -0.00159443,-0.00396861 -0.00309575,-0.00792558 -0.00444577,-0.0118593 -0.00124528,-0.00360782 -0.00239746,-0.00714582 -0.00346817,-0.010742 -0.00313066,-0.0106023 -0.00546993,-0.0211465 -0.00697125,-0.0317023 0.0177249,-0.00144313 0.0364623,-0.00283971 0.0562704,-0.00416646l-0.00519061 -0.0304221c-0.0146059,0.00192029 -0.0323657,0.00479491 -0.0531747,0.00851912 -0.000395697,-0.0247078 0.00364274,-0.0494039 0.0121269,-0.0740768 0.0018621,-0.00550484 0.00395697,-0.0109515 0.00629624,-0.0164447 5.81907e-005,-0.000139658 9.31051e-005,-0.000267677 0.000162934,-0.000395697 0.0152111,-0.0357757 0.0369511,-0.064871 0.0652551,-0.0872395 0.00330523,-0.00264186 0.00669193,-0.00512078 0.0101485,-0.00755315 0.00529535,-0.00370093 0.0107653,-0.00715746 0.0164563,-0.0104161 0.0057958,0.0133722 0.0118127,0.0274311 0.0180391,0.0421766l0.0273962 -0.0151761c-0.00581907,-0.0112308 -0.0128485,-0.0242772 -0.0211,-0.0391856 0.001769,-0.000779756 0.00352636,-0.00150132 0.00531863,-0.00224616 0.0252082,-0.0101834 0.0503466,-0.0157697 0.0755199,-0.0168055l0.002991 -0.000104743z"/>
   <path id="_244018656" class="fil2" d="M0.20113 0.661594c-0.00658719,0 -0.0128485,-0.00192029 -0.0187723,-0.00581907 -0.00828636,-0.00542337 -0.0132791,-0.0131162 -0.0148852,-0.0229388 -0.00179227,-0.00945017 -0.000232763,-0.0182137 0.00463198,-0.0263022l0.00109399 -0.000965966c0.0054932,-0.008298 0.0130114,-0.0130464 0.022706,-0.0142451 0.00432939,-0.00107071 0.00815834,-0.00162934 0.0115567,-0.00162934 0.0051557,-0.00990406 0.0117429,-0.0232763 0.019843,-0.0400934 0.00179227,-0.00352636 0.00352636,-0.00694797 0.00526044,-0.0102881 0.0119524,-0.0235672 0.021903,-0.0431775 0.0297936,-0.0588308l0.0287113 0.0143149c-0.013186,0.0203784 -0.0253828,0.0395697 -0.036602,0.0574691 -0.0102183,0.0163749 -0.0196452,0.0317605 -0.028269,0.046087 0.00609839,0.00498113 0.00992734,0.0119175 0.0114868,0.0207624 0.00219961,0.00962474 0.000605183,0.0185861 -0.00486474,0.0269074l-0.00111726 0.000965966c-0.00552812,0.00728548 -0.0129998,0.0118593 -0.0224151,0.0136515 -0.00275824,0.00062846 -0.0054932,0.000965966 -0.00815834,0.000965966l0 -1.16381e-005zm0.246484 -0.661594l0.0051557 0c0.00370093,0.000290954 0.00740186,0.00121037 0.0110446,0.0027466 0.0090312,0.00382895 0.0154205,0.0103929 0.0192146,0.0196801 0.003538,0.00876352 0.00366601,0.0175154 0.000430611,0.0263022l-0.000488802 0.00119873c-0.00379403,0.00901956 -0.0103929,0.0153856 -0.019715,0.0191797 -0.00406171,0.00162934 -0.00789066,0.00266513 -0.0114519,0.00309575 -0.00309575,0.0107536 -0.00695961,0.0250336 -0.0115916,0.0428516 -0.0028979,0.0102532 -0.00562122,0.0198779 -0.00819325,0.0288626 -0.00509751,0.0178529 -0.00955492,0.0331687 -0.0133489,0.0459823l1.16381e-005 -1.16381e-005 -0.0304337 -0.00855403c0.0062846,-0.0156649 0.01222,-0.03062 0.0177714,-0.0449 0.00982259,-0.0251733 0.0185163,-0.048147 0.0260694,-0.068956 -0.0070178,-0.00388714 -0.0121502,-0.00995061 -0.0154438,-0.018109 -0.00379403,-0.00933379 -0.00377076,-0.0184814 3.49144e-005,-0.0275009l0.000523716 -0.00119873c0.0040268,-0.00846093 0.0104161,-0.0144197 0.0191797,-0.017946 0.00377076,-0.0015246 0.0075066,-0.00243237 0.0112308,-0.00272333zm0.166367 0.570444c-0.00929888,0 -0.0171546,-0.00275824 -0.0236487,-0.00828636l-0.00123364 -0.00050044c-0.00719237,-0.00692469 -0.0111144,-0.0153507 -0.0117429,-0.0252664 -0.000465526,-0.00457379 -0.000244401,-0.00851912 0.000756479,-0.0119873 -0.00918249,-0.00679668 -0.0215655,-0.0151529 -0.037149,-0.0251384 -0.00216469,-0.00157115 -0.0042712,-0.00306083 -0.00636606,-0.00459707 -0.0229271,-0.0165494 -0.0416878,-0.0301312 -0.0562006,-0.0407102l0.0174572 -0.0258716c0.0189003,0.0165378 0.0366136,0.0318187 0.0531048,0.0458077 0.0142102,0.0120804 0.0275591,0.0232065 0.0400119,0.0333898 0.00602856,-0.00516734 0.0135119,-0.00801868 0.0224383,-0.00858895 0.000837946,-6.98289e-005 0.00166425,-6.98289e-005 0.00246729,-6.98289e-005 0.00889154,0 0.0166076,0.00316557 0.0232065,0.00949672l0.001222 0.000523716c0.00640098,0.00656391 0.00999716,0.0145942 0.0107886,0.0241142 0.000477164,0.010323 -0.00275824,0.0190749 -0.00968293,0.0263022 -0.00633115,0.00694797 -0.0144546,0.0107536 -0.0243703,0.0113937 -0.000360782,-1.16381e-005 -0.000698289,0 -0.00107071,0l1.16381e-005 -1.16381e-005zm-0.577985 -0.146687c-0.00901956,-0.000442249 -0.016852,-0.003538 -0.0236022,-0.00928724 -0.00762298,-0.00706435 -0.0117196,-0.0155136 -0.0123597,-0.0254759 -0.000395697,-0.00932215 0.00296773,-0.0178064 0.0100554,-0.0253944 0.00633115,-0.00697125 0.0139192,-0.0107653 0.0228806,-0.0113239l0.00145477 -0.000104743c0.000837946,-3.49144e-005 0.00169917,-6.98289e-005 0.00253712,-6.98289e-005 0.00889154,0 0.0169219,0.00302592 0.0240328,0.00917086 0.00316557,0.0027466 0.00546993,0.00592381 0.0068665,0.00938034 0.011417,-0.00189702 0.0259996,-0.00438758 0.0437129,-0.00752988 0.00842602,-0.00160606 0.0164098,-0.00304919 0.0239629,-0.00442249 0.020809,-0.00372421 0.0385572,-0.00659883 0.0531747,-0.00851912l0.00520225 0.0304221c-0.0198081,0.00132675 -0.0385572,0.00273496 -0.0562821,0.00416646 -0.0236022,0.00189702 -0.0453306,0.00386386 -0.0652202,0.00590054 -0.000325868,0.00757643 -0.00331687,0.0147688 -0.00908939,0.0215073 -0.00730875,0.0070178 -0.0159326,0.0108467 -0.02586,0.0114868l-0.00146641 9.31051e-005zm0.482692 -0.111202l-0.0099157 -0.0295376c0.0203086,-0.00429447 0.0394766,-0.00841438 0.0575157,-0.0123132 0.02245,-0.00489966 0.0431193,-0.00948509 0.0620662,-0.0137796 -0.000768117,-0.00850748 0.00126856,-0.0161188 0.00602856,-0.0227758 0.00559795,-0.00869369 0.0133489,-0.0138843 0.0232065,-0.0155136l0.000872861 -0.000337506c0.00175736,-0.000232763 0.00344489,-0.000325868 0.00512078,-0.000325868 0.00758807,0 0.0143847,0.0022578 0.0203784,0.00678504 0.00871697,0.00563286 0.0138843,0.0133257 0.0155136,0.0232181 0.001769,0.00943853 -0.000279315,0.0182021 -0.00609839,0.0263255 -0.00529535,0.00791394 -0.0127205,0.0129533 -0.0223336,0.0151878l-0.000896137 0.000325868c-0.00216469,0.000372421 -0.00429447,0.000570269 -0.00640098,0.000570269 -0.00728548,-1.16381e-005 -0.0139541,-0.00223452 -0.0199711,-0.00666866 -0.00357291,-0.00295609 -0.00659883,-0.00544665 -0.0091243,-0.00748333 -0.0103812,0.00286298 -0.024347,0.00732039 -0.0418508,0.0134188 -0.00622641,0.00195521 -0.0121968,0.00385223 -0.0179111,0.00565614 -0.0225082,0.00705271 -0.0412223,0.0128136 -0.0562006,0.0172477zm-0.254666 -0.107804c-0.00622641,-0.0147572 -0.0122433,-0.0288044 -0.0180391,-0.0421766 -0.0110912,-0.0255108 -0.021484,-0.0485543 -0.031132,-0.069084 -0.00325868,0.00102416 -0.00656391,0.00154787 -0.00988078,0.00154787 -0.00464362,0 -0.00933379,-0.000989242 -0.0140938,-0.00302592 -0.00921741,-0.0043643 -0.0156067,-0.0109166 -0.0191797,-0.0196685l-0.000698289 -0.001769c-0.00272333,-0.0083911 -0.00246729,-0.0169801 0.000733203,-0.025697 0.00439922,-0.00926396 0.0109864,-0.0156533 0.0197034,-0.0191797 0.0046669,-0.00189702 0.00926396,-0.00282807 0.0137912,-0.00282807 0.00463198,0 0.00918249,0.000965966 0.0136865,0.00288626 0.00901956,0.00379403 0.0151761,0.0097644 0.0184814,0.0179227l0.000698289 0.00175736c0.00356127,0.00872861 0.00352636,0.0178878 -6.98289e-005,0.0275009 -0.00169917,0.00407335 -0.00380567,0.00729712 -0.00622641,0.00962474 0.0054001,0.00998553 0.0128834,0.0230668 0.0224733,0.0391856 0.0057958,0.0101834 0.0111493,0.0197499 0.016049,0.0286415 0.00826308,0.0149085 0.0152809,0.0279548 0.0211,0.0391856l-0.0273962 0.0151761z"/>
  </g>
 </g>
</svg>
